G75*
%MOIN*%
%OFA0B0*%
%FSLAX24Y24*%
%IPPOS*%
%LPD*%
%AMOC8*
5,1,8,0,0,1.08239X$1,22.5*
%
%ADD10R,0.0572X0.0690*%
%ADD11R,0.0493X0.0454*%
%ADD12R,0.0375X0.0375*%
%ADD13OC8,0.0910*%
%ADD14R,0.0454X0.0493*%
%ADD15R,0.0860X0.0860*%
%ADD16C,0.0860*%
%ADD17R,0.0510X0.0460*%
%ADD18OC8,0.0540*%
%ADD19OC8,0.0800*%
%ADD20C,0.0800*%
%ADD21R,0.0336X0.0651*%
%ADD22R,0.0651X0.0336*%
%ADD23C,0.1360*%
%ADD24R,0.0454X0.0414*%
%ADD25R,0.0454X0.0611*%
%ADD26R,0.0387X0.0308*%
%ADD27R,0.0308X0.0387*%
%ADD28C,0.0820*%
D10*
X021286Y018531D03*
X022073Y018531D03*
D11*
X022014Y017881D03*
X021345Y017881D03*
X016429Y019797D03*
X016429Y020466D03*
X012329Y017966D03*
X012329Y017297D03*
X011579Y017566D03*
X011579Y016897D03*
D12*
X020134Y011131D03*
X020725Y011131D03*
X021384Y020231D03*
X021975Y020231D03*
D13*
X010179Y018631D03*
X009179Y018631D03*
X008179Y018631D03*
X007179Y018631D03*
X006179Y019631D03*
X005179Y019631D03*
X004179Y019631D03*
D14*
X005345Y017631D03*
X006014Y017631D03*
X006014Y016931D03*
X005345Y016931D03*
X005345Y015631D03*
X006014Y015631D03*
X006014Y014931D03*
X005345Y014931D03*
X005345Y013631D03*
X006014Y013631D03*
X006014Y012931D03*
X005345Y012931D03*
X005345Y011631D03*
X006014Y011631D03*
X006014Y010931D03*
X005345Y010931D03*
X013195Y016031D03*
X013864Y016031D03*
X014695Y016031D03*
X015364Y016031D03*
X015364Y018281D03*
X014695Y018281D03*
X013864Y018281D03*
X013195Y018281D03*
X017545Y018431D03*
X018214Y018431D03*
X019695Y018431D03*
X020364Y018431D03*
X021345Y019631D03*
X022014Y019631D03*
X020364Y020631D03*
X019695Y020631D03*
X018164Y020631D03*
X017495Y020631D03*
X014164Y012781D03*
X013495Y012781D03*
X013495Y012056D03*
X014164Y012056D03*
X015345Y011631D03*
X016014Y011631D03*
D15*
X001557Y012553D03*
X001557Y015309D03*
X001557Y018065D03*
X001557Y020820D03*
X001557Y009797D03*
D16*
X001557Y011175D03*
X001557Y013931D03*
X001557Y016687D03*
X001557Y019443D03*
X001557Y008419D03*
D17*
X004579Y010931D03*
X004579Y011631D03*
X003779Y011281D03*
X004579Y012931D03*
X004579Y013631D03*
X003779Y013281D03*
X004579Y014931D03*
X004579Y015631D03*
X003779Y015281D03*
X004579Y016931D03*
X004579Y017631D03*
X003779Y017281D03*
D18*
X003679Y016281D03*
X004679Y016281D03*
X004679Y014281D03*
X003679Y014281D03*
X003679Y012281D03*
X004679Y012281D03*
X004679Y010281D03*
X003679Y010281D03*
D19*
X012179Y020631D03*
X013179Y020631D03*
X013179Y021631D03*
X012179Y021631D03*
X012179Y022631D03*
X013179Y022631D03*
X013179Y023631D03*
X012179Y023631D03*
X016679Y023631D03*
X016679Y022631D03*
X016679Y021631D03*
X017679Y021631D03*
X017679Y022631D03*
X017679Y023631D03*
X017679Y024631D03*
X016679Y024631D03*
X020179Y024631D03*
X021179Y024631D03*
X021179Y023631D03*
X020179Y023631D03*
X020179Y022631D03*
X021179Y022631D03*
X021179Y021631D03*
X020179Y021631D03*
D20*
X019679Y026631D03*
X018679Y026631D03*
X017679Y026631D03*
X016679Y026631D03*
X015679Y026631D03*
X014679Y026631D03*
X014679Y027631D03*
X015679Y027631D03*
X016679Y027631D03*
X017679Y027631D03*
X018679Y027631D03*
X019679Y027631D03*
X020679Y027631D03*
X020679Y026631D03*
X021679Y026631D03*
X021679Y027631D03*
X013179Y027631D03*
X012179Y027631D03*
X012179Y026631D03*
X013179Y026631D03*
X011179Y026631D03*
X010179Y026631D03*
X009179Y026631D03*
X008179Y026631D03*
X007179Y026631D03*
X006179Y026631D03*
X006179Y027631D03*
X007179Y027631D03*
X008179Y027631D03*
X009179Y027631D03*
X010179Y027631D03*
X011179Y027631D03*
X012179Y024631D03*
X013179Y024631D03*
X013179Y019631D03*
X012179Y019631D03*
X008179Y016131D03*
X008179Y015131D03*
X008179Y014131D03*
X008179Y013131D03*
X008179Y012131D03*
X008179Y011131D03*
X006829Y010481D03*
X006779Y012431D03*
X006629Y014331D03*
X009679Y014131D03*
X010679Y014131D03*
X011679Y014131D03*
X011679Y015131D03*
X010679Y015131D03*
X009679Y015131D03*
X009679Y013131D03*
X010679Y013131D03*
X011679Y013131D03*
X011679Y010631D03*
X010679Y010631D03*
X009679Y010631D03*
X009679Y008631D03*
X010679Y008631D03*
X011679Y008631D03*
X012679Y008631D03*
X013679Y008631D03*
X014679Y008631D03*
X016679Y008631D03*
X017679Y008631D03*
X018679Y008631D03*
X019679Y008631D03*
X020679Y008631D03*
X021679Y008631D03*
X021679Y009631D03*
X020679Y009631D03*
X019679Y009631D03*
X018679Y009631D03*
X017679Y009631D03*
X016679Y009631D03*
X014679Y010631D03*
X013679Y010631D03*
X006729Y017181D03*
X005179Y027631D03*
X004179Y027631D03*
D21*
X017284Y016734D03*
X017718Y016734D03*
X018151Y016734D03*
X018584Y016734D03*
X019017Y016734D03*
X019450Y016734D03*
X019883Y016734D03*
X020316Y016734D03*
X020749Y016734D03*
X021182Y016734D03*
X021615Y016734D03*
X022048Y016734D03*
X024489Y016734D03*
X024922Y016734D03*
X024922Y012206D03*
X024489Y012206D03*
X021182Y012206D03*
X020749Y012206D03*
X020316Y012206D03*
X019883Y012206D03*
X019450Y012206D03*
X019017Y012206D03*
X018584Y012206D03*
X018151Y012206D03*
X017718Y012206D03*
X017284Y012206D03*
D22*
X016674Y013171D03*
X016674Y013604D03*
X016674Y014037D03*
X016674Y014470D03*
X016674Y014903D03*
X016674Y015336D03*
X016674Y015769D03*
D23*
X022679Y010631D03*
X002679Y027631D03*
D24*
X003664Y008024D03*
X004294Y008024D03*
X005814Y008024D03*
X006444Y008024D03*
X008264Y008024D03*
X008894Y008024D03*
X008894Y009639D03*
X008264Y009639D03*
X006444Y009639D03*
X005814Y009639D03*
X004294Y009639D03*
X003664Y009639D03*
D25*
X013155Y016698D03*
X013903Y016698D03*
X014655Y016698D03*
X015403Y016698D03*
X015029Y017565D03*
X013529Y017565D03*
X017505Y019098D03*
X018253Y019098D03*
X017879Y019965D03*
X019655Y019098D03*
X020403Y019098D03*
X020029Y019965D03*
D26*
X016429Y019334D03*
X016429Y018429D03*
X012329Y016784D03*
X012329Y015879D03*
D27*
X015227Y012331D03*
X016132Y012331D03*
D28*
X010179Y019631D03*
X009179Y019631D03*
X008179Y019631D03*
X007179Y019631D03*
X007179Y020631D03*
X006179Y020631D03*
X005179Y020631D03*
X004179Y020631D03*
X004179Y021631D03*
X005179Y021631D03*
X006179Y021631D03*
X007179Y021631D03*
X008179Y021631D03*
X009179Y021631D03*
X010179Y021631D03*
X010179Y022631D03*
X009179Y022631D03*
X008179Y022631D03*
X007179Y022631D03*
X006179Y022631D03*
X005179Y022631D03*
X004179Y022631D03*
X003179Y022631D03*
X002179Y022631D03*
X001179Y022631D03*
X001179Y023631D03*
X002179Y023631D03*
X003179Y023631D03*
X004179Y023631D03*
X005179Y023631D03*
X006179Y023631D03*
X007179Y023631D03*
X008179Y023631D03*
X009179Y023631D03*
X010179Y023631D03*
X010179Y024631D03*
X009179Y024631D03*
X008179Y024631D03*
X007179Y024631D03*
X006179Y024631D03*
X005179Y024631D03*
X004179Y024631D03*
X003179Y024631D03*
X002179Y024631D03*
X001179Y024631D03*
X001179Y025631D03*
X002179Y025631D03*
X003179Y025631D03*
X004179Y025631D03*
X005179Y025631D03*
X006179Y025631D03*
X007179Y025631D03*
X008179Y025631D03*
X009179Y025631D03*
X010179Y025631D03*
X010179Y020631D03*
X009179Y020631D03*
X008179Y020631D03*
X001179Y026631D03*
M02*
