%
M48
M72
T01C0.0130
T02C0.0320
T03C0.0394
T04C0.0400
T05C0.0472
T06C0.0520
T07C0.1300
%
T01
X7379Y7981
X7829Y9631
X8079Y10431
X7079Y11881
X5379Y12181
X5679Y10381
X5229Y8931
X2929Y11831
X2879Y13331
X2829Y14431
X2529Y16081
X2429Y17381
X3929Y17831
X4679Y18131
X6529Y17931
X5379Y16181
X6679Y15681
X7629Y14631
X7029Y13781
X5329Y14231
X9479Y16381
X10679Y16081
X11179Y16431
X12679Y15181
X13329Y15281
X14329Y15531
X15329Y14481
X15329Y14031
X15329Y13581
X15329Y12981
X17429Y12781
X17729Y11531
X18279Y11581
X18729Y11581
X19129Y11281
X19379Y11581
X19679Y11131
X20279Y11631
X20129Y10281
X17079Y10931
X16029Y10931
X12929Y11081
X12779Y10531
X12779Y10081
X12179Y11831
X12829Y11931
X11629Y12281
X10179Y12731
X12679Y14131
X16079Y14931
X17379Y14831
X17829Y14781
X18879Y15131
X19479Y14481
X21379Y14831
X20729Y16131
X19479Y16131
X18729Y16131
X17629Y15931
X17718Y17293
X18179Y17281
X19179Y17881
X20279Y17781
X20979Y17331
X21279Y19131
X21679Y19131
X19229Y19131
X19179Y20631
X16979Y20631
X16879Y19831
X16929Y19131
X16629Y17981
X16379Y17231
X14329Y17431
X12904Y17306
X13179Y18781
X14554Y19706
X14879Y22081
X18279Y23881
X19479Y25131
X21179Y25981
X17179Y26231
X14179Y25981
X14179Y24931
X13729Y24931
X12679Y25981
X11929Y26031
X10779Y22131
X21379Y13131
T02
X4679Y12281
X3679Y12281
X3679Y14281
X4679Y14281
X4679Y16281
X3679Y16281
X3679Y10281
X4679Y10281
T03
X2179Y22631
X1179Y22631
T04
X1179Y23631
X2179Y23631
X3179Y23631
X3179Y22631
X4179Y22631
X5179Y22631
X5179Y21631
X4179Y21631
X4179Y20631
X5179Y20631
X6179Y20631
X7179Y20631
X7179Y19631
X8179Y19631
X9179Y19631
X10179Y19631
X10179Y20631
X9179Y20631
X8179Y20631
X8179Y21631
X7179Y21631
X6179Y21631
X6179Y22631
X7179Y22631
X8179Y22631
X9179Y22631
X10179Y22631
X10179Y21631
X9179Y21631
X9179Y23631
X10179Y23631
X10179Y24631
X9179Y24631
X8179Y24631
X7179Y24631
X6179Y24631
X5179Y24631
X4179Y24631
X3179Y24631
X2179Y24631
X1179Y24631
X1179Y25631
X2179Y25631
X3179Y25631
X4179Y25631
X5179Y25631
X6179Y25631
X7179Y25631
X8179Y25631
X9179Y25631
X10179Y25631
X10179Y26631
X9179Y26631
X8179Y26631
X7179Y26631
X6179Y26631
X6179Y27631
X7179Y27631
X8179Y27631
X9179Y27631
X10179Y27631
X11179Y27631
X11179Y26631
X12179Y26631
X13179Y26631
X13179Y27631
X12179Y27631
X14679Y27631
X14679Y26631
X15679Y26631
X16679Y26631
X17679Y26631
X18679Y26631
X19679Y26631
X20679Y26631
X21679Y26631
X21679Y27631
X20679Y27631
X19679Y27631
X18679Y27631
X17679Y27631
X16679Y27631
X15679Y27631
X16679Y24631
X17679Y24631
X17679Y23631
X17679Y22631
X17679Y21631
X16679Y21631
X16679Y22631
X16679Y23631
X13179Y23631
X12179Y23631
X12179Y22631
X13179Y22631
X13179Y21631
X12179Y21631
X12179Y20631
X13179Y20631
X13179Y19631
X12179Y19631
X8179Y16131
X8179Y15131
X8179Y14131
X8179Y13131
X8179Y12131
X8179Y11131
X6829Y10481
X6779Y12431
X6629Y14331
X9679Y14131
X10679Y14131
X11679Y14131
X11679Y15131
X10679Y15131
X9679Y15131
X9679Y13131
X10679Y13131
X11679Y13131
X11679Y10631
X10679Y10631
X9679Y10631
X9679Y8631
X10679Y8631
X11679Y8631
X12679Y8631
X13679Y8631
X14679Y8631
X16679Y8631
X17679Y8631
X18679Y8631
X19679Y8631
X20679Y8631
X21679Y8631
X21679Y9631
X20679Y9631
X19679Y9631
X18679Y9631
X17679Y9631
X16679Y9631
X14679Y10631
X13679Y10631
X6729Y17181
X7179Y23631
X6179Y23631
X5179Y23631
X4179Y23631
X8179Y23631
X12179Y24631
X13179Y24631
X20179Y24631
X21179Y24631
X21179Y23631
X20179Y23631
X20179Y22631
X21179Y22631
X21179Y21631
X20179Y21631
X5179Y27631
X4179Y27631
X1179Y26631
T05
X1557Y20820
X1557Y19443
X1557Y18065
X1557Y16687
X1557Y15309
X1557Y13931
X1557Y12553
X1557Y11175
X1557Y9797
X1557Y8419
T06
X7179Y18631
X8179Y18631
X9179Y18631
X10179Y18631
X6179Y19631
X5179Y19631
X4179Y19631
T07
X2679Y27631
X22679Y10631
M30
