G75*
%MOIN*%
%OFA0B0*%
%FSLAX24Y24*%
%IPPOS*%
%LPD*%
%AMOC8*
5,1,8,0,0,1.08239X$1,22.5*
%
%ADD10R,0.0512X0.0630*%
%ADD11R,0.0433X0.0394*%
%ADD12R,0.0315X0.0315*%
%ADD13R,0.0394X0.0433*%
%ADD14R,0.0450X0.0400*%
%ADD15R,0.0276X0.0591*%
%ADD16R,0.0591X0.0276*%
%ADD17R,0.0394X0.0354*%
%ADD18R,0.0394X0.0551*%
%ADD19R,0.0327X0.0248*%
%ADD20R,0.0248X0.0327*%
D10*
X021286Y018531D03*
X022073Y018531D03*
D11*
X022014Y017881D03*
X021345Y017881D03*
X016429Y019797D03*
X016429Y020466D03*
X012329Y017966D03*
X012329Y017297D03*
X011579Y017566D03*
X011579Y016897D03*
D12*
X020134Y011131D03*
X020725Y011131D03*
X021384Y020231D03*
X021975Y020231D03*
D13*
X022014Y019631D03*
X021345Y019631D03*
X020364Y020631D03*
X019695Y020631D03*
X018164Y020631D03*
X017495Y020631D03*
X017545Y018431D03*
X018214Y018431D03*
X019695Y018431D03*
X020364Y018431D03*
X015364Y018281D03*
X014695Y018281D03*
X013864Y018281D03*
X013195Y018281D03*
X013195Y016031D03*
X013864Y016031D03*
X014695Y016031D03*
X015364Y016031D03*
X014164Y012781D03*
X013495Y012781D03*
X013495Y012056D03*
X014164Y012056D03*
X015345Y011631D03*
X016014Y011631D03*
X006014Y011631D03*
X005345Y011631D03*
X005345Y010931D03*
X006014Y010931D03*
X006014Y012931D03*
X005345Y012931D03*
X005345Y013631D03*
X006014Y013631D03*
X006014Y014931D03*
X005345Y014931D03*
X005345Y015631D03*
X006014Y015631D03*
X006014Y016931D03*
X005345Y016931D03*
X005345Y017631D03*
X006014Y017631D03*
D14*
X004579Y017631D03*
X004579Y016931D03*
X003779Y017281D03*
X004579Y015631D03*
X004579Y014931D03*
X003779Y015281D03*
X004579Y013631D03*
X004579Y012931D03*
X003779Y013281D03*
X004579Y011631D03*
X004579Y010931D03*
X003779Y011281D03*
D15*
X017284Y012206D03*
X017718Y012206D03*
X018151Y012206D03*
X018584Y012206D03*
X019017Y012206D03*
X019450Y012206D03*
X019883Y012206D03*
X020316Y012206D03*
X020749Y012206D03*
X021182Y012206D03*
X024489Y012206D03*
X024922Y012206D03*
X024922Y016734D03*
X024489Y016734D03*
X022048Y016734D03*
X021615Y016734D03*
X021182Y016734D03*
X020749Y016734D03*
X020316Y016734D03*
X019883Y016734D03*
X019450Y016734D03*
X019017Y016734D03*
X018584Y016734D03*
X018151Y016734D03*
X017718Y016734D03*
X017284Y016734D03*
D16*
X016674Y015769D03*
X016674Y015336D03*
X016674Y014903D03*
X016674Y014470D03*
X016674Y014037D03*
X016674Y013604D03*
X016674Y013171D03*
D17*
X003664Y008024D03*
X004294Y008024D03*
X005814Y008024D03*
X006444Y008024D03*
X008264Y008024D03*
X008894Y008024D03*
X008894Y009639D03*
X008264Y009639D03*
X006444Y009639D03*
X005814Y009639D03*
X004294Y009639D03*
X003664Y009639D03*
D18*
X013155Y016698D03*
X013903Y016698D03*
X014655Y016698D03*
X015403Y016698D03*
X015029Y017565D03*
X013529Y017565D03*
X017505Y019098D03*
X018253Y019098D03*
X017879Y019965D03*
X019655Y019098D03*
X020403Y019098D03*
X020029Y019965D03*
D19*
X016429Y019334D03*
X016429Y018429D03*
X012329Y016784D03*
X012329Y015879D03*
D20*
X015227Y012331D03*
X016132Y012331D03*
M02*
