G75*
%MOIN*%
%OFA0B0*%
%FSLAX24Y24*%
%IPPOS*%
%LPD*%
%AMOC8*
5,1,8,0,0,1.08239X$1,22.5*
%
%ADD10R,0.0512X0.0630*%
%ADD11R,0.0433X0.0394*%
%ADD12R,0.0315X0.0315*%
%ADD13OC8,0.0850*%
%ADD14R,0.0394X0.0433*%
%ADD15R,0.0800X0.0800*%
%ADD16C,0.0800*%
%ADD17R,0.0450X0.0400*%
%ADD18OC8,0.0480*%
%ADD19OC8,0.0740*%
%ADD20C,0.0740*%
%ADD21R,0.0276X0.0591*%
%ADD22R,0.0591X0.0276*%
%ADD23R,0.0394X0.0354*%
%ADD24R,0.0394X0.0551*%
%ADD25R,0.0327X0.0248*%
%ADD26R,0.0248X0.0327*%
%ADD27C,0.0100*%
%ADD28C,0.0270*%
%ADD29C,0.0760*%
%ADD30C,0.0080*%
%ADD31C,0.0160*%
D10*
X021286Y018531D03*
X022073Y018531D03*
D11*
X022014Y017881D03*
X021345Y017881D03*
X016429Y019797D03*
X016429Y020466D03*
X012329Y017966D03*
X012329Y017297D03*
X011579Y017566D03*
X011579Y016897D03*
D12*
X020134Y011131D03*
X020725Y011131D03*
X021384Y020231D03*
X021975Y020231D03*
D13*
X010179Y018631D03*
X009179Y018631D03*
X008179Y018631D03*
X007179Y018631D03*
X006179Y019631D03*
X005179Y019631D03*
X004179Y019631D03*
D14*
X005345Y017631D03*
X006014Y017631D03*
X006014Y016931D03*
X005345Y016931D03*
X005345Y015631D03*
X006014Y015631D03*
X006014Y014931D03*
X005345Y014931D03*
X005345Y013631D03*
X006014Y013631D03*
X006014Y012931D03*
X005345Y012931D03*
X005345Y011631D03*
X006014Y011631D03*
X006014Y010931D03*
X005345Y010931D03*
X013195Y016031D03*
X013864Y016031D03*
X014695Y016031D03*
X015364Y016031D03*
X015364Y018281D03*
X014695Y018281D03*
X013864Y018281D03*
X013195Y018281D03*
X017545Y018431D03*
X018214Y018431D03*
X019695Y018431D03*
X020364Y018431D03*
X021345Y019631D03*
X022014Y019631D03*
X020364Y020631D03*
X019695Y020631D03*
X018164Y020631D03*
X017495Y020631D03*
X014164Y012781D03*
X013495Y012781D03*
X013495Y012056D03*
X014164Y012056D03*
X015345Y011631D03*
X016014Y011631D03*
D15*
X001557Y012553D03*
X001557Y015309D03*
X001557Y018065D03*
X001557Y020820D03*
X001557Y009797D03*
D16*
X001557Y011175D03*
X001557Y013931D03*
X001557Y016687D03*
X001557Y019443D03*
X001557Y008419D03*
D17*
X004579Y010931D03*
X004579Y011631D03*
X003779Y011281D03*
X004579Y012931D03*
X004579Y013631D03*
X003779Y013281D03*
X004579Y014931D03*
X004579Y015631D03*
X003779Y015281D03*
X004579Y016931D03*
X004579Y017631D03*
X003779Y017281D03*
D18*
X003679Y016281D03*
X004679Y016281D03*
X004679Y014281D03*
X003679Y014281D03*
X003679Y012281D03*
X004679Y012281D03*
X004679Y010281D03*
X003679Y010281D03*
D19*
X012179Y020631D03*
X013179Y020631D03*
X013179Y021631D03*
X012179Y021631D03*
X012179Y022631D03*
X013179Y022631D03*
X013179Y023631D03*
X012179Y023631D03*
X016679Y023631D03*
X016679Y022631D03*
X016679Y021631D03*
X017679Y021631D03*
X017679Y022631D03*
X017679Y023631D03*
X017679Y024631D03*
X016679Y024631D03*
X020179Y024631D03*
X021179Y024631D03*
X021179Y023631D03*
X020179Y023631D03*
X020179Y022631D03*
X021179Y022631D03*
X021179Y021631D03*
X020179Y021631D03*
D20*
X019679Y026631D03*
X018679Y026631D03*
X017679Y026631D03*
X016679Y026631D03*
X015679Y026631D03*
X014679Y026631D03*
X014679Y027631D03*
X015679Y027631D03*
X016679Y027631D03*
X017679Y027631D03*
X018679Y027631D03*
X019679Y027631D03*
X020679Y027631D03*
X020679Y026631D03*
X021679Y026631D03*
X021679Y027631D03*
X013179Y027631D03*
X012179Y027631D03*
X012179Y026631D03*
X013179Y026631D03*
X011179Y026631D03*
X010179Y026631D03*
X009179Y026631D03*
X008179Y026631D03*
X007179Y026631D03*
X006179Y026631D03*
X006179Y027631D03*
X007179Y027631D03*
X008179Y027631D03*
X009179Y027631D03*
X010179Y027631D03*
X011179Y027631D03*
X012179Y024631D03*
X013179Y024631D03*
X013179Y019631D03*
X012179Y019631D03*
X008179Y016131D03*
X008179Y015131D03*
X008179Y014131D03*
X008179Y013131D03*
X008179Y012131D03*
X008179Y011131D03*
X006829Y010481D03*
X006779Y012431D03*
X006629Y014331D03*
X009679Y014131D03*
X010679Y014131D03*
X011679Y014131D03*
X011679Y015131D03*
X010679Y015131D03*
X009679Y015131D03*
X009679Y013131D03*
X010679Y013131D03*
X011679Y013131D03*
X011679Y010631D03*
X010679Y010631D03*
X009679Y010631D03*
X009679Y008631D03*
X010679Y008631D03*
X011679Y008631D03*
X012679Y008631D03*
X013679Y008631D03*
X014679Y008631D03*
X016679Y008631D03*
X017679Y008631D03*
X018679Y008631D03*
X019679Y008631D03*
X020679Y008631D03*
X021679Y008631D03*
X021679Y009631D03*
X020679Y009631D03*
X019679Y009631D03*
X018679Y009631D03*
X017679Y009631D03*
X016679Y009631D03*
X014679Y010631D03*
X013679Y010631D03*
X006729Y017181D03*
X005179Y027631D03*
X004179Y027631D03*
D21*
X017284Y016734D03*
X017718Y016734D03*
X018151Y016734D03*
X018584Y016734D03*
X019017Y016734D03*
X019450Y016734D03*
X019883Y016734D03*
X020316Y016734D03*
X020749Y016734D03*
X021182Y016734D03*
X021615Y016734D03*
X022048Y016734D03*
X024489Y016734D03*
X024922Y016734D03*
X024922Y012206D03*
X024489Y012206D03*
X021182Y012206D03*
X020749Y012206D03*
X020316Y012206D03*
X019883Y012206D03*
X019450Y012206D03*
X019017Y012206D03*
X018584Y012206D03*
X018151Y012206D03*
X017718Y012206D03*
X017284Y012206D03*
D22*
X016674Y013171D03*
X016674Y013604D03*
X016674Y014037D03*
X016674Y014470D03*
X016674Y014903D03*
X016674Y015336D03*
X016674Y015769D03*
D23*
X008894Y009639D03*
X008264Y009639D03*
X006444Y009639D03*
X005814Y009639D03*
X004294Y009639D03*
X003664Y009639D03*
X003664Y008024D03*
X004294Y008024D03*
X005814Y008024D03*
X006444Y008024D03*
X008264Y008024D03*
X008894Y008024D03*
D24*
X013155Y016698D03*
X013903Y016698D03*
X014655Y016698D03*
X015403Y016698D03*
X015029Y017565D03*
X013529Y017565D03*
X017505Y019098D03*
X018253Y019098D03*
X017879Y019965D03*
X019655Y019098D03*
X020403Y019098D03*
X020029Y019965D03*
D25*
X016429Y019334D03*
X016429Y018429D03*
X012329Y016784D03*
X012329Y015879D03*
D26*
X015227Y012331D03*
X016132Y012331D03*
D27*
X001262Y007831D02*
X000379Y008714D01*
X000379Y027549D01*
X001262Y028431D01*
X002390Y028431D01*
X002198Y028352D01*
X001959Y028113D01*
X001829Y027801D01*
X001829Y027462D01*
X001959Y027150D01*
X002198Y026911D01*
X002510Y026781D01*
X002848Y026781D01*
X003161Y026911D01*
X003400Y027150D01*
X003529Y027462D01*
X003529Y027801D01*
X003400Y028113D01*
X003161Y028352D01*
X002969Y028431D01*
X022097Y028431D01*
X022179Y028349D01*
X022179Y020519D01*
X021763Y020519D01*
X021687Y020443D01*
X021687Y020425D01*
X021681Y020447D01*
X021662Y020481D01*
X021634Y020509D01*
X021599Y020529D01*
X021561Y020539D01*
X021413Y020539D01*
X021413Y020260D01*
X021355Y020260D01*
X021355Y020203D01*
X021077Y020203D01*
X021077Y020054D01*
X021087Y020016D01*
X021107Y019982D01*
X021110Y019978D01*
X021094Y019978D01*
X021018Y019902D01*
X021018Y019361D01*
X021076Y019303D01*
X021055Y019282D01*
X021014Y019184D01*
X021014Y019079D01*
X021055Y018981D01*
X021060Y018976D01*
X020976Y018976D01*
X020900Y018900D01*
X020900Y018163D01*
X020976Y018087D01*
X020998Y018087D01*
X020998Y018051D01*
X020859Y018051D01*
X020759Y017952D01*
X020609Y017802D01*
X020609Y017652D01*
X020146Y017189D01*
X020146Y017159D01*
X020124Y017159D01*
X020099Y017134D01*
X020075Y017159D01*
X019691Y017159D01*
X019666Y017134D01*
X019641Y017159D01*
X019620Y017159D01*
X019620Y017181D01*
X019399Y017402D01*
X019300Y017501D01*
X018600Y017501D01*
X018399Y017702D01*
X018300Y017801D01*
X017550Y017801D01*
X017149Y018202D01*
X017149Y018602D01*
X016885Y018866D01*
X016982Y018866D01*
X017037Y018889D01*
X017179Y018889D01*
X017179Y018769D01*
X017232Y018716D01*
X017218Y018702D01*
X017218Y018161D01*
X017294Y018085D01*
X017795Y018085D01*
X017872Y018161D01*
X017872Y018702D01*
X017818Y018755D01*
X017832Y018769D01*
X017832Y019428D01*
X017756Y019504D01*
X017255Y019504D01*
X017179Y019428D01*
X017179Y019229D01*
X017176Y019229D01*
X017154Y019282D01*
X017079Y019356D01*
X016982Y019396D01*
X016877Y019396D01*
X016779Y019356D01*
X016723Y019300D01*
X016723Y019493D01*
X016776Y019546D01*
X016776Y020048D01*
X016700Y020124D01*
X016159Y020124D01*
X016083Y020048D01*
X016083Y019968D01*
X013653Y022398D01*
X013679Y022424D01*
X013679Y022839D01*
X013386Y023131D01*
X012972Y023131D01*
X012849Y023009D01*
X012849Y023061D01*
X012946Y023158D01*
X012972Y023131D01*
X013386Y023131D01*
X013679Y023424D01*
X013679Y023839D01*
X013386Y024131D01*
X012972Y024131D01*
X012679Y023839D01*
X012386Y024131D01*
X011972Y024131D01*
X011849Y024009D01*
X011849Y024254D01*
X011896Y024208D01*
X012080Y024131D01*
X012279Y024131D01*
X012463Y024208D01*
X012603Y024348D01*
X012679Y024532D01*
X012679Y024731D01*
X012632Y024844D01*
X013750Y025961D01*
X013759Y025971D01*
X013759Y025202D01*
X013754Y025196D01*
X013677Y025196D01*
X013579Y025156D01*
X013505Y025082D01*
X013485Y025033D01*
X013463Y025055D01*
X013279Y025131D01*
X013080Y025131D01*
X012896Y025055D01*
X012755Y024915D01*
X012679Y024731D01*
X012679Y024532D01*
X012755Y024348D01*
X012896Y024208D01*
X013080Y024131D01*
X013279Y024131D01*
X013392Y024178D01*
X015509Y022061D01*
X015509Y021411D01*
X015609Y021311D01*
X016143Y020777D01*
X016083Y020717D01*
X016083Y020215D01*
X016159Y020139D01*
X016700Y020139D01*
X016776Y020215D01*
X016776Y020460D01*
X016829Y020407D01*
X016927Y020366D01*
X017032Y020366D01*
X017129Y020407D01*
X017168Y020445D01*
X017168Y020361D01*
X017244Y020285D01*
X017553Y020285D01*
X017553Y019635D01*
X017629Y019559D01*
X018130Y019559D01*
X018206Y019635D01*
X018206Y019818D01*
X018300Y019911D01*
X018399Y020011D01*
X018399Y020285D01*
X018415Y020285D01*
X018491Y020361D01*
X018491Y020902D01*
X018415Y020978D01*
X018334Y020978D01*
X018334Y021217D01*
X018153Y021398D01*
X018179Y021424D01*
X018179Y021839D01*
X017886Y022131D01*
X017849Y022131D01*
X017849Y022131D01*
X017886Y022131D01*
X018179Y022424D01*
X018179Y022839D01*
X017886Y023131D01*
X017849Y023131D01*
X017849Y023131D01*
X017886Y023131D01*
X018179Y023424D01*
X018179Y023636D01*
X018227Y023616D01*
X018332Y023616D01*
X018429Y023657D01*
X018504Y023731D01*
X018544Y023829D01*
X018544Y023934D01*
X018504Y024032D01*
X018449Y024086D01*
X018449Y025802D01*
X018349Y025902D01*
X018349Y026254D01*
X018396Y026208D01*
X018580Y026131D01*
X018779Y026131D01*
X018963Y026208D01*
X019103Y026348D01*
X019179Y026532D01*
X019179Y026731D01*
X019103Y026915D01*
X018963Y027055D01*
X018779Y027131D01*
X018963Y027208D01*
X019103Y027348D01*
X019179Y027532D01*
X019179Y027731D01*
X019103Y027915D01*
X018963Y028055D01*
X018779Y028131D01*
X018580Y028131D01*
X018396Y028055D01*
X018255Y027915D01*
X018179Y027731D01*
X018103Y027915D01*
X017963Y028055D01*
X017779Y028131D01*
X017580Y028131D01*
X017396Y028055D01*
X017255Y027915D01*
X017179Y027731D01*
X017103Y027915D01*
X016963Y028055D01*
X016779Y028131D01*
X016580Y028131D01*
X016396Y028055D01*
X016255Y027915D01*
X016179Y027731D01*
X016103Y027915D01*
X015963Y028055D01*
X015779Y028131D01*
X015580Y028131D01*
X015467Y028085D01*
X015349Y028202D01*
X015250Y028301D01*
X012859Y028301D01*
X012759Y028202D01*
X012538Y027980D01*
X012463Y028055D01*
X012279Y028131D01*
X012080Y028131D01*
X011896Y028055D01*
X011755Y027915D01*
X011679Y027731D01*
X011603Y027915D01*
X011463Y028055D01*
X011279Y028131D01*
X011080Y028131D01*
X010896Y028055D01*
X010755Y027915D01*
X010679Y027731D01*
X010603Y027915D01*
X010463Y028055D01*
X010279Y028131D01*
X010080Y028131D01*
X009896Y028055D01*
X009755Y027915D01*
X009679Y027731D01*
X009603Y027915D01*
X009463Y028055D01*
X009279Y028131D01*
X009080Y028131D01*
X008896Y028055D01*
X008755Y027915D01*
X008679Y027731D01*
X008603Y027915D01*
X008463Y028055D01*
X008279Y028131D01*
X008080Y028131D01*
X007896Y028055D01*
X007755Y027915D01*
X007687Y027750D01*
X007687Y027753D01*
X007661Y027831D01*
X007624Y027904D01*
X007576Y027970D01*
X007518Y028028D01*
X007452Y028076D01*
X007379Y028113D01*
X007301Y028139D01*
X007229Y028150D01*
X007229Y027682D01*
X007129Y027682D01*
X007129Y028150D01*
X007058Y028139D01*
X006980Y028113D01*
X006907Y028076D01*
X006841Y028028D01*
X006783Y027970D01*
X006735Y027904D01*
X006697Y027831D01*
X006672Y027753D01*
X006672Y027750D01*
X006603Y027915D01*
X006463Y028055D01*
X006279Y028131D01*
X006080Y028131D01*
X005896Y028055D01*
X005755Y027915D01*
X005679Y027731D01*
X005603Y027915D01*
X005463Y028055D01*
X005279Y028131D01*
X005080Y028131D01*
X004896Y028055D01*
X004755Y027915D01*
X004679Y027731D01*
X004603Y027915D01*
X004463Y028055D01*
X004279Y028131D01*
X004080Y028131D01*
X003896Y028055D01*
X003755Y027915D01*
X003679Y027731D01*
X003679Y027532D01*
X003755Y027348D01*
X003896Y027208D01*
X004080Y027131D01*
X004279Y027131D01*
X004463Y027208D01*
X004603Y027348D01*
X004679Y027532D01*
X004679Y027731D01*
X004679Y027532D01*
X004755Y027348D01*
X004896Y027208D01*
X005080Y027131D01*
X005279Y027131D01*
X005463Y027208D01*
X005603Y027348D01*
X005679Y027532D01*
X005679Y027731D01*
X005679Y027532D01*
X005755Y027348D01*
X005896Y027208D01*
X006080Y027131D01*
X005896Y027055D01*
X005755Y026915D01*
X005679Y026731D01*
X005679Y026532D01*
X005755Y026348D01*
X005896Y026208D01*
X006067Y026137D01*
X005890Y026064D01*
X005747Y025920D01*
X005679Y025757D01*
X005612Y025920D01*
X005468Y026064D01*
X005281Y026141D01*
X005078Y026141D01*
X004890Y026064D01*
X004747Y025920D01*
X004679Y025757D01*
X004612Y025920D01*
X004468Y026064D01*
X004281Y026141D01*
X004078Y026141D01*
X003890Y026064D01*
X003747Y025920D01*
X003679Y025757D01*
X003612Y025920D01*
X003468Y026064D01*
X003281Y026141D01*
X003078Y026141D01*
X002890Y026064D01*
X002747Y025920D01*
X002679Y025757D01*
X002612Y025920D01*
X002468Y026064D01*
X002281Y026141D01*
X002078Y026141D01*
X001890Y026064D01*
X001747Y025920D01*
X001679Y025757D01*
X001612Y025920D01*
X001468Y026064D01*
X001305Y026131D01*
X001468Y026199D01*
X001612Y026343D01*
X001689Y026530D01*
X001689Y026733D01*
X001612Y026920D01*
X001468Y027064D01*
X001281Y027141D01*
X001078Y027141D01*
X000890Y027064D01*
X000747Y026920D01*
X000669Y026733D01*
X000669Y026530D01*
X000747Y026343D01*
X000890Y026199D01*
X001054Y026131D01*
X000890Y026064D01*
X000747Y025920D01*
X000669Y025733D01*
X000669Y025530D01*
X000747Y025343D01*
X000890Y025199D01*
X001054Y025131D01*
X000890Y025064D01*
X000747Y024920D01*
X000669Y024733D01*
X000669Y024530D01*
X000747Y024343D01*
X000890Y024199D01*
X001054Y024131D01*
X000890Y024064D01*
X000747Y023920D01*
X000669Y023733D01*
X000669Y023530D01*
X000747Y023343D01*
X000890Y023199D01*
X001054Y023131D01*
X000890Y023064D01*
X000747Y022920D01*
X000669Y022733D01*
X000669Y022530D01*
X000747Y022343D01*
X000890Y022199D01*
X001078Y022121D01*
X001281Y022121D01*
X001468Y022199D01*
X001612Y022343D01*
X001679Y022506D01*
X001747Y022343D01*
X001890Y022199D01*
X002078Y022121D01*
X002281Y022121D01*
X002468Y022199D01*
X002612Y022343D01*
X002679Y022506D01*
X002747Y022343D01*
X002890Y022199D01*
X003078Y022121D01*
X003281Y022121D01*
X003468Y022199D01*
X003612Y022343D01*
X003679Y022506D01*
X003747Y022343D01*
X003890Y022199D01*
X004054Y022131D01*
X003890Y022064D01*
X003747Y021920D01*
X003669Y021733D01*
X003669Y021530D01*
X003747Y021343D01*
X003890Y021199D01*
X004054Y021131D01*
X003890Y021064D01*
X003747Y020920D01*
X003669Y020733D01*
X003669Y020530D01*
X003747Y020343D01*
X003890Y020199D01*
X003921Y020186D01*
X003604Y019870D01*
X003604Y019681D01*
X004129Y019681D01*
X004129Y019581D01*
X004229Y019581D01*
X004229Y019056D01*
X004418Y019056D01*
X004679Y019318D01*
X004941Y019056D01*
X005129Y019056D01*
X005129Y019581D01*
X005229Y019581D01*
X005229Y019056D01*
X005418Y019056D01*
X005694Y019332D01*
X005949Y019076D01*
X006409Y019076D01*
X006726Y019393D01*
X006747Y019343D01*
X006890Y019199D01*
X006941Y019178D01*
X006624Y018861D01*
X006624Y018402D01*
X006949Y018076D01*
X007409Y018076D01*
X007679Y018347D01*
X007949Y018076D01*
X008409Y018076D01*
X008665Y018332D01*
X008941Y018056D01*
X009129Y018056D01*
X009129Y018581D01*
X009229Y018581D01*
X009229Y018056D01*
X009418Y018056D01*
X009679Y018318D01*
X009941Y018056D01*
X010129Y018056D01*
X010129Y018581D01*
X010229Y018581D01*
X010229Y018056D01*
X010314Y018056D01*
X010009Y017751D01*
X007200Y017751D01*
X006850Y018101D01*
X006734Y018101D01*
X006679Y018156D01*
X006582Y018196D01*
X006477Y018196D01*
X006379Y018156D01*
X006305Y018082D01*
X006264Y017984D01*
X006264Y017978D01*
X005763Y017978D01*
X005687Y017902D01*
X005687Y017884D01*
X005681Y017906D01*
X005662Y017940D01*
X005634Y017968D01*
X005599Y017988D01*
X005561Y017998D01*
X005393Y017998D01*
X005393Y017680D01*
X005296Y017680D01*
X005296Y017583D01*
X004998Y017583D01*
X004998Y017395D01*
X005008Y017357D01*
X005028Y017323D01*
X005056Y017295D01*
X005090Y017275D01*
X005091Y017275D01*
X005018Y017202D01*
X005018Y017101D01*
X004934Y017101D01*
X004934Y017185D01*
X004858Y017261D01*
X004301Y017261D01*
X004224Y017185D01*
X004224Y016678D01*
X004301Y016601D01*
X004476Y016601D01*
X004309Y016435D01*
X004309Y016128D01*
X004456Y015981D01*
X004335Y015981D01*
X004296Y015971D01*
X004262Y015952D01*
X004234Y015924D01*
X004215Y015889D01*
X004204Y015851D01*
X004204Y015681D01*
X004529Y015681D01*
X004529Y015581D01*
X004629Y015581D01*
X004629Y015281D01*
X004824Y015281D01*
X004862Y015292D01*
X004896Y015311D01*
X004924Y015339D01*
X004944Y015374D01*
X004954Y015412D01*
X004954Y015581D01*
X004629Y015581D01*
X004629Y015681D01*
X004954Y015681D01*
X004954Y015851D01*
X004944Y015889D01*
X004924Y015924D01*
X004896Y015952D01*
X004881Y015960D01*
X005049Y016128D01*
X005049Y016435D01*
X004870Y016614D01*
X004934Y016678D01*
X004934Y016761D01*
X005018Y016761D01*
X005018Y016661D01*
X005094Y016585D01*
X005595Y016585D01*
X005672Y016661D01*
X005672Y017202D01*
X005599Y017275D01*
X005599Y017275D01*
X005634Y017295D01*
X005662Y017323D01*
X005681Y017357D01*
X005687Y017379D01*
X005687Y017361D01*
X005763Y017285D01*
X005844Y017285D01*
X005844Y017278D01*
X005763Y017278D01*
X005687Y017202D01*
X005687Y016661D01*
X005763Y016585D01*
X006265Y016585D01*
X006341Y016661D01*
X006341Y016746D01*
X006434Y016746D01*
X006446Y016758D01*
X006446Y016758D01*
X006630Y016681D01*
X006759Y016681D01*
X006759Y016002D01*
X006704Y015946D01*
X006627Y015946D01*
X006529Y015906D01*
X006455Y015832D01*
X006414Y015734D01*
X006414Y015629D01*
X006455Y015531D01*
X006529Y015457D01*
X006627Y015416D01*
X006732Y015416D01*
X006829Y015457D01*
X006904Y015531D01*
X006944Y015629D01*
X006944Y015706D01*
X006959Y015721D01*
X006959Y014709D01*
X006913Y014755D01*
X006729Y014831D01*
X006530Y014831D01*
X006346Y014755D01*
X006341Y014750D01*
X006341Y015202D01*
X006265Y015278D01*
X006184Y015278D01*
X006184Y015285D01*
X006265Y015285D01*
X006341Y015361D01*
X006341Y015902D01*
X006265Y015978D01*
X005763Y015978D01*
X005687Y015902D01*
X005687Y015884D01*
X005681Y015906D01*
X005662Y015940D01*
X005634Y015968D01*
X005599Y015988D01*
X005561Y015998D01*
X005393Y015998D01*
X005393Y015680D01*
X005296Y015680D01*
X005296Y015583D01*
X004998Y015583D01*
X004998Y015395D01*
X005008Y015357D01*
X005028Y015323D01*
X005056Y015295D01*
X005090Y015275D01*
X005091Y015275D01*
X005018Y015202D01*
X005018Y015101D01*
X004934Y015101D01*
X004934Y015185D01*
X004858Y015261D01*
X004301Y015261D01*
X004224Y015185D01*
X004224Y014678D01*
X004301Y014601D01*
X004476Y014601D01*
X004309Y014435D01*
X004309Y014128D01*
X004456Y013981D01*
X004335Y013981D01*
X004296Y013971D01*
X004262Y013952D01*
X004234Y013924D01*
X004215Y013889D01*
X004204Y013851D01*
X004204Y013681D01*
X004529Y013681D01*
X004529Y013581D01*
X004629Y013581D01*
X004629Y013281D01*
X004824Y013281D01*
X004862Y013292D01*
X004896Y013311D01*
X004924Y013339D01*
X004944Y013374D01*
X004954Y013412D01*
X004954Y013581D01*
X004629Y013581D01*
X004629Y013681D01*
X004954Y013681D01*
X004954Y013851D01*
X004944Y013889D01*
X004924Y013924D01*
X004896Y013952D01*
X004881Y013960D01*
X005049Y014128D01*
X005049Y014435D01*
X004870Y014614D01*
X004934Y014678D01*
X004934Y014761D01*
X005018Y014761D01*
X005018Y014661D01*
X005094Y014585D01*
X005595Y014585D01*
X005672Y014661D01*
X005672Y015202D01*
X005599Y015275D01*
X005599Y015275D01*
X005634Y015295D01*
X005662Y015323D01*
X005681Y015357D01*
X005687Y015379D01*
X005687Y015361D01*
X005763Y015285D01*
X005844Y015285D01*
X005844Y015278D01*
X005763Y015278D01*
X005687Y015202D01*
X005687Y014661D01*
X005763Y014585D01*
X005844Y014585D01*
X005844Y014376D01*
X005959Y014261D01*
X006059Y014161D01*
X006159Y014161D01*
X006205Y014048D01*
X006346Y013908D01*
X006530Y013831D01*
X006729Y013831D01*
X006770Y013849D01*
X006764Y013834D01*
X006764Y013729D01*
X006805Y013631D01*
X006879Y013557D01*
X006977Y013516D01*
X007082Y013516D01*
X007159Y013549D01*
X007159Y012759D01*
X007063Y012855D01*
X006879Y012931D01*
X006680Y012931D01*
X006496Y012855D01*
X006355Y012715D01*
X006341Y012679D01*
X006341Y013202D01*
X006265Y013278D01*
X006184Y013278D01*
X006184Y013285D01*
X006265Y013285D01*
X006341Y013361D01*
X006341Y013902D01*
X006265Y013978D01*
X005763Y013978D01*
X005687Y013902D01*
X005687Y013884D01*
X005681Y013906D01*
X005662Y013940D01*
X005634Y013968D01*
X005599Y013988D01*
X005561Y013998D01*
X005393Y013998D01*
X005393Y013680D01*
X005296Y013680D01*
X005296Y013583D01*
X004998Y013583D01*
X004998Y013395D01*
X005008Y013357D01*
X005028Y013323D01*
X005056Y013295D01*
X005090Y013275D01*
X005091Y013275D01*
X005018Y013202D01*
X005018Y013101D01*
X004934Y013101D01*
X004934Y013185D01*
X004858Y013261D01*
X004301Y013261D01*
X004224Y013185D01*
X004224Y012678D01*
X004301Y012601D01*
X004476Y012601D01*
X004309Y012435D01*
X004309Y012128D01*
X004456Y011981D01*
X004335Y011981D01*
X004296Y011971D01*
X004262Y011952D01*
X004234Y011924D01*
X004215Y011889D01*
X004204Y011851D01*
X004204Y011681D01*
X004529Y011681D01*
X004529Y011581D01*
X004629Y011581D01*
X004629Y011281D01*
X004824Y011281D01*
X004862Y011292D01*
X004896Y011311D01*
X004924Y011339D01*
X004944Y011374D01*
X004954Y011412D01*
X004954Y011581D01*
X004629Y011581D01*
X004629Y011681D01*
X004954Y011681D01*
X004954Y011851D01*
X004944Y011889D01*
X004924Y011924D01*
X004896Y011952D01*
X004881Y011960D01*
X005049Y012128D01*
X005049Y012435D01*
X004870Y012614D01*
X004934Y012678D01*
X004934Y012761D01*
X005018Y012761D01*
X005018Y012661D01*
X005094Y012585D01*
X005595Y012585D01*
X005672Y012661D01*
X005672Y013202D01*
X005599Y013275D01*
X005599Y013275D01*
X005634Y013295D01*
X005662Y013323D01*
X005681Y013357D01*
X005687Y013379D01*
X005687Y013361D01*
X005763Y013285D01*
X005844Y013285D01*
X005844Y013278D01*
X005763Y013278D01*
X005687Y013202D01*
X005687Y012661D01*
X005763Y012585D01*
X005844Y012585D01*
X005844Y012576D01*
X006059Y012361D01*
X006159Y012261D01*
X006309Y012261D01*
X005049Y012261D01*
X005049Y012163D02*
X006350Y012163D01*
X006355Y012148D02*
X006496Y012008D01*
X006680Y011931D01*
X006814Y011931D01*
X006814Y011829D01*
X006855Y011731D01*
X006929Y011657D01*
X007027Y011616D01*
X007132Y011616D01*
X007229Y011657D01*
X007304Y011731D01*
X007344Y011829D01*
X007344Y011906D01*
X007400Y011961D01*
X007499Y012061D01*
X007499Y014399D01*
X007577Y014366D01*
X007682Y014366D01*
X007724Y014384D01*
X007697Y014331D01*
X007672Y014253D01*
X007661Y014181D01*
X008129Y014181D01*
X008129Y014081D01*
X007661Y014081D01*
X007672Y014010D01*
X007697Y013932D01*
X007735Y013859D01*
X007783Y013793D01*
X007841Y013735D01*
X007907Y013687D01*
X007980Y013650D01*
X008058Y013624D01*
X008061Y013624D01*
X007896Y013555D01*
X007755Y013415D01*
X007679Y013231D01*
X007679Y013032D01*
X007755Y012848D01*
X007896Y012708D01*
X008080Y012631D01*
X007896Y012555D01*
X007755Y012415D01*
X007679Y012231D01*
X007679Y012032D01*
X007755Y011848D01*
X007896Y011708D01*
X008080Y011631D01*
X007896Y011555D01*
X007755Y011415D01*
X007679Y011231D01*
X007679Y011032D01*
X007755Y010848D01*
X007896Y010708D01*
X008080Y010631D01*
X008279Y010631D01*
X008392Y010678D01*
X008819Y010251D01*
X007559Y010251D01*
X007409Y010101D01*
X007156Y010101D01*
X007253Y010198D01*
X007329Y010382D01*
X007329Y010581D01*
X007253Y010765D01*
X007113Y010905D01*
X006929Y010981D01*
X006730Y010981D01*
X006546Y010905D01*
X006405Y010765D01*
X006359Y010651D01*
X006331Y010651D01*
X006341Y010661D01*
X006341Y011202D01*
X006265Y011278D01*
X006184Y011278D01*
X006184Y011285D01*
X006265Y011285D01*
X006341Y011361D01*
X006341Y011902D01*
X006265Y011978D01*
X005763Y011978D01*
X005687Y011902D01*
X005687Y011884D01*
X005681Y011906D01*
X005662Y011940D01*
X005634Y011968D01*
X005599Y011988D01*
X005561Y011998D01*
X005393Y011998D01*
X005393Y011680D01*
X005296Y011680D01*
X005296Y011583D01*
X004998Y011583D01*
X004998Y011395D01*
X005008Y011357D01*
X005028Y011323D01*
X005056Y011295D01*
X005090Y011275D01*
X005091Y011275D01*
X005018Y011202D01*
X005018Y011101D01*
X004934Y011101D01*
X004934Y011185D01*
X004858Y011261D01*
X004301Y011261D01*
X004224Y011185D01*
X004224Y010678D01*
X004301Y010601D01*
X004476Y010601D01*
X004309Y010435D01*
X004309Y010128D01*
X004492Y009946D01*
X004044Y009946D01*
X003990Y009892D01*
X003981Y009908D01*
X003953Y009936D01*
X003919Y009956D01*
X003886Y009965D01*
X004049Y010128D01*
X004049Y010435D01*
X003989Y010495D01*
X003989Y010951D01*
X004058Y010951D01*
X004134Y011028D01*
X004134Y011535D01*
X004058Y011611D01*
X003501Y011611D01*
X003424Y011535D01*
X003424Y011028D01*
X003501Y010951D01*
X003569Y010951D01*
X003569Y010651D01*
X003526Y010651D01*
X003366Y010491D01*
X002842Y010491D01*
X002342Y009991D01*
X002087Y009991D01*
X002087Y010251D01*
X002011Y010327D01*
X001103Y010327D01*
X001027Y010251D01*
X001027Y009343D01*
X001103Y009267D01*
X002011Y009267D01*
X002087Y009343D01*
X002087Y009571D01*
X002516Y009571D01*
X002639Y009695D01*
X003016Y010071D01*
X003366Y010071D01*
X003472Y009966D01*
X003448Y009966D01*
X003410Y009956D01*
X003375Y009936D01*
X003348Y009908D01*
X003328Y009874D01*
X003318Y009835D01*
X003318Y009677D01*
X003626Y009677D01*
X003626Y009600D01*
X003703Y009600D01*
X003703Y009311D01*
X003881Y009311D01*
X003919Y009322D01*
X003953Y009341D01*
X003981Y009369D01*
X003990Y009385D01*
X004044Y009331D01*
X004124Y009331D01*
X004124Y008332D01*
X004044Y008332D01*
X003990Y008278D01*
X003981Y008294D01*
X003953Y008322D01*
X003919Y008341D01*
X003881Y008352D01*
X003703Y008352D01*
X003703Y008063D01*
X003626Y008063D01*
X003626Y008352D01*
X003448Y008352D01*
X003410Y008341D01*
X003375Y008322D01*
X003348Y008294D01*
X003328Y008259D01*
X003318Y008221D01*
X003318Y008063D01*
X003626Y008063D01*
X003626Y007986D01*
X003318Y007986D01*
X003318Y007831D01*
X001262Y007831D01*
X001167Y007927D02*
X001360Y007927D01*
X001452Y007889D02*
X001663Y007889D01*
X001858Y007970D01*
X002007Y008119D01*
X002087Y008313D01*
X002087Y008524D01*
X002007Y008719D01*
X001858Y008868D01*
X001663Y008949D01*
X001452Y008949D01*
X001257Y008868D01*
X001108Y008719D01*
X001027Y008524D01*
X001027Y008313D01*
X001108Y008119D01*
X001257Y007970D01*
X001452Y007889D01*
X001201Y008025D02*
X001068Y008025D01*
X001106Y008124D02*
X000970Y008124D01*
X001065Y008222D02*
X000871Y008222D01*
X000773Y008321D02*
X001027Y008321D01*
X001027Y008419D02*
X000674Y008419D01*
X000576Y008518D02*
X001027Y008518D01*
X001066Y008616D02*
X000477Y008616D01*
X000379Y008715D02*
X001106Y008715D01*
X001202Y008813D02*
X000379Y008813D01*
X000379Y008912D02*
X001363Y008912D01*
X001752Y008912D02*
X004124Y008912D01*
X004124Y009010D02*
X000379Y009010D01*
X000379Y009109D02*
X004124Y009109D01*
X004124Y009208D02*
X000379Y009208D01*
X000379Y009306D02*
X001064Y009306D01*
X001027Y009405D02*
X000379Y009405D01*
X000379Y009503D02*
X001027Y009503D01*
X001027Y009602D02*
X000379Y009602D01*
X000379Y009700D02*
X001027Y009700D01*
X001027Y009799D02*
X000379Y009799D01*
X000379Y009897D02*
X001027Y009897D01*
X001027Y009996D02*
X000379Y009996D01*
X000379Y010094D02*
X001027Y010094D01*
X001027Y010193D02*
X000379Y010193D01*
X000379Y010291D02*
X001068Y010291D01*
X001257Y010725D02*
X001452Y010645D01*
X001663Y010645D01*
X001858Y010725D01*
X002007Y010875D01*
X002087Y011069D01*
X002087Y011280D01*
X002007Y011475D01*
X001858Y011624D01*
X001663Y011705D01*
X001452Y011705D01*
X001257Y011624D01*
X001108Y011475D01*
X001027Y011280D01*
X001027Y011069D01*
X001108Y010875D01*
X001257Y010725D01*
X001199Y010784D02*
X000379Y010784D01*
X000379Y010882D02*
X001105Y010882D01*
X001064Y010981D02*
X000379Y010981D01*
X000379Y011079D02*
X001027Y011079D01*
X001027Y011178D02*
X000379Y011178D01*
X000379Y011276D02*
X001027Y011276D01*
X001066Y011375D02*
X000379Y011375D01*
X000379Y011473D02*
X001107Y011473D01*
X001204Y011572D02*
X000379Y011572D01*
X000379Y011670D02*
X001368Y011670D01*
X001747Y011670D02*
X004529Y011670D01*
X004529Y011581D02*
X004204Y011581D01*
X004204Y011412D01*
X004215Y011374D01*
X004234Y011339D01*
X004262Y011311D01*
X004296Y011292D01*
X004335Y011281D01*
X004529Y011281D01*
X004529Y011581D01*
X004529Y011572D02*
X004629Y011572D01*
X004629Y011670D02*
X005296Y011670D01*
X005296Y011680D02*
X004998Y011680D01*
X004998Y011868D01*
X005008Y011906D01*
X005028Y011940D01*
X005056Y011968D01*
X005090Y011988D01*
X005128Y011998D01*
X005296Y011998D01*
X005296Y011680D01*
X005296Y011769D02*
X005393Y011769D01*
X005393Y011867D02*
X005296Y011867D01*
X005296Y011966D02*
X005393Y011966D01*
X005636Y011966D02*
X005751Y011966D01*
X006061Y012360D02*
X005049Y012360D01*
X005026Y012458D02*
X005962Y012458D01*
X005864Y012557D02*
X004928Y012557D01*
X004912Y012655D02*
X005024Y012655D01*
X005018Y012754D02*
X004934Y012754D01*
X005672Y012754D02*
X005687Y012754D01*
X005687Y012852D02*
X005672Y012852D01*
X005672Y012951D02*
X005687Y012951D01*
X005687Y013049D02*
X005672Y013049D01*
X005672Y013148D02*
X005687Y013148D01*
X005731Y013246D02*
X005627Y013246D01*
X005674Y013345D02*
X005704Y013345D01*
X006297Y013246D02*
X007159Y013246D01*
X007159Y013148D02*
X006341Y013148D01*
X006341Y013049D02*
X007159Y013049D01*
X007159Y012951D02*
X006341Y012951D01*
X006341Y012852D02*
X006493Y012852D01*
X006394Y012754D02*
X006341Y012754D01*
X006309Y012261D02*
X006355Y012148D01*
X006440Y012064D02*
X004985Y012064D01*
X005053Y011966D02*
X004887Y011966D01*
X004950Y011867D02*
X004998Y011867D01*
X004998Y011769D02*
X004954Y011769D01*
X004954Y011572D02*
X004998Y011572D01*
X004998Y011473D02*
X004954Y011473D01*
X004944Y011375D02*
X005003Y011375D01*
X005089Y011276D02*
X004134Y011276D01*
X004134Y011178D02*
X004224Y011178D01*
X004224Y011079D02*
X004134Y011079D01*
X004087Y010981D02*
X004224Y010981D01*
X004224Y010882D02*
X003989Y010882D01*
X003989Y010784D02*
X004224Y010784D01*
X004224Y010685D02*
X003989Y010685D01*
X003989Y010587D02*
X004461Y010587D01*
X004363Y010488D02*
X003996Y010488D01*
X004049Y010390D02*
X004309Y010390D01*
X004309Y010291D02*
X004049Y010291D01*
X004049Y010193D02*
X004309Y010193D01*
X004344Y010094D02*
X004015Y010094D01*
X003917Y009996D02*
X004442Y009996D01*
X004579Y009911D02*
X004833Y009911D01*
X005049Y010128D01*
X005049Y010435D01*
X004870Y010614D01*
X004934Y010678D01*
X004934Y010761D01*
X005018Y010761D01*
X005018Y010661D01*
X005094Y010585D01*
X005595Y010585D01*
X005672Y010661D01*
X005672Y011202D01*
X005599Y011275D01*
X005599Y011275D01*
X005634Y011295D01*
X005662Y011323D01*
X005681Y011357D01*
X005687Y011379D01*
X005687Y011361D01*
X005763Y011285D01*
X005844Y011285D01*
X005844Y011278D01*
X005763Y011278D01*
X005687Y011202D01*
X005687Y010661D01*
X005763Y010585D01*
X005844Y010585D01*
X005844Y010576D01*
X006009Y010411D01*
X006109Y010311D01*
X006359Y010311D01*
X006405Y010198D01*
X006502Y010101D01*
X005309Y010101D01*
X005209Y010002D01*
X005009Y009801D01*
X004621Y009801D01*
X004621Y009870D01*
X004579Y009911D01*
X004594Y009897D02*
X005104Y009897D01*
X005203Y009996D02*
X004917Y009996D01*
X005015Y010094D02*
X005301Y010094D01*
X005049Y010193D02*
X006411Y010193D01*
X006367Y010291D02*
X005049Y010291D01*
X005049Y010390D02*
X006031Y010390D01*
X005932Y010488D02*
X004996Y010488D01*
X005092Y010587D02*
X004898Y010587D01*
X004934Y010685D02*
X005018Y010685D01*
X005597Y010587D02*
X005762Y010587D01*
X005687Y010685D02*
X005672Y010685D01*
X005672Y010784D02*
X005687Y010784D01*
X005687Y010882D02*
X005672Y010882D01*
X005672Y010981D02*
X005687Y010981D01*
X005687Y011079D02*
X005672Y011079D01*
X005672Y011178D02*
X005687Y011178D01*
X005761Y011276D02*
X005601Y011276D01*
X005686Y011375D02*
X005687Y011375D01*
X005018Y011178D02*
X004934Y011178D01*
X004629Y011375D02*
X004529Y011375D01*
X004529Y011473D02*
X004629Y011473D01*
X004204Y011473D02*
X004134Y011473D01*
X004134Y011375D02*
X004214Y011375D01*
X004204Y011572D02*
X004098Y011572D01*
X004204Y011769D02*
X000379Y011769D01*
X000379Y011867D02*
X004209Y011867D01*
X004286Y011966D02*
X003887Y011966D01*
X003833Y011911D02*
X004049Y012128D01*
X004049Y012435D01*
X003989Y012495D01*
X003989Y012951D01*
X004224Y012951D01*
X004224Y013049D02*
X004134Y013049D01*
X004134Y013028D02*
X004134Y013535D01*
X004058Y013611D01*
X003501Y013611D01*
X003424Y013535D01*
X003424Y013028D01*
X003501Y012951D01*
X003569Y012951D01*
X002087Y012951D01*
X002087Y013007D02*
X002011Y013083D01*
X001103Y013083D01*
X001027Y013007D01*
X001027Y012099D01*
X001103Y012023D01*
X002011Y012023D01*
X002087Y012099D01*
X002087Y012371D01*
X002342Y012371D01*
X002642Y012071D01*
X003366Y012071D01*
X003526Y011911D01*
X003833Y011911D01*
X003985Y012064D02*
X004374Y012064D01*
X004309Y012163D02*
X004049Y012163D01*
X004049Y012261D02*
X004309Y012261D01*
X004309Y012360D02*
X004049Y012360D01*
X004026Y012458D02*
X004333Y012458D01*
X004431Y012557D02*
X003989Y012557D01*
X003989Y012655D02*
X004247Y012655D01*
X004224Y012754D02*
X003989Y012754D01*
X003989Y012852D02*
X004224Y012852D01*
X004058Y012951D02*
X004134Y013028D01*
X004058Y012951D02*
X003989Y012951D01*
X004134Y013148D02*
X004224Y013148D01*
X004285Y013246D02*
X004134Y013246D01*
X004134Y013345D02*
X004231Y013345D01*
X004234Y013339D02*
X004262Y013311D01*
X004296Y013292D01*
X004335Y013281D01*
X004529Y013281D01*
X004529Y013581D01*
X004204Y013581D01*
X004204Y013412D01*
X004215Y013374D01*
X004234Y013339D01*
X004204Y013443D02*
X004134Y013443D01*
X004128Y013542D02*
X004204Y013542D01*
X004204Y013739D02*
X002051Y013739D01*
X002087Y013825D02*
X002007Y013630D01*
X001858Y013481D01*
X001663Y013401D01*
X001452Y013401D01*
X001257Y013481D01*
X001108Y013630D01*
X001027Y013825D01*
X001027Y014036D01*
X001108Y014231D01*
X001257Y014380D01*
X001452Y014461D01*
X001663Y014461D01*
X001858Y014380D01*
X002007Y014231D01*
X002087Y014036D01*
X002087Y013825D01*
X002087Y013837D02*
X004204Y013837D01*
X004246Y013936D02*
X003857Y013936D01*
X003833Y013911D02*
X004049Y014128D01*
X004049Y014435D01*
X003833Y014651D01*
X003606Y014651D01*
X003389Y014868D01*
X003389Y015071D01*
X003424Y015071D01*
X003424Y015028D01*
X003501Y014951D01*
X004058Y014951D01*
X004134Y015028D01*
X004134Y015535D01*
X004058Y015611D01*
X003501Y015611D01*
X003424Y015535D01*
X003424Y015491D01*
X002087Y015491D01*
X002087Y015763D01*
X002011Y015839D01*
X001103Y015839D01*
X001027Y015763D01*
X001027Y014855D01*
X001103Y014779D01*
X002011Y014779D01*
X002087Y014855D01*
X002087Y015071D01*
X002969Y015071D01*
X002969Y014695D01*
X003092Y014571D01*
X003309Y014355D01*
X003309Y014128D01*
X003526Y013911D01*
X003833Y013911D01*
X003955Y014034D02*
X004404Y014034D01*
X004309Y014133D02*
X004049Y014133D01*
X004049Y014231D02*
X004309Y014231D01*
X004309Y014330D02*
X004049Y014330D01*
X004049Y014428D02*
X004309Y014428D01*
X004401Y014527D02*
X003958Y014527D01*
X003859Y014625D02*
X004277Y014625D01*
X004224Y014724D02*
X003534Y014724D01*
X003436Y014822D02*
X004224Y014822D01*
X004224Y014921D02*
X003389Y014921D01*
X003389Y015019D02*
X003433Y015019D01*
X003039Y014625D02*
X000379Y014625D01*
X000379Y014527D02*
X003137Y014527D01*
X003236Y014428D02*
X001742Y014428D01*
X001908Y014330D02*
X003309Y014330D01*
X003309Y014231D02*
X002007Y014231D01*
X002047Y014133D02*
X003309Y014133D01*
X003404Y014034D02*
X002087Y014034D01*
X002087Y013936D02*
X003502Y013936D01*
X003431Y013542D02*
X001918Y013542D01*
X002011Y013640D02*
X004529Y013640D01*
X004529Y013542D02*
X004629Y013542D01*
X004629Y013640D02*
X005296Y013640D01*
X005296Y013680D02*
X004998Y013680D01*
X004998Y013868D01*
X005008Y013906D01*
X005028Y013940D01*
X005056Y013968D01*
X005090Y013988D01*
X005128Y013998D01*
X005296Y013998D01*
X005296Y013680D01*
X005296Y013739D02*
X005393Y013739D01*
X005393Y013837D02*
X005296Y013837D01*
X005296Y013936D02*
X005393Y013936D01*
X005664Y013936D02*
X005721Y013936D01*
X005989Y014231D02*
X005049Y014231D01*
X005049Y014133D02*
X006171Y014133D01*
X006220Y014034D02*
X004955Y014034D01*
X004912Y013936D02*
X005025Y013936D01*
X004998Y013837D02*
X004954Y013837D01*
X004954Y013739D02*
X004998Y013739D01*
X004998Y013542D02*
X004954Y013542D01*
X004954Y013443D02*
X004998Y013443D01*
X005015Y013345D02*
X004927Y013345D01*
X004874Y013246D02*
X005062Y013246D01*
X005018Y013148D02*
X004934Y013148D01*
X004629Y013345D02*
X004529Y013345D01*
X004529Y013443D02*
X004629Y013443D01*
X005049Y014330D02*
X005891Y014330D01*
X005844Y014428D02*
X005049Y014428D01*
X004958Y014527D02*
X005844Y014527D01*
X005723Y014625D02*
X005635Y014625D01*
X005672Y014724D02*
X005687Y014724D01*
X005687Y014822D02*
X005672Y014822D01*
X005672Y014921D02*
X005687Y014921D01*
X005687Y015019D02*
X005672Y015019D01*
X005672Y015118D02*
X005687Y015118D01*
X005701Y015216D02*
X005657Y015216D01*
X005653Y015315D02*
X005734Y015315D01*
X005393Y015709D02*
X005296Y015709D01*
X005296Y015680D02*
X005296Y015998D01*
X005128Y015998D01*
X005090Y015988D01*
X005056Y015968D01*
X005028Y015940D01*
X005008Y015906D01*
X004998Y015868D01*
X004998Y015680D01*
X005296Y015680D01*
X005296Y015610D02*
X004629Y015610D01*
X004629Y015512D02*
X004529Y015512D01*
X004529Y015581D02*
X004529Y015281D01*
X004335Y015281D01*
X004296Y015292D01*
X004262Y015311D01*
X004234Y015339D01*
X004215Y015374D01*
X004204Y015412D01*
X004204Y015581D01*
X004529Y015581D01*
X004529Y015610D02*
X004060Y015610D01*
X004134Y015512D02*
X004204Y015512D01*
X004204Y015413D02*
X004134Y015413D01*
X004134Y015315D02*
X004259Y015315D01*
X004255Y015216D02*
X004134Y015216D01*
X004134Y015118D02*
X004224Y015118D01*
X004224Y015019D02*
X004126Y015019D01*
X004529Y015315D02*
X004629Y015315D01*
X004629Y015413D02*
X004529Y015413D01*
X004900Y015315D02*
X005036Y015315D01*
X005032Y015216D02*
X004904Y015216D01*
X004934Y015118D02*
X005018Y015118D01*
X004998Y015413D02*
X004954Y015413D01*
X004954Y015512D02*
X004998Y015512D01*
X004998Y015709D02*
X004954Y015709D01*
X004954Y015807D02*
X004998Y015807D01*
X005008Y015906D02*
X004935Y015906D01*
X004925Y016004D02*
X006759Y016004D01*
X006759Y016103D02*
X005024Y016103D01*
X005049Y016201D02*
X006759Y016201D01*
X006759Y016300D02*
X005049Y016300D01*
X005049Y016398D02*
X006759Y016398D01*
X006759Y016497D02*
X004988Y016497D01*
X005084Y016595D02*
X004889Y016595D01*
X004934Y016694D02*
X005018Y016694D01*
X005018Y017186D02*
X004934Y017186D01*
X004862Y017292D02*
X004896Y017311D01*
X004924Y017339D01*
X004944Y017374D01*
X004954Y017412D01*
X004954Y017581D01*
X004629Y017581D01*
X004629Y017281D01*
X004824Y017281D01*
X004862Y017292D01*
X004835Y017285D02*
X005074Y017285D01*
X005001Y017383D02*
X004947Y017383D01*
X004954Y017482D02*
X004998Y017482D01*
X004998Y017580D02*
X004954Y017580D01*
X004954Y017681D02*
X004954Y017851D01*
X004944Y017889D01*
X004924Y017924D01*
X004896Y017952D01*
X004862Y017971D01*
X004824Y017981D01*
X004629Y017981D01*
X004629Y017681D01*
X004954Y017681D01*
X004998Y017680D02*
X005296Y017680D01*
X005296Y017998D01*
X005128Y017998D01*
X005090Y017988D01*
X005056Y017968D01*
X005028Y017940D01*
X005008Y017906D01*
X004998Y017868D01*
X004998Y017680D01*
X004998Y017777D02*
X004954Y017777D01*
X004948Y017876D02*
X005000Y017876D01*
X005066Y017974D02*
X004852Y017974D01*
X004629Y017974D02*
X004529Y017974D01*
X004529Y017981D02*
X004335Y017981D01*
X004296Y017971D01*
X004262Y017952D01*
X004234Y017924D01*
X004215Y017889D01*
X004204Y017851D01*
X004204Y017681D01*
X004529Y017681D01*
X004529Y017581D01*
X004629Y017581D01*
X004629Y017681D01*
X004529Y017681D01*
X004529Y017981D01*
X004529Y017876D02*
X004629Y017876D01*
X004629Y017777D02*
X004529Y017777D01*
X004529Y017679D02*
X003329Y017679D01*
X003289Y017718D02*
X003166Y017841D01*
X002733Y018275D01*
X002087Y018275D01*
X002087Y018518D01*
X002011Y018595D01*
X001103Y018595D01*
X001027Y018518D01*
X001027Y017611D01*
X001103Y017535D01*
X002011Y017535D01*
X002087Y017611D01*
X002087Y017855D01*
X002559Y017855D01*
X002869Y017545D01*
X002869Y016795D01*
X002992Y016671D01*
X003309Y016355D01*
X003309Y016128D01*
X003526Y015911D01*
X003833Y015911D01*
X004049Y016128D01*
X004049Y016435D01*
X003833Y016651D01*
X003606Y016651D01*
X003289Y016968D01*
X003289Y017125D01*
X003342Y017071D01*
X003424Y017071D01*
X003424Y017028D01*
X003501Y016951D01*
X004058Y016951D01*
X004134Y017028D01*
X004134Y017535D01*
X004058Y017611D01*
X003501Y017611D01*
X003448Y017559D01*
X003289Y017718D01*
X003231Y017777D02*
X004204Y017777D01*
X004211Y017876D02*
X003132Y017876D01*
X003034Y017974D02*
X004307Y017974D01*
X004204Y017581D02*
X004204Y017412D01*
X004215Y017374D01*
X004234Y017339D01*
X004262Y017311D01*
X004296Y017292D01*
X004335Y017281D01*
X004529Y017281D01*
X004529Y017581D01*
X004204Y017581D01*
X004204Y017580D02*
X004090Y017580D01*
X004134Y017482D02*
X004204Y017482D01*
X004212Y017383D02*
X004134Y017383D01*
X004134Y017285D02*
X004323Y017285D01*
X004225Y017186D02*
X004134Y017186D01*
X004134Y017088D02*
X004224Y017088D01*
X004224Y016989D02*
X004096Y016989D01*
X004224Y016891D02*
X003367Y016891D01*
X003289Y016989D02*
X003463Y016989D01*
X003326Y017088D02*
X003289Y017088D01*
X003466Y016792D02*
X004224Y016792D01*
X004224Y016694D02*
X003564Y016694D01*
X003889Y016595D02*
X004470Y016595D01*
X004371Y016497D02*
X003988Y016497D01*
X004049Y016398D02*
X004309Y016398D01*
X004309Y016300D02*
X004049Y016300D01*
X004049Y016201D02*
X004309Y016201D01*
X004335Y016103D02*
X004024Y016103D01*
X003925Y016004D02*
X004434Y016004D01*
X004224Y015906D02*
X000379Y015906D01*
X000379Y016004D02*
X003434Y016004D01*
X003335Y016103D02*
X000379Y016103D01*
X000379Y016201D02*
X001345Y016201D01*
X001257Y016237D02*
X001452Y016157D01*
X001663Y016157D01*
X001858Y016237D01*
X002007Y016386D01*
X002087Y016581D01*
X002087Y016792D01*
X002872Y016792D01*
X002869Y016891D02*
X002047Y016891D01*
X002007Y016987D02*
X002087Y016792D01*
X002087Y016694D02*
X002970Y016694D01*
X003069Y016595D02*
X002087Y016595D01*
X002052Y016497D02*
X003167Y016497D01*
X003266Y016398D02*
X002011Y016398D01*
X001920Y016300D02*
X003309Y016300D01*
X003309Y016201D02*
X001770Y016201D01*
X002043Y015807D02*
X004204Y015807D01*
X004204Y015709D02*
X002087Y015709D01*
X002087Y015610D02*
X003499Y015610D01*
X003424Y015512D02*
X002087Y015512D01*
X002087Y015019D02*
X002969Y015019D01*
X002969Y014921D02*
X002087Y014921D01*
X002055Y014822D02*
X002969Y014822D01*
X002969Y014724D02*
X000379Y014724D01*
X000379Y014822D02*
X001060Y014822D01*
X001027Y014921D02*
X000379Y014921D01*
X000379Y015019D02*
X001027Y015019D01*
X001027Y015118D02*
X000379Y015118D01*
X000379Y015216D02*
X001027Y015216D01*
X001027Y015315D02*
X000379Y015315D01*
X000379Y015413D02*
X001027Y015413D01*
X001027Y015512D02*
X000379Y015512D01*
X000379Y015610D02*
X001027Y015610D01*
X001027Y015709D02*
X000379Y015709D01*
X000379Y015807D02*
X001072Y015807D01*
X001257Y016237D02*
X001108Y016386D01*
X001027Y016581D01*
X001027Y016792D01*
X000379Y016792D01*
X000379Y016694D02*
X001027Y016694D01*
X001027Y016792D02*
X001108Y016987D01*
X001257Y017136D01*
X001452Y017217D01*
X001663Y017217D01*
X001858Y017136D01*
X002007Y016987D01*
X002004Y016989D02*
X002869Y016989D01*
X002869Y017088D02*
X001906Y017088D01*
X001737Y017186D02*
X002869Y017186D01*
X002869Y017285D02*
X000379Y017285D01*
X000379Y017383D02*
X002869Y017383D01*
X002869Y017482D02*
X000379Y017482D01*
X000379Y017580D02*
X001058Y017580D01*
X001027Y017679D02*
X000379Y017679D01*
X000379Y017777D02*
X001027Y017777D01*
X001027Y017876D02*
X000379Y017876D01*
X000379Y017974D02*
X001027Y017974D01*
X001027Y018073D02*
X000379Y018073D01*
X000379Y018171D02*
X001027Y018171D01*
X001027Y018270D02*
X000379Y018270D01*
X000379Y018368D02*
X001027Y018368D01*
X001027Y018467D02*
X000379Y018467D01*
X000379Y018565D02*
X001074Y018565D01*
X001257Y018993D02*
X001452Y018913D01*
X001663Y018913D01*
X001858Y018993D01*
X002007Y019142D01*
X002087Y019337D01*
X002087Y019548D01*
X002007Y019743D01*
X001858Y019892D01*
X001663Y019973D01*
X001452Y019973D01*
X001257Y019892D01*
X001108Y019743D01*
X001027Y019548D01*
X001027Y019337D01*
X001108Y019142D01*
X001257Y018993D01*
X001340Y018959D02*
X000379Y018959D01*
X000379Y018861D02*
X006624Y018861D01*
X006624Y018762D02*
X000379Y018762D01*
X000379Y018664D02*
X006624Y018664D01*
X006624Y018565D02*
X002041Y018565D01*
X002087Y018467D02*
X006624Y018467D01*
X006658Y018368D02*
X002087Y018368D01*
X002087Y017777D02*
X002637Y017777D01*
X002735Y017679D02*
X002087Y017679D01*
X002057Y017580D02*
X002834Y017580D01*
X002935Y018073D02*
X006301Y018073D01*
X006415Y018171D02*
X002837Y018171D01*
X002738Y018270D02*
X006756Y018270D01*
X006855Y018171D02*
X006644Y018171D01*
X006879Y018073D02*
X008925Y018073D01*
X008827Y018171D02*
X008504Y018171D01*
X008602Y018270D02*
X008728Y018270D01*
X009129Y018270D02*
X009229Y018270D01*
X009229Y018368D02*
X009129Y018368D01*
X009129Y018467D02*
X009229Y018467D01*
X009229Y018565D02*
X009129Y018565D01*
X009229Y018581D02*
X009229Y018681D01*
X009604Y018681D01*
X010129Y018681D01*
X010129Y018581D01*
X009229Y018581D01*
X009229Y018664D02*
X010129Y018664D01*
X010129Y018565D02*
X010229Y018565D01*
X010229Y018581D02*
X010229Y018681D01*
X010754Y018681D01*
X010754Y018870D01*
X010438Y019186D01*
X010468Y019199D01*
X010612Y019343D01*
X010689Y019530D01*
X010689Y019733D01*
X010612Y019920D01*
X010468Y020064D01*
X010305Y020131D01*
X010468Y020199D01*
X010612Y020343D01*
X010689Y020530D01*
X010689Y020733D01*
X010612Y020920D01*
X010468Y021064D01*
X010305Y021131D01*
X010468Y021199D01*
X010612Y021343D01*
X010689Y021530D01*
X010689Y021733D01*
X010612Y021920D01*
X010468Y022064D01*
X010305Y022131D01*
X010468Y022199D01*
X010609Y022340D01*
X010609Y022336D01*
X010555Y022282D01*
X010514Y022184D01*
X010514Y022079D01*
X010555Y021981D01*
X010629Y021907D01*
X010727Y021866D01*
X010832Y021866D01*
X010909Y021899D01*
X010909Y018652D01*
X010754Y018497D01*
X010754Y018581D01*
X010229Y018581D01*
X010229Y018664D02*
X010909Y018664D01*
X010909Y018762D02*
X010754Y018762D01*
X010754Y018861D02*
X010909Y018861D01*
X010909Y018959D02*
X010665Y018959D01*
X010567Y019058D02*
X010909Y019058D01*
X010909Y019156D02*
X010468Y019156D01*
X010524Y019255D02*
X010909Y019255D01*
X010909Y019353D02*
X010616Y019353D01*
X010657Y019452D02*
X010909Y019452D01*
X010909Y019550D02*
X010689Y019550D01*
X010689Y019649D02*
X010909Y019649D01*
X010909Y019747D02*
X010684Y019747D01*
X010643Y019846D02*
X010909Y019846D01*
X010909Y019944D02*
X010588Y019944D01*
X010490Y020043D02*
X010909Y020043D01*
X010909Y020141D02*
X010328Y020141D01*
X010509Y020240D02*
X010909Y020240D01*
X010909Y020338D02*
X010607Y020338D01*
X010651Y020437D02*
X010909Y020437D01*
X010909Y020535D02*
X010689Y020535D01*
X010689Y020634D02*
X010909Y020634D01*
X010909Y020732D02*
X010689Y020732D01*
X010649Y020831D02*
X010909Y020831D01*
X010909Y020929D02*
X010603Y020929D01*
X010505Y021028D02*
X010909Y021028D01*
X010909Y021126D02*
X010318Y021126D01*
X010494Y021225D02*
X010909Y021225D01*
X010909Y021323D02*
X010592Y021323D01*
X010644Y021422D02*
X010909Y021422D01*
X010909Y021520D02*
X010685Y021520D01*
X010689Y021619D02*
X010909Y021619D01*
X010909Y021717D02*
X010689Y021717D01*
X010655Y021816D02*
X010909Y021816D01*
X010622Y021914D02*
X010614Y021914D01*
X010542Y022013D02*
X010520Y022013D01*
X010514Y022111D02*
X010354Y022111D01*
X010479Y022210D02*
X010525Y022210D01*
X010577Y022308D02*
X010581Y022308D01*
X011849Y022254D02*
X011972Y022131D01*
X011849Y022009D01*
X011849Y022254D01*
X011849Y022210D02*
X011894Y022210D01*
X011849Y022111D02*
X011952Y022111D01*
X011972Y022131D02*
X012386Y022131D01*
X012679Y021839D01*
X012679Y021424D01*
X012386Y021131D01*
X011972Y021131D01*
X011849Y021009D01*
X011849Y021254D01*
X011972Y021131D01*
X012386Y021131D01*
X012679Y020839D01*
X012679Y020424D01*
X012386Y020131D01*
X011972Y020131D01*
X011849Y020254D01*
X011849Y020009D01*
X011896Y020055D01*
X012080Y020131D01*
X012279Y020131D01*
X012463Y020055D01*
X012603Y019915D01*
X012679Y019731D01*
X012679Y019532D01*
X012603Y019348D01*
X012463Y019208D01*
X012279Y019131D01*
X012080Y019131D01*
X011896Y019208D01*
X011849Y019254D01*
X011849Y018361D01*
X011750Y018261D01*
X011401Y017913D01*
X011531Y017913D01*
X011531Y017615D01*
X011628Y017615D01*
X011628Y017913D01*
X011816Y017913D01*
X011854Y017903D01*
X011888Y017883D01*
X011916Y017855D01*
X011936Y017821D01*
X011946Y017783D01*
X011946Y017615D01*
X011628Y017615D01*
X011628Y017518D01*
X011946Y017518D01*
X011946Y017350D01*
X011936Y017311D01*
X011916Y017277D01*
X011888Y017249D01*
X011854Y017230D01*
X011832Y017224D01*
X011850Y017224D01*
X011926Y017148D01*
X011926Y017067D01*
X011934Y017067D01*
X012038Y016964D01*
X012051Y016978D01*
X011983Y017046D01*
X011983Y017548D01*
X012059Y017624D01*
X012600Y017624D01*
X012676Y017548D01*
X012676Y017447D01*
X012680Y017457D01*
X012754Y017531D01*
X012852Y017571D01*
X012957Y017571D01*
X013054Y017531D01*
X013129Y017457D01*
X013169Y017359D01*
X013169Y017282D01*
X013203Y017249D01*
X013203Y017894D01*
X013243Y017935D01*
X012944Y017935D01*
X012868Y018011D01*
X012868Y018552D01*
X012944Y018628D01*
X012958Y018628D01*
X012955Y018631D01*
X012914Y018729D01*
X012914Y018834D01*
X012955Y018932D01*
X013029Y019006D01*
X013127Y019046D01*
X013232Y019046D01*
X013329Y019006D01*
X013404Y018932D01*
X013444Y018834D01*
X013444Y018729D01*
X013404Y018631D01*
X013401Y018628D01*
X013445Y018628D01*
X013522Y018552D01*
X013522Y018011D01*
X013481Y017970D01*
X013578Y017970D01*
X013537Y018011D01*
X013537Y018552D01*
X013613Y018628D01*
X013709Y018628D01*
X013709Y019861D01*
X013413Y020158D01*
X013386Y020131D01*
X012972Y020131D01*
X012679Y020424D01*
X012679Y020839D01*
X012972Y021131D01*
X013386Y021131D01*
X013679Y020839D01*
X013679Y020424D01*
X013653Y020398D01*
X013950Y020101D01*
X013950Y020101D01*
X014049Y020002D01*
X014049Y018628D01*
X014115Y018628D01*
X014191Y018552D01*
X014191Y018011D01*
X014115Y017935D01*
X014049Y017935D01*
X014049Y017611D01*
X013950Y017511D01*
X013856Y017418D01*
X013856Y017235D01*
X013780Y017159D01*
X013292Y017159D01*
X013325Y017126D01*
X013325Y017104D01*
X013406Y017104D01*
X013482Y017028D01*
X013482Y016369D01*
X013468Y016355D01*
X013522Y016302D01*
X013522Y015761D01*
X013445Y015685D01*
X013166Y015685D01*
X013305Y015546D01*
X013382Y015546D01*
X013479Y015506D01*
X013554Y015432D01*
X013594Y015334D01*
X013594Y015229D01*
X013554Y015131D01*
X013479Y015057D01*
X013382Y015016D01*
X013277Y015016D01*
X013179Y015057D01*
X013105Y015131D01*
X013064Y015229D01*
X013064Y015306D01*
X012641Y015729D01*
X012633Y015697D01*
X012613Y015663D01*
X012585Y015635D01*
X012551Y015615D01*
X012513Y015605D01*
X012341Y015605D01*
X012341Y015867D01*
X012317Y015867D01*
X012016Y015867D01*
X012016Y015735D01*
X012026Y015697D01*
X012046Y015663D01*
X012074Y015635D01*
X012108Y015615D01*
X012146Y015605D01*
X012317Y015605D01*
X012317Y015867D01*
X012317Y015891D01*
X012016Y015891D01*
X012016Y016023D01*
X012026Y016061D01*
X012046Y016095D01*
X012074Y016123D01*
X012108Y016143D01*
X012146Y016153D01*
X012317Y016153D01*
X012317Y015891D01*
X012341Y015891D01*
X012341Y016153D01*
X012513Y016153D01*
X012551Y016143D01*
X012585Y016123D01*
X012609Y016098D01*
X012609Y016511D01*
X012568Y016552D01*
X012547Y016530D01*
X012112Y016530D01*
X012036Y016606D01*
X012036Y016611D01*
X011909Y016611D01*
X011900Y016620D01*
X011850Y016570D01*
X011309Y016570D01*
X011259Y016620D01*
X011250Y016611D01*
X008327Y016611D01*
X008463Y016555D01*
X008603Y016415D01*
X008679Y016231D01*
X008679Y016032D01*
X008603Y015848D01*
X008463Y015708D01*
X008279Y015631D01*
X008080Y015631D01*
X007896Y015555D01*
X007799Y015459D01*
X007799Y015804D01*
X007896Y015708D01*
X008080Y015631D01*
X008279Y015631D01*
X008463Y015555D01*
X008603Y015415D01*
X008634Y015341D01*
X009225Y015341D01*
X009255Y015415D01*
X009396Y015555D01*
X009469Y015586D01*
X009469Y015718D01*
X009919Y016168D01*
X010042Y016291D01*
X010515Y016291D01*
X010529Y016306D01*
X010627Y016346D01*
X010732Y016346D01*
X010829Y016306D01*
X010904Y016232D01*
X010944Y016134D01*
X010944Y016029D01*
X010904Y015931D01*
X010829Y015857D01*
X010732Y015816D01*
X010627Y015816D01*
X010529Y015857D01*
X010515Y015871D01*
X010216Y015871D01*
X009918Y015574D01*
X009963Y015555D01*
X010103Y015415D01*
X010179Y015231D01*
X010179Y015032D01*
X010103Y014848D01*
X009963Y014708D01*
X009779Y014631D01*
X009580Y014631D01*
X009396Y014555D01*
X009255Y014415D01*
X009179Y014231D01*
X009179Y014032D01*
X009255Y013848D01*
X009396Y013708D01*
X009580Y013631D01*
X009396Y013555D01*
X009255Y013415D01*
X009179Y013231D01*
X009179Y013032D01*
X009255Y012848D01*
X009396Y012708D01*
X009469Y012677D01*
X009469Y011086D01*
X009396Y011055D01*
X009255Y010915D01*
X009179Y010731D01*
X009179Y010532D01*
X009233Y010401D01*
X009150Y010401D01*
X008632Y010919D01*
X008679Y011032D01*
X008679Y011231D01*
X008603Y011415D01*
X008463Y011555D01*
X008279Y011631D01*
X008463Y011708D01*
X008603Y011848D01*
X008679Y012032D01*
X008679Y012231D01*
X008603Y012415D01*
X008463Y012555D01*
X008279Y012631D01*
X008080Y012631D01*
X008279Y012631D01*
X008463Y012708D01*
X008603Y012848D01*
X008679Y013032D01*
X008679Y013231D01*
X008603Y013415D01*
X008463Y013555D01*
X008298Y013624D01*
X008301Y013624D01*
X008379Y013650D01*
X008452Y013687D01*
X008518Y013735D01*
X008576Y013793D01*
X008624Y013859D01*
X008661Y013932D01*
X008687Y014010D01*
X008698Y014081D01*
X008229Y014081D01*
X008229Y014181D01*
X008698Y014181D01*
X008687Y014253D01*
X008661Y014331D01*
X008624Y014404D01*
X008576Y014470D01*
X008518Y014528D01*
X008452Y014576D01*
X008379Y014613D01*
X008301Y014639D01*
X008298Y014639D01*
X008463Y014708D01*
X008603Y014848D01*
X008634Y014921D01*
X009225Y014921D01*
X009255Y014848D01*
X009396Y014708D01*
X009580Y014631D01*
X009779Y014631D01*
X009963Y014555D01*
X010103Y014415D01*
X010179Y014231D01*
X010179Y014231D01*
X010179Y014032D01*
X010103Y013848D01*
X009963Y013708D01*
X009779Y013631D01*
X009580Y013631D01*
X009779Y013631D01*
X009963Y013555D01*
X010103Y013415D01*
X010179Y013231D01*
X010179Y013032D01*
X010165Y012996D01*
X010194Y012996D01*
X010179Y013032D01*
X010179Y013231D01*
X010255Y013415D01*
X010396Y013555D01*
X010580Y013631D01*
X010779Y013631D01*
X010963Y013555D01*
X011103Y013415D01*
X011172Y013250D01*
X011172Y013253D01*
X011197Y013331D01*
X011235Y013404D01*
X011276Y013461D01*
X011109Y013461D01*
X011009Y013561D01*
X010892Y013678D01*
X010779Y013631D01*
X010580Y013631D01*
X010396Y013708D01*
X010255Y013848D01*
X010179Y014032D01*
X010179Y014231D01*
X010255Y014415D01*
X010396Y014555D01*
X010580Y014631D01*
X010779Y014631D01*
X010963Y014555D01*
X011103Y014415D01*
X011172Y014250D01*
X011172Y014253D01*
X011197Y014331D01*
X011235Y014404D01*
X011276Y014461D01*
X011109Y014461D01*
X011009Y014561D01*
X010892Y014678D01*
X010779Y014631D01*
X010580Y014631D01*
X010396Y014708D01*
X010255Y014848D01*
X010179Y015032D01*
X010179Y015231D01*
X010255Y015415D01*
X010396Y015555D01*
X010580Y015631D01*
X010779Y015631D01*
X010963Y015555D01*
X011103Y015415D01*
X011172Y015250D01*
X011172Y015253D01*
X011197Y015331D01*
X011235Y015404D01*
X011283Y015470D01*
X011341Y015528D01*
X011407Y015576D01*
X011480Y015613D01*
X011558Y015639D01*
X011629Y015650D01*
X011629Y015182D01*
X011729Y015182D01*
X011729Y015650D01*
X011801Y015639D01*
X011879Y015613D01*
X011952Y015576D01*
X012018Y015528D01*
X012076Y015470D01*
X012124Y015404D01*
X012161Y015331D01*
X012187Y015253D01*
X012198Y015181D01*
X011729Y015181D01*
X011729Y015081D01*
X012198Y015081D01*
X012187Y015010D01*
X012161Y014932D01*
X012124Y014859D01*
X012082Y014801D01*
X015250Y014801D01*
X015305Y014746D01*
X015382Y014746D01*
X015479Y014706D01*
X015546Y014640D01*
X016249Y014640D01*
X016249Y014662D01*
X016274Y014687D01*
X016249Y014712D01*
X016249Y014726D01*
X016229Y014707D01*
X016132Y014666D01*
X016027Y014666D01*
X015929Y014707D01*
X015855Y014781D01*
X015814Y014879D01*
X015814Y014984D01*
X015855Y015082D01*
X015909Y015136D01*
X015909Y015302D01*
X016009Y015401D01*
X016114Y015506D01*
X016249Y015506D01*
X016249Y015528D01*
X016274Y015553D01*
X016249Y015578D01*
X016249Y015961D01*
X016325Y016037D01*
X017023Y016037D01*
X017100Y015961D01*
X017100Y015939D01*
X017362Y015939D01*
X017500Y015801D01*
X017599Y015702D01*
X017599Y015252D01*
X017805Y015046D01*
X017882Y015046D01*
X017979Y015006D01*
X018054Y014932D01*
X018094Y014834D01*
X018094Y014729D01*
X018054Y014631D01*
X017979Y014557D01*
X017882Y014516D01*
X017777Y014516D01*
X017679Y014557D01*
X017605Y014631D01*
X017590Y014667D01*
X017529Y014607D01*
X017432Y014566D01*
X017327Y014566D01*
X017229Y014607D01*
X017155Y014681D01*
X017133Y014733D01*
X017100Y014733D01*
X017100Y014712D01*
X017075Y014687D01*
X017100Y014662D01*
X017100Y014278D01*
X017075Y014254D01*
X017100Y014229D01*
X017100Y013845D01*
X017075Y013820D01*
X017100Y013796D01*
X017100Y013412D01*
X017075Y013387D01*
X017100Y013363D01*
X017100Y012979D01*
X017023Y012903D01*
X016325Y012903D01*
X016302Y012926D01*
X016302Y012625D01*
X016310Y012625D01*
X016386Y012549D01*
X016386Y012114D01*
X016310Y012038D01*
X016299Y012038D01*
X016299Y011961D01*
X016291Y011952D01*
X016341Y011902D01*
X016341Y011361D01*
X016265Y011285D01*
X016199Y011285D01*
X016199Y011136D01*
X016254Y011082D01*
X016294Y010984D01*
X016294Y010879D01*
X016254Y010781D01*
X016199Y010727D01*
X016199Y010161D01*
X016100Y010061D01*
X016100Y010061D01*
X015650Y009611D01*
X009940Y009611D01*
X010467Y009085D01*
X010580Y009131D01*
X010779Y009131D01*
X010963Y009055D01*
X011103Y008915D01*
X011179Y008731D01*
X011179Y008532D01*
X011103Y008348D01*
X010963Y008208D01*
X010779Y008131D01*
X010580Y008131D01*
X010396Y008208D01*
X010255Y008348D01*
X010179Y008532D01*
X010103Y008348D01*
X009963Y008208D01*
X009779Y008131D01*
X009580Y008131D01*
X009396Y008208D01*
X009255Y008348D01*
X009179Y008532D01*
X009179Y008731D01*
X009255Y008915D01*
X009396Y009055D01*
X009580Y009131D01*
X009779Y009131D01*
X009963Y009055D01*
X010103Y008915D01*
X010179Y008731D01*
X010179Y008532D01*
X010179Y008731D01*
X010226Y008844D01*
X009602Y009469D01*
X009221Y009469D01*
X009221Y009408D01*
X009145Y009331D01*
X009064Y009331D01*
X009064Y008332D01*
X009145Y008332D01*
X009221Y008255D01*
X009221Y007831D01*
X022179Y007831D01*
X022179Y009929D01*
X021959Y010150D01*
X021829Y010462D01*
X021829Y010801D01*
X021959Y011113D01*
X022179Y011334D01*
X022179Y016289D01*
X022067Y016289D01*
X022067Y016715D01*
X022029Y016715D01*
X021883Y016715D01*
X021883Y016753D01*
X022029Y016753D01*
X022029Y016715D01*
X022029Y016289D01*
X021891Y016289D01*
X021853Y016299D01*
X021818Y016319D01*
X021818Y016319D01*
X021807Y016309D01*
X021424Y016309D01*
X021399Y016333D01*
X021374Y016309D01*
X021349Y016309D01*
X021349Y015711D01*
X021250Y015611D01*
X020600Y014961D01*
X019084Y014961D01*
X019029Y014907D01*
X018932Y014866D01*
X018827Y014866D01*
X018729Y014907D01*
X018655Y014981D01*
X018614Y015079D01*
X018614Y015184D01*
X018655Y015282D01*
X018729Y015356D01*
X018827Y015396D01*
X018932Y015396D01*
X019029Y015356D01*
X019084Y015301D01*
X020459Y015301D01*
X021009Y015852D01*
X021009Y016309D01*
X020990Y016309D01*
X020966Y016333D01*
X020941Y016309D01*
X020927Y016309D01*
X020954Y016282D01*
X020994Y016184D01*
X020994Y016079D01*
X020954Y015981D01*
X020879Y015907D01*
X020782Y015866D01*
X020677Y015866D01*
X020579Y015907D01*
X020505Y015981D01*
X020464Y016079D01*
X020464Y016184D01*
X020505Y016282D01*
X020545Y016321D01*
X020533Y016333D01*
X020508Y016309D01*
X020124Y016309D01*
X020099Y016333D01*
X020075Y016309D01*
X019691Y016309D01*
X019666Y016333D01*
X019659Y016326D01*
X019704Y016282D01*
X019744Y016184D01*
X019744Y016079D01*
X019704Y015981D01*
X019629Y015907D01*
X019532Y015866D01*
X019427Y015866D01*
X019329Y015907D01*
X019255Y015981D01*
X019214Y016079D01*
X019214Y016184D01*
X019255Y016282D01*
X019280Y016307D01*
X019280Y016309D01*
X019258Y016309D01*
X019233Y016333D01*
X019208Y016309D01*
X018927Y016309D01*
X018954Y016282D01*
X018994Y016184D01*
X018994Y016079D01*
X018954Y015981D01*
X018879Y015907D01*
X018782Y015866D01*
X018677Y015866D01*
X018579Y015907D01*
X018505Y015981D01*
X018464Y016079D01*
X018464Y016111D01*
X016709Y016111D01*
X016609Y016211D01*
X016292Y016528D01*
X015730Y016528D01*
X015730Y016369D01*
X015677Y016316D01*
X015691Y016302D01*
X015691Y015761D01*
X015615Y015685D01*
X015113Y015685D01*
X015037Y015761D01*
X015037Y016302D01*
X015090Y016355D01*
X015077Y016369D01*
X015077Y017028D01*
X015153Y017104D01*
X015654Y017104D01*
X015730Y017028D01*
X015730Y016868D01*
X016433Y016868D01*
X016850Y016451D01*
X017017Y016451D01*
X017017Y017061D01*
X016584Y017061D01*
X016529Y017007D01*
X016432Y016966D01*
X016327Y016966D01*
X016229Y017007D01*
X016155Y017081D01*
X016114Y017179D01*
X016114Y017256D01*
X015609Y017761D01*
X015609Y017935D01*
X015549Y017935D01*
X015549Y017611D01*
X015450Y017511D01*
X015356Y017418D01*
X015356Y017235D01*
X015280Y017159D01*
X014825Y017159D01*
X014825Y017104D01*
X014906Y017104D01*
X014982Y017028D01*
X014982Y016369D01*
X014968Y016355D01*
X015022Y016302D01*
X015022Y015761D01*
X014945Y015685D01*
X014551Y015685D01*
X014554Y015682D01*
X014594Y015584D01*
X014594Y015479D01*
X014554Y015381D01*
X014479Y015307D01*
X014382Y015266D01*
X014277Y015266D01*
X014179Y015307D01*
X014105Y015381D01*
X014064Y015479D01*
X014064Y015584D01*
X014105Y015682D01*
X014108Y015685D01*
X013613Y015685D01*
X013537Y015761D01*
X013537Y016302D01*
X013590Y016355D01*
X013577Y016369D01*
X013577Y017028D01*
X013653Y017104D01*
X014154Y017104D01*
X014230Y017028D01*
X014230Y016868D01*
X014283Y016868D01*
X014329Y016823D01*
X014329Y017028D01*
X014405Y017104D01*
X014416Y017104D01*
X014354Y017166D01*
X014277Y017166D01*
X014179Y017207D01*
X014105Y017281D01*
X014064Y017379D01*
X014064Y017484D01*
X014105Y017582D01*
X014179Y017656D01*
X014277Y017696D01*
X014382Y017696D01*
X014479Y017656D01*
X014554Y017582D01*
X014594Y017484D01*
X014594Y017407D01*
X014703Y017299D01*
X014703Y017894D01*
X014743Y017935D01*
X014444Y017935D01*
X014368Y018011D01*
X014368Y018552D01*
X014444Y018628D01*
X014525Y018628D01*
X014525Y019441D01*
X014502Y019441D01*
X014404Y019482D01*
X014330Y019556D01*
X014289Y019654D01*
X014289Y019759D01*
X014330Y019857D01*
X014404Y019931D01*
X014502Y019971D01*
X014599Y019971D01*
X013413Y021158D01*
X013386Y021131D01*
X012972Y021131D01*
X012679Y021424D01*
X012679Y021839D01*
X012831Y021990D01*
X012759Y022061D01*
X012538Y022283D01*
X012386Y022131D01*
X011972Y022131D01*
X011853Y022013D02*
X011849Y022013D01*
X012407Y022111D02*
X012709Y022111D01*
X012611Y022210D02*
X012465Y022210D01*
X012505Y022013D02*
X012808Y022013D01*
X012755Y021914D02*
X012604Y021914D01*
X012679Y021816D02*
X012679Y021816D01*
X012679Y021717D02*
X012679Y021717D01*
X012679Y021619D02*
X012679Y021619D01*
X012679Y021520D02*
X012679Y021520D01*
X012677Y021422D02*
X012682Y021422D01*
X012781Y021323D02*
X012578Y021323D01*
X012480Y021225D02*
X012879Y021225D01*
X012967Y021126D02*
X012392Y021126D01*
X012490Y021028D02*
X012868Y021028D01*
X012770Y020929D02*
X012589Y020929D01*
X012679Y020831D02*
X012679Y020831D01*
X012679Y020732D02*
X012679Y020732D01*
X012679Y020634D02*
X012679Y020634D01*
X012679Y020535D02*
X012679Y020535D01*
X012679Y020437D02*
X012679Y020437D01*
X012593Y020338D02*
X012766Y020338D01*
X012864Y020240D02*
X012495Y020240D01*
X012396Y020141D02*
X012963Y020141D01*
X012896Y020055D02*
X012755Y019915D01*
X012679Y019731D01*
X012679Y019532D01*
X012726Y019419D01*
X012259Y018951D01*
X012159Y018852D01*
X012159Y018293D01*
X012059Y018293D01*
X011983Y018217D01*
X011983Y017715D01*
X012059Y017639D01*
X012600Y017639D01*
X012676Y017715D01*
X012676Y018217D01*
X012600Y018293D01*
X012499Y018293D01*
X012499Y018711D01*
X012967Y019178D01*
X013080Y019131D01*
X013279Y019131D01*
X013463Y019208D01*
X013603Y019348D01*
X013679Y019532D01*
X013679Y019731D01*
X013603Y019915D01*
X013463Y020055D01*
X013279Y020131D01*
X013080Y020131D01*
X012896Y020055D01*
X012883Y020043D02*
X012475Y020043D01*
X012574Y019944D02*
X012785Y019944D01*
X012727Y019846D02*
X012632Y019846D01*
X012673Y019747D02*
X012686Y019747D01*
X012679Y019649D02*
X012679Y019649D01*
X012679Y019550D02*
X012679Y019550D01*
X012646Y019452D02*
X012713Y019452D01*
X012660Y019353D02*
X012605Y019353D01*
X012562Y019255D02*
X012510Y019255D01*
X012463Y019156D02*
X012338Y019156D01*
X012365Y019058D02*
X011849Y019058D01*
X011849Y019156D02*
X012021Y019156D01*
X011849Y018959D02*
X012266Y018959D01*
X012168Y018861D02*
X011849Y018861D01*
X011849Y018762D02*
X012159Y018762D01*
X012159Y018664D02*
X011849Y018664D01*
X011849Y018565D02*
X012159Y018565D01*
X012159Y018467D02*
X011849Y018467D01*
X011849Y018368D02*
X012159Y018368D01*
X012036Y018270D02*
X011758Y018270D01*
X011659Y018171D02*
X011983Y018171D01*
X011983Y018073D02*
X011561Y018073D01*
X011462Y017974D02*
X011983Y017974D01*
X011983Y017876D02*
X011896Y017876D01*
X011946Y017777D02*
X011983Y017777D01*
X011946Y017679D02*
X012020Y017679D01*
X012015Y017580D02*
X011628Y017580D01*
X011531Y017580D02*
X011068Y017580D01*
X010970Y017482D02*
X011213Y017482D01*
X011213Y017518D02*
X011213Y017350D01*
X011223Y017311D01*
X011243Y017277D01*
X011271Y017249D01*
X011305Y017230D01*
X011327Y017224D01*
X011309Y017224D01*
X011233Y017148D01*
X011233Y017051D01*
X011209Y017051D01*
X011109Y016952D01*
X011109Y016951D01*
X010440Y016951D01*
X011213Y017725D01*
X011213Y017615D01*
X011531Y017615D01*
X011531Y017518D01*
X011213Y017518D01*
X011213Y017383D02*
X010871Y017383D01*
X010773Y017285D02*
X011239Y017285D01*
X011271Y017186D02*
X010674Y017186D01*
X010576Y017088D02*
X011233Y017088D01*
X011146Y016989D02*
X010477Y016989D01*
X011109Y016952D02*
X011109Y016952D01*
X011284Y016595D02*
X008367Y016595D01*
X008521Y016497D02*
X012609Y016497D01*
X012609Y016398D02*
X008610Y016398D01*
X008651Y016300D02*
X010523Y016300D01*
X010836Y016300D02*
X012609Y016300D01*
X012609Y016201D02*
X010917Y016201D01*
X010944Y016103D02*
X012054Y016103D01*
X012016Y016004D02*
X010934Y016004D01*
X010878Y015906D02*
X012016Y015906D01*
X012016Y015807D02*
X010152Y015807D01*
X010053Y015709D02*
X012023Y015709D01*
X012126Y015610D02*
X011886Y015610D01*
X011729Y015610D02*
X011629Y015610D01*
X011629Y015512D02*
X011729Y015512D01*
X011729Y015413D02*
X011629Y015413D01*
X011629Y015315D02*
X011729Y015315D01*
X011729Y015216D02*
X011629Y015216D01*
X011729Y015118D02*
X013119Y015118D01*
X013070Y015216D02*
X012192Y015216D01*
X012167Y015315D02*
X013056Y015315D01*
X012957Y015413D02*
X012118Y015413D01*
X012035Y015512D02*
X012859Y015512D01*
X012760Y015610D02*
X012532Y015610D01*
X012636Y015709D02*
X012662Y015709D01*
X012341Y015709D02*
X012317Y015709D01*
X012317Y015807D02*
X012341Y015807D01*
X012341Y015906D02*
X012317Y015906D01*
X012317Y016004D02*
X012341Y016004D01*
X012341Y016103D02*
X012317Y016103D01*
X012605Y016103D02*
X012609Y016103D01*
X012341Y015610D02*
X012317Y015610D01*
X012188Y015019D02*
X013271Y015019D01*
X013388Y015019D02*
X015829Y015019D01*
X015814Y014921D02*
X012155Y014921D01*
X012097Y014822D02*
X015838Y014822D01*
X015913Y014724D02*
X015438Y014724D01*
X015064Y014461D02*
X015064Y014429D01*
X015105Y014331D01*
X015179Y014257D01*
X015180Y014256D01*
X015179Y014256D01*
X015125Y014201D01*
X013109Y014201D01*
X012709Y013801D01*
X012082Y013801D01*
X012124Y013859D01*
X012161Y013932D01*
X012187Y014010D01*
X012198Y014081D01*
X011729Y014081D01*
X011729Y014181D01*
X012198Y014181D01*
X012187Y014253D01*
X012161Y014331D01*
X012124Y014404D01*
X012082Y014461D01*
X015064Y014461D01*
X015065Y014428D02*
X012107Y014428D01*
X012162Y014330D02*
X015107Y014330D01*
X015154Y014231D02*
X012190Y014231D01*
X012190Y014034D02*
X012941Y014034D01*
X012843Y013936D02*
X012162Y013936D01*
X012108Y013837D02*
X012744Y013837D01*
X012819Y013461D02*
X012559Y013201D01*
X012459Y013102D01*
X012159Y012801D01*
X012082Y012801D01*
X012124Y012859D01*
X012161Y012932D01*
X012187Y013010D01*
X012198Y013081D01*
X011729Y013081D01*
X011729Y013181D01*
X012198Y013181D01*
X012187Y013253D01*
X012161Y013331D01*
X012124Y013404D01*
X012082Y013461D01*
X012819Y013461D01*
X012800Y013443D02*
X012096Y013443D01*
X012154Y013345D02*
X012702Y013345D01*
X012603Y013246D02*
X012188Y013246D01*
X012193Y013049D02*
X012406Y013049D01*
X012308Y012951D02*
X012167Y012951D01*
X012209Y012852D02*
X012119Y012852D01*
X012395Y012557D02*
X013168Y012557D01*
X013168Y012511D02*
X013168Y012611D01*
X012809Y012611D01*
X012629Y012791D01*
X012300Y012461D01*
X011109Y012461D01*
X011009Y012561D01*
X010892Y012678D01*
X010779Y012631D01*
X010580Y012631D01*
X010444Y012688D01*
X010444Y012679D01*
X010404Y012581D01*
X010349Y012527D01*
X010349Y011702D01*
X010849Y011202D01*
X010849Y011102D01*
X010963Y011055D01*
X011103Y010915D01*
X011179Y010731D01*
X011179Y010532D01*
X011103Y010348D01*
X011006Y010251D01*
X011352Y010251D01*
X011255Y010348D01*
X011179Y010532D01*
X011179Y010731D01*
X011255Y010915D01*
X011396Y011055D01*
X011580Y011131D01*
X011779Y011131D01*
X011963Y011055D01*
X012103Y010915D01*
X012179Y010731D01*
X012179Y010532D01*
X012103Y010348D01*
X012006Y010251D01*
X012259Y010251D01*
X012514Y010507D01*
X012514Y010584D01*
X012555Y010682D01*
X012629Y010756D01*
X012727Y010796D01*
X012832Y010796D01*
X012929Y010756D01*
X013004Y010682D01*
X013044Y010584D01*
X013044Y010479D01*
X013004Y010381D01*
X012929Y010307D01*
X012929Y010306D01*
X012929Y010306D01*
X013004Y010232D01*
X013044Y010134D01*
X013044Y010029D01*
X013012Y009951D01*
X015509Y009951D01*
X015859Y010302D01*
X015859Y010727D01*
X015805Y010781D01*
X015764Y010879D01*
X015764Y010984D01*
X015805Y011082D01*
X015859Y011136D01*
X015859Y011285D01*
X015763Y011285D01*
X015687Y011361D01*
X015687Y011902D01*
X015763Y011978D01*
X015844Y011978D01*
X015844Y011987D01*
X015925Y012067D01*
X015878Y012114D01*
X015878Y012549D01*
X015954Y012625D01*
X015962Y012625D01*
X015962Y013105D01*
X016198Y013341D01*
X016249Y013341D01*
X016249Y013363D01*
X016274Y013387D01*
X016249Y013412D01*
X016249Y013434D01*
X015555Y013434D01*
X015554Y013431D01*
X015479Y013357D01*
X015382Y013316D01*
X015277Y013316D01*
X015179Y013357D01*
X015125Y013411D01*
X013250Y013411D01*
X012870Y013031D01*
X012950Y012951D01*
X013168Y012951D01*
X013168Y013052D01*
X013244Y013128D01*
X013745Y013128D01*
X013822Y013052D01*
X013822Y013034D01*
X013827Y013056D01*
X013847Y013090D01*
X013875Y013118D01*
X013909Y013138D01*
X013947Y013148D01*
X014116Y013148D01*
X014116Y012830D01*
X014212Y012830D01*
X014212Y013148D01*
X014381Y013148D01*
X014419Y013138D01*
X014453Y013118D01*
X014481Y013090D01*
X014501Y013056D01*
X014511Y013018D01*
X014511Y012830D01*
X014212Y012830D01*
X014212Y012733D01*
X014212Y012415D01*
X014212Y012105D01*
X014116Y012105D01*
X014116Y012733D01*
X014212Y012733D01*
X014511Y012733D01*
X014511Y012545D01*
X014501Y012507D01*
X014481Y012473D01*
X014453Y012445D01*
X014419Y012425D01*
X014396Y012419D01*
X014419Y012413D01*
X014453Y012393D01*
X014481Y012365D01*
X014501Y012331D01*
X014511Y012293D01*
X014511Y012105D01*
X014212Y012105D01*
X014212Y012008D01*
X014212Y011690D01*
X014381Y011690D01*
X014419Y011700D01*
X014453Y011720D01*
X014481Y011748D01*
X014501Y011782D01*
X014511Y011820D01*
X014511Y012008D01*
X014212Y012008D01*
X014116Y012008D01*
X014116Y011690D01*
X013947Y011690D01*
X013909Y011700D01*
X013875Y011720D01*
X013847Y011748D01*
X013827Y011782D01*
X013822Y011804D01*
X013822Y011786D01*
X013745Y011710D01*
X013244Y011710D01*
X013168Y011786D01*
X013168Y011861D01*
X013087Y011861D01*
X013054Y011781D01*
X012979Y011707D01*
X012882Y011666D01*
X012777Y011666D01*
X012679Y011707D01*
X012605Y011781D01*
X012564Y011879D01*
X012564Y011984D01*
X012605Y012082D01*
X012679Y012156D01*
X012777Y012196D01*
X012854Y012196D01*
X012859Y012201D01*
X013168Y012201D01*
X013168Y012327D01*
X013244Y012403D01*
X013745Y012403D01*
X013822Y012327D01*
X013822Y012309D01*
X013827Y012331D01*
X013847Y012365D01*
X013875Y012393D01*
X013909Y012413D01*
X013932Y012419D01*
X013909Y012425D01*
X013875Y012445D01*
X013847Y012473D01*
X013827Y012507D01*
X013822Y012529D01*
X013822Y012511D01*
X013745Y012435D01*
X013244Y012435D01*
X013168Y012511D01*
X013221Y012458D02*
X010349Y012458D01*
X010349Y012360D02*
X013201Y012360D01*
X013168Y012261D02*
X010349Y012261D01*
X010349Y012163D02*
X012695Y012163D01*
X012597Y012064D02*
X012311Y012064D01*
X012329Y012056D02*
X012232Y012096D01*
X012127Y012096D01*
X012029Y012056D01*
X011955Y011982D01*
X011914Y011884D01*
X011914Y011779D01*
X011955Y011681D01*
X012029Y011607D01*
X012127Y011566D01*
X012204Y011566D01*
X012664Y011106D01*
X012664Y011029D01*
X012705Y010931D01*
X012779Y010857D01*
X012877Y010816D01*
X012982Y010816D01*
X013079Y010857D01*
X013154Y010931D01*
X013194Y011029D01*
X013194Y011134D01*
X013154Y011232D01*
X013079Y011306D01*
X012982Y011346D01*
X012905Y011346D01*
X012444Y011807D01*
X012444Y011884D01*
X012404Y011982D01*
X012329Y012056D01*
X012411Y011966D02*
X012564Y011966D01*
X012569Y011867D02*
X012444Y011867D01*
X012483Y011769D02*
X012618Y011769D01*
X012581Y011670D02*
X012768Y011670D01*
X012891Y011670D02*
X014477Y011670D01*
X014493Y011769D02*
X014576Y011769D01*
X014609Y011801D02*
X013892Y011085D01*
X013779Y011131D01*
X013580Y011131D01*
X013396Y011055D01*
X013255Y010915D01*
X013179Y010731D01*
X013179Y010532D01*
X013255Y010348D01*
X013396Y010208D01*
X013580Y010131D01*
X013779Y010131D01*
X013963Y010208D01*
X014103Y010348D01*
X014179Y010532D01*
X014179Y010731D01*
X014132Y010844D01*
X014750Y011461D01*
X015018Y011461D01*
X015018Y011361D01*
X015094Y011285D01*
X015595Y011285D01*
X015672Y011361D01*
X015672Y011902D01*
X015595Y011978D01*
X015094Y011978D01*
X015018Y011902D01*
X015018Y011801D01*
X014609Y011801D01*
X014511Y011867D02*
X015018Y011867D01*
X015082Y011966D02*
X014511Y011966D01*
X014511Y012163D02*
X014953Y012163D01*
X014953Y012148D02*
X014963Y012110D01*
X014983Y012076D01*
X015010Y012048D01*
X015045Y012028D01*
X015083Y012018D01*
X015215Y012018D01*
X015215Y012319D01*
X015239Y012319D01*
X015239Y012344D01*
X015215Y012344D01*
X015215Y012645D01*
X015083Y012645D01*
X015045Y012635D01*
X015010Y012615D01*
X014983Y012587D01*
X014963Y012553D01*
X014953Y012515D01*
X014953Y012344D01*
X015215Y012344D01*
X015215Y012319D01*
X014953Y012319D01*
X014953Y012148D01*
X014995Y012064D02*
X014212Y012064D01*
X014212Y011966D02*
X014116Y011966D01*
X014116Y011867D02*
X014212Y011867D01*
X014212Y011769D02*
X014116Y011769D01*
X013835Y011769D02*
X013804Y011769D01*
X014116Y012163D02*
X014212Y012163D01*
X014212Y012261D02*
X014116Y012261D01*
X014116Y012360D02*
X014212Y012360D01*
X014212Y012458D02*
X014116Y012458D01*
X014116Y012557D02*
X014212Y012557D01*
X014212Y012655D02*
X014116Y012655D01*
X014212Y012754D02*
X015962Y012754D01*
X015962Y012852D02*
X014511Y012852D01*
X014511Y012951D02*
X015962Y012951D01*
X015962Y013049D02*
X014502Y013049D01*
X014383Y013148D02*
X016005Y013148D01*
X016103Y013246D02*
X013084Y013246D01*
X012986Y013148D02*
X013945Y013148D01*
X013826Y013049D02*
X013822Y013049D01*
X014116Y013049D02*
X014212Y013049D01*
X014212Y012951D02*
X014116Y012951D01*
X014116Y012852D02*
X014212Y012852D01*
X014212Y013148D02*
X014116Y013148D01*
X014511Y012655D02*
X015962Y012655D01*
X015886Y012557D02*
X015488Y012557D01*
X015490Y012553D02*
X015471Y012587D01*
X015443Y012615D01*
X015409Y012635D01*
X015370Y012645D01*
X015239Y012645D01*
X015239Y012344D01*
X015501Y012344D01*
X015501Y012515D01*
X015490Y012553D01*
X015501Y012458D02*
X015878Y012458D01*
X015878Y012360D02*
X015501Y012360D01*
X015501Y012319D02*
X015239Y012319D01*
X015239Y012018D01*
X015370Y012018D01*
X015409Y012028D01*
X015443Y012048D01*
X015471Y012076D01*
X015490Y012110D01*
X015501Y012148D01*
X015501Y012319D01*
X015501Y012261D02*
X015878Y012261D01*
X015878Y012163D02*
X015501Y012163D01*
X015459Y012064D02*
X015921Y012064D01*
X015751Y011966D02*
X015608Y011966D01*
X015672Y011867D02*
X015687Y011867D01*
X015687Y011769D02*
X015672Y011769D01*
X015672Y011670D02*
X015687Y011670D01*
X015687Y011572D02*
X015672Y011572D01*
X015672Y011473D02*
X015687Y011473D01*
X015687Y011375D02*
X015672Y011375D01*
X015859Y011276D02*
X014564Y011276D01*
X014466Y011178D02*
X015859Y011178D01*
X015804Y011079D02*
X014906Y011079D01*
X014963Y011055D02*
X014779Y011131D01*
X014580Y011131D01*
X014396Y011055D01*
X014255Y010915D01*
X014179Y010731D01*
X014179Y010532D01*
X014255Y010348D01*
X014396Y010208D01*
X014580Y010131D01*
X014779Y010131D01*
X014963Y010208D01*
X015103Y010348D01*
X015179Y010532D01*
X015179Y010731D01*
X015103Y010915D01*
X014963Y011055D01*
X015037Y010981D02*
X015764Y010981D01*
X015764Y010882D02*
X015117Y010882D01*
X015158Y010784D02*
X015804Y010784D01*
X015859Y010685D02*
X015179Y010685D01*
X015179Y010587D02*
X015859Y010587D01*
X015859Y010488D02*
X015161Y010488D01*
X015120Y010390D02*
X015859Y010390D01*
X015848Y010291D02*
X015046Y010291D01*
X014926Y010193D02*
X015750Y010193D01*
X015651Y010094D02*
X013044Y010094D01*
X013031Y009996D02*
X015553Y009996D01*
X015837Y009799D02*
X016207Y009799D01*
X016179Y009731D02*
X016179Y009532D01*
X016255Y009348D01*
X016396Y009208D01*
X016580Y009131D01*
X016396Y009055D01*
X016255Y008915D01*
X016179Y008731D01*
X016179Y008532D01*
X016255Y008348D01*
X016396Y008208D01*
X016580Y008131D01*
X016779Y008131D01*
X016963Y008208D01*
X017103Y008348D01*
X017179Y008532D01*
X017179Y008731D01*
X017103Y008915D01*
X016963Y009055D01*
X016779Y009131D01*
X016963Y009208D01*
X017103Y009348D01*
X017179Y009532D01*
X017179Y009731D01*
X017103Y009915D01*
X016963Y010055D01*
X016779Y010131D01*
X016580Y010131D01*
X016396Y010055D01*
X016255Y009915D01*
X016179Y009731D01*
X016179Y009700D02*
X015738Y009700D01*
X015935Y009897D02*
X016248Y009897D01*
X016336Y009996D02*
X016034Y009996D01*
X016132Y010094D02*
X016489Y010094D01*
X016199Y010193D02*
X021941Y010193D01*
X021900Y010291D02*
X016199Y010291D01*
X016199Y010390D02*
X021860Y010390D01*
X021829Y010488D02*
X016199Y010488D01*
X016199Y010587D02*
X021829Y010587D01*
X021829Y010685D02*
X016199Y010685D01*
X016255Y010784D02*
X021829Y010784D01*
X021863Y010882D02*
X020974Y010882D01*
X020936Y010844D02*
X021012Y010920D01*
X021012Y011343D01*
X020936Y011419D01*
X020919Y011419D01*
X020919Y011781D01*
X020941Y011781D01*
X020951Y011792D01*
X020952Y011791D01*
X020986Y011771D01*
X021025Y011761D01*
X021163Y011761D01*
X021163Y012187D01*
X021201Y012187D01*
X021201Y011761D01*
X021340Y011761D01*
X021378Y011771D01*
X021412Y011791D01*
X021440Y011819D01*
X021460Y011853D01*
X021470Y011891D01*
X021470Y012187D01*
X021201Y012187D01*
X021201Y012225D01*
X021470Y012225D01*
X021470Y012521D01*
X021460Y012559D01*
X021440Y012594D01*
X021412Y012622D01*
X021378Y012641D01*
X021340Y012652D01*
X021201Y012652D01*
X021201Y012225D01*
X021163Y012225D01*
X021163Y012187D01*
X021017Y012187D01*
X021017Y012225D01*
X021163Y012225D01*
X021163Y012652D01*
X021025Y012652D01*
X020986Y012641D01*
X020952Y012622D01*
X020951Y012621D01*
X020941Y012632D01*
X020919Y012632D01*
X020919Y012731D01*
X021150Y012961D01*
X021175Y012961D01*
X021229Y012907D01*
X021327Y012866D01*
X021432Y012866D01*
X021529Y012907D01*
X021604Y012981D01*
X021644Y013079D01*
X021644Y013184D01*
X021604Y013282D01*
X021529Y013356D01*
X021432Y013396D01*
X021327Y013396D01*
X021229Y013356D01*
X021175Y013301D01*
X021009Y013301D01*
X020909Y013202D01*
X020579Y012872D01*
X020579Y012632D01*
X020557Y012632D01*
X020533Y012607D01*
X020508Y012632D01*
X020124Y012632D01*
X020099Y012607D01*
X020075Y012632D01*
X019691Y012632D01*
X019666Y012607D01*
X019641Y012632D01*
X019258Y012632D01*
X019233Y012607D01*
X019208Y012632D01*
X018825Y012632D01*
X018800Y012607D01*
X018775Y012632D01*
X018392Y012632D01*
X018367Y012607D01*
X018342Y012632D01*
X017959Y012632D01*
X017934Y012607D01*
X017909Y012632D01*
X017888Y012632D01*
X017888Y012764D01*
X017799Y012852D01*
X020579Y012852D01*
X020579Y012754D02*
X017888Y012754D01*
X017888Y012655D02*
X020579Y012655D01*
X020658Y012951D02*
X017701Y012951D01*
X017700Y012951D02*
X017634Y012951D01*
X017579Y013006D01*
X017482Y013046D01*
X017377Y013046D01*
X017279Y013006D01*
X017205Y012932D01*
X017164Y012834D01*
X017164Y012729D01*
X017205Y012632D01*
X017093Y012632D01*
X017017Y012555D01*
X017017Y011857D01*
X017093Y011781D01*
X017114Y011781D01*
X017114Y011656D01*
X017309Y011461D01*
X017409Y011361D01*
X017525Y011361D01*
X017579Y011307D01*
X017677Y011266D01*
X017782Y011266D01*
X017879Y011307D01*
X017954Y011381D01*
X017994Y011479D01*
X017994Y011584D01*
X017954Y011682D01*
X017879Y011756D01*
X017819Y011781D01*
X017909Y011781D01*
X017934Y011806D01*
X017959Y011781D01*
X017981Y011781D01*
X017981Y011640D01*
X018014Y011606D01*
X018014Y011529D01*
X018055Y011431D01*
X018129Y011357D01*
X018227Y011316D01*
X018332Y011316D01*
X018429Y011357D01*
X018504Y011431D01*
X018504Y011432D01*
X018505Y011431D01*
X018579Y011357D01*
X018677Y011316D01*
X018782Y011316D01*
X018847Y011343D01*
X018847Y011324D01*
X018864Y011306D01*
X018864Y011229D01*
X018905Y011131D01*
X018979Y011057D01*
X019077Y011016D01*
X019182Y011016D01*
X019279Y011057D01*
X019354Y011131D01*
X019394Y011229D01*
X019394Y011316D01*
X019432Y011316D01*
X019529Y011357D01*
X019604Y011431D01*
X019644Y011529D01*
X019644Y011634D01*
X019620Y011693D01*
X019620Y011781D01*
X019641Y011781D01*
X019666Y011806D01*
X019691Y011781D01*
X020054Y011781D01*
X020014Y011684D01*
X020014Y011579D01*
X020055Y011481D01*
X020117Y011419D01*
X019923Y011419D01*
X019847Y011343D01*
X019847Y011339D01*
X019829Y011356D01*
X019732Y011396D01*
X019627Y011396D01*
X019529Y011356D01*
X019455Y011282D01*
X019414Y011184D01*
X019414Y011079D01*
X019302Y011079D01*
X019414Y011079D02*
X019455Y010981D01*
X019529Y010907D01*
X019627Y010866D01*
X019732Y010866D01*
X019829Y010907D01*
X019847Y010924D01*
X019847Y010920D01*
X019923Y010844D01*
X020345Y010844D01*
X020422Y010920D01*
X020422Y011343D01*
X020379Y011386D01*
X020429Y011407D01*
X020504Y011481D01*
X020544Y011579D01*
X020544Y011684D01*
X020504Y011781D01*
X020508Y011781D01*
X020533Y011806D01*
X020557Y011781D01*
X020579Y011781D01*
X020579Y011419D01*
X020513Y011419D01*
X020437Y011343D01*
X020437Y010920D01*
X020513Y010844D01*
X020936Y010844D01*
X021012Y010981D02*
X021904Y010981D01*
X021945Y011079D02*
X021012Y011079D01*
X021012Y011178D02*
X022023Y011178D01*
X022122Y011276D02*
X021012Y011276D01*
X020980Y011375D02*
X022179Y011375D01*
X022179Y011473D02*
X020919Y011473D01*
X020919Y011572D02*
X022179Y011572D01*
X022179Y011670D02*
X020919Y011670D01*
X020919Y011769D02*
X020997Y011769D01*
X021163Y011769D02*
X021201Y011769D01*
X021201Y011867D02*
X021163Y011867D01*
X021163Y011966D02*
X021201Y011966D01*
X021201Y012064D02*
X021163Y012064D01*
X021163Y012163D02*
X021201Y012163D01*
X021201Y012261D02*
X021163Y012261D01*
X021163Y012360D02*
X021201Y012360D01*
X021201Y012458D02*
X021163Y012458D01*
X021163Y012557D02*
X021201Y012557D01*
X021460Y012557D02*
X022179Y012557D01*
X022179Y012655D02*
X020919Y012655D01*
X020942Y012754D02*
X022179Y012754D01*
X022179Y012852D02*
X021040Y012852D01*
X021139Y012951D02*
X021186Y012951D01*
X020909Y013202D02*
X020909Y013202D01*
X020953Y013246D02*
X017100Y013246D01*
X017100Y013148D02*
X020855Y013148D01*
X020756Y013049D02*
X017100Y013049D01*
X017071Y012951D02*
X017224Y012951D01*
X017172Y012852D02*
X016302Y012852D01*
X016302Y012754D02*
X017164Y012754D01*
X017195Y012655D02*
X016302Y012655D01*
X016378Y012557D02*
X017018Y012557D01*
X017017Y012458D02*
X016386Y012458D01*
X016386Y012360D02*
X017017Y012360D01*
X017017Y012261D02*
X016386Y012261D01*
X016386Y012163D02*
X017017Y012163D01*
X017017Y012064D02*
X016336Y012064D01*
X016299Y011966D02*
X017017Y011966D01*
X017017Y011867D02*
X016341Y011867D01*
X016341Y011769D02*
X017114Y011769D01*
X017114Y011670D02*
X016341Y011670D01*
X016341Y011572D02*
X017199Y011572D01*
X017297Y011473D02*
X016341Y011473D01*
X016341Y011375D02*
X017396Y011375D01*
X017654Y011276D02*
X016199Y011276D01*
X016199Y011178D02*
X018886Y011178D01*
X018864Y011276D02*
X017805Y011276D01*
X017947Y011375D02*
X018112Y011375D01*
X018037Y011473D02*
X017992Y011473D01*
X017994Y011572D02*
X018014Y011572D01*
X017981Y011670D02*
X017959Y011670D01*
X017981Y011769D02*
X017850Y011769D01*
X018447Y011375D02*
X018562Y011375D01*
X018957Y011079D02*
X016255Y011079D01*
X016294Y010981D02*
X019456Y010981D01*
X019589Y010882D02*
X016294Y010882D01*
X016869Y010094D02*
X017489Y010094D01*
X017580Y010131D02*
X017396Y010055D01*
X017255Y009915D01*
X017179Y009731D01*
X017179Y009532D01*
X017255Y009348D01*
X017396Y009208D01*
X017580Y009131D01*
X017396Y009055D01*
X017255Y008915D01*
X017179Y008731D01*
X017179Y008532D01*
X017255Y008348D01*
X017396Y008208D01*
X017580Y008131D01*
X017779Y008131D01*
X017963Y008208D01*
X018103Y008348D01*
X018179Y008532D01*
X018179Y008731D01*
X018103Y008915D01*
X017963Y009055D01*
X017779Y009131D01*
X017963Y009208D01*
X018103Y009348D01*
X018179Y009532D01*
X018179Y009731D01*
X018103Y009915D01*
X017963Y010055D01*
X017779Y010131D01*
X017580Y010131D01*
X017336Y009996D02*
X017022Y009996D01*
X017111Y009897D02*
X017248Y009897D01*
X017207Y009799D02*
X017151Y009799D01*
X017179Y009700D02*
X017179Y009700D01*
X017179Y009602D02*
X017179Y009602D01*
X017167Y009503D02*
X017191Y009503D01*
X017232Y009405D02*
X017127Y009405D01*
X017061Y009306D02*
X017298Y009306D01*
X017396Y009208D02*
X016962Y009208D01*
X016833Y009109D02*
X017526Y009109D01*
X017580Y009131D02*
X017779Y009131D01*
X017580Y009131D01*
X017833Y009109D02*
X018526Y009109D01*
X018580Y009131D02*
X018779Y009131D01*
X018963Y009208D01*
X019103Y009348D01*
X019179Y009532D01*
X019179Y009731D01*
X019103Y009915D01*
X018963Y010055D01*
X018779Y010131D01*
X018580Y010131D01*
X018396Y010055D01*
X018255Y009915D01*
X018179Y009731D01*
X018179Y009532D01*
X018255Y009348D01*
X018396Y009208D01*
X018580Y009131D01*
X018396Y009055D01*
X018255Y008915D01*
X018179Y008731D01*
X018179Y008532D01*
X018255Y008348D01*
X018396Y008208D01*
X018580Y008131D01*
X018779Y008131D01*
X018963Y008208D01*
X019103Y008348D01*
X019179Y008532D01*
X019179Y008731D01*
X019103Y008915D01*
X018963Y009055D01*
X018779Y009131D01*
X018580Y009131D01*
X018396Y009208D02*
X017962Y009208D01*
X018061Y009306D02*
X018298Y009306D01*
X018232Y009405D02*
X018127Y009405D01*
X018167Y009503D02*
X018191Y009503D01*
X018179Y009602D02*
X018179Y009602D01*
X018179Y009700D02*
X018179Y009700D01*
X018151Y009799D02*
X018207Y009799D01*
X018248Y009897D02*
X018111Y009897D01*
X018022Y009996D02*
X018336Y009996D01*
X018489Y010094D02*
X017869Y010094D01*
X018869Y010094D02*
X019489Y010094D01*
X019580Y010131D02*
X019396Y010055D01*
X019255Y009915D01*
X019179Y009731D01*
X019179Y009532D01*
X019255Y009348D01*
X019396Y009208D01*
X019580Y009131D01*
X019396Y009055D01*
X019255Y008915D01*
X019179Y008731D01*
X019179Y008532D01*
X019255Y008348D01*
X019396Y008208D01*
X019580Y008131D01*
X019779Y008131D01*
X019963Y008208D01*
X020103Y008348D01*
X020179Y008532D01*
X020179Y008731D01*
X020103Y008915D01*
X019963Y009055D01*
X019779Y009131D01*
X019963Y009208D01*
X020103Y009348D01*
X020179Y009532D01*
X020179Y009731D01*
X020103Y009915D01*
X019963Y010055D01*
X019779Y010131D01*
X019580Y010131D01*
X019336Y009996D02*
X019022Y009996D01*
X019111Y009897D02*
X019248Y009897D01*
X019207Y009799D02*
X019151Y009799D01*
X019179Y009700D02*
X019179Y009700D01*
X019179Y009602D02*
X019179Y009602D01*
X019167Y009503D02*
X019191Y009503D01*
X019232Y009405D02*
X019127Y009405D01*
X019061Y009306D02*
X019298Y009306D01*
X019396Y009208D02*
X018962Y009208D01*
X018833Y009109D02*
X019526Y009109D01*
X019580Y009131D02*
X019779Y009131D01*
X019580Y009131D01*
X019833Y009109D02*
X020526Y009109D01*
X020580Y009131D02*
X020779Y009131D01*
X020963Y009208D01*
X021103Y009348D01*
X021179Y009532D01*
X021179Y009731D01*
X021103Y009915D01*
X020963Y010055D01*
X020779Y010131D01*
X020580Y010131D01*
X020396Y010055D01*
X020255Y009915D01*
X020179Y009731D01*
X020179Y009532D01*
X020255Y009348D01*
X020396Y009208D01*
X020580Y009131D01*
X020396Y009055D01*
X020255Y008915D01*
X020179Y008731D01*
X020179Y008532D01*
X020255Y008348D01*
X020396Y008208D01*
X020580Y008131D01*
X020779Y008131D01*
X020963Y008208D01*
X021103Y008348D01*
X021179Y008532D01*
X021179Y008731D01*
X021103Y008915D01*
X020963Y009055D01*
X020779Y009131D01*
X020580Y009131D01*
X020396Y009208D02*
X019962Y009208D01*
X020061Y009306D02*
X020298Y009306D01*
X020232Y009405D02*
X020127Y009405D01*
X020167Y009503D02*
X020191Y009503D01*
X020179Y009602D02*
X020179Y009602D01*
X020179Y009700D02*
X020179Y009700D01*
X020151Y009799D02*
X020207Y009799D01*
X020248Y009897D02*
X020111Y009897D01*
X020022Y009996D02*
X020336Y009996D01*
X020489Y010094D02*
X019869Y010094D01*
X019885Y010882D02*
X019770Y010882D01*
X019414Y011178D02*
X019373Y011178D01*
X019394Y011276D02*
X019452Y011276D01*
X019547Y011375D02*
X019574Y011375D01*
X019621Y011473D02*
X020063Y011473D01*
X020017Y011572D02*
X019644Y011572D01*
X019630Y011670D02*
X020014Y011670D01*
X020049Y011769D02*
X019620Y011769D01*
X019785Y011375D02*
X019878Y011375D01*
X020390Y011375D02*
X020469Y011375D01*
X020496Y011473D02*
X020579Y011473D01*
X020579Y011572D02*
X020541Y011572D01*
X020544Y011670D02*
X020579Y011670D01*
X020579Y011769D02*
X020509Y011769D01*
X020437Y011276D02*
X020422Y011276D01*
X020422Y011178D02*
X020437Y011178D01*
X020437Y011079D02*
X020422Y011079D01*
X020422Y010981D02*
X020437Y010981D01*
X020475Y010882D02*
X020383Y010882D01*
X020869Y010094D02*
X021489Y010094D01*
X021580Y010131D02*
X021396Y010055D01*
X021255Y009915D01*
X021179Y009731D01*
X021179Y009532D01*
X021255Y009348D01*
X021396Y009208D01*
X021580Y009131D01*
X021396Y009055D01*
X021255Y008915D01*
X021179Y008731D01*
X021179Y008532D01*
X021255Y008348D01*
X021396Y008208D01*
X021580Y008131D01*
X021779Y008131D01*
X021963Y008208D01*
X022103Y008348D01*
X022179Y008532D01*
X022179Y008731D01*
X022103Y008915D01*
X021963Y009055D01*
X021779Y009131D01*
X021963Y009208D01*
X022103Y009348D01*
X022179Y009532D01*
X022179Y009731D01*
X022103Y009915D01*
X021963Y010055D01*
X021779Y010131D01*
X021580Y010131D01*
X021336Y009996D02*
X021022Y009996D01*
X021111Y009897D02*
X021248Y009897D01*
X021207Y009799D02*
X021151Y009799D01*
X021179Y009700D02*
X021179Y009700D01*
X021179Y009602D02*
X021179Y009602D01*
X021167Y009503D02*
X021191Y009503D01*
X021232Y009405D02*
X021127Y009405D01*
X021061Y009306D02*
X021298Y009306D01*
X021396Y009208D02*
X020962Y009208D01*
X020833Y009109D02*
X021526Y009109D01*
X021580Y009131D02*
X021779Y009131D01*
X021580Y009131D01*
X021833Y009109D02*
X022179Y009109D01*
X022179Y009208D02*
X021962Y009208D01*
X022061Y009306D02*
X022179Y009306D01*
X022179Y009405D02*
X022127Y009405D01*
X022167Y009503D02*
X022179Y009503D01*
X022179Y009602D02*
X022179Y009602D01*
X022179Y009700D02*
X022179Y009700D01*
X022179Y009799D02*
X022151Y009799D01*
X022179Y009897D02*
X022111Y009897D01*
X022113Y009996D02*
X022022Y009996D01*
X022015Y010094D02*
X021869Y010094D01*
X022007Y009010D02*
X022179Y009010D01*
X022179Y008912D02*
X022104Y008912D01*
X022145Y008813D02*
X022179Y008813D01*
X022179Y008715D02*
X022179Y008715D01*
X022179Y008616D02*
X022179Y008616D01*
X022174Y008518D02*
X022179Y008518D01*
X022179Y008419D02*
X022133Y008419D01*
X022179Y008321D02*
X022076Y008321D01*
X021977Y008222D02*
X022179Y008222D01*
X022179Y008124D02*
X013799Y008124D01*
X013801Y008124D02*
X013879Y008150D01*
X013952Y008187D01*
X014018Y008235D01*
X014076Y008293D01*
X014124Y008359D01*
X014161Y008432D01*
X014187Y008510D01*
X014187Y008513D01*
X014255Y008348D01*
X014396Y008208D01*
X014580Y008131D01*
X014779Y008131D01*
X014963Y008208D01*
X015103Y008348D01*
X015179Y008532D01*
X015179Y008731D01*
X015103Y008915D01*
X014963Y009055D01*
X014779Y009131D01*
X014580Y009131D01*
X014396Y009055D01*
X014255Y008915D01*
X014187Y008750D01*
X014187Y008753D01*
X014161Y008831D01*
X014124Y008904D01*
X014076Y008970D01*
X014018Y009028D01*
X013952Y009076D01*
X013879Y009113D01*
X013801Y009139D01*
X013729Y009150D01*
X013729Y008682D01*
X013629Y008682D01*
X013629Y009150D01*
X013558Y009139D01*
X013480Y009113D01*
X013407Y009076D01*
X013341Y009028D01*
X013283Y008970D01*
X013235Y008904D01*
X013197Y008831D01*
X013179Y008775D01*
X013161Y008831D01*
X013124Y008904D01*
X013076Y008970D01*
X013018Y009028D01*
X012952Y009076D01*
X012879Y009113D01*
X012801Y009139D01*
X012729Y009150D01*
X012729Y008682D01*
X012629Y008682D01*
X012629Y009150D01*
X012558Y009139D01*
X012480Y009113D01*
X012407Y009076D01*
X012341Y009028D01*
X012283Y008970D01*
X012235Y008904D01*
X012197Y008831D01*
X012172Y008753D01*
X012172Y008750D01*
X012103Y008915D01*
X011963Y009055D01*
X011779Y009131D01*
X011580Y009131D01*
X011396Y009055D01*
X011255Y008915D01*
X011179Y008731D01*
X011179Y008532D01*
X011255Y008348D01*
X011396Y008208D01*
X011580Y008131D01*
X011779Y008131D01*
X011963Y008208D01*
X012103Y008348D01*
X012172Y008513D01*
X012172Y008510D01*
X012197Y008432D01*
X012235Y008359D01*
X012283Y008293D01*
X012341Y008235D01*
X012407Y008187D01*
X012480Y008150D01*
X012558Y008124D01*
X012629Y008113D01*
X012629Y008581D01*
X012729Y008581D01*
X012729Y008113D01*
X012801Y008124D01*
X012879Y008150D01*
X012952Y008187D01*
X013018Y008235D01*
X013076Y008293D01*
X013124Y008359D01*
X013161Y008432D01*
X013179Y008488D01*
X013197Y008432D01*
X013235Y008359D01*
X013283Y008293D01*
X013341Y008235D01*
X013407Y008187D01*
X013480Y008150D01*
X013558Y008124D01*
X013629Y008113D01*
X013629Y008581D01*
X013729Y008581D01*
X013729Y008113D01*
X013801Y008124D01*
X013729Y008124D02*
X013629Y008124D01*
X013560Y008124D02*
X012799Y008124D01*
X012729Y008124D02*
X012629Y008124D01*
X012560Y008124D02*
X009221Y008124D01*
X009221Y008222D02*
X009381Y008222D01*
X009283Y008321D02*
X009156Y008321D01*
X009226Y008419D02*
X009064Y008419D01*
X009064Y008518D02*
X009185Y008518D01*
X009179Y008616D02*
X009064Y008616D01*
X009064Y008715D02*
X009179Y008715D01*
X009214Y008813D02*
X009064Y008813D01*
X009064Y008912D02*
X009254Y008912D01*
X009351Y009010D02*
X009064Y009010D01*
X009064Y009109D02*
X009526Y009109D01*
X009833Y009109D02*
X009961Y009109D01*
X010007Y009010D02*
X010060Y009010D01*
X010104Y008912D02*
X010158Y008912D01*
X010145Y008813D02*
X010214Y008813D01*
X010179Y008715D02*
X010179Y008715D01*
X010179Y008616D02*
X010179Y008616D01*
X010174Y008518D02*
X010185Y008518D01*
X010226Y008419D02*
X010133Y008419D01*
X010076Y008321D02*
X010283Y008321D01*
X010381Y008222D02*
X009977Y008222D01*
X009221Y008025D02*
X022179Y008025D01*
X022179Y007927D02*
X009221Y007927D01*
X008094Y008332D02*
X008014Y008332D01*
X007938Y008255D01*
X007938Y007831D01*
X006771Y007831D01*
X006771Y008255D01*
X006695Y008332D01*
X006614Y008332D01*
X006614Y009331D01*
X006695Y009331D01*
X006771Y009408D01*
X006771Y009511D01*
X007550Y009511D01*
X007580Y009542D01*
X007605Y009481D01*
X007679Y009407D01*
X007777Y009366D01*
X007882Y009366D01*
X007950Y009395D01*
X008014Y009331D01*
X008094Y009331D01*
X008094Y008332D01*
X008094Y008419D02*
X006614Y008419D01*
X006614Y008518D02*
X008094Y008518D01*
X008094Y008616D02*
X006614Y008616D01*
X006614Y008715D02*
X008094Y008715D01*
X008094Y008813D02*
X006614Y008813D01*
X006614Y008912D02*
X008094Y008912D01*
X008094Y009010D02*
X006614Y009010D01*
X006614Y009109D02*
X008094Y009109D01*
X008094Y009208D02*
X006614Y009208D01*
X006614Y009306D02*
X008094Y009306D01*
X007685Y009405D02*
X006768Y009405D01*
X006771Y009503D02*
X007596Y009503D01*
X007500Y010193D02*
X007247Y010193D01*
X007292Y010291D02*
X008779Y010291D01*
X008681Y010390D02*
X007329Y010390D01*
X007329Y010488D02*
X008582Y010488D01*
X008484Y010587D02*
X007327Y010587D01*
X007286Y010685D02*
X007951Y010685D01*
X007820Y010784D02*
X007234Y010784D01*
X007136Y010882D02*
X007742Y010882D01*
X007701Y010981D02*
X006931Y010981D01*
X006728Y010981D02*
X006341Y010981D01*
X006341Y011079D02*
X007679Y011079D01*
X007679Y011178D02*
X006341Y011178D01*
X006267Y011276D02*
X007698Y011276D01*
X007739Y011375D02*
X006341Y011375D01*
X006341Y011473D02*
X007814Y011473D01*
X007935Y011572D02*
X006341Y011572D01*
X006341Y011670D02*
X006916Y011670D01*
X006839Y011769D02*
X006341Y011769D01*
X006341Y011867D02*
X006814Y011867D01*
X006598Y011966D02*
X006277Y011966D01*
X005693Y012655D02*
X005665Y012655D01*
X006324Y013345D02*
X007159Y013345D01*
X007159Y013443D02*
X006341Y013443D01*
X006341Y013542D02*
X006916Y013542D01*
X006801Y013640D02*
X006341Y013640D01*
X006341Y013739D02*
X006764Y013739D01*
X006766Y013837D02*
X006742Y013837D01*
X006517Y013837D02*
X006341Y013837D01*
X006318Y013936D02*
X006307Y013936D01*
X007142Y013542D02*
X007159Y013542D01*
X007499Y013542D02*
X007882Y013542D01*
X007784Y013443D02*
X007499Y013443D01*
X007499Y013345D02*
X007726Y013345D01*
X007686Y013246D02*
X007499Y013246D01*
X007499Y013148D02*
X007679Y013148D01*
X007679Y013049D02*
X007499Y013049D01*
X007499Y012951D02*
X007713Y012951D01*
X007754Y012852D02*
X007499Y012852D01*
X007499Y012754D02*
X007850Y012754D01*
X008023Y012655D02*
X007499Y012655D01*
X007499Y012557D02*
X007899Y012557D01*
X007799Y012458D02*
X007499Y012458D01*
X007499Y012360D02*
X007733Y012360D01*
X007692Y012261D02*
X007499Y012261D01*
X007499Y012163D02*
X007679Y012163D01*
X007679Y012064D02*
X007499Y012064D01*
X007404Y011966D02*
X007707Y011966D01*
X007748Y011867D02*
X007344Y011867D01*
X007319Y011769D02*
X007835Y011769D01*
X007987Y011670D02*
X007243Y011670D01*
X007400Y011961D02*
X007400Y011961D01*
X008080Y011631D02*
X008279Y011631D01*
X008080Y011631D01*
X008372Y011670D02*
X009469Y011670D01*
X009469Y011572D02*
X008424Y011572D01*
X008545Y011473D02*
X009469Y011473D01*
X009469Y011375D02*
X008620Y011375D01*
X008661Y011276D02*
X009469Y011276D01*
X009469Y011178D02*
X008679Y011178D01*
X008679Y011079D02*
X009453Y011079D01*
X009321Y010981D02*
X008658Y010981D01*
X008669Y010882D02*
X009242Y010882D01*
X009201Y010784D02*
X008768Y010784D01*
X008866Y010685D02*
X009179Y010685D01*
X009179Y010587D02*
X008965Y010587D01*
X009063Y010488D02*
X009198Y010488D01*
X009218Y009405D02*
X009666Y009405D01*
X009764Y009306D02*
X009064Y009306D01*
X009064Y009208D02*
X009863Y009208D01*
X010147Y009405D02*
X016232Y009405D01*
X016191Y009503D02*
X010048Y009503D01*
X009950Y009602D02*
X016179Y009602D01*
X016298Y009306D02*
X010245Y009306D01*
X010344Y009208D02*
X016396Y009208D01*
X016526Y009109D02*
X014833Y009109D01*
X015007Y009010D02*
X016351Y009010D01*
X016254Y008912D02*
X015104Y008912D01*
X015145Y008813D02*
X016214Y008813D01*
X016179Y008715D02*
X015179Y008715D01*
X015179Y008616D02*
X016179Y008616D01*
X016185Y008518D02*
X015174Y008518D01*
X015133Y008419D02*
X016226Y008419D01*
X016283Y008321D02*
X015076Y008321D01*
X014977Y008222D02*
X016381Y008222D01*
X016977Y008222D02*
X017381Y008222D01*
X017283Y008321D02*
X017076Y008321D01*
X017133Y008419D02*
X017226Y008419D01*
X017185Y008518D02*
X017174Y008518D01*
X017179Y008616D02*
X017179Y008616D01*
X017179Y008715D02*
X017179Y008715D01*
X017145Y008813D02*
X017214Y008813D01*
X017254Y008912D02*
X017104Y008912D01*
X017007Y009010D02*
X017351Y009010D01*
X016779Y009131D02*
X016580Y009131D01*
X016779Y009131D01*
X018007Y009010D02*
X018351Y009010D01*
X018254Y008912D02*
X018104Y008912D01*
X018145Y008813D02*
X018214Y008813D01*
X018179Y008715D02*
X018179Y008715D01*
X018179Y008616D02*
X018179Y008616D01*
X018174Y008518D02*
X018185Y008518D01*
X018226Y008419D02*
X018133Y008419D01*
X018076Y008321D02*
X018283Y008321D01*
X018381Y008222D02*
X017977Y008222D01*
X018977Y008222D02*
X019381Y008222D01*
X019283Y008321D02*
X019076Y008321D01*
X019133Y008419D02*
X019226Y008419D01*
X019185Y008518D02*
X019174Y008518D01*
X019179Y008616D02*
X019179Y008616D01*
X019179Y008715D02*
X019179Y008715D01*
X019145Y008813D02*
X019214Y008813D01*
X019254Y008912D02*
X019104Y008912D01*
X019007Y009010D02*
X019351Y009010D01*
X020007Y009010D02*
X020351Y009010D01*
X020254Y008912D02*
X020104Y008912D01*
X020145Y008813D02*
X020214Y008813D01*
X020179Y008715D02*
X020179Y008715D01*
X020179Y008616D02*
X020179Y008616D01*
X020174Y008518D02*
X020185Y008518D01*
X020226Y008419D02*
X020133Y008419D01*
X020076Y008321D02*
X020283Y008321D01*
X020381Y008222D02*
X019977Y008222D01*
X020977Y008222D02*
X021381Y008222D01*
X021283Y008321D02*
X021076Y008321D01*
X021133Y008419D02*
X021226Y008419D01*
X021185Y008518D02*
X021174Y008518D01*
X021179Y008616D02*
X021179Y008616D01*
X021179Y008715D02*
X021179Y008715D01*
X021145Y008813D02*
X021214Y008813D01*
X021254Y008912D02*
X021104Y008912D01*
X021007Y009010D02*
X021351Y009010D01*
X021368Y011769D02*
X022179Y011769D01*
X022179Y011867D02*
X021463Y011867D01*
X021470Y011966D02*
X022179Y011966D01*
X022179Y012064D02*
X021470Y012064D01*
X021470Y012163D02*
X022179Y012163D01*
X022179Y012261D02*
X021470Y012261D01*
X021470Y012360D02*
X022179Y012360D01*
X022179Y012458D02*
X021470Y012458D01*
X021573Y012951D02*
X022179Y012951D01*
X022179Y013049D02*
X021632Y013049D01*
X021644Y013148D02*
X022179Y013148D01*
X022179Y013246D02*
X021619Y013246D01*
X021541Y013345D02*
X022179Y013345D01*
X022179Y013443D02*
X017100Y013443D01*
X017100Y013345D02*
X021218Y013345D01*
X022179Y013542D02*
X017100Y013542D01*
X017100Y013640D02*
X022179Y013640D01*
X022179Y013739D02*
X017100Y013739D01*
X017091Y013837D02*
X022179Y013837D01*
X022179Y013936D02*
X017100Y013936D01*
X017100Y014034D02*
X022179Y014034D01*
X022179Y014133D02*
X017100Y014133D01*
X017097Y014231D02*
X022179Y014231D01*
X022179Y014330D02*
X017100Y014330D01*
X017100Y014428D02*
X022179Y014428D01*
X022179Y014527D02*
X017906Y014527D01*
X017752Y014527D02*
X017100Y014527D01*
X017100Y014625D02*
X017211Y014625D01*
X017137Y014724D02*
X017100Y014724D01*
X017548Y014625D02*
X017611Y014625D01*
X018048Y014625D02*
X022179Y014625D01*
X022179Y014724D02*
X018092Y014724D01*
X018094Y014822D02*
X022179Y014822D01*
X022179Y014921D02*
X019043Y014921D01*
X018716Y014921D02*
X018059Y014921D01*
X017948Y015019D02*
X018639Y015019D01*
X018614Y015118D02*
X017734Y015118D01*
X017635Y015216D02*
X018628Y015216D01*
X018688Y015315D02*
X017599Y015315D01*
X017599Y015413D02*
X020570Y015413D01*
X020472Y015315D02*
X019071Y015315D01*
X018876Y015906D02*
X019332Y015906D01*
X019245Y016004D02*
X018963Y016004D01*
X018994Y016103D02*
X019214Y016103D01*
X019221Y016201D02*
X018987Y016201D01*
X018936Y016300D02*
X019273Y016300D01*
X019686Y016300D02*
X020523Y016300D01*
X020471Y016201D02*
X019737Y016201D01*
X019744Y016103D02*
X020464Y016103D01*
X020495Y016004D02*
X019713Y016004D01*
X019626Y015906D02*
X020582Y015906D01*
X020876Y015906D02*
X021009Y015906D01*
X021009Y016004D02*
X020963Y016004D01*
X020994Y016103D02*
X021009Y016103D01*
X021009Y016201D02*
X020987Y016201D01*
X021009Y016300D02*
X020936Y016300D01*
X021349Y016300D02*
X021851Y016300D01*
X022029Y016300D02*
X022067Y016300D01*
X022067Y016398D02*
X022029Y016398D01*
X022029Y016497D02*
X022067Y016497D01*
X022067Y016595D02*
X022029Y016595D01*
X022029Y016694D02*
X022067Y016694D01*
X022067Y016715D02*
X022067Y016753D01*
X022029Y016753D01*
X022029Y017179D01*
X021891Y017179D01*
X021853Y017169D01*
X021825Y017153D01*
X021825Y017283D01*
X021589Y017518D01*
X021589Y017555D01*
X021615Y017555D01*
X021669Y017608D01*
X021677Y017593D01*
X021705Y017565D01*
X021740Y017545D01*
X021778Y017535D01*
X021966Y017535D01*
X021966Y017833D01*
X022062Y017833D01*
X022062Y017535D01*
X022179Y017535D01*
X022179Y017179D01*
X022067Y017179D01*
X022067Y016753D01*
X022179Y016753D01*
X022179Y016715D01*
X022067Y016715D01*
X022067Y016792D02*
X022029Y016792D01*
X022029Y016891D02*
X022067Y016891D01*
X022067Y016989D02*
X022029Y016989D01*
X022029Y017088D02*
X022067Y017088D01*
X022179Y017186D02*
X021825Y017186D01*
X021823Y017285D02*
X022179Y017285D01*
X022179Y017383D02*
X021725Y017383D01*
X021626Y017482D02*
X022179Y017482D01*
X022062Y017580D02*
X021966Y017580D01*
X021966Y017679D02*
X022062Y017679D01*
X022062Y017777D02*
X021966Y017777D01*
X021966Y017930D02*
X021966Y018067D01*
X022023Y018067D01*
X022023Y018481D01*
X022123Y018481D01*
X022123Y018228D01*
X022062Y018228D01*
X022062Y017930D01*
X021966Y017930D01*
X021966Y017974D02*
X022062Y017974D01*
X022062Y018073D02*
X022023Y018073D01*
X022023Y018171D02*
X022062Y018171D01*
X022023Y018270D02*
X022123Y018270D01*
X022123Y018368D02*
X022023Y018368D01*
X022023Y018467D02*
X022123Y018467D01*
X022123Y018581D02*
X022023Y018581D01*
X022023Y018996D01*
X021797Y018996D01*
X021759Y018986D01*
X021725Y018966D01*
X021697Y018939D01*
X021677Y018904D01*
X021672Y018883D01*
X021672Y018900D01*
X021595Y018976D01*
X021499Y018976D01*
X021504Y018981D01*
X021544Y019079D01*
X021544Y019184D01*
X021515Y019256D01*
X021515Y019267D01*
X021515Y019285D01*
X021595Y019285D01*
X021672Y019361D01*
X021672Y019902D01*
X021625Y019949D01*
X021634Y019954D01*
X021662Y019982D01*
X021681Y020016D01*
X021687Y020038D01*
X021687Y020020D01*
X021746Y019961D01*
X021687Y019902D01*
X021687Y019361D01*
X021763Y019285D01*
X022179Y019285D01*
X022179Y018996D01*
X022123Y018996D01*
X022123Y018581D01*
X022123Y018664D02*
X022023Y018664D01*
X022023Y018762D02*
X022123Y018762D01*
X022123Y018861D02*
X022023Y018861D01*
X022023Y018959D02*
X022123Y018959D01*
X022179Y019058D02*
X021536Y019058D01*
X021544Y019156D02*
X022179Y019156D01*
X022179Y019255D02*
X021515Y019255D01*
X021663Y019353D02*
X021695Y019353D01*
X021687Y019452D02*
X021672Y019452D01*
X021672Y019550D02*
X021687Y019550D01*
X021687Y019649D02*
X021672Y019649D01*
X021672Y019747D02*
X021687Y019747D01*
X021687Y019846D02*
X021672Y019846D01*
X021629Y019944D02*
X021729Y019944D01*
X021355Y020240D02*
X020549Y020240D01*
X020549Y020285D02*
X020615Y020285D01*
X020691Y020361D01*
X020691Y020461D01*
X020750Y020461D01*
X021250Y020961D01*
X021349Y021061D01*
X021349Y021131D01*
X021386Y021131D01*
X021679Y021424D01*
X021679Y021839D01*
X021386Y022131D01*
X021349Y022131D01*
X021349Y022131D01*
X021386Y022131D01*
X021679Y022424D01*
X021679Y022839D01*
X021386Y023131D01*
X021349Y023131D01*
X021349Y023131D01*
X021386Y023131D01*
X021679Y023424D01*
X021679Y023839D01*
X021386Y024131D01*
X021349Y024131D01*
X021349Y024131D01*
X021386Y024131D01*
X021679Y024424D01*
X021679Y024839D01*
X021386Y025131D01*
X020972Y025131D01*
X020849Y025009D01*
X020849Y025952D01*
X020750Y026051D01*
X020921Y026051D01*
X020914Y026034D02*
X020914Y025929D01*
X020955Y025831D01*
X021029Y025757D01*
X021127Y025716D01*
X021232Y025716D01*
X021329Y025757D01*
X021404Y025831D01*
X021444Y025929D01*
X021444Y026034D01*
X021404Y026132D01*
X021349Y026186D01*
X021349Y026254D01*
X021396Y026208D01*
X021580Y026131D01*
X021779Y026131D01*
X021963Y026208D01*
X022103Y026348D01*
X022179Y026532D01*
X022179Y026731D01*
X022103Y026915D01*
X021963Y027055D01*
X021779Y027131D01*
X021580Y027131D01*
X021396Y027055D01*
X021349Y027009D01*
X021349Y027202D01*
X021132Y027419D01*
X021179Y027532D01*
X021179Y027731D01*
X021103Y027915D01*
X020963Y028055D01*
X020779Y028131D01*
X020580Y028131D01*
X020396Y028055D01*
X020255Y027915D01*
X020179Y027731D01*
X020103Y027915D01*
X019963Y028055D01*
X019779Y028131D01*
X019580Y028131D01*
X019396Y028055D01*
X019255Y027915D01*
X019179Y027731D01*
X019179Y027532D01*
X019255Y027348D01*
X019396Y027208D01*
X019580Y027131D01*
X019396Y027055D01*
X019255Y026915D01*
X019179Y026731D01*
X019179Y026532D01*
X019255Y026348D01*
X019396Y026208D01*
X019580Y026131D01*
X019779Y026131D01*
X019963Y026208D01*
X020038Y026283D01*
X020509Y025811D01*
X020509Y025009D01*
X020386Y025131D01*
X019972Y025131D01*
X019799Y024959D01*
X019799Y025052D01*
X019744Y025107D01*
X019744Y025184D01*
X019704Y025282D01*
X019629Y025356D01*
X019532Y025396D01*
X019427Y025396D01*
X019329Y025356D01*
X019255Y025282D01*
X019214Y025184D01*
X019214Y025079D01*
X019255Y024981D01*
X019329Y024907D01*
X019427Y024866D01*
X019459Y024866D01*
X019459Y024361D01*
X019559Y024261D01*
X019831Y023990D01*
X019679Y023839D01*
X019679Y023424D01*
X019972Y023131D01*
X019679Y022839D01*
X019679Y022424D01*
X019972Y022131D01*
X019679Y021839D01*
X019679Y021424D01*
X019972Y021131D01*
X020386Y021131D01*
X020679Y021424D01*
X020679Y021839D01*
X020386Y022131D01*
X019972Y022131D01*
X020386Y022131D01*
X020679Y022424D01*
X020679Y022839D01*
X020653Y022865D01*
X020849Y023061D01*
X020849Y023254D01*
X020972Y023131D01*
X020679Y022839D01*
X020679Y022424D01*
X020972Y022131D01*
X020679Y021839D01*
X020679Y021424D01*
X020956Y021148D01*
X020691Y020883D01*
X020691Y020902D01*
X020615Y020978D01*
X020113Y020978D01*
X020037Y020902D01*
X020037Y020370D01*
X020022Y020370D01*
X020022Y020902D01*
X019945Y020978D01*
X019444Y020978D01*
X019368Y020902D01*
X019368Y020818D01*
X019329Y020856D01*
X019232Y020896D01*
X019127Y020896D01*
X019029Y020856D01*
X018955Y020782D01*
X018914Y020684D01*
X018914Y020579D01*
X018955Y020481D01*
X019029Y020407D01*
X019127Y020366D01*
X019232Y020366D01*
X019329Y020407D01*
X019368Y020445D01*
X019368Y020361D01*
X019444Y020285D01*
X019703Y020285D01*
X019703Y019635D01*
X019779Y019559D01*
X020280Y019559D01*
X020356Y019635D01*
X020356Y019818D01*
X020450Y019911D01*
X020549Y020011D01*
X020549Y020285D01*
X020668Y020338D02*
X021077Y020338D01*
X021077Y020409D02*
X021077Y020260D01*
X021355Y020260D01*
X021355Y020539D01*
X021207Y020539D01*
X021169Y020529D01*
X021135Y020509D01*
X021107Y020481D01*
X021087Y020447D01*
X021077Y020409D01*
X021084Y020437D02*
X020691Y020437D01*
X020823Y020535D02*
X021192Y020535D01*
X021355Y020535D02*
X021413Y020535D01*
X021413Y020437D02*
X021355Y020437D01*
X021355Y020338D02*
X021413Y020338D01*
X021576Y020535D02*
X022179Y020535D01*
X022179Y020634D02*
X020922Y020634D01*
X021020Y020732D02*
X022179Y020732D01*
X022179Y020831D02*
X021119Y020831D01*
X021217Y020929D02*
X022179Y020929D01*
X022179Y021028D02*
X021316Y021028D01*
X021349Y021126D02*
X022179Y021126D01*
X022179Y021225D02*
X021480Y021225D01*
X021578Y021323D02*
X022179Y021323D01*
X022179Y021422D02*
X021677Y021422D01*
X021679Y021520D02*
X022179Y021520D01*
X022179Y021619D02*
X021679Y021619D01*
X021679Y021717D02*
X022179Y021717D01*
X022179Y021816D02*
X021679Y021816D01*
X021604Y021914D02*
X022179Y021914D01*
X022179Y022013D02*
X021505Y022013D01*
X021407Y022111D02*
X022179Y022111D01*
X022179Y022210D02*
X021465Y022210D01*
X021563Y022308D02*
X022179Y022308D01*
X022179Y022407D02*
X021662Y022407D01*
X021679Y022505D02*
X022179Y022505D01*
X022179Y022604D02*
X021679Y022604D01*
X021679Y022702D02*
X022179Y022702D01*
X022179Y022801D02*
X021679Y022801D01*
X021619Y022899D02*
X022179Y022899D01*
X022179Y022998D02*
X021520Y022998D01*
X021422Y023096D02*
X022179Y023096D01*
X022179Y023195D02*
X021450Y023195D01*
X021548Y023293D02*
X022179Y023293D01*
X022179Y023392D02*
X021647Y023392D01*
X021679Y023490D02*
X022179Y023490D01*
X022179Y023589D02*
X021679Y023589D01*
X021679Y023687D02*
X022179Y023687D01*
X022179Y023786D02*
X021679Y023786D01*
X021634Y023884D02*
X022179Y023884D01*
X022179Y023983D02*
X021535Y023983D01*
X021437Y024081D02*
X022179Y024081D01*
X022179Y024180D02*
X021435Y024180D01*
X021533Y024278D02*
X022179Y024278D01*
X022179Y024377D02*
X021632Y024377D01*
X021679Y024475D02*
X022179Y024475D01*
X022179Y024574D02*
X021679Y024574D01*
X021679Y024672D02*
X022179Y024672D01*
X022179Y024771D02*
X021679Y024771D01*
X021649Y024869D02*
X022179Y024869D01*
X022179Y024968D02*
X021550Y024968D01*
X021452Y025066D02*
X022179Y025066D01*
X022179Y025165D02*
X020849Y025165D01*
X020849Y025263D02*
X022179Y025263D01*
X022179Y025362D02*
X020849Y025362D01*
X020849Y025460D02*
X022179Y025460D01*
X022179Y025559D02*
X020849Y025559D01*
X020849Y025657D02*
X022179Y025657D01*
X022179Y025756D02*
X021326Y025756D01*
X021413Y025854D02*
X022179Y025854D01*
X022179Y025953D02*
X021444Y025953D01*
X021437Y026051D02*
X022179Y026051D01*
X022179Y026150D02*
X021822Y026150D01*
X022003Y026248D02*
X022179Y026248D01*
X022179Y026347D02*
X022102Y026347D01*
X022143Y026445D02*
X022179Y026445D01*
X022179Y026544D02*
X022179Y026544D01*
X022179Y026642D02*
X022179Y026642D01*
X022175Y026741D02*
X022179Y026741D01*
X022179Y026839D02*
X022135Y026839D01*
X022179Y026938D02*
X022080Y026938D01*
X021982Y027036D02*
X022179Y027036D01*
X022179Y027135D02*
X021786Y027135D01*
X021779Y027131D02*
X021963Y027208D01*
X022103Y027348D01*
X022179Y027532D01*
X022179Y027731D01*
X022103Y027915D01*
X021963Y028055D01*
X021779Y028131D01*
X021580Y028131D01*
X021396Y028055D01*
X021255Y027915D01*
X021179Y027731D01*
X021179Y027532D01*
X021255Y027348D01*
X021396Y027208D01*
X021580Y027131D01*
X021779Y027131D01*
X021573Y027135D02*
X021349Y027135D01*
X021349Y027036D02*
X021377Y027036D01*
X021371Y027233D02*
X021318Y027233D01*
X021272Y027332D02*
X021220Y027332D01*
X021222Y027430D02*
X021137Y027430D01*
X021178Y027529D02*
X021181Y027529D01*
X021179Y027627D02*
X021179Y027627D01*
X021179Y027726D02*
X021179Y027726D01*
X021141Y027824D02*
X021218Y027824D01*
X021263Y027923D02*
X021095Y027923D01*
X020997Y028021D02*
X021362Y028021D01*
X021551Y028120D02*
X020808Y028120D01*
X020551Y028120D02*
X019808Y028120D01*
X019997Y028021D02*
X020362Y028021D01*
X020263Y027923D02*
X020095Y027923D01*
X020141Y027824D02*
X020218Y027824D01*
X020179Y027731D02*
X020179Y027532D01*
X020132Y027419D01*
X020250Y027301D01*
X020349Y027202D01*
X020349Y027009D01*
X020396Y027055D01*
X020580Y027131D01*
X020779Y027131D01*
X020963Y027055D01*
X021009Y027009D01*
X021009Y027061D01*
X020892Y027178D01*
X020779Y027131D01*
X020580Y027131D01*
X020396Y027208D01*
X020255Y027348D01*
X020179Y027532D01*
X020179Y027731D01*
X020179Y027726D02*
X020179Y027726D01*
X020179Y027627D02*
X020179Y027627D01*
X020178Y027529D02*
X020181Y027529D01*
X020222Y027430D02*
X020137Y027430D01*
X020220Y027332D02*
X020272Y027332D01*
X020318Y027233D02*
X020371Y027233D01*
X020349Y027135D02*
X020573Y027135D01*
X020786Y027135D02*
X020936Y027135D01*
X020982Y027036D02*
X021009Y027036D01*
X020377Y027036D02*
X020349Y027036D01*
X020009Y027036D02*
X019982Y027036D01*
X019963Y027055D02*
X019779Y027131D01*
X019580Y027131D01*
X019779Y027131D01*
X019892Y027178D01*
X020009Y027061D01*
X020009Y027009D01*
X019963Y027055D01*
X019936Y027135D02*
X019786Y027135D01*
X019573Y027135D02*
X018786Y027135D01*
X018779Y027131D02*
X018580Y027131D01*
X018396Y027055D01*
X018349Y027009D01*
X018349Y027202D01*
X018250Y027301D01*
X018132Y027419D01*
X018179Y027532D01*
X018179Y027731D01*
X018179Y027532D01*
X018255Y027348D01*
X018396Y027208D01*
X018580Y027131D01*
X018779Y027131D01*
X018573Y027135D02*
X018349Y027135D01*
X018349Y027036D02*
X018377Y027036D01*
X018371Y027233D02*
X018318Y027233D01*
X018272Y027332D02*
X018220Y027332D01*
X018222Y027430D02*
X018137Y027430D01*
X018178Y027529D02*
X018181Y027529D01*
X018179Y027627D02*
X018179Y027627D01*
X018179Y027726D02*
X018179Y027726D01*
X018141Y027824D02*
X018218Y027824D01*
X018263Y027923D02*
X018095Y027923D01*
X017997Y028021D02*
X018362Y028021D01*
X018551Y028120D02*
X017808Y028120D01*
X017551Y028120D02*
X016808Y028120D01*
X016997Y028021D02*
X017362Y028021D01*
X017263Y027923D02*
X017095Y027923D01*
X017141Y027824D02*
X017218Y027824D01*
X017179Y027731D02*
X017179Y027532D01*
X017103Y027348D01*
X016963Y027208D01*
X016779Y027131D01*
X016580Y027131D01*
X016396Y027055D01*
X016255Y026915D01*
X016179Y026731D01*
X016103Y026915D01*
X015963Y027055D01*
X015779Y027131D01*
X015580Y027131D01*
X015396Y027055D01*
X015255Y026915D01*
X015179Y026731D01*
X015103Y026915D01*
X014963Y027055D01*
X014779Y027131D01*
X014580Y027131D01*
X014396Y027055D01*
X014255Y026915D01*
X014179Y026731D01*
X014179Y026532D01*
X014255Y026348D01*
X014396Y026208D01*
X014580Y026131D01*
X014779Y026131D01*
X014963Y026208D01*
X015103Y026348D01*
X015179Y026532D01*
X015179Y026731D01*
X015179Y026532D01*
X015255Y026348D01*
X015396Y026208D01*
X015580Y026131D01*
X015779Y026131D01*
X015963Y026208D01*
X016103Y026348D01*
X016179Y026532D01*
X016179Y026731D01*
X016179Y026532D01*
X016255Y026348D01*
X016396Y026208D01*
X016580Y026131D01*
X016779Y026131D01*
X016914Y026188D01*
X016914Y026179D01*
X016955Y026081D01*
X017009Y026027D01*
X017009Y025009D01*
X016886Y025131D01*
X016472Y025131D01*
X016179Y024839D01*
X016179Y024424D01*
X016472Y024131D01*
X016179Y023839D01*
X016179Y023424D01*
X016472Y023131D01*
X016179Y022839D01*
X016179Y022424D01*
X016472Y022131D01*
X016179Y021839D01*
X016179Y021424D01*
X016472Y021131D01*
X016886Y021131D01*
X017179Y021424D01*
X017179Y021839D01*
X016886Y022131D01*
X016472Y022131D01*
X016886Y022131D01*
X017179Y022424D01*
X017179Y022839D01*
X016886Y023131D01*
X016472Y023131D01*
X016886Y023131D01*
X017179Y023424D01*
X017179Y023839D01*
X017153Y023865D01*
X017349Y024061D01*
X017349Y024254D01*
X017472Y024131D01*
X017179Y023839D01*
X017179Y023424D01*
X017472Y023131D01*
X017179Y022839D01*
X017179Y022424D01*
X017472Y022131D01*
X017179Y021839D01*
X017179Y021424D01*
X017472Y021131D01*
X017886Y021131D01*
X017913Y021158D01*
X017994Y021076D01*
X017994Y020978D01*
X017913Y020978D01*
X017837Y020902D01*
X017837Y020370D01*
X017822Y020370D01*
X017822Y020902D01*
X017745Y020978D01*
X017244Y020978D01*
X017168Y020902D01*
X017168Y020818D01*
X017129Y020856D01*
X017032Y020896D01*
X016927Y020896D01*
X016829Y020856D01*
X016755Y020782D01*
X016742Y020751D01*
X016700Y020793D01*
X016599Y020793D01*
X016599Y020802D01*
X015849Y021552D01*
X015849Y022202D01*
X013632Y024419D01*
X013679Y024532D01*
X013679Y024666D01*
X013782Y024666D01*
X013879Y024707D01*
X013954Y024781D01*
X013954Y024782D01*
X013955Y024781D01*
X014029Y024707D01*
X014127Y024666D01*
X014232Y024666D01*
X014329Y024707D01*
X014404Y024781D01*
X014444Y024879D01*
X014444Y024984D01*
X014404Y025082D01*
X014349Y025136D01*
X014349Y025777D01*
X014404Y025831D01*
X014444Y025929D01*
X014444Y026034D01*
X014404Y026132D01*
X014329Y026206D01*
X014232Y026246D01*
X014127Y026246D01*
X014099Y026235D01*
X014099Y026961D01*
X014371Y027233D01*
X014396Y027208D01*
X014580Y027131D01*
X014779Y027131D01*
X014963Y027208D01*
X015103Y027348D01*
X015179Y027532D01*
X015179Y027731D01*
X015103Y027915D01*
X015056Y027961D01*
X015109Y027961D01*
X015226Y027844D01*
X015179Y027731D01*
X015179Y027532D01*
X015255Y027348D01*
X015396Y027208D01*
X015580Y027131D01*
X015779Y027131D01*
X015963Y027208D01*
X016103Y027348D01*
X016179Y027532D01*
X016179Y027731D01*
X016179Y027532D01*
X016255Y027348D01*
X016396Y027208D01*
X016580Y027131D01*
X016779Y027131D01*
X016963Y027055D01*
X017103Y026915D01*
X017179Y026731D01*
X017179Y026532D01*
X017165Y026496D01*
X017194Y026496D01*
X017179Y026532D01*
X017179Y026731D01*
X017255Y026915D01*
X017396Y027055D01*
X017580Y027131D01*
X017779Y027131D01*
X017963Y027055D01*
X018009Y027009D01*
X018009Y027061D01*
X017892Y027178D01*
X017779Y027131D01*
X017580Y027131D01*
X017396Y027208D01*
X017255Y027348D01*
X017179Y027532D01*
X017179Y027731D01*
X017179Y027726D02*
X017179Y027726D01*
X017179Y027627D02*
X017179Y027627D01*
X017178Y027529D02*
X017181Y027529D01*
X017222Y027430D02*
X017137Y027430D01*
X017087Y027332D02*
X017272Y027332D01*
X017371Y027233D02*
X016988Y027233D01*
X016982Y027036D02*
X017377Y027036D01*
X017278Y026938D02*
X017080Y026938D01*
X017135Y026839D02*
X017224Y026839D01*
X017183Y026741D02*
X017175Y026741D01*
X017179Y026642D02*
X017179Y026642D01*
X017179Y026544D02*
X017179Y026544D01*
X016926Y026150D02*
X016822Y026150D01*
X016985Y026051D02*
X014437Y026051D01*
X014444Y025953D02*
X017009Y025953D01*
X017009Y025854D02*
X014413Y025854D01*
X014349Y025756D02*
X017009Y025756D01*
X017009Y025657D02*
X014349Y025657D01*
X014349Y025559D02*
X017009Y025559D01*
X017009Y025460D02*
X014349Y025460D01*
X014349Y025362D02*
X017009Y025362D01*
X017009Y025263D02*
X014349Y025263D01*
X014349Y025165D02*
X017009Y025165D01*
X017009Y025066D02*
X016952Y025066D01*
X016407Y025066D02*
X014410Y025066D01*
X014444Y024968D02*
X016308Y024968D01*
X016210Y024869D02*
X014440Y024869D01*
X014393Y024771D02*
X016179Y024771D01*
X016179Y024672D02*
X014245Y024672D01*
X014113Y024672D02*
X013795Y024672D01*
X013679Y024574D02*
X016179Y024574D01*
X016179Y024475D02*
X013656Y024475D01*
X013675Y024377D02*
X016227Y024377D01*
X016326Y024278D02*
X013773Y024278D01*
X013872Y024180D02*
X016424Y024180D01*
X016472Y024131D02*
X016886Y024131D01*
X016913Y024105D01*
X017009Y024202D01*
X017009Y024254D01*
X016886Y024131D01*
X016472Y024131D01*
X016422Y024081D02*
X013970Y024081D01*
X014069Y023983D02*
X016323Y023983D01*
X016225Y023884D02*
X014167Y023884D01*
X014266Y023786D02*
X016179Y023786D01*
X016179Y023687D02*
X014364Y023687D01*
X014463Y023589D02*
X016179Y023589D01*
X016179Y023490D02*
X014561Y023490D01*
X014660Y023392D02*
X016212Y023392D01*
X016311Y023293D02*
X014758Y023293D01*
X014857Y023195D02*
X016409Y023195D01*
X016437Y023096D02*
X014955Y023096D01*
X015054Y022998D02*
X016338Y022998D01*
X016240Y022899D02*
X015152Y022899D01*
X015251Y022801D02*
X016179Y022801D01*
X016179Y022702D02*
X015349Y022702D01*
X015448Y022604D02*
X016179Y022604D01*
X016179Y022505D02*
X015546Y022505D01*
X015645Y022407D02*
X016197Y022407D01*
X016296Y022308D02*
X015743Y022308D01*
X015842Y022210D02*
X016394Y022210D01*
X016452Y022111D02*
X015849Y022111D01*
X015849Y022013D02*
X016353Y022013D01*
X016255Y021914D02*
X015849Y021914D01*
X015849Y021816D02*
X016179Y021816D01*
X016179Y021717D02*
X015849Y021717D01*
X015849Y021619D02*
X016179Y021619D01*
X016179Y021520D02*
X015881Y021520D01*
X015980Y021422D02*
X016182Y021422D01*
X016281Y021323D02*
X016078Y021323D01*
X016177Y021225D02*
X016379Y021225D01*
X016275Y021126D02*
X017944Y021126D01*
X017994Y021028D02*
X016374Y021028D01*
X016472Y020929D02*
X017195Y020929D01*
X017168Y020831D02*
X017155Y020831D01*
X016804Y020831D02*
X016571Y020831D01*
X016776Y020437D02*
X016800Y020437D01*
X016776Y020338D02*
X017191Y020338D01*
X017168Y020437D02*
X017159Y020437D01*
X016776Y020240D02*
X017553Y020240D01*
X017553Y020141D02*
X016701Y020141D01*
X016776Y020043D02*
X017553Y020043D01*
X017553Y019944D02*
X016776Y019944D01*
X016776Y019846D02*
X017553Y019846D01*
X017553Y019747D02*
X016776Y019747D01*
X016776Y019649D02*
X017553Y019649D01*
X017809Y019452D02*
X017950Y019452D01*
X017927Y019428D02*
X017927Y018769D01*
X017940Y018755D01*
X017887Y018702D01*
X017887Y018161D01*
X017963Y018085D01*
X018085Y018085D01*
X018159Y018011D01*
X018459Y017711D01*
X018975Y017711D01*
X019029Y017657D01*
X019127Y017616D01*
X019232Y017616D01*
X019329Y017657D01*
X019404Y017731D01*
X019444Y017829D01*
X019444Y017934D01*
X019404Y018032D01*
X019329Y018106D01*
X019232Y018146D01*
X019127Y018146D01*
X019029Y018106D01*
X018975Y018051D01*
X018600Y018051D01*
X018516Y018136D01*
X018541Y018161D01*
X018541Y018702D01*
X018527Y018716D01*
X018580Y018769D01*
X018580Y019428D01*
X018504Y019504D01*
X018003Y019504D01*
X017927Y019428D01*
X017927Y019353D02*
X017832Y019353D01*
X017832Y019255D02*
X017927Y019255D01*
X017927Y019156D02*
X017832Y019156D01*
X017832Y019058D02*
X017927Y019058D01*
X017927Y018959D02*
X017832Y018959D01*
X017832Y018861D02*
X017927Y018861D01*
X017933Y018762D02*
X017825Y018762D01*
X017872Y018664D02*
X017887Y018664D01*
X017887Y018565D02*
X017872Y018565D01*
X017872Y018467D02*
X017887Y018467D01*
X017887Y018368D02*
X017872Y018368D01*
X017872Y018270D02*
X017887Y018270D01*
X017887Y018171D02*
X017872Y018171D01*
X018098Y018073D02*
X017279Y018073D01*
X017218Y018171D02*
X017180Y018171D01*
X017149Y018270D02*
X017218Y018270D01*
X017218Y018368D02*
X017149Y018368D01*
X017149Y018467D02*
X017218Y018467D01*
X017218Y018565D02*
X017149Y018565D01*
X017088Y018664D02*
X017218Y018664D01*
X017185Y018762D02*
X016989Y018762D01*
X016891Y018861D02*
X017179Y018861D01*
X017165Y019255D02*
X017179Y019255D01*
X017179Y019353D02*
X017083Y019353D01*
X017202Y019452D02*
X016723Y019452D01*
X016723Y019353D02*
X016776Y019353D01*
X016776Y019550D02*
X021018Y019550D01*
X021018Y019452D02*
X020707Y019452D01*
X020730Y019428D02*
X020654Y019504D01*
X020153Y019504D01*
X020077Y019428D01*
X020077Y018769D01*
X020090Y018755D01*
X020037Y018702D01*
X020037Y018161D01*
X020113Y018085D01*
X020192Y018085D01*
X020109Y018002D01*
X020109Y017986D01*
X020055Y017932D01*
X020014Y017834D01*
X020014Y017729D01*
X020055Y017631D01*
X020129Y017557D01*
X020227Y017516D01*
X020332Y017516D01*
X020429Y017557D01*
X020504Y017631D01*
X020544Y017729D01*
X020544Y017834D01*
X020509Y017920D01*
X020549Y017961D01*
X020549Y018085D01*
X020615Y018085D01*
X020691Y018161D01*
X020691Y018702D01*
X020677Y018716D01*
X020730Y018769D01*
X020730Y019428D01*
X020730Y019353D02*
X021026Y019353D01*
X021043Y019255D02*
X020730Y019255D01*
X020730Y019156D02*
X021014Y019156D01*
X021023Y019058D02*
X020730Y019058D01*
X020730Y018959D02*
X020958Y018959D01*
X020900Y018861D02*
X020730Y018861D01*
X020723Y018762D02*
X020900Y018762D01*
X020900Y018664D02*
X020691Y018664D01*
X020691Y018565D02*
X020900Y018565D01*
X020900Y018467D02*
X020691Y018467D01*
X020691Y018368D02*
X020900Y018368D01*
X020900Y018270D02*
X020691Y018270D01*
X020691Y018171D02*
X020900Y018171D01*
X020998Y018073D02*
X020549Y018073D01*
X020549Y017974D02*
X020781Y017974D01*
X020683Y017876D02*
X020527Y017876D01*
X020544Y017777D02*
X020609Y017777D01*
X020609Y017679D02*
X020524Y017679D01*
X020537Y017580D02*
X020453Y017580D01*
X020439Y017482D02*
X019320Y017482D01*
X019418Y017383D02*
X020340Y017383D01*
X020242Y017285D02*
X019517Y017285D01*
X019615Y017186D02*
X020146Y017186D01*
X020106Y017580D02*
X018521Y017580D01*
X018423Y017679D02*
X019008Y017679D01*
X019351Y017679D02*
X020035Y017679D01*
X020014Y017777D02*
X019423Y017777D01*
X019444Y017876D02*
X020031Y017876D01*
X020097Y017974D02*
X019428Y017974D01*
X019444Y018085D02*
X019945Y018085D01*
X020022Y018161D01*
X020022Y018702D01*
X019968Y018755D01*
X019982Y018769D01*
X019982Y019428D01*
X019906Y019504D01*
X019405Y019504D01*
X019329Y019428D01*
X019329Y019377D01*
X019282Y019396D01*
X019177Y019396D01*
X019079Y019356D01*
X019005Y019282D01*
X018964Y019184D01*
X018964Y019079D01*
X019005Y018981D01*
X019079Y018907D01*
X019177Y018866D01*
X019282Y018866D01*
X019329Y018886D01*
X019329Y018769D01*
X019382Y018716D01*
X019368Y018702D01*
X019368Y018161D01*
X019444Y018085D01*
X019363Y018073D02*
X020180Y018073D01*
X020037Y018171D02*
X020022Y018171D01*
X020022Y018270D02*
X020037Y018270D01*
X020037Y018368D02*
X020022Y018368D01*
X020022Y018467D02*
X020037Y018467D01*
X020037Y018565D02*
X020022Y018565D01*
X020022Y018664D02*
X020037Y018664D01*
X020083Y018762D02*
X019975Y018762D01*
X019982Y018861D02*
X020077Y018861D01*
X020077Y018959D02*
X019982Y018959D01*
X019982Y019058D02*
X020077Y019058D01*
X020077Y019156D02*
X019982Y019156D01*
X019982Y019255D02*
X020077Y019255D01*
X020077Y019353D02*
X019982Y019353D01*
X019959Y019452D02*
X020100Y019452D01*
X020356Y019649D02*
X021018Y019649D01*
X021018Y019747D02*
X020356Y019747D01*
X020384Y019846D02*
X021018Y019846D01*
X021060Y019944D02*
X020482Y019944D01*
X020549Y020043D02*
X021080Y020043D01*
X021077Y020141D02*
X020549Y020141D01*
X020037Y020437D02*
X020022Y020437D01*
X020022Y020535D02*
X020037Y020535D01*
X020037Y020634D02*
X020022Y020634D01*
X020022Y020732D02*
X020037Y020732D01*
X020037Y020831D02*
X020022Y020831D01*
X019994Y020929D02*
X020064Y020929D01*
X019879Y021225D02*
X018327Y021225D01*
X018334Y021126D02*
X020933Y021126D01*
X020879Y021225D02*
X020480Y021225D01*
X020578Y021323D02*
X020781Y021323D01*
X020682Y021422D02*
X020677Y021422D01*
X020679Y021520D02*
X020679Y021520D01*
X020679Y021619D02*
X020679Y021619D01*
X020679Y021717D02*
X020679Y021717D01*
X020679Y021816D02*
X020679Y021816D01*
X020604Y021914D02*
X020755Y021914D01*
X020853Y022013D02*
X020505Y022013D01*
X020407Y022111D02*
X020952Y022111D01*
X020972Y022131D02*
X021009Y022131D01*
X021009Y022131D01*
X020972Y022131D01*
X020894Y022210D02*
X020465Y022210D01*
X020563Y022308D02*
X020796Y022308D01*
X020697Y022407D02*
X020662Y022407D01*
X020679Y022505D02*
X020679Y022505D01*
X020679Y022604D02*
X020679Y022604D01*
X020679Y022702D02*
X020679Y022702D01*
X020679Y022801D02*
X020679Y022801D01*
X020687Y022899D02*
X020740Y022899D01*
X020786Y022998D02*
X020838Y022998D01*
X020849Y023096D02*
X020937Y023096D01*
X020972Y023131D02*
X021009Y023131D01*
X021009Y023131D01*
X020972Y023131D01*
X020909Y023195D02*
X020849Y023195D01*
X020509Y023202D02*
X020413Y023105D01*
X020386Y023131D01*
X019972Y023131D01*
X020386Y023131D01*
X020509Y023254D01*
X020509Y023202D01*
X020502Y023195D02*
X020450Y023195D01*
X019937Y023096D02*
X017922Y023096D01*
X017950Y023195D02*
X019909Y023195D01*
X019811Y023293D02*
X018048Y023293D01*
X018147Y023392D02*
X019712Y023392D01*
X019679Y023490D02*
X018179Y023490D01*
X018179Y023589D02*
X019679Y023589D01*
X019679Y023687D02*
X018460Y023687D01*
X018526Y023786D02*
X019679Y023786D01*
X019725Y023884D02*
X018544Y023884D01*
X018524Y023983D02*
X019823Y023983D01*
X019739Y024081D02*
X018455Y024081D01*
X018449Y024180D02*
X019641Y024180D01*
X019542Y024278D02*
X018449Y024278D01*
X018449Y024377D02*
X019459Y024377D01*
X019459Y024475D02*
X018449Y024475D01*
X018449Y024574D02*
X019459Y024574D01*
X019459Y024672D02*
X018449Y024672D01*
X018449Y024771D02*
X019459Y024771D01*
X019421Y024869D02*
X018449Y024869D01*
X018449Y024968D02*
X019269Y024968D01*
X019220Y025066D02*
X018449Y025066D01*
X018449Y025165D02*
X019214Y025165D01*
X019247Y025263D02*
X018449Y025263D01*
X018449Y025362D02*
X019342Y025362D01*
X019616Y025362D02*
X020509Y025362D01*
X020509Y025460D02*
X018449Y025460D01*
X018449Y025559D02*
X020509Y025559D01*
X020509Y025657D02*
X018449Y025657D01*
X018449Y025756D02*
X020509Y025756D01*
X020466Y025854D02*
X018397Y025854D01*
X018349Y025953D02*
X020368Y025953D01*
X020269Y026051D02*
X018349Y026051D01*
X018349Y026150D02*
X018536Y026150D01*
X018356Y026248D02*
X018349Y026248D01*
X018822Y026150D02*
X019536Y026150D01*
X019356Y026248D02*
X019003Y026248D01*
X019102Y026347D02*
X019257Y026347D01*
X019215Y026445D02*
X019143Y026445D01*
X019179Y026544D02*
X019179Y026544D01*
X019179Y026642D02*
X019179Y026642D01*
X019175Y026741D02*
X019183Y026741D01*
X019224Y026839D02*
X019135Y026839D01*
X019080Y026938D02*
X019278Y026938D01*
X019377Y027036D02*
X018982Y027036D01*
X018988Y027233D02*
X019371Y027233D01*
X019272Y027332D02*
X019087Y027332D01*
X019137Y027430D02*
X019222Y027430D01*
X019181Y027529D02*
X019178Y027529D01*
X019179Y027627D02*
X019179Y027627D01*
X019179Y027726D02*
X019179Y027726D01*
X019141Y027824D02*
X019218Y027824D01*
X019263Y027923D02*
X019095Y027923D01*
X018997Y028021D02*
X019362Y028021D01*
X019551Y028120D02*
X018808Y028120D01*
X017936Y027135D02*
X017786Y027135D01*
X017573Y027135D02*
X016786Y027135D01*
X016573Y027135D02*
X015786Y027135D01*
X015573Y027135D02*
X014786Y027135D01*
X014573Y027135D02*
X014273Y027135D01*
X014174Y027036D02*
X014377Y027036D01*
X014278Y026938D02*
X014099Y026938D01*
X014099Y026839D02*
X014224Y026839D01*
X014183Y026741D02*
X014099Y026741D01*
X014099Y026642D02*
X014179Y026642D01*
X014179Y026544D02*
X014099Y026544D01*
X014099Y026445D02*
X014215Y026445D01*
X014257Y026347D02*
X014099Y026347D01*
X014099Y026248D02*
X014356Y026248D01*
X014386Y026150D02*
X014536Y026150D01*
X014822Y026150D02*
X015536Y026150D01*
X015356Y026248D02*
X015003Y026248D01*
X015102Y026347D02*
X015257Y026347D01*
X015215Y026445D02*
X015143Y026445D01*
X015179Y026544D02*
X015179Y026544D01*
X015179Y026642D02*
X015179Y026642D01*
X015175Y026741D02*
X015183Y026741D01*
X015224Y026839D02*
X015135Y026839D01*
X015080Y026938D02*
X015278Y026938D01*
X015377Y027036D02*
X014982Y027036D01*
X014988Y027233D02*
X015371Y027233D01*
X015272Y027332D02*
X015087Y027332D01*
X015137Y027430D02*
X015222Y027430D01*
X015181Y027529D02*
X015178Y027529D01*
X015179Y027627D02*
X015179Y027627D01*
X015179Y027726D02*
X015179Y027726D01*
X015141Y027824D02*
X015218Y027824D01*
X015148Y027923D02*
X015095Y027923D01*
X015333Y028218D02*
X022179Y028218D01*
X022179Y028120D02*
X021808Y028120D01*
X021997Y028021D02*
X022179Y028021D01*
X022179Y027923D02*
X022095Y027923D01*
X022141Y027824D02*
X022179Y027824D01*
X022179Y027726D02*
X022179Y027726D01*
X022179Y027627D02*
X022179Y027627D01*
X022178Y027529D02*
X022179Y027529D01*
X022179Y027430D02*
X022137Y027430D01*
X022179Y027332D02*
X022087Y027332D01*
X022179Y027233D02*
X021988Y027233D01*
X022179Y028317D02*
X003196Y028317D01*
X003295Y028218D02*
X012776Y028218D01*
X012677Y028120D02*
X012308Y028120D01*
X012497Y028021D02*
X012579Y028021D01*
X012051Y028120D02*
X011308Y028120D01*
X011497Y028021D02*
X011862Y028021D01*
X011763Y027923D02*
X011595Y027923D01*
X011641Y027824D02*
X011718Y027824D01*
X011679Y027731D02*
X011679Y027532D01*
X011632Y027419D01*
X011849Y027202D01*
X011849Y027009D01*
X011896Y027055D01*
X012080Y027131D01*
X012279Y027131D01*
X012463Y027055D01*
X012509Y027009D01*
X012509Y027254D01*
X012463Y027208D01*
X012279Y027131D01*
X012080Y027131D01*
X011896Y027208D01*
X011755Y027348D01*
X011679Y027532D01*
X011679Y027731D01*
X011679Y027726D02*
X011679Y027726D01*
X011679Y027627D02*
X011679Y027627D01*
X011678Y027529D02*
X011681Y027529D01*
X011722Y027430D02*
X011637Y027430D01*
X011720Y027332D02*
X011772Y027332D01*
X011818Y027233D02*
X011871Y027233D01*
X011849Y027135D02*
X012073Y027135D01*
X012286Y027135D02*
X012509Y027135D01*
X012509Y027233D02*
X012488Y027233D01*
X012482Y027036D02*
X012509Y027036D01*
X011877Y027036D02*
X011849Y027036D01*
X011509Y027036D02*
X011482Y027036D01*
X011463Y027055D02*
X011279Y027131D01*
X011080Y027131D01*
X010896Y027055D01*
X010846Y027005D01*
X010553Y027298D01*
X010603Y027348D01*
X010679Y027532D01*
X010679Y027731D01*
X010679Y027532D01*
X010755Y027348D01*
X010896Y027208D01*
X011080Y027131D01*
X011279Y027131D01*
X011392Y027178D01*
X011509Y027061D01*
X011509Y027009D01*
X011463Y027055D01*
X011436Y027135D02*
X011286Y027135D01*
X011073Y027135D02*
X010717Y027135D01*
X010618Y027233D02*
X010871Y027233D01*
X010772Y027332D02*
X010587Y027332D01*
X010637Y027430D02*
X010722Y027430D01*
X010681Y027529D02*
X010678Y027529D01*
X010679Y027627D02*
X010679Y027627D01*
X010679Y027726D02*
X010679Y027726D01*
X010641Y027824D02*
X010718Y027824D01*
X010763Y027923D02*
X010595Y027923D01*
X010497Y028021D02*
X010862Y028021D01*
X011051Y028120D02*
X010308Y028120D01*
X010051Y028120D02*
X009308Y028120D01*
X009497Y028021D02*
X009862Y028021D01*
X009763Y027923D02*
X009595Y027923D01*
X009641Y027824D02*
X009718Y027824D01*
X009679Y027731D02*
X009679Y027532D01*
X009603Y027348D01*
X009556Y027301D01*
X009802Y027301D01*
X009755Y027348D01*
X009679Y027532D01*
X009679Y027731D01*
X009679Y027726D02*
X009679Y027726D01*
X009679Y027627D02*
X009679Y027627D01*
X009678Y027529D02*
X009681Y027529D01*
X009722Y027430D02*
X009637Y027430D01*
X009587Y027332D02*
X009772Y027332D01*
X008802Y027301D02*
X008750Y027301D01*
X008632Y027419D01*
X008679Y027532D01*
X008679Y027731D01*
X008679Y027532D01*
X008755Y027348D01*
X008802Y027301D01*
X008772Y027332D02*
X008720Y027332D01*
X008722Y027430D02*
X008637Y027430D01*
X008678Y027529D02*
X008681Y027529D01*
X008679Y027627D02*
X008679Y027627D01*
X008679Y027726D02*
X008679Y027726D01*
X008641Y027824D02*
X008718Y027824D01*
X008763Y027923D02*
X008595Y027923D01*
X008497Y028021D02*
X008862Y028021D01*
X009051Y028120D02*
X008308Y028120D01*
X008051Y028120D02*
X007360Y028120D01*
X007229Y028120D02*
X007129Y028120D01*
X007129Y028021D02*
X007229Y028021D01*
X007229Y027923D02*
X007129Y027923D01*
X007129Y027824D02*
X007229Y027824D01*
X007229Y027726D02*
X007129Y027726D01*
X006999Y028120D02*
X006308Y028120D01*
X006497Y028021D02*
X006834Y028021D01*
X006748Y027923D02*
X006595Y027923D01*
X006641Y027824D02*
X006695Y027824D01*
X006672Y027513D02*
X006672Y027510D01*
X006697Y027432D01*
X006735Y027359D01*
X006783Y027293D01*
X006841Y027235D01*
X006907Y027187D01*
X006980Y027150D01*
X007058Y027124D01*
X007061Y027124D01*
X006896Y027055D01*
X006755Y026915D01*
X006679Y026731D01*
X006603Y026915D01*
X006463Y027055D01*
X006279Y027131D01*
X006080Y027131D01*
X006279Y027131D01*
X006463Y027208D01*
X006603Y027348D01*
X006672Y027513D01*
X006698Y027430D02*
X006637Y027430D01*
X006587Y027332D02*
X006755Y027332D01*
X006843Y027233D02*
X006488Y027233D01*
X006482Y027036D02*
X006877Y027036D01*
X006778Y026938D02*
X006580Y026938D01*
X006635Y026839D02*
X006724Y026839D01*
X006683Y026741D02*
X006675Y026741D01*
X006679Y026731D02*
X006679Y026532D01*
X006603Y026348D01*
X006463Y026208D01*
X006292Y026137D01*
X006468Y026064D01*
X006612Y025920D01*
X006679Y025757D01*
X006747Y025920D01*
X006890Y026064D01*
X007067Y026137D01*
X006896Y026208D01*
X006755Y026348D01*
X006679Y026532D01*
X006679Y026731D01*
X006679Y026642D02*
X006679Y026642D01*
X006679Y026544D02*
X006679Y026544D01*
X006643Y026445D02*
X006715Y026445D01*
X006757Y026347D02*
X006602Y026347D01*
X006503Y026248D02*
X006856Y026248D01*
X006878Y026051D02*
X006481Y026051D01*
X006580Y025953D02*
X006779Y025953D01*
X006720Y025854D02*
X006639Y025854D01*
X006322Y026150D02*
X007036Y026150D01*
X007026Y027135D02*
X006286Y027135D01*
X006073Y027135D02*
X005286Y027135D01*
X005073Y027135D02*
X004286Y027135D01*
X004073Y027135D02*
X003385Y027135D01*
X003434Y027233D02*
X003871Y027233D01*
X003772Y027332D02*
X003475Y027332D01*
X003516Y027430D02*
X003722Y027430D01*
X003681Y027529D02*
X003529Y027529D01*
X003529Y027627D02*
X003679Y027627D01*
X003679Y027726D02*
X003529Y027726D01*
X003520Y027824D02*
X003718Y027824D01*
X003763Y027923D02*
X003479Y027923D01*
X003438Y028021D02*
X003862Y028021D01*
X004051Y028120D02*
X003393Y028120D01*
X003009Y028415D02*
X022113Y028415D01*
X021356Y026248D02*
X021349Y026248D01*
X021386Y026150D02*
X021536Y026150D01*
X021009Y026186D02*
X020955Y026132D01*
X020914Y026034D01*
X020914Y025953D02*
X020849Y025953D01*
X020849Y025854D02*
X020945Y025854D01*
X021032Y025756D02*
X020849Y025756D01*
X020750Y026051D02*
X020670Y026131D01*
X020779Y026131D01*
X020963Y026208D01*
X021009Y026254D01*
X021009Y026186D01*
X020973Y026150D02*
X020822Y026150D01*
X021003Y026248D02*
X021009Y026248D01*
X020171Y026150D02*
X019822Y026150D01*
X020003Y026248D02*
X020072Y026248D01*
X019712Y025263D02*
X020509Y025263D01*
X020509Y025165D02*
X019744Y025165D01*
X019785Y025066D02*
X019907Y025066D01*
X019808Y024968D02*
X019799Y024968D01*
X020452Y025066D02*
X020509Y025066D01*
X020849Y025066D02*
X020907Y025066D01*
X019838Y022998D02*
X018020Y022998D01*
X018119Y022899D02*
X019740Y022899D01*
X019679Y022801D02*
X018179Y022801D01*
X018179Y022702D02*
X019679Y022702D01*
X019679Y022604D02*
X018179Y022604D01*
X018179Y022505D02*
X019679Y022505D01*
X019697Y022407D02*
X018162Y022407D01*
X018063Y022308D02*
X019796Y022308D01*
X019894Y022210D02*
X017965Y022210D01*
X017907Y022111D02*
X019952Y022111D01*
X019853Y022013D02*
X018005Y022013D01*
X018104Y021914D02*
X019755Y021914D01*
X019679Y021816D02*
X018179Y021816D01*
X018179Y021717D02*
X019679Y021717D01*
X019679Y021619D02*
X018179Y021619D01*
X018179Y021520D02*
X019679Y021520D01*
X019682Y021422D02*
X018177Y021422D01*
X018228Y021323D02*
X019781Y021323D01*
X019395Y020929D02*
X018464Y020929D01*
X018491Y020831D02*
X019004Y020831D01*
X018934Y020732D02*
X018491Y020732D01*
X018491Y020634D02*
X018914Y020634D01*
X018932Y020535D02*
X018491Y020535D01*
X018491Y020437D02*
X019000Y020437D01*
X019359Y020437D02*
X019368Y020437D01*
X019391Y020338D02*
X018468Y020338D01*
X018399Y020240D02*
X019703Y020240D01*
X019703Y020141D02*
X018399Y020141D01*
X018399Y020043D02*
X019703Y020043D01*
X019703Y019944D02*
X018332Y019944D01*
X018234Y019846D02*
X019703Y019846D01*
X019703Y019747D02*
X018206Y019747D01*
X018206Y019649D02*
X019703Y019649D01*
X019352Y019452D02*
X018557Y019452D01*
X018580Y019353D02*
X019076Y019353D01*
X018993Y019255D02*
X018580Y019255D01*
X018580Y019156D02*
X018964Y019156D01*
X018973Y019058D02*
X018580Y019058D01*
X018580Y018959D02*
X019027Y018959D01*
X019329Y018861D02*
X018580Y018861D01*
X018573Y018762D02*
X019335Y018762D01*
X019368Y018664D02*
X018541Y018664D01*
X018541Y018565D02*
X019368Y018565D01*
X019368Y018467D02*
X018541Y018467D01*
X018541Y018368D02*
X019368Y018368D01*
X019368Y018270D02*
X018541Y018270D01*
X018541Y018171D02*
X019368Y018171D01*
X018996Y018073D02*
X018579Y018073D01*
X018295Y017876D02*
X017476Y017876D01*
X017377Y017974D02*
X018196Y017974D01*
X018324Y017777D02*
X018393Y017777D01*
X017269Y017601D02*
X016750Y017601D01*
X016199Y018152D01*
X016199Y018170D01*
X016208Y018165D01*
X016246Y018155D01*
X016417Y018155D01*
X016417Y018417D01*
X016441Y018417D01*
X016441Y018155D01*
X016613Y018155D01*
X016651Y018165D01*
X016685Y018185D01*
X016713Y018213D01*
X016733Y018247D01*
X016743Y018285D01*
X016743Y018417D01*
X016441Y018417D01*
X016441Y018441D01*
X016417Y018441D01*
X016417Y018703D01*
X016246Y018703D01*
X016208Y018693D01*
X016199Y018687D01*
X016199Y019093D01*
X016212Y019080D01*
X016259Y019080D01*
X016259Y019011D01*
X016359Y018911D01*
X016568Y018703D01*
X016441Y018703D01*
X016441Y018441D01*
X016743Y018441D01*
X016743Y018528D01*
X016809Y018461D01*
X016809Y018061D01*
X016909Y017961D01*
X017269Y017601D01*
X017192Y017679D02*
X016673Y017679D01*
X016574Y017777D02*
X017093Y017777D01*
X016995Y017876D02*
X016476Y017876D01*
X016377Y017974D02*
X016896Y017974D01*
X016809Y018073D02*
X016279Y018073D01*
X016417Y018171D02*
X016441Y018171D01*
X016441Y018270D02*
X016417Y018270D01*
X016417Y018368D02*
X016441Y018368D01*
X016441Y018467D02*
X016417Y018467D01*
X016417Y018565D02*
X016441Y018565D01*
X016441Y018664D02*
X016417Y018664D01*
X016508Y018762D02*
X016199Y018762D01*
X016199Y018861D02*
X016410Y018861D01*
X016311Y018959D02*
X016199Y018959D01*
X016199Y019058D02*
X016259Y019058D01*
X016743Y018467D02*
X016804Y018467D01*
X016809Y018368D02*
X016743Y018368D01*
X016739Y018270D02*
X016809Y018270D01*
X016809Y018171D02*
X016661Y018171D01*
X015790Y017580D02*
X015518Y017580D01*
X015549Y017679D02*
X015692Y017679D01*
X015609Y017777D02*
X015549Y017777D01*
X015549Y017876D02*
X015609Y017876D01*
X015420Y017482D02*
X015889Y017482D01*
X015987Y017383D02*
X015356Y017383D01*
X015356Y017285D02*
X016086Y017285D01*
X016114Y017186D02*
X015307Y017186D01*
X015136Y017088D02*
X014923Y017088D01*
X014982Y016989D02*
X015077Y016989D01*
X015077Y016891D02*
X014982Y016891D01*
X014982Y016792D02*
X015077Y016792D01*
X015077Y016694D02*
X014982Y016694D01*
X014982Y016595D02*
X015077Y016595D01*
X015077Y016497D02*
X014982Y016497D01*
X014982Y016398D02*
X015077Y016398D01*
X015037Y016300D02*
X015022Y016300D01*
X015022Y016201D02*
X015037Y016201D01*
X015037Y016103D02*
X015022Y016103D01*
X015022Y016004D02*
X015037Y016004D01*
X015037Y015906D02*
X015022Y015906D01*
X015022Y015807D02*
X015037Y015807D01*
X015090Y015709D02*
X014969Y015709D01*
X014584Y015610D02*
X016249Y015610D01*
X016249Y015512D02*
X014594Y015512D01*
X014567Y015413D02*
X016020Y015413D01*
X015922Y015315D02*
X014487Y015315D01*
X014172Y015315D02*
X013594Y015315D01*
X013589Y015216D02*
X015909Y015216D01*
X015891Y015118D02*
X013540Y015118D01*
X013562Y015413D02*
X014092Y015413D01*
X014064Y015512D02*
X013467Y015512D01*
X013469Y015709D02*
X013590Y015709D01*
X013537Y015807D02*
X013522Y015807D01*
X013522Y015906D02*
X013537Y015906D01*
X013537Y016004D02*
X013522Y016004D01*
X013522Y016103D02*
X013537Y016103D01*
X013537Y016201D02*
X013522Y016201D01*
X013522Y016300D02*
X013537Y016300D01*
X013577Y016398D02*
X013482Y016398D01*
X013482Y016497D02*
X013577Y016497D01*
X013577Y016595D02*
X013482Y016595D01*
X013482Y016694D02*
X013577Y016694D01*
X013577Y016792D02*
X013482Y016792D01*
X013482Y016891D02*
X013577Y016891D01*
X013577Y016989D02*
X013482Y016989D01*
X013423Y017088D02*
X013636Y017088D01*
X013807Y017186D02*
X014230Y017186D01*
X014171Y017088D02*
X014388Y017088D01*
X014329Y016989D02*
X014230Y016989D01*
X014230Y016891D02*
X014329Y016891D01*
X014103Y017285D02*
X013856Y017285D01*
X013856Y017383D02*
X014064Y017383D01*
X014064Y017482D02*
X013920Y017482D01*
X014018Y017580D02*
X014104Y017580D01*
X014049Y017679D02*
X014233Y017679D01*
X014425Y017679D02*
X014703Y017679D01*
X014703Y017777D02*
X014049Y017777D01*
X014049Y017876D02*
X014703Y017876D01*
X014703Y017580D02*
X014555Y017580D01*
X014594Y017482D02*
X014703Y017482D01*
X014703Y017383D02*
X014618Y017383D01*
X014405Y017974D02*
X014154Y017974D01*
X014191Y018073D02*
X014368Y018073D01*
X014368Y018171D02*
X014191Y018171D01*
X014191Y018270D02*
X014368Y018270D01*
X014368Y018368D02*
X014191Y018368D01*
X014191Y018467D02*
X014368Y018467D01*
X014381Y018565D02*
X014178Y018565D01*
X014049Y018664D02*
X014525Y018664D01*
X014525Y018762D02*
X014049Y018762D01*
X014049Y018861D02*
X014525Y018861D01*
X014525Y018959D02*
X014049Y018959D01*
X014049Y019058D02*
X014525Y019058D01*
X014525Y019156D02*
X014049Y019156D01*
X014049Y019255D02*
X014525Y019255D01*
X014525Y019353D02*
X014049Y019353D01*
X014049Y019452D02*
X014477Y019452D01*
X014336Y019550D02*
X014049Y019550D01*
X014049Y019649D02*
X014292Y019649D01*
X014289Y019747D02*
X014049Y019747D01*
X014049Y019846D02*
X014325Y019846D01*
X014435Y019944D02*
X014049Y019944D01*
X014009Y020043D02*
X014528Y020043D01*
X014429Y020141D02*
X013910Y020141D01*
X013812Y020240D02*
X014331Y020240D01*
X014232Y020338D02*
X013713Y020338D01*
X013679Y020437D02*
X014134Y020437D01*
X014035Y020535D02*
X013679Y020535D01*
X013679Y020634D02*
X013937Y020634D01*
X013838Y020732D02*
X013679Y020732D01*
X013679Y020831D02*
X013740Y020831D01*
X013641Y020929D02*
X013589Y020929D01*
X013543Y021028D02*
X013490Y021028D01*
X013444Y021126D02*
X013392Y021126D01*
X014236Y021816D02*
X015509Y021816D01*
X015509Y021914D02*
X014137Y021914D01*
X014039Y022013D02*
X015509Y022013D01*
X015459Y022111D02*
X013940Y022111D01*
X013842Y022210D02*
X015361Y022210D01*
X015262Y022308D02*
X013743Y022308D01*
X013662Y022407D02*
X015164Y022407D01*
X015065Y022505D02*
X013679Y022505D01*
X013679Y022604D02*
X014967Y022604D01*
X014868Y022702D02*
X013679Y022702D01*
X013679Y022801D02*
X014770Y022801D01*
X014671Y022899D02*
X013619Y022899D01*
X013520Y022998D02*
X014573Y022998D01*
X014474Y023096D02*
X013422Y023096D01*
X013450Y023195D02*
X014376Y023195D01*
X014277Y023293D02*
X013548Y023293D01*
X013647Y023392D02*
X014179Y023392D01*
X014080Y023490D02*
X013679Y023490D01*
X013679Y023589D02*
X013982Y023589D01*
X013883Y023687D02*
X013679Y023687D01*
X013679Y023786D02*
X013785Y023786D01*
X013686Y023884D02*
X013634Y023884D01*
X013588Y023983D02*
X013535Y023983D01*
X013489Y024081D02*
X013437Y024081D01*
X012964Y024180D02*
X012395Y024180D01*
X012437Y024081D02*
X012922Y024081D01*
X012823Y023983D02*
X012535Y023983D01*
X012634Y023884D02*
X012725Y023884D01*
X012679Y023839D02*
X012679Y023424D01*
X012679Y023839D01*
X012679Y023786D02*
X012679Y023786D01*
X012679Y023687D02*
X012679Y023687D01*
X012679Y023589D02*
X012679Y023589D01*
X012679Y023490D02*
X012679Y023490D01*
X012679Y023424D02*
X012386Y023131D01*
X011972Y023131D01*
X011849Y023009D01*
X011849Y023254D01*
X011972Y023131D01*
X012386Y023131D01*
X012509Y023009D01*
X012509Y023202D01*
X012609Y023301D01*
X012706Y023398D01*
X012679Y023424D01*
X012699Y023392D02*
X012647Y023392D01*
X012600Y023293D02*
X012548Y023293D01*
X012509Y023195D02*
X012450Y023195D01*
X012422Y023096D02*
X012509Y023096D01*
X012884Y023096D02*
X012937Y023096D01*
X011937Y023096D02*
X011849Y023096D01*
X011849Y023195D02*
X011909Y023195D01*
X011922Y024081D02*
X011849Y024081D01*
X011849Y024180D02*
X011964Y024180D01*
X012533Y024278D02*
X012826Y024278D01*
X012744Y024377D02*
X012615Y024377D01*
X012656Y024475D02*
X012703Y024475D01*
X012679Y024574D02*
X012679Y024574D01*
X012679Y024672D02*
X012679Y024672D01*
X012663Y024771D02*
X012696Y024771D01*
X012657Y024869D02*
X012737Y024869D01*
X012756Y024968D02*
X012808Y024968D01*
X012854Y025066D02*
X012922Y025066D01*
X012953Y025165D02*
X013600Y025165D01*
X013498Y025066D02*
X013437Y025066D01*
X013759Y025263D02*
X013051Y025263D01*
X013150Y025362D02*
X013759Y025362D01*
X013759Y025460D02*
X013248Y025460D01*
X013347Y025559D02*
X013759Y025559D01*
X013759Y025657D02*
X013445Y025657D01*
X013544Y025756D02*
X013759Y025756D01*
X013759Y025854D02*
X013642Y025854D01*
X013741Y025953D02*
X013759Y025953D01*
X013943Y024771D02*
X013966Y024771D01*
X015822Y026150D02*
X016536Y026150D01*
X016356Y026248D02*
X016003Y026248D01*
X016102Y026347D02*
X016257Y026347D01*
X016215Y026445D02*
X016143Y026445D01*
X016179Y026544D02*
X016179Y026544D01*
X016179Y026642D02*
X016179Y026642D01*
X016175Y026741D02*
X016183Y026741D01*
X016224Y026839D02*
X016135Y026839D01*
X016080Y026938D02*
X016278Y026938D01*
X016377Y027036D02*
X015982Y027036D01*
X015988Y027233D02*
X016371Y027233D01*
X016272Y027332D02*
X016087Y027332D01*
X016137Y027430D02*
X016222Y027430D01*
X016181Y027529D02*
X016178Y027529D01*
X016179Y027627D02*
X016179Y027627D01*
X016179Y027726D02*
X016179Y027726D01*
X016141Y027824D02*
X016218Y027824D01*
X016263Y027923D02*
X016095Y027923D01*
X015997Y028021D02*
X016362Y028021D01*
X016551Y028120D02*
X015808Y028120D01*
X015551Y028120D02*
X015432Y028120D01*
X017982Y027036D02*
X018009Y027036D01*
X017424Y024180D02*
X017349Y024180D01*
X017349Y024081D02*
X017422Y024081D01*
X017472Y024131D02*
X017509Y024131D01*
X017509Y024131D01*
X017472Y024131D01*
X017323Y023983D02*
X017271Y023983D01*
X017225Y023884D02*
X017172Y023884D01*
X017179Y023786D02*
X017179Y023786D01*
X017179Y023687D02*
X017179Y023687D01*
X017179Y023589D02*
X017179Y023589D01*
X017179Y023490D02*
X017179Y023490D01*
X017147Y023392D02*
X017212Y023392D01*
X017311Y023293D02*
X017048Y023293D01*
X016950Y023195D02*
X017409Y023195D01*
X017472Y023131D02*
X017509Y023131D01*
X017472Y023131D01*
X017509Y023131D02*
X017509Y023131D01*
X017437Y023096D02*
X016922Y023096D01*
X017020Y022998D02*
X017338Y022998D01*
X017240Y022899D02*
X017119Y022899D01*
X017179Y022801D02*
X017179Y022801D01*
X017179Y022702D02*
X017179Y022702D01*
X017179Y022604D02*
X017179Y022604D01*
X017179Y022505D02*
X017179Y022505D01*
X017162Y022407D02*
X017197Y022407D01*
X017296Y022308D02*
X017063Y022308D01*
X016965Y022210D02*
X017394Y022210D01*
X017472Y022131D02*
X017509Y022131D01*
X017472Y022131D01*
X017452Y022111D02*
X016907Y022111D01*
X017005Y022013D02*
X017353Y022013D01*
X017255Y021914D02*
X017104Y021914D01*
X017179Y021816D02*
X017179Y021816D01*
X017179Y021717D02*
X017179Y021717D01*
X017179Y021619D02*
X017179Y021619D01*
X017179Y021520D02*
X017179Y021520D01*
X017177Y021422D02*
X017182Y021422D01*
X017281Y021323D02*
X017078Y021323D01*
X016980Y021225D02*
X017379Y021225D01*
X017794Y020929D02*
X017864Y020929D01*
X017837Y020831D02*
X017822Y020831D01*
X017822Y020732D02*
X017837Y020732D01*
X017837Y020634D02*
X017822Y020634D01*
X017822Y020535D02*
X017837Y020535D01*
X017837Y020437D02*
X017822Y020437D01*
X018334Y021028D02*
X020835Y021028D01*
X020736Y020929D02*
X020664Y020929D01*
X021684Y020437D02*
X021687Y020437D01*
X021718Y018959D02*
X021613Y018959D01*
X021640Y017580D02*
X021690Y017580D01*
X021349Y016201D02*
X022179Y016201D01*
X022179Y016103D02*
X021349Y016103D01*
X021349Y016004D02*
X022179Y016004D01*
X022179Y015906D02*
X021349Y015906D01*
X021349Y015807D02*
X022179Y015807D01*
X022179Y015709D02*
X021347Y015709D01*
X021248Y015610D02*
X022179Y015610D01*
X022179Y015512D02*
X021150Y015512D01*
X021051Y015413D02*
X022179Y015413D01*
X022179Y015315D02*
X020953Y015315D01*
X020854Y015216D02*
X022179Y015216D01*
X022179Y015118D02*
X020756Y015118D01*
X020657Y015019D02*
X022179Y015019D01*
X020964Y015807D02*
X017494Y015807D01*
X017396Y015906D02*
X018582Y015906D01*
X018495Y016004D02*
X017056Y016004D01*
X016619Y016201D02*
X015691Y016201D01*
X015691Y016103D02*
X018464Y016103D01*
X017593Y015709D02*
X020866Y015709D01*
X020767Y015610D02*
X017599Y015610D01*
X017599Y015512D02*
X020669Y015512D01*
X017799Y012852D02*
X017700Y012951D01*
X016249Y013345D02*
X015450Y013345D01*
X015209Y013345D02*
X013183Y013345D01*
X013168Y013049D02*
X012887Y013049D01*
X012667Y012754D02*
X012592Y012754D01*
X012493Y012655D02*
X012765Y012655D01*
X012505Y013148D02*
X011729Y013148D01*
X011263Y013443D02*
X011075Y013443D01*
X011029Y013542D02*
X010976Y013542D01*
X010930Y013640D02*
X010799Y013640D01*
X010559Y013640D02*
X009799Y013640D01*
X009976Y013542D02*
X010382Y013542D01*
X010284Y013443D02*
X010075Y013443D01*
X010132Y013345D02*
X010226Y013345D01*
X010186Y013246D02*
X010173Y013246D01*
X010179Y013148D02*
X010179Y013148D01*
X010179Y013049D02*
X010179Y013049D01*
X010435Y012655D02*
X010523Y012655D01*
X010379Y012557D02*
X011014Y012557D01*
X010915Y012655D02*
X010836Y012655D01*
X011132Y013345D02*
X011204Y013345D01*
X010365Y013739D02*
X009993Y013739D01*
X010092Y013837D02*
X010267Y013837D01*
X010219Y013936D02*
X010139Y013936D01*
X010179Y014034D02*
X010179Y014034D01*
X010179Y014133D02*
X010179Y014133D01*
X010139Y014330D02*
X010220Y014330D01*
X010269Y014428D02*
X010090Y014428D01*
X009991Y014527D02*
X010367Y014527D01*
X010380Y014724D02*
X009978Y014724D01*
X010077Y014822D02*
X010282Y014822D01*
X010226Y014921D02*
X010133Y014921D01*
X010174Y015019D02*
X010185Y015019D01*
X010179Y015118D02*
X010179Y015118D01*
X010179Y015216D02*
X010179Y015216D01*
X010145Y015315D02*
X010214Y015315D01*
X010255Y015413D02*
X010104Y015413D01*
X010006Y015512D02*
X010352Y015512D01*
X010528Y015610D02*
X009955Y015610D01*
X009656Y015906D02*
X008627Y015906D01*
X008668Y016004D02*
X009755Y016004D01*
X009853Y016103D02*
X008679Y016103D01*
X008679Y016201D02*
X009952Y016201D01*
X009558Y015807D02*
X008562Y015807D01*
X008463Y015709D02*
X009469Y015709D01*
X009469Y015610D02*
X008331Y015610D01*
X008506Y015512D02*
X009352Y015512D01*
X009255Y015413D02*
X008604Y015413D01*
X008633Y014921D02*
X009226Y014921D01*
X009282Y014822D02*
X008577Y014822D01*
X008478Y014724D02*
X009380Y014724D01*
X009367Y014527D02*
X008520Y014527D01*
X008607Y014428D02*
X009269Y014428D01*
X009220Y014330D02*
X008662Y014330D01*
X008690Y014231D02*
X009179Y014231D01*
X009179Y014133D02*
X008229Y014133D01*
X008129Y014133D02*
X007499Y014133D01*
X007499Y014231D02*
X007669Y014231D01*
X007697Y014330D02*
X007499Y014330D01*
X007499Y014034D02*
X007668Y014034D01*
X007696Y013936D02*
X007499Y013936D01*
X007499Y013837D02*
X007751Y013837D01*
X007837Y013739D02*
X007499Y013739D01*
X007499Y013640D02*
X008009Y013640D01*
X008349Y013640D02*
X009559Y013640D01*
X009382Y013542D02*
X008476Y013542D01*
X008575Y013443D02*
X009284Y013443D01*
X009226Y013345D02*
X008632Y013345D01*
X008673Y013246D02*
X009186Y013246D01*
X009179Y013148D02*
X008679Y013148D01*
X008679Y013049D02*
X009179Y013049D01*
X009213Y012951D02*
X008646Y012951D01*
X008605Y012852D02*
X009254Y012852D01*
X009350Y012754D02*
X008508Y012754D01*
X008336Y012655D02*
X009469Y012655D01*
X009469Y012557D02*
X008460Y012557D01*
X008560Y012458D02*
X009469Y012458D01*
X009469Y012360D02*
X008626Y012360D01*
X008667Y012261D02*
X009469Y012261D01*
X009469Y012163D02*
X008679Y012163D01*
X008679Y012064D02*
X009469Y012064D01*
X009469Y011966D02*
X008652Y011966D01*
X008611Y011867D02*
X009469Y011867D01*
X009469Y011769D02*
X008523Y011769D01*
X007159Y012852D02*
X007066Y012852D01*
X008522Y013739D02*
X009365Y013739D01*
X009267Y013837D02*
X008608Y013837D01*
X008662Y013936D02*
X009219Y013936D01*
X009179Y014034D02*
X008690Y014034D01*
X008343Y014625D02*
X009564Y014625D01*
X009794Y014625D02*
X010564Y014625D01*
X010794Y014625D02*
X010945Y014625D01*
X010991Y014527D02*
X011044Y014527D01*
X011090Y014428D02*
X011252Y014428D01*
X011197Y014330D02*
X011139Y014330D01*
X011729Y014133D02*
X013040Y014133D01*
X013241Y015610D02*
X014075Y015610D01*
X015638Y015709D02*
X016249Y015709D01*
X016249Y015807D02*
X015691Y015807D01*
X015691Y015906D02*
X016249Y015906D01*
X016292Y016004D02*
X015691Y016004D01*
X015691Y016300D02*
X016521Y016300D01*
X016422Y016398D02*
X015730Y016398D01*
X015730Y016497D02*
X016324Y016497D01*
X016608Y016694D02*
X017017Y016694D01*
X017017Y016792D02*
X016509Y016792D01*
X016486Y016989D02*
X017017Y016989D01*
X017017Y016891D02*
X015730Y016891D01*
X015730Y016989D02*
X016272Y016989D01*
X016152Y017088D02*
X015671Y017088D01*
X016706Y016595D02*
X017017Y016595D01*
X017017Y016497D02*
X016805Y016497D01*
X016249Y014724D02*
X016246Y014724D01*
X015239Y012557D02*
X015215Y012557D01*
X015215Y012458D02*
X015239Y012458D01*
X015239Y012360D02*
X015215Y012360D01*
X015215Y012261D02*
X015239Y012261D01*
X015239Y012163D02*
X015215Y012163D01*
X015215Y012064D02*
X015239Y012064D01*
X014953Y012261D02*
X014511Y012261D01*
X014484Y012360D02*
X014953Y012360D01*
X014953Y012458D02*
X014466Y012458D01*
X014511Y012557D02*
X014965Y012557D01*
X013862Y012458D02*
X013768Y012458D01*
X013789Y012360D02*
X013844Y012360D01*
X013185Y011769D02*
X013041Y011769D01*
X012778Y011473D02*
X014280Y011473D01*
X014182Y011375D02*
X012877Y011375D01*
X013110Y011276D02*
X014083Y011276D01*
X013985Y011178D02*
X013176Y011178D01*
X013194Y011079D02*
X013453Y011079D01*
X013321Y010981D02*
X013174Y010981D01*
X013105Y010882D02*
X013242Y010882D01*
X013201Y010784D02*
X012863Y010784D01*
X012754Y010882D02*
X012117Y010882D01*
X012158Y010784D02*
X012695Y010784D01*
X012558Y010685D02*
X012179Y010685D01*
X012179Y010587D02*
X012515Y010587D01*
X012495Y010488D02*
X012161Y010488D01*
X012120Y010390D02*
X012397Y010390D01*
X012298Y010291D02*
X012046Y010291D01*
X012037Y010981D02*
X012684Y010981D01*
X012664Y011079D02*
X011906Y011079D01*
X011453Y011079D02*
X010906Y011079D01*
X010849Y011178D02*
X012593Y011178D01*
X012494Y011276D02*
X010775Y011276D01*
X010677Y011375D02*
X012396Y011375D01*
X012297Y011473D02*
X010578Y011473D01*
X010480Y011572D02*
X012115Y011572D01*
X011966Y011670D02*
X010381Y011670D01*
X010349Y011769D02*
X011919Y011769D01*
X011914Y011867D02*
X010349Y011867D01*
X010349Y011966D02*
X011948Y011966D01*
X012048Y012064D02*
X010349Y012064D01*
X011037Y010981D02*
X011321Y010981D01*
X011242Y010882D02*
X011117Y010882D01*
X011158Y010784D02*
X011201Y010784D01*
X011179Y010685D02*
X011179Y010685D01*
X011179Y010587D02*
X011179Y010587D01*
X011161Y010488D02*
X011198Y010488D01*
X011238Y010390D02*
X011120Y010390D01*
X011046Y010291D02*
X011313Y010291D01*
X011526Y009109D02*
X010833Y009109D01*
X011007Y009010D02*
X011351Y009010D01*
X011254Y008912D02*
X011104Y008912D01*
X011145Y008813D02*
X011214Y008813D01*
X011179Y008715D02*
X011179Y008715D01*
X011179Y008616D02*
X011179Y008616D01*
X011174Y008518D02*
X011185Y008518D01*
X011226Y008419D02*
X011133Y008419D01*
X011076Y008321D02*
X011283Y008321D01*
X011381Y008222D02*
X010977Y008222D01*
X010526Y009109D02*
X010442Y009109D01*
X011833Y009109D02*
X012471Y009109D01*
X012629Y009109D02*
X012729Y009109D01*
X012729Y009010D02*
X012629Y009010D01*
X012629Y008912D02*
X012729Y008912D01*
X012729Y008813D02*
X012629Y008813D01*
X012629Y008715D02*
X012729Y008715D01*
X012729Y008681D02*
X013629Y008681D01*
X013629Y008581D01*
X013161Y008581D01*
X012729Y008581D01*
X012729Y008681D01*
X012729Y008616D02*
X013629Y008616D01*
X013629Y008518D02*
X013729Y008518D01*
X013729Y008419D02*
X013629Y008419D01*
X013629Y008321D02*
X013729Y008321D01*
X013729Y008222D02*
X013629Y008222D01*
X013358Y008222D02*
X013001Y008222D01*
X013097Y008321D02*
X013262Y008321D01*
X013204Y008419D02*
X013155Y008419D01*
X012729Y008419D02*
X012629Y008419D01*
X012629Y008321D02*
X012729Y008321D01*
X012729Y008222D02*
X012629Y008222D01*
X012358Y008222D02*
X011977Y008222D01*
X012076Y008321D02*
X012262Y008321D01*
X012204Y008419D02*
X012133Y008419D01*
X012145Y008813D02*
X012192Y008813D01*
X012240Y008912D02*
X012104Y008912D01*
X012007Y009010D02*
X012323Y009010D01*
X012888Y009109D02*
X013471Y009109D01*
X013629Y009109D02*
X013729Y009109D01*
X013729Y009010D02*
X013629Y009010D01*
X013629Y008912D02*
X013729Y008912D01*
X013729Y008813D02*
X013629Y008813D01*
X013629Y008715D02*
X013729Y008715D01*
X014036Y009010D02*
X014351Y009010D01*
X014254Y008912D02*
X014118Y008912D01*
X014167Y008813D02*
X014214Y008813D01*
X014526Y009109D02*
X013888Y009109D01*
X013323Y009010D02*
X013036Y009010D01*
X013118Y008912D02*
X013240Y008912D01*
X013192Y008813D02*
X013167Y008813D01*
X012729Y008518D02*
X012629Y008518D01*
X014001Y008222D02*
X014381Y008222D01*
X014283Y008321D02*
X014097Y008321D01*
X014155Y008419D02*
X014226Y008419D01*
X014433Y010193D02*
X013926Y010193D01*
X014046Y010291D02*
X014313Y010291D01*
X014238Y010390D02*
X014120Y010390D01*
X014161Y010488D02*
X014198Y010488D01*
X014179Y010587D02*
X014179Y010587D01*
X014179Y010685D02*
X014179Y010685D01*
X014158Y010784D02*
X014201Y010784D01*
X014170Y010882D02*
X014242Y010882D01*
X014269Y010981D02*
X014321Y010981D01*
X014367Y011079D02*
X014453Y011079D01*
X014663Y011375D02*
X015018Y011375D01*
X014379Y011572D02*
X012680Y011572D01*
X013001Y010685D02*
X013179Y010685D01*
X013179Y010587D02*
X013043Y010587D01*
X013044Y010488D02*
X013198Y010488D01*
X013238Y010390D02*
X013007Y010390D01*
X012945Y010291D02*
X013313Y010291D01*
X013433Y010193D02*
X013020Y010193D01*
X008003Y008321D02*
X006706Y008321D01*
X006771Y008222D02*
X007938Y008222D01*
X007938Y008124D02*
X006771Y008124D01*
X006771Y008025D02*
X007938Y008025D01*
X007938Y007927D02*
X006771Y007927D01*
X006274Y008332D02*
X006194Y008332D01*
X006140Y008278D01*
X006131Y008294D01*
X006103Y008322D01*
X006069Y008341D01*
X006031Y008352D01*
X005853Y008352D01*
X005853Y008063D01*
X005776Y008063D01*
X005776Y008352D01*
X005598Y008352D01*
X005560Y008341D01*
X005525Y008322D01*
X005498Y008294D01*
X005478Y008259D01*
X005468Y008221D01*
X005468Y008063D01*
X005776Y008063D01*
X005776Y007986D01*
X005468Y007986D01*
X005468Y007831D01*
X004621Y007831D01*
X004621Y008255D01*
X004545Y008332D01*
X004464Y008332D01*
X004464Y009331D01*
X004545Y009331D01*
X004621Y009408D01*
X004621Y009461D01*
X005150Y009461D01*
X005450Y009761D01*
X005468Y009761D01*
X005468Y009677D01*
X005776Y009677D01*
X005776Y009600D01*
X005853Y009600D01*
X005853Y009311D01*
X006031Y009311D01*
X006069Y009322D01*
X006103Y009341D01*
X006131Y009369D01*
X006140Y009385D01*
X006194Y009331D01*
X006274Y009331D01*
X006274Y008332D01*
X006274Y008419D02*
X004464Y008419D01*
X004464Y008518D02*
X006274Y008518D01*
X006274Y008616D02*
X004464Y008616D01*
X004464Y008715D02*
X006274Y008715D01*
X006274Y008813D02*
X004464Y008813D01*
X004464Y008912D02*
X006274Y008912D01*
X006274Y009010D02*
X004464Y009010D01*
X004464Y009109D02*
X006274Y009109D01*
X006274Y009208D02*
X004464Y009208D01*
X004464Y009306D02*
X006274Y009306D01*
X005853Y009405D02*
X005776Y009405D01*
X005776Y009311D02*
X005776Y009600D01*
X005468Y009600D01*
X005468Y009442D01*
X005478Y009404D01*
X005498Y009369D01*
X005525Y009341D01*
X005560Y009322D01*
X005598Y009311D01*
X005776Y009311D01*
X005776Y009503D02*
X005853Y009503D01*
X005776Y009602D02*
X005290Y009602D01*
X005388Y009700D02*
X005468Y009700D01*
X005468Y009503D02*
X005191Y009503D01*
X005478Y009405D02*
X004618Y009405D01*
X004124Y009306D02*
X002050Y009306D01*
X002087Y009405D02*
X003328Y009405D01*
X003328Y009404D02*
X003348Y009369D01*
X003375Y009341D01*
X003410Y009322D01*
X003448Y009311D01*
X003626Y009311D01*
X003626Y009600D01*
X003318Y009600D01*
X003318Y009442D01*
X003328Y009404D01*
X003318Y009503D02*
X002087Y009503D01*
X002546Y009602D02*
X003626Y009602D01*
X003626Y009503D02*
X003703Y009503D01*
X003703Y009405D02*
X003626Y009405D01*
X003318Y009700D02*
X002645Y009700D01*
X002743Y009799D02*
X003318Y009799D01*
X003341Y009897D02*
X002842Y009897D01*
X002940Y009996D02*
X003442Y009996D01*
X003988Y009897D02*
X003995Y009897D01*
X003461Y010587D02*
X000379Y010587D01*
X000379Y010685D02*
X001355Y010685D01*
X001760Y010685D02*
X003569Y010685D01*
X003569Y010784D02*
X001916Y010784D01*
X002010Y010882D02*
X003569Y010882D01*
X003472Y010981D02*
X002051Y010981D01*
X002087Y011079D02*
X003424Y011079D01*
X003424Y011178D02*
X002087Y011178D01*
X002087Y011276D02*
X003424Y011276D01*
X003424Y011375D02*
X002048Y011375D01*
X002007Y011473D02*
X003424Y011473D01*
X003461Y011572D02*
X001910Y011572D01*
X002052Y012064D02*
X003374Y012064D01*
X003472Y011966D02*
X000379Y011966D01*
X000379Y012064D02*
X001062Y012064D01*
X001027Y012163D02*
X000379Y012163D01*
X000379Y012261D02*
X001027Y012261D01*
X001027Y012360D02*
X000379Y012360D01*
X000379Y012458D02*
X001027Y012458D01*
X001027Y012557D02*
X000379Y012557D01*
X000379Y012655D02*
X001027Y012655D01*
X001027Y012754D02*
X000379Y012754D01*
X000379Y012852D02*
X001027Y012852D01*
X001027Y012951D02*
X000379Y012951D01*
X000379Y013049D02*
X001070Y013049D01*
X000379Y013148D02*
X003424Y013148D01*
X003424Y013246D02*
X000379Y013246D01*
X000379Y013345D02*
X003424Y013345D01*
X003424Y013443D02*
X001765Y013443D01*
X001350Y013443D02*
X000379Y013443D01*
X000379Y013542D02*
X001197Y013542D01*
X001104Y013640D02*
X000379Y013640D01*
X000379Y013739D02*
X001063Y013739D01*
X001027Y013837D02*
X000379Y013837D01*
X000379Y013936D02*
X001027Y013936D01*
X001027Y014034D02*
X000379Y014034D01*
X000379Y014133D02*
X001067Y014133D01*
X001108Y014231D02*
X000379Y014231D01*
X000379Y014330D02*
X001207Y014330D01*
X001373Y014428D02*
X000379Y014428D01*
X002045Y013049D02*
X003424Y013049D01*
X003569Y012951D02*
X003569Y012651D01*
X003526Y012651D01*
X003366Y012491D01*
X002816Y012491D01*
X002639Y012668D01*
X002516Y012791D01*
X002087Y012791D01*
X002087Y013007D01*
X002087Y012852D02*
X003569Y012852D01*
X003569Y012754D02*
X002554Y012754D01*
X002653Y012655D02*
X003569Y012655D01*
X003431Y012557D02*
X002751Y012557D01*
X002453Y012261D02*
X002087Y012261D01*
X002087Y012163D02*
X002551Y012163D01*
X002354Y012360D02*
X002087Y012360D01*
X002839Y010488D02*
X000379Y010488D01*
X000379Y010390D02*
X002740Y010390D01*
X002642Y010291D02*
X002047Y010291D01*
X002087Y010193D02*
X002543Y010193D01*
X002445Y010094D02*
X002087Y010094D01*
X002087Y009996D02*
X002346Y009996D01*
X001912Y008813D02*
X004124Y008813D01*
X004124Y008715D02*
X002008Y008715D01*
X002049Y008616D02*
X004124Y008616D01*
X004124Y008518D02*
X002087Y008518D01*
X002087Y008419D02*
X004124Y008419D01*
X004033Y008321D02*
X003954Y008321D01*
X003703Y008321D02*
X003626Y008321D01*
X003626Y008222D02*
X003703Y008222D01*
X003703Y008124D02*
X003626Y008124D01*
X003626Y008025D02*
X001913Y008025D01*
X002009Y008124D02*
X003318Y008124D01*
X003318Y008222D02*
X002050Y008222D01*
X002087Y008321D02*
X003375Y008321D01*
X003318Y007927D02*
X001755Y007927D01*
X004556Y008321D02*
X005525Y008321D01*
X005468Y008222D02*
X004621Y008222D01*
X004621Y008124D02*
X005468Y008124D01*
X005468Y007927D02*
X004621Y007927D01*
X004621Y008025D02*
X005776Y008025D01*
X005776Y008124D02*
X005853Y008124D01*
X005853Y008222D02*
X005776Y008222D01*
X005776Y008321D02*
X005853Y008321D01*
X006104Y008321D02*
X006183Y008321D01*
X006341Y010685D02*
X006372Y010685D01*
X006341Y010784D02*
X006424Y010784D01*
X006341Y010882D02*
X006523Y010882D01*
X006944Y014724D02*
X006959Y014724D01*
X006959Y014822D02*
X006752Y014822D01*
X006959Y014921D02*
X006341Y014921D01*
X006341Y015019D02*
X006959Y015019D01*
X006959Y015118D02*
X006341Y015118D01*
X006327Y015216D02*
X006959Y015216D01*
X006959Y015315D02*
X006294Y015315D01*
X006341Y015413D02*
X006959Y015413D01*
X006959Y015512D02*
X006884Y015512D01*
X006937Y015610D02*
X006959Y015610D01*
X006947Y015709D02*
X006959Y015709D01*
X006529Y015906D02*
X006337Y015906D01*
X006341Y015807D02*
X006445Y015807D01*
X006414Y015709D02*
X006341Y015709D01*
X006341Y015610D02*
X006422Y015610D01*
X006475Y015512D02*
X006341Y015512D01*
X005691Y015906D02*
X005681Y015906D01*
X005393Y015906D02*
X005296Y015906D01*
X005296Y015807D02*
X005393Y015807D01*
X005605Y016595D02*
X005753Y016595D01*
X005687Y016694D02*
X005672Y016694D01*
X005672Y016792D02*
X005687Y016792D01*
X005687Y016891D02*
X005672Y016891D01*
X005672Y016989D02*
X005687Y016989D01*
X005687Y017088D02*
X005672Y017088D01*
X005672Y017186D02*
X005687Y017186D01*
X005616Y017285D02*
X005844Y017285D01*
X005393Y017777D02*
X005296Y017777D01*
X005296Y017679D02*
X004629Y017679D01*
X004629Y017580D02*
X004529Y017580D01*
X004529Y017482D02*
X004629Y017482D01*
X004629Y017383D02*
X004529Y017383D01*
X004529Y017285D02*
X004629Y017285D01*
X005296Y017876D02*
X005393Y017876D01*
X005393Y017974D02*
X005296Y017974D01*
X005623Y017974D02*
X005759Y017974D01*
X006977Y017974D02*
X010231Y017974D01*
X010229Y018073D02*
X010129Y018073D01*
X010129Y018171D02*
X010229Y018171D01*
X010229Y018270D02*
X010129Y018270D01*
X010129Y018368D02*
X010229Y018368D01*
X010229Y018467D02*
X010129Y018467D01*
X009827Y018171D02*
X009532Y018171D01*
X009434Y018073D02*
X009925Y018073D01*
X009728Y018270D02*
X009631Y018270D01*
X009229Y018171D02*
X009129Y018171D01*
X009129Y018073D02*
X009229Y018073D01*
X010034Y017777D02*
X007174Y017777D01*
X007076Y017876D02*
X010133Y017876D01*
X010754Y018565D02*
X010822Y018565D01*
X011531Y017876D02*
X011628Y017876D01*
X011628Y017777D02*
X011531Y017777D01*
X011531Y017679D02*
X011628Y017679D01*
X011946Y017482D02*
X011983Y017482D01*
X011983Y017383D02*
X011946Y017383D01*
X011920Y017285D02*
X011983Y017285D01*
X011983Y017186D02*
X011887Y017186D01*
X011926Y017088D02*
X011983Y017088D01*
X012012Y016989D02*
X012040Y016989D01*
X012047Y016595D02*
X011875Y016595D01*
X011473Y015610D02*
X010831Y015610D01*
X011006Y015512D02*
X011324Y015512D01*
X011241Y015413D02*
X011104Y015413D01*
X011145Y015315D02*
X011192Y015315D01*
X012676Y017482D02*
X012705Y017482D01*
X012643Y017580D02*
X013203Y017580D01*
X013203Y017482D02*
X013104Y017482D01*
X013160Y017383D02*
X013203Y017383D01*
X013203Y017285D02*
X013169Y017285D01*
X013203Y017679D02*
X012639Y017679D01*
X012676Y017777D02*
X013203Y017777D01*
X013203Y017876D02*
X012676Y017876D01*
X012676Y017974D02*
X012905Y017974D01*
X012868Y018073D02*
X012676Y018073D01*
X012676Y018171D02*
X012868Y018171D01*
X012868Y018270D02*
X012623Y018270D01*
X012499Y018368D02*
X012868Y018368D01*
X012868Y018467D02*
X012499Y018467D01*
X012499Y018565D02*
X012881Y018565D01*
X012941Y018664D02*
X012499Y018664D01*
X012550Y018762D02*
X012914Y018762D01*
X012925Y018861D02*
X012649Y018861D01*
X012747Y018959D02*
X012982Y018959D01*
X012846Y019058D02*
X013709Y019058D01*
X013709Y019156D02*
X013338Y019156D01*
X013510Y019255D02*
X013709Y019255D01*
X013709Y019353D02*
X013605Y019353D01*
X013646Y019452D02*
X013709Y019452D01*
X013709Y019550D02*
X013679Y019550D01*
X013679Y019649D02*
X013709Y019649D01*
X013709Y019747D02*
X013673Y019747D01*
X013709Y019846D02*
X013632Y019846D01*
X013626Y019944D02*
X013574Y019944D01*
X013528Y020043D02*
X013475Y020043D01*
X013429Y020141D02*
X013396Y020141D01*
X013021Y019156D02*
X012944Y019156D01*
X013377Y018959D02*
X013709Y018959D01*
X013709Y018861D02*
X013433Y018861D01*
X013444Y018762D02*
X013709Y018762D01*
X013709Y018664D02*
X013417Y018664D01*
X013508Y018565D02*
X013550Y018565D01*
X013537Y018467D02*
X013522Y018467D01*
X013522Y018368D02*
X013537Y018368D01*
X013537Y018270D02*
X013522Y018270D01*
X013522Y018171D02*
X013537Y018171D01*
X013537Y018073D02*
X013522Y018073D01*
X013484Y017974D02*
X013574Y017974D01*
X011213Y017679D02*
X011167Y017679D01*
X011849Y020043D02*
X011883Y020043D01*
X011849Y020141D02*
X011963Y020141D01*
X011864Y020240D02*
X011849Y020240D01*
X011849Y021028D02*
X011868Y021028D01*
X011849Y021126D02*
X011967Y021126D01*
X011879Y021225D02*
X011849Y021225D01*
X014334Y021717D02*
X015509Y021717D01*
X015509Y021619D02*
X014433Y021619D01*
X014531Y021520D02*
X015509Y021520D01*
X015509Y021422D02*
X014630Y021422D01*
X014728Y021323D02*
X015597Y021323D01*
X015696Y021225D02*
X014827Y021225D01*
X014925Y021126D02*
X015794Y021126D01*
X015893Y021028D02*
X015024Y021028D01*
X015122Y020929D02*
X015991Y020929D01*
X016090Y020831D02*
X015221Y020831D01*
X015319Y020732D02*
X016098Y020732D01*
X016083Y020634D02*
X015418Y020634D01*
X015516Y020535D02*
X016083Y020535D01*
X016083Y020437D02*
X015615Y020437D01*
X015713Y020338D02*
X016083Y020338D01*
X016083Y020240D02*
X015812Y020240D01*
X015910Y020141D02*
X016157Y020141D01*
X016083Y020043D02*
X016009Y020043D01*
X017509Y022131D02*
X017509Y022131D01*
X019355Y020831D02*
X019368Y020831D01*
X016987Y024180D02*
X016935Y024180D01*
X010877Y027036D02*
X010815Y027036D01*
X007862Y028021D02*
X007525Y028021D01*
X007611Y027923D02*
X007763Y027923D01*
X007718Y027824D02*
X007664Y027824D01*
X006051Y028120D02*
X005308Y028120D01*
X005497Y028021D02*
X005862Y028021D01*
X005763Y027923D02*
X005595Y027923D01*
X005641Y027824D02*
X005718Y027824D01*
X005679Y027726D02*
X005679Y027726D01*
X005679Y027627D02*
X005679Y027627D01*
X005678Y027529D02*
X005681Y027529D01*
X005722Y027430D02*
X005637Y027430D01*
X005587Y027332D02*
X005772Y027332D01*
X005871Y027233D02*
X005488Y027233D01*
X005778Y026938D02*
X003188Y026938D01*
X003286Y027036D02*
X005877Y027036D01*
X005724Y026839D02*
X002987Y026839D01*
X002371Y026839D02*
X001645Y026839D01*
X001686Y026741D02*
X005683Y026741D01*
X005679Y026642D02*
X001689Y026642D01*
X001689Y026544D02*
X005679Y026544D01*
X005715Y026445D02*
X001654Y026445D01*
X001613Y026347D02*
X005757Y026347D01*
X005856Y026248D02*
X001517Y026248D01*
X001349Y026150D02*
X006036Y026150D01*
X005878Y026051D02*
X005481Y026051D01*
X005580Y025953D02*
X005779Y025953D01*
X005720Y025854D02*
X005639Y025854D01*
X004878Y026051D02*
X004481Y026051D01*
X004580Y025953D02*
X004779Y025953D01*
X004720Y025854D02*
X004639Y025854D01*
X003878Y026051D02*
X003481Y026051D01*
X003580Y025953D02*
X003779Y025953D01*
X003720Y025854D02*
X003639Y025854D01*
X002878Y026051D02*
X002481Y026051D01*
X002580Y025953D02*
X002779Y025953D01*
X002720Y025854D02*
X002639Y025854D01*
X001878Y026051D02*
X001481Y026051D01*
X001580Y025953D02*
X001779Y025953D01*
X001720Y025854D02*
X001639Y025854D01*
X001010Y026150D02*
X000379Y026150D01*
X000379Y026248D02*
X000842Y026248D01*
X000745Y026347D02*
X000379Y026347D01*
X000379Y026445D02*
X000705Y026445D01*
X000669Y026544D02*
X000379Y026544D01*
X000379Y026642D02*
X000669Y026642D01*
X000673Y026741D02*
X000379Y026741D01*
X000379Y026839D02*
X000713Y026839D01*
X000764Y026938D02*
X000379Y026938D01*
X000379Y027036D02*
X000863Y027036D01*
X001061Y027135D02*
X000379Y027135D01*
X000379Y027233D02*
X001924Y027233D01*
X001884Y027332D02*
X000379Y027332D01*
X000379Y027430D02*
X001843Y027430D01*
X001829Y027529D02*
X000379Y027529D01*
X000458Y027627D02*
X001829Y027627D01*
X001829Y027726D02*
X000556Y027726D01*
X000655Y027824D02*
X001839Y027824D01*
X001880Y027923D02*
X000753Y027923D01*
X000852Y028021D02*
X001921Y028021D01*
X001965Y028120D02*
X000950Y028120D01*
X001049Y028218D02*
X002064Y028218D01*
X002162Y028317D02*
X001147Y028317D01*
X001246Y028415D02*
X002350Y028415D01*
X001974Y027135D02*
X001298Y027135D01*
X001496Y027036D02*
X002073Y027036D01*
X002171Y026938D02*
X001595Y026938D01*
X000878Y026051D02*
X000379Y026051D01*
X000379Y025953D02*
X000779Y025953D01*
X000720Y025854D02*
X000379Y025854D01*
X000379Y025756D02*
X000679Y025756D01*
X000669Y025657D02*
X000379Y025657D01*
X000379Y025559D02*
X000669Y025559D01*
X000698Y025460D02*
X000379Y025460D01*
X000379Y025362D02*
X000739Y025362D01*
X000827Y025263D02*
X000379Y025263D01*
X000379Y025165D02*
X000974Y025165D01*
X000896Y025066D02*
X000379Y025066D01*
X000379Y024968D02*
X000794Y024968D01*
X000726Y024869D02*
X000379Y024869D01*
X000379Y024771D02*
X000685Y024771D01*
X000669Y024672D02*
X000379Y024672D01*
X000379Y024574D02*
X000669Y024574D01*
X000692Y024475D02*
X000379Y024475D01*
X000379Y024377D02*
X000733Y024377D01*
X000812Y024278D02*
X000379Y024278D01*
X000379Y024180D02*
X000938Y024180D01*
X000932Y024081D02*
X000379Y024081D01*
X000379Y023983D02*
X000809Y023983D01*
X000732Y023884D02*
X000379Y023884D01*
X000379Y023786D02*
X000691Y023786D01*
X000669Y023687D02*
X000379Y023687D01*
X000379Y023589D02*
X000669Y023589D01*
X000686Y023490D02*
X000379Y023490D01*
X000379Y023392D02*
X000727Y023392D01*
X000797Y023293D02*
X000379Y023293D01*
X000379Y023195D02*
X000902Y023195D01*
X000968Y023096D02*
X000379Y023096D01*
X000379Y022998D02*
X000824Y022998D01*
X000738Y022899D02*
X000379Y022899D01*
X000379Y022801D02*
X000697Y022801D01*
X000669Y022702D02*
X000379Y022702D01*
X000379Y022604D02*
X000669Y022604D01*
X000680Y022505D02*
X000379Y022505D01*
X000379Y022407D02*
X000721Y022407D01*
X000782Y022308D02*
X000379Y022308D01*
X000379Y022210D02*
X000880Y022210D01*
X000379Y022111D02*
X004004Y022111D01*
X003880Y022210D02*
X003479Y022210D01*
X003577Y022308D02*
X003782Y022308D01*
X003721Y022407D02*
X003638Y022407D01*
X003679Y022505D02*
X003680Y022505D01*
X003839Y022013D02*
X000379Y022013D01*
X000379Y021914D02*
X003744Y021914D01*
X003704Y021816D02*
X000379Y021816D01*
X000379Y021717D02*
X003669Y021717D01*
X003669Y021619D02*
X000379Y021619D01*
X000379Y021520D02*
X003674Y021520D01*
X003714Y021422D02*
X000379Y021422D01*
X000379Y021323D02*
X001048Y021323D01*
X001037Y021313D02*
X001018Y021278D01*
X001007Y021240D01*
X001007Y020870D01*
X001507Y020870D01*
X001507Y020770D01*
X001607Y020770D01*
X001607Y020270D01*
X001977Y020270D01*
X002015Y020281D01*
X002049Y020300D01*
X002077Y020328D01*
X002097Y020363D01*
X002107Y020401D01*
X002107Y020770D01*
X001607Y020770D01*
X001607Y020870D01*
X002107Y020870D01*
X002107Y021240D01*
X002097Y021278D01*
X002077Y021313D01*
X002049Y021341D01*
X002015Y021360D01*
X001977Y021370D01*
X001607Y021370D01*
X001607Y020870D01*
X001507Y020870D01*
X001507Y021370D01*
X001138Y021370D01*
X001099Y021360D01*
X001065Y021341D01*
X001037Y021313D01*
X001007Y021225D02*
X000379Y021225D01*
X000379Y021126D02*
X001007Y021126D01*
X001007Y021028D02*
X000379Y021028D01*
X000379Y020929D02*
X001007Y020929D01*
X001007Y020770D02*
X001007Y020401D01*
X001018Y020363D01*
X001037Y020328D01*
X001065Y020300D01*
X001099Y020281D01*
X001138Y020270D01*
X001507Y020270D01*
X001507Y020770D01*
X001007Y020770D01*
X001007Y020732D02*
X000379Y020732D01*
X000379Y020634D02*
X001007Y020634D01*
X001007Y020535D02*
X000379Y020535D01*
X000379Y020437D02*
X001007Y020437D01*
X001032Y020338D02*
X000379Y020338D01*
X000379Y020240D02*
X003850Y020240D01*
X003876Y020141D02*
X000379Y020141D01*
X000379Y020043D02*
X003777Y020043D01*
X003679Y019944D02*
X001732Y019944D01*
X001904Y019846D02*
X003604Y019846D01*
X003604Y019747D02*
X002002Y019747D01*
X002046Y019649D02*
X004129Y019649D01*
X004129Y019581D02*
X003604Y019581D01*
X003604Y019393D01*
X003941Y019056D01*
X004129Y019056D01*
X004129Y019581D01*
X004129Y019550D02*
X004229Y019550D01*
X004229Y019581D02*
X004229Y019681D01*
X004604Y019681D01*
X005129Y019681D01*
X005129Y019581D01*
X004229Y019581D01*
X004229Y019649D02*
X005129Y019649D01*
X005129Y019550D02*
X005229Y019550D01*
X005229Y019452D02*
X005129Y019452D01*
X005129Y019353D02*
X005229Y019353D01*
X005229Y019255D02*
X005129Y019255D01*
X005129Y019156D02*
X005229Y019156D01*
X005229Y019058D02*
X005129Y019058D01*
X004940Y019058D02*
X004419Y019058D01*
X004517Y019156D02*
X004842Y019156D01*
X004743Y019255D02*
X004616Y019255D01*
X004229Y019255D02*
X004129Y019255D01*
X004129Y019353D02*
X004229Y019353D01*
X004229Y019452D02*
X004129Y019452D01*
X004129Y019156D02*
X004229Y019156D01*
X004229Y019058D02*
X004129Y019058D01*
X003940Y019058D02*
X001922Y019058D01*
X002012Y019156D02*
X003842Y019156D01*
X003743Y019255D02*
X002053Y019255D01*
X002087Y019353D02*
X003645Y019353D01*
X003604Y019452D02*
X002087Y019452D01*
X002086Y019550D02*
X003604Y019550D01*
X003752Y020338D02*
X002083Y020338D01*
X002107Y020437D02*
X003708Y020437D01*
X003669Y020535D02*
X002107Y020535D01*
X002107Y020634D02*
X003669Y020634D01*
X003669Y020732D02*
X002107Y020732D01*
X002107Y020929D02*
X003756Y020929D01*
X003710Y020831D02*
X001607Y020831D01*
X001607Y020929D02*
X001507Y020929D01*
X001507Y020831D02*
X000379Y020831D01*
X000379Y019944D02*
X001383Y019944D01*
X001211Y019846D02*
X000379Y019846D01*
X000379Y019747D02*
X001112Y019747D01*
X001069Y019649D02*
X000379Y019649D01*
X000379Y019550D02*
X001028Y019550D01*
X001027Y019452D02*
X000379Y019452D01*
X000379Y019353D02*
X001027Y019353D01*
X001062Y019255D02*
X000379Y019255D01*
X000379Y019156D02*
X001102Y019156D01*
X001193Y019058D02*
X000379Y019058D01*
X001775Y018959D02*
X006722Y018959D01*
X006821Y019058D02*
X005419Y019058D01*
X005517Y019156D02*
X005870Y019156D01*
X005771Y019255D02*
X005616Y019255D01*
X006489Y019156D02*
X006919Y019156D01*
X006835Y019255D02*
X006587Y019255D01*
X006686Y019353D02*
X006743Y019353D01*
X007602Y018270D02*
X007756Y018270D01*
X007855Y018171D02*
X007504Y018171D01*
X006601Y016694D02*
X006341Y016694D01*
X006275Y016595D02*
X006759Y016595D01*
X007799Y015709D02*
X007895Y015709D01*
X007799Y015610D02*
X008028Y015610D01*
X007852Y015512D02*
X007799Y015512D01*
X006507Y014822D02*
X006341Y014822D01*
X005054Y014625D02*
X004882Y014625D01*
X004934Y014724D02*
X005018Y014724D01*
X003469Y017580D02*
X003428Y017580D01*
X001378Y017186D02*
X000379Y017186D01*
X000379Y017088D02*
X001209Y017088D01*
X001110Y016989D02*
X000379Y016989D01*
X000379Y016891D02*
X001068Y016891D01*
X001027Y016595D02*
X000379Y016595D01*
X000379Y016497D02*
X001062Y016497D01*
X001103Y016398D02*
X000379Y016398D01*
X000379Y016300D02*
X001195Y016300D01*
X001507Y020338D02*
X001607Y020338D01*
X001607Y020437D02*
X001507Y020437D01*
X001507Y020535D02*
X001607Y020535D01*
X001607Y020634D02*
X001507Y020634D01*
X001507Y020732D02*
X001607Y020732D01*
X001607Y021028D02*
X001507Y021028D01*
X001507Y021126D02*
X001607Y021126D01*
X001607Y021225D02*
X001507Y021225D01*
X001507Y021323D02*
X001607Y021323D01*
X002067Y021323D02*
X003767Y021323D01*
X003865Y021225D02*
X002107Y021225D01*
X002107Y021126D02*
X004041Y021126D01*
X003854Y021028D02*
X002107Y021028D01*
X001880Y022210D02*
X001479Y022210D01*
X001577Y022308D02*
X001782Y022308D01*
X001721Y022407D02*
X001638Y022407D01*
X001679Y022505D02*
X001680Y022505D01*
X002479Y022210D02*
X002880Y022210D01*
X002782Y022308D02*
X002577Y022308D01*
X002638Y022407D02*
X002721Y022407D01*
X002679Y022505D02*
X002680Y022505D01*
X004488Y027233D02*
X004871Y027233D01*
X004772Y027332D02*
X004587Y027332D01*
X004637Y027430D02*
X004722Y027430D01*
X004681Y027529D02*
X004678Y027529D01*
X004679Y027627D02*
X004679Y027627D01*
X004679Y027726D02*
X004679Y027726D01*
X004641Y027824D02*
X004718Y027824D01*
X004763Y027923D02*
X004595Y027923D01*
X004497Y028021D02*
X004862Y028021D01*
X005051Y028120D02*
X004308Y028120D01*
D28*
X011929Y026031D03*
X012679Y025981D03*
X013729Y024931D03*
X014179Y024931D03*
X014179Y025981D03*
X017179Y026231D03*
X019479Y025131D03*
X021179Y025981D03*
X018279Y023881D03*
X014879Y022081D03*
X016979Y020631D03*
X016879Y019831D03*
X016929Y019131D03*
X016629Y017981D03*
X016379Y017231D03*
X017718Y017293D03*
X018179Y017281D03*
X019179Y017881D03*
X020279Y017781D03*
X020979Y017331D03*
X020729Y016131D03*
X019479Y016131D03*
X018729Y016131D03*
X017629Y015931D03*
X018879Y015131D03*
X019479Y014481D03*
X017829Y014781D03*
X017379Y014831D03*
X016079Y014931D03*
X015329Y014481D03*
X015329Y014031D03*
X015329Y013581D03*
X015329Y012981D03*
X017429Y012781D03*
X017729Y011531D03*
X018279Y011581D03*
X018729Y011581D03*
X019129Y011281D03*
X019379Y011581D03*
X019679Y011131D03*
X020279Y011631D03*
X020129Y010281D03*
X017079Y010931D03*
X016029Y010931D03*
X012929Y011081D03*
X012779Y010531D03*
X012779Y010081D03*
X012179Y011831D03*
X012829Y011931D03*
X011629Y012281D03*
X010179Y012731D03*
X012679Y014131D03*
X012679Y015181D03*
X013329Y015281D03*
X014329Y015531D03*
X014329Y017431D03*
X012904Y017306D03*
X013179Y018781D03*
X014554Y019706D03*
X010779Y022131D03*
X006529Y017931D03*
X004679Y018131D03*
X003929Y017831D03*
X002429Y017381D03*
X002529Y016081D03*
X002829Y014431D03*
X002879Y013331D03*
X002929Y011831D03*
X005379Y012181D03*
X007079Y011881D03*
X008079Y010431D03*
X007829Y009631D03*
X007379Y007981D03*
X005229Y008931D03*
X005679Y010381D03*
X007029Y013781D03*
X007629Y014631D03*
X006679Y015681D03*
X005379Y016181D03*
X005329Y014231D03*
X009479Y016381D03*
X010679Y016081D03*
X011179Y016431D03*
X019229Y019131D03*
X019179Y020631D03*
X021279Y019131D03*
X021679Y019131D03*
X021379Y014831D03*
X021379Y013131D03*
D29*
X010179Y019631D03*
X009179Y019631D03*
X008179Y019631D03*
X007179Y019631D03*
X007179Y020631D03*
X006179Y020631D03*
X005179Y020631D03*
X004179Y020631D03*
X004179Y021631D03*
X005179Y021631D03*
X006179Y021631D03*
X007179Y021631D03*
X008179Y021631D03*
X009179Y021631D03*
X010179Y021631D03*
X010179Y022631D03*
X009179Y022631D03*
X008179Y022631D03*
X007179Y022631D03*
X006179Y022631D03*
X005179Y022631D03*
X004179Y022631D03*
X003179Y022631D03*
X002179Y022631D03*
X001179Y022631D03*
X001179Y023631D03*
X002179Y023631D03*
X003179Y023631D03*
X004179Y023631D03*
X005179Y023631D03*
X006179Y023631D03*
X007179Y023631D03*
X008179Y023631D03*
X009179Y023631D03*
X010179Y023631D03*
X010179Y024631D03*
X009179Y024631D03*
X008179Y024631D03*
X007179Y024631D03*
X006179Y024631D03*
X005179Y024631D03*
X004179Y024631D03*
X003179Y024631D03*
X002179Y024631D03*
X001179Y024631D03*
X001179Y025631D03*
X002179Y025631D03*
X003179Y025631D03*
X004179Y025631D03*
X005179Y025631D03*
X006179Y025631D03*
X007179Y025631D03*
X008179Y025631D03*
X009179Y025631D03*
X010179Y025631D03*
X010179Y020631D03*
X009179Y020631D03*
X008179Y020631D03*
X001179Y026631D03*
D30*
X008179Y027631D02*
X008679Y027131D01*
X010479Y027131D01*
X010679Y026931D01*
X010679Y026331D01*
X010779Y026231D01*
X010779Y022131D01*
X012679Y022381D02*
X012929Y022131D01*
X013429Y022131D01*
X015779Y019781D01*
X015779Y017831D01*
X016379Y017231D01*
X017179Y017231D01*
X017284Y017126D01*
X017284Y016734D01*
X017718Y016734D02*
X017718Y017293D01*
X017579Y017431D01*
X016679Y017431D01*
X016029Y018081D01*
X016029Y019781D01*
X013179Y022631D01*
X012679Y022381D02*
X012679Y023131D01*
X013179Y023631D01*
X013179Y024631D02*
X015679Y022131D01*
X015679Y021481D01*
X016429Y020731D01*
X016429Y020466D01*
X016979Y020631D02*
X017495Y020631D01*
X018164Y020631D02*
X018229Y020566D01*
X018229Y020081D01*
X018112Y019965D01*
X017879Y019965D01*
X018164Y020631D02*
X018164Y021147D01*
X017679Y021631D01*
X017679Y022631D01*
X017679Y023631D01*
X017679Y024631D01*
X017179Y024131D02*
X016679Y023631D01*
X017179Y024131D02*
X017179Y026231D01*
X018179Y025831D02*
X018279Y025731D01*
X018279Y023881D01*
X019629Y024431D02*
X019629Y024981D01*
X019479Y025131D01*
X019629Y024431D02*
X020179Y023881D01*
X020179Y023631D01*
X020679Y023131D02*
X020179Y022631D01*
X020679Y023131D02*
X020679Y025881D01*
X020179Y026381D01*
X020179Y027131D01*
X019679Y027631D01*
X020679Y027631D02*
X021179Y027131D01*
X021179Y025981D01*
X021179Y024631D02*
X021179Y023631D01*
X021179Y022631D01*
X021179Y021631D01*
X021179Y021131D01*
X020679Y020631D01*
X020364Y020631D01*
X020379Y020616D01*
X020379Y020081D01*
X020262Y019965D01*
X020029Y019965D01*
X019695Y020631D02*
X019179Y020631D01*
X019229Y019131D02*
X019279Y019081D01*
X019638Y019081D01*
X019655Y019098D01*
X019695Y019059D01*
X019695Y018431D01*
X020364Y018431D02*
X020364Y019059D01*
X020403Y019098D01*
X020364Y018431D02*
X020379Y018416D01*
X020379Y018031D01*
X020279Y017931D01*
X020279Y017781D01*
X020779Y017731D02*
X020929Y017881D01*
X021345Y017881D01*
X021379Y017847D01*
X020779Y017731D02*
X020779Y017581D01*
X020316Y017118D01*
X020316Y016734D01*
X020729Y016714D02*
X020749Y016734D01*
X020729Y016714D02*
X020729Y016131D01*
X021179Y015781D02*
X021179Y016731D01*
X021182Y016734D01*
X021179Y016737D01*
X021179Y017131D01*
X020979Y017331D01*
X021345Y018472D02*
X021286Y018531D01*
X021279Y018538D01*
X021279Y019131D02*
X021345Y019197D01*
X021345Y019631D01*
X021975Y019671D02*
X022014Y019631D01*
X021975Y019671D02*
X021975Y020231D01*
X019179Y017881D02*
X018529Y017881D01*
X018229Y018181D01*
X018229Y018416D01*
X018214Y018431D01*
X018214Y019059D01*
X018253Y019098D01*
X017545Y019059D02*
X017545Y018431D01*
X016979Y018531D02*
X016979Y018131D01*
X017479Y017631D01*
X018229Y017631D01*
X018529Y017331D01*
X019229Y017331D01*
X019450Y017111D01*
X019450Y016734D01*
X019450Y016161D01*
X019479Y016131D01*
X018729Y016131D02*
X018579Y016281D01*
X018579Y016730D01*
X018584Y016734D01*
X018151Y016734D02*
X018151Y017253D01*
X018179Y017281D01*
X018579Y016281D02*
X016779Y016281D01*
X016362Y016698D01*
X015403Y016698D01*
X015364Y016659D01*
X015364Y016031D01*
X014695Y016031D02*
X014695Y016659D01*
X014655Y016698D01*
X014655Y017106D01*
X014329Y017431D01*
X013879Y017681D02*
X013879Y018266D01*
X013864Y018281D01*
X013879Y018297D01*
X013879Y019931D01*
X013179Y020631D01*
X013179Y019631D02*
X012329Y018781D01*
X012329Y017966D01*
X012329Y017297D02*
X012329Y016784D01*
X012577Y016784D01*
X012779Y016581D01*
X012779Y015831D01*
X013329Y015281D01*
X013195Y016031D02*
X013195Y016659D01*
X013155Y016698D01*
X013155Y017056D01*
X012904Y017306D01*
X013529Y017565D02*
X013762Y017565D01*
X013879Y017681D01*
X013195Y018281D02*
X013195Y018766D01*
X013179Y018781D01*
X011679Y018431D02*
X011679Y024981D01*
X012679Y025981D01*
X012679Y026381D02*
X012679Y027881D01*
X012929Y028131D01*
X015179Y028131D01*
X015679Y027631D01*
X014679Y027631D02*
X014529Y027631D01*
X013929Y027031D01*
X013929Y025131D01*
X013729Y024931D01*
X014179Y024931D02*
X014179Y025981D01*
X013679Y026131D02*
X013679Y027131D01*
X013179Y027631D01*
X012679Y026381D02*
X011479Y025181D01*
X011479Y018481D01*
X010179Y017181D01*
X007779Y017181D01*
X007129Y016531D01*
X007129Y013881D01*
X007029Y013781D01*
X006629Y014331D02*
X006129Y014331D01*
X006014Y014447D01*
X006014Y014931D01*
X006014Y015631D01*
X006679Y015681D02*
X006929Y015931D01*
X006929Y016631D01*
X007679Y017381D01*
X010129Y017381D01*
X011279Y018531D01*
X011279Y025381D01*
X011929Y026031D01*
X011679Y026181D02*
X011679Y027131D01*
X011179Y027631D01*
X011679Y026181D02*
X011079Y025581D01*
X011079Y018581D01*
X010079Y017581D01*
X007129Y017581D01*
X006779Y017931D01*
X006529Y017931D01*
X006014Y017631D02*
X006014Y016931D01*
X006029Y016916D01*
X006364Y016916D01*
X006629Y017181D01*
X006729Y017181D01*
X007329Y016431D02*
X007879Y016981D01*
X010229Y016981D01*
X011679Y018431D01*
X011579Y016897D02*
X011864Y016897D01*
X011979Y016781D01*
X012327Y016781D01*
X012329Y016784D01*
X011579Y016897D02*
X011564Y016881D01*
X011279Y016881D01*
X011179Y016781D01*
X007979Y016781D01*
X007629Y016431D01*
X007629Y014631D01*
X006014Y013631D02*
X006014Y012931D01*
X006014Y012647D01*
X006229Y012431D01*
X006779Y012431D01*
X007079Y011881D02*
X007329Y012131D01*
X007329Y016431D01*
X005345Y016931D02*
X004579Y016931D01*
X003779Y017231D02*
X003779Y017281D01*
X003729Y017281D02*
X003779Y017231D01*
X001584Y015281D02*
X001557Y015309D01*
X004579Y014931D02*
X005345Y014931D01*
X005345Y012931D02*
X004579Y012931D01*
X006014Y011631D02*
X006014Y010931D01*
X006014Y010647D01*
X006179Y010481D01*
X006829Y010481D01*
X007479Y009931D02*
X007629Y010081D01*
X009329Y010081D01*
X009479Y009931D01*
X012629Y009931D01*
X012779Y010081D01*
X012329Y010081D02*
X012779Y010531D01*
X012929Y011081D02*
X012179Y011831D01*
X012829Y011931D02*
X012929Y012031D01*
X013470Y012031D01*
X013495Y012056D01*
X013495Y012781D02*
X012879Y012781D01*
X012629Y013031D01*
X013179Y013581D01*
X015329Y013581D01*
X015352Y013604D01*
X016674Y013604D01*
X016674Y013171D02*
X016269Y013171D01*
X016132Y013034D01*
X016132Y012331D01*
X016129Y012329D01*
X016129Y012031D01*
X016014Y011916D01*
X016014Y011631D01*
X016029Y011616D01*
X016029Y010931D01*
X016029Y010231D01*
X015579Y009781D01*
X009379Y009781D01*
X009229Y009931D01*
X007729Y009931D01*
X007479Y009681D01*
X006487Y009681D01*
X006444Y009639D01*
X006444Y008024D01*
X008264Y008024D02*
X008264Y009639D01*
X007836Y009639D01*
X007829Y009631D01*
X007479Y009931D02*
X005379Y009931D01*
X005079Y009631D01*
X004301Y009631D01*
X004294Y009639D01*
X004294Y008024D01*
X004579Y010931D02*
X005345Y010931D01*
X008179Y011131D02*
X009079Y010231D01*
X009379Y010231D01*
X009529Y010081D01*
X012329Y010081D01*
X013679Y010631D02*
X014679Y011631D01*
X015345Y011631D01*
X017284Y011726D02*
X017479Y011531D01*
X017706Y011531D01*
X017718Y011543D01*
X017729Y011531D01*
X018151Y011710D02*
X018279Y011581D01*
X018151Y011710D02*
X018151Y012206D01*
X018584Y012206D02*
X018584Y011727D01*
X018729Y011581D01*
X019017Y011394D02*
X019129Y011281D01*
X019017Y011394D02*
X019017Y012206D01*
X019450Y012206D02*
X019450Y011652D01*
X019379Y011581D01*
X019679Y011131D02*
X020134Y011131D01*
X020279Y011631D02*
X020316Y011668D01*
X020316Y012206D01*
X020749Y012206D02*
X020749Y012801D01*
X021079Y013131D01*
X021379Y013131D01*
X020749Y012206D02*
X020749Y011156D01*
X020725Y011131D01*
X017718Y012206D02*
X017718Y012693D01*
X017629Y012781D01*
X017429Y012781D01*
X017284Y012206D02*
X017284Y011726D01*
X016674Y014037D02*
X015335Y014037D01*
X015329Y014031D01*
X013179Y014031D01*
X012779Y013631D01*
X011179Y013631D01*
X010679Y014131D01*
X011179Y014631D02*
X015179Y014631D01*
X015329Y014481D01*
X015341Y014470D01*
X016674Y014470D01*
X016674Y014903D02*
X017308Y014903D01*
X017379Y014831D01*
X017429Y015181D02*
X017829Y014781D01*
X017429Y015181D02*
X017429Y015631D01*
X017292Y015769D01*
X016674Y015769D01*
X016674Y015336D02*
X016184Y015336D01*
X016079Y015231D01*
X016079Y014931D01*
X014329Y015531D02*
X014279Y015581D01*
X014279Y016631D01*
X014212Y016698D01*
X013903Y016698D01*
X013864Y016659D01*
X013864Y016031D01*
X015029Y017565D02*
X015262Y017565D01*
X015379Y017681D01*
X015379Y018266D01*
X015364Y018281D01*
X015329Y018316D01*
X015329Y019481D01*
X013179Y021631D01*
X014554Y019706D02*
X014695Y019566D01*
X014695Y018281D01*
X016429Y019081D02*
X016429Y019334D01*
X016429Y019797D01*
X016429Y019081D02*
X016979Y018531D01*
X017002Y019059D02*
X016929Y019131D01*
X017002Y019059D02*
X017545Y019059D01*
X017505Y019098D01*
X021179Y015781D02*
X020529Y015131D01*
X018879Y015131D01*
X012629Y013031D02*
X012229Y012631D01*
X011179Y012631D01*
X010679Y013131D01*
X010179Y012731D02*
X010179Y011631D01*
X010679Y011131D01*
X010679Y010631D01*
X009672Y009639D02*
X010679Y008631D01*
X009672Y009639D02*
X008894Y009639D01*
X008894Y008024D01*
X011179Y014631D02*
X010679Y015131D01*
X012179Y024631D02*
X013679Y026131D01*
X017679Y027631D02*
X018179Y027131D01*
X018179Y025831D01*
D31*
X021279Y019131D02*
X021279Y018538D01*
X021345Y018472D02*
X021345Y017881D01*
X021379Y017847D02*
X021379Y017431D01*
X021615Y017196D01*
X021615Y016734D01*
X010679Y016081D02*
X010129Y016081D01*
X009679Y015631D01*
X009679Y015131D01*
X008179Y015131D01*
X009679Y013131D02*
X009679Y010631D01*
X003779Y010381D02*
X003679Y010281D01*
X002929Y010281D01*
X002429Y009781D01*
X001573Y009781D01*
X001557Y009797D01*
X003779Y010381D02*
X003779Y011281D01*
X003679Y012281D02*
X002729Y012281D01*
X002429Y012581D01*
X001629Y012581D01*
X001579Y012531D01*
X001579Y012531D01*
X001557Y012553D01*
X003679Y012281D02*
X003779Y012381D01*
X003779Y013281D01*
X003679Y014281D02*
X003179Y014781D01*
X003179Y015281D01*
X002679Y015281D01*
X001584Y015281D01*
X003179Y015281D02*
X003779Y015281D01*
X003679Y016281D02*
X003079Y016881D01*
X003079Y017631D01*
X003429Y017281D01*
X003729Y017281D01*
X003079Y017631D02*
X002646Y018065D01*
X001557Y018065D01*
M02*
