G75*
%MOIN*%
%OFA0B0*%
%FSLAX24Y24*%
%IPPOS*%
%LPD*%
%AMOC8*
5,1,8,0,0,1.08239X$1,22.5*
%
%ADD10C,0.0090*%
%ADD11OC8,0.0850*%
%ADD12R,0.0800X0.0800*%
%ADD13C,0.0800*%
%ADD14OC8,0.0480*%
%ADD15OC8,0.0740*%
%ADD16C,0.0740*%
%ADD17C,0.0100*%
%ADD18R,0.0500X0.0250*%
%ADD19C,0.0500*%
%ADD20C,0.0270*%
%ADD21C,0.0760*%
%ADD22C,0.0160*%
%ADD23C,0.0080*%
D10*
X002799Y017901D02*
X002868Y017833D01*
X002799Y017901D02*
X002799Y018038D01*
X002868Y018107D01*
X002936Y018107D01*
X003005Y018038D01*
X003005Y017970D01*
X003005Y018038D02*
X003073Y018107D01*
X003141Y018107D01*
X003210Y018038D01*
X003210Y017901D01*
X003141Y017833D01*
X002799Y018293D02*
X003210Y018567D01*
X003141Y018754D02*
X002868Y018754D01*
X003141Y019027D01*
X002868Y019027D01*
X002799Y018959D01*
X002799Y018822D01*
X002868Y018754D01*
X003141Y018754D02*
X003210Y018822D01*
X003210Y018959D01*
X003141Y019027D01*
X003210Y019214D02*
X003005Y019214D01*
X003073Y019351D01*
X003073Y019419D01*
X003005Y019488D01*
X002868Y019488D01*
X002799Y019419D01*
X002799Y019283D01*
X002868Y019214D01*
X003210Y019214D02*
X003210Y019488D01*
X002799Y019675D02*
X003210Y019948D01*
X003141Y020135D02*
X003210Y020203D01*
X003210Y020340D01*
X003141Y020408D01*
X003073Y020408D01*
X002799Y020135D01*
X002799Y020408D01*
X002868Y020595D02*
X003141Y020869D01*
X002868Y020869D01*
X002799Y020800D01*
X002799Y020664D01*
X002868Y020595D01*
X003141Y020595D01*
X003210Y020664D01*
X003210Y020800D01*
X003141Y020869D01*
X003073Y021056D02*
X003210Y021192D01*
X002799Y021192D01*
X002799Y021056D02*
X002799Y021329D01*
X002868Y021516D02*
X002799Y021584D01*
X002799Y021721D01*
X002868Y021790D01*
X002936Y021790D01*
X003005Y021721D01*
X003005Y021516D01*
X002868Y021516D01*
X003005Y021516D02*
X003141Y021653D01*
X003210Y021790D01*
D11*
X004179Y019631D03*
X005179Y019631D03*
X006179Y019631D03*
X007179Y018631D03*
X008179Y018631D03*
X009179Y018631D03*
X010179Y018631D03*
D12*
X001557Y018065D03*
X001557Y015309D03*
X001557Y012553D03*
X001557Y009797D03*
X001557Y020820D03*
D13*
X001557Y019443D03*
X001557Y016687D03*
X001557Y013931D03*
X001557Y011175D03*
X001557Y008419D03*
D14*
X003679Y010281D03*
X004679Y010281D03*
X004679Y012281D03*
X003679Y012281D03*
X003679Y014281D03*
X004679Y014281D03*
X004679Y016281D03*
X003679Y016281D03*
D15*
X012179Y020631D03*
X013179Y020631D03*
X013179Y021631D03*
X012179Y021631D03*
X012179Y022631D03*
X013179Y022631D03*
X013179Y023631D03*
X012179Y023631D03*
X016679Y023631D03*
X016679Y022631D03*
X016679Y021631D03*
X017679Y021631D03*
X017679Y022631D03*
X017679Y023631D03*
X017679Y024631D03*
X016679Y024631D03*
X020179Y024631D03*
X021179Y024631D03*
X021179Y023631D03*
X020179Y023631D03*
X020179Y022631D03*
X021179Y022631D03*
X021179Y021631D03*
X020179Y021631D03*
D16*
X019679Y026631D03*
X018679Y026631D03*
X017679Y026631D03*
X016679Y026631D03*
X015679Y026631D03*
X014679Y026631D03*
X014679Y027631D03*
X015679Y027631D03*
X016679Y027631D03*
X017679Y027631D03*
X018679Y027631D03*
X019679Y027631D03*
X020679Y027631D03*
X020679Y026631D03*
X021679Y026631D03*
X021679Y027631D03*
X013179Y027631D03*
X012179Y027631D03*
X012179Y026631D03*
X013179Y026631D03*
X011179Y026631D03*
X010179Y026631D03*
X009179Y026631D03*
X008179Y026631D03*
X007179Y026631D03*
X006179Y026631D03*
X006179Y027631D03*
X007179Y027631D03*
X008179Y027631D03*
X009179Y027631D03*
X010179Y027631D03*
X011179Y027631D03*
X012179Y024631D03*
X013179Y024631D03*
X013179Y019631D03*
X012179Y019631D03*
X008179Y016131D03*
X008179Y015131D03*
X008179Y014131D03*
X008179Y013131D03*
X008179Y012131D03*
X008179Y011131D03*
X006829Y010481D03*
X006779Y012431D03*
X006629Y014331D03*
X009679Y014131D03*
X010679Y014131D03*
X011679Y014131D03*
X011679Y015131D03*
X010679Y015131D03*
X009679Y015131D03*
X009679Y013131D03*
X010679Y013131D03*
X011679Y013131D03*
X011679Y010631D03*
X010679Y010631D03*
X009679Y010631D03*
X009679Y008631D03*
X010679Y008631D03*
X011679Y008631D03*
X012679Y008631D03*
X013679Y008631D03*
X014679Y008631D03*
X016679Y008631D03*
X017679Y008631D03*
X018679Y008631D03*
X019679Y008631D03*
X020679Y008631D03*
X021679Y008631D03*
X021679Y009631D03*
X020679Y009631D03*
X019679Y009631D03*
X018679Y009631D03*
X017679Y009631D03*
X016679Y009631D03*
X014679Y010631D03*
X013679Y010631D03*
X006729Y017181D03*
X005179Y027631D03*
X004179Y027631D03*
D17*
X000379Y008714D02*
X001262Y007831D01*
X022179Y007831D01*
X022179Y009929D01*
X021959Y010150D01*
X021829Y010462D01*
X021829Y010801D01*
X021959Y011113D01*
X022179Y011334D01*
X022179Y028349D01*
X022097Y028431D01*
X002969Y028431D01*
X003161Y028352D01*
X003400Y028113D01*
X003529Y027801D01*
X003529Y027462D01*
X003400Y027150D01*
X003161Y026911D01*
X002848Y026781D01*
X002510Y026781D01*
X002198Y026911D01*
X001959Y027150D01*
X001829Y027462D01*
X001829Y027801D01*
X001959Y028113D01*
X002198Y028352D01*
X002390Y028431D01*
X001262Y028431D01*
X000379Y027549D01*
X000379Y008714D01*
X000379Y008715D02*
X000799Y008715D01*
X000897Y008616D02*
X000477Y008616D01*
X000576Y008518D02*
X000996Y008518D01*
X001027Y008487D02*
X001027Y008313D01*
X001108Y008119D01*
X001257Y007970D01*
X001452Y007889D01*
X001663Y007889D01*
X001858Y007970D01*
X002007Y008119D01*
X002044Y008209D01*
X002904Y008209D01*
X003027Y008332D01*
X004606Y009911D01*
X004833Y009911D01*
X005049Y010128D01*
X005049Y010435D01*
X004833Y010651D01*
X004526Y010651D01*
X004309Y010435D01*
X004309Y010208D01*
X002730Y008629D01*
X002044Y008629D01*
X002007Y008719D01*
X001858Y008868D01*
X001663Y008949D01*
X001452Y008949D01*
X001257Y008868D01*
X001248Y008859D01*
X000889Y009218D01*
X000889Y010965D01*
X001071Y010965D01*
X001108Y010875D01*
X001257Y010725D01*
X001452Y010645D01*
X001663Y010645D01*
X001858Y010725D01*
X002007Y010875D01*
X002044Y010965D01*
X003660Y010965D01*
X004606Y011911D01*
X004833Y011911D01*
X005049Y012128D01*
X005049Y012435D01*
X004833Y012651D01*
X004526Y012651D01*
X004309Y012435D01*
X004309Y012208D01*
X003486Y011385D01*
X002044Y011385D01*
X002007Y011475D01*
X001858Y011624D01*
X001663Y011705D01*
X001452Y011705D01*
X001257Y011624D01*
X001108Y011475D01*
X001071Y011385D01*
X000889Y011385D01*
X000889Y013721D01*
X001071Y013721D01*
X001108Y013630D01*
X001257Y013481D01*
X001452Y013401D01*
X001663Y013401D01*
X001858Y013481D01*
X002007Y013630D01*
X002044Y013721D01*
X002943Y013721D01*
X003069Y013595D01*
X003192Y013471D01*
X004166Y013471D01*
X004606Y013911D01*
X004833Y013911D01*
X005049Y014128D01*
X005049Y014435D01*
X004833Y014651D01*
X004526Y014651D01*
X004309Y014435D01*
X004309Y014208D01*
X003992Y013891D01*
X003366Y013891D01*
X003116Y014141D01*
X002942Y014141D01*
X002044Y014141D01*
X002007Y014231D01*
X001858Y014380D01*
X001663Y014461D01*
X001452Y014461D01*
X001257Y014380D01*
X001108Y014231D01*
X001071Y014141D01*
X000889Y014141D01*
X000889Y016477D01*
X001071Y016477D01*
X001108Y016386D01*
X001257Y016237D01*
X001452Y016157D01*
X001663Y016157D01*
X001858Y016237D01*
X002007Y016386D01*
X002044Y016477D01*
X003351Y016477D01*
X003309Y016435D01*
X003309Y016128D01*
X003526Y015911D01*
X003833Y015911D01*
X004049Y016128D01*
X004049Y016435D01*
X004008Y016477D01*
X004187Y016477D01*
X004309Y016355D01*
X004309Y016128D01*
X004526Y015911D01*
X004833Y015911D01*
X005049Y016128D01*
X005049Y016435D01*
X004833Y016651D01*
X004606Y016651D01*
X004361Y016897D01*
X002044Y016897D01*
X002007Y016987D01*
X001858Y017136D01*
X001663Y017217D01*
X001452Y017217D01*
X001257Y017136D01*
X001108Y016987D01*
X001071Y016897D01*
X000889Y016897D01*
X000889Y018478D01*
X001362Y018950D01*
X001452Y018913D01*
X001663Y018913D01*
X001858Y018993D01*
X002007Y019142D01*
X002087Y019337D01*
X002087Y019548D01*
X002007Y019743D01*
X001858Y019892D01*
X001663Y019973D01*
X001452Y019973D01*
X001257Y019892D01*
X001108Y019743D01*
X001027Y019548D01*
X001027Y019337D01*
X001065Y019247D01*
X000469Y018652D01*
X000469Y009045D01*
X000592Y008921D01*
X001027Y008487D01*
X001027Y008419D02*
X000674Y008419D01*
X000773Y008321D02*
X001027Y008321D01*
X001065Y008222D02*
X000871Y008222D01*
X000970Y008124D02*
X001106Y008124D01*
X001068Y008025D02*
X001201Y008025D01*
X001167Y007927D02*
X001360Y007927D01*
X001755Y007927D02*
X022179Y007927D01*
X022179Y008025D02*
X021314Y008025D01*
X021349Y008061D02*
X021467Y008178D01*
X021580Y008131D01*
X021779Y008131D01*
X021963Y008208D01*
X022103Y008348D01*
X022179Y008532D01*
X022179Y008731D01*
X022103Y008915D01*
X021963Y009055D01*
X021779Y009131D01*
X021963Y009208D01*
X022103Y009348D01*
X022179Y009532D01*
X022179Y009731D01*
X022103Y009915D01*
X021963Y010055D01*
X021779Y010131D01*
X021580Y010131D01*
X021396Y010055D01*
X021255Y009915D01*
X021179Y009731D01*
X021103Y009915D01*
X020963Y010055D01*
X020779Y010131D01*
X020580Y010131D01*
X020396Y010055D01*
X020255Y009915D01*
X020179Y009731D01*
X020103Y009915D01*
X019963Y010055D01*
X019779Y010131D01*
X019580Y010131D01*
X019396Y010055D01*
X019255Y009915D01*
X019179Y009731D01*
X019103Y009915D01*
X018963Y010055D01*
X018779Y010131D01*
X018580Y010131D01*
X018396Y010055D01*
X018255Y009915D01*
X018179Y009731D01*
X018103Y009915D01*
X017963Y010055D01*
X017779Y010131D01*
X017580Y010131D01*
X017396Y010055D01*
X017255Y009915D01*
X017179Y009731D01*
X017103Y009915D01*
X016963Y010055D01*
X016779Y010131D01*
X016580Y010131D01*
X016396Y010055D01*
X016255Y009915D01*
X016179Y009731D01*
X016179Y009532D01*
X016255Y009348D01*
X016396Y009208D01*
X016580Y009131D01*
X016396Y009055D01*
X016255Y008915D01*
X016179Y008731D01*
X016179Y008532D01*
X016255Y008348D01*
X016302Y008301D01*
X016250Y008301D01*
X015849Y008702D01*
X015849Y009702D01*
X015750Y009801D01*
X015132Y010419D01*
X015179Y010532D01*
X015179Y010731D01*
X015137Y010834D01*
X015559Y010411D01*
X015659Y010311D01*
X017400Y010311D01*
X017609Y010520D01*
X017654Y010501D01*
X017805Y010501D01*
X017945Y010559D01*
X018052Y010666D01*
X018100Y010783D01*
X018107Y010766D01*
X018214Y010659D01*
X018354Y010601D01*
X018505Y010601D01*
X018645Y010659D01*
X018752Y010766D01*
X018809Y010906D01*
X018809Y011057D01*
X018752Y011197D01*
X018645Y011304D01*
X018505Y011361D01*
X018449Y011361D01*
X018449Y011377D01*
X018504Y011431D01*
X018504Y011432D01*
X018505Y011431D01*
X018579Y011357D01*
X018677Y011316D01*
X018782Y011316D01*
X018873Y011354D01*
X018864Y011334D01*
X018864Y011229D01*
X018905Y011131D01*
X018979Y011057D01*
X019077Y011016D01*
X019182Y011016D01*
X019279Y011057D01*
X019354Y011131D01*
X019394Y011229D01*
X019394Y011316D01*
X019432Y011316D01*
X019509Y011349D01*
X019509Y011336D01*
X019455Y011282D01*
X019414Y011184D01*
X019414Y011079D01*
X019302Y011079D01*
X019414Y011079D02*
X019455Y010981D01*
X019529Y010907D01*
X019627Y010866D01*
X019732Y010866D01*
X019829Y010907D01*
X019904Y010981D01*
X019944Y011079D01*
X021945Y011079D01*
X021904Y010981D02*
X019903Y010981D01*
X019944Y011079D02*
X019944Y011184D01*
X019904Y011282D01*
X019849Y011336D01*
X019849Y011911D01*
X020109Y012171D01*
X020109Y011836D01*
X020055Y011782D01*
X020014Y011684D01*
X020014Y011579D01*
X020055Y011481D01*
X020129Y011407D01*
X020227Y011366D01*
X020332Y011366D01*
X020429Y011407D01*
X020504Y011481D01*
X020544Y011579D01*
X020544Y011684D01*
X020504Y011782D01*
X020449Y011836D01*
X020449Y012261D01*
X020842Y012261D01*
X020857Y012297D02*
X020799Y012157D01*
X020799Y012006D01*
X020857Y011866D01*
X020964Y011759D01*
X021104Y011701D01*
X021255Y011701D01*
X021395Y011759D01*
X021502Y011866D01*
X021559Y012006D01*
X021559Y012157D01*
X021502Y012297D01*
X021395Y012404D01*
X021349Y012422D01*
X021349Y012861D01*
X021355Y012866D01*
X021432Y012866D01*
X021529Y012907D01*
X021604Y012981D01*
X021644Y013079D01*
X021644Y013184D01*
X021604Y013282D01*
X021529Y013356D01*
X021432Y013396D01*
X021327Y013396D01*
X021229Y013356D01*
X021155Y013282D01*
X021142Y013250D01*
X021102Y013347D01*
X020995Y013454D01*
X020855Y013511D01*
X020800Y013511D01*
X020849Y013561D01*
X020849Y015585D01*
X020857Y015566D01*
X020964Y015459D01*
X021104Y015401D01*
X021255Y015401D01*
X021395Y015459D01*
X021502Y015566D01*
X021559Y015706D01*
X021559Y015857D01*
X021502Y015997D01*
X021395Y016104D01*
X021349Y016122D01*
X021349Y017202D01*
X021244Y017307D01*
X021244Y017384D01*
X021204Y017482D01*
X021129Y017556D01*
X021032Y017596D01*
X020927Y017596D01*
X020829Y017556D01*
X020755Y017482D01*
X020714Y017384D01*
X020714Y017279D01*
X020755Y017181D01*
X020829Y017107D01*
X020927Y017066D01*
X021004Y017066D01*
X021009Y017061D01*
X021009Y016122D01*
X020994Y016116D01*
X020994Y016184D01*
X020954Y016282D01*
X020879Y016356D01*
X020782Y016396D01*
X020677Y016396D01*
X020579Y016356D01*
X020549Y016326D01*
X020549Y017752D01*
X020544Y017757D01*
X020544Y017834D01*
X020504Y017932D01*
X020429Y018006D01*
X020332Y018046D01*
X020227Y018046D01*
X020129Y018006D01*
X020055Y017932D01*
X020015Y017836D01*
X019899Y017952D01*
X019800Y018051D01*
X019384Y018051D01*
X019329Y018106D01*
X019232Y018146D01*
X019127Y018146D01*
X019029Y018106D01*
X018955Y018032D01*
X018914Y017934D01*
X018914Y017829D01*
X018955Y017731D01*
X019029Y017657D01*
X019127Y017616D01*
X019232Y017616D01*
X019329Y017657D01*
X019384Y017711D01*
X019659Y017711D01*
X020059Y017311D01*
X020059Y014252D01*
X019859Y014051D01*
X018790Y014051D01*
X019440Y014701D01*
X019555Y014701D01*
X019695Y014759D01*
X019802Y014866D01*
X019859Y015006D01*
X019859Y015157D01*
X019802Y015297D01*
X019695Y015404D01*
X019649Y015422D01*
X019649Y015927D01*
X019704Y015981D01*
X019744Y016079D01*
X019744Y016184D01*
X019704Y016282D01*
X019629Y016356D01*
X019532Y016396D01*
X019427Y016396D01*
X019329Y016356D01*
X019255Y016282D01*
X019214Y016184D01*
X019214Y016116D01*
X019105Y016161D01*
X018994Y016161D01*
X018994Y016184D01*
X018954Y016282D01*
X018879Y016356D01*
X018782Y016396D01*
X018677Y016396D01*
X018579Y016356D01*
X018505Y016282D01*
X018464Y016184D01*
X018464Y016137D01*
X018405Y016161D01*
X018349Y016161D01*
X018349Y017077D01*
X018404Y017131D01*
X018444Y017229D01*
X018444Y017334D01*
X018404Y017432D01*
X018329Y017506D01*
X018232Y017546D01*
X018127Y017546D01*
X018029Y017506D01*
X017955Y017432D01*
X017951Y017422D01*
X017942Y017443D01*
X017868Y017518D01*
X017770Y017558D01*
X017665Y017558D01*
X017567Y017518D01*
X017493Y017443D01*
X017453Y017346D01*
X017453Y017241D01*
X017481Y017173D01*
X017300Y016993D01*
X017255Y017011D01*
X017104Y017011D01*
X016964Y016954D01*
X016857Y016847D01*
X016799Y016707D01*
X016799Y016556D01*
X016857Y016416D01*
X016964Y016309D01*
X017104Y016251D01*
X017255Y016251D01*
X017395Y016309D01*
X017502Y016416D01*
X017559Y016556D01*
X017559Y016707D01*
X017541Y016752D01*
X017849Y017061D01*
X017868Y017069D01*
X017942Y017143D01*
X017946Y017152D01*
X017955Y017131D01*
X018009Y017077D01*
X018009Y015999D01*
X018007Y015997D01*
X017949Y015857D01*
X017949Y015706D01*
X017951Y015701D01*
X014534Y015701D01*
X014479Y015756D01*
X014382Y015796D01*
X014277Y015796D01*
X014179Y015756D01*
X014105Y015682D01*
X014064Y015584D01*
X014064Y015479D01*
X014076Y015451D01*
X013534Y015451D01*
X013479Y015506D01*
X013382Y015546D01*
X013277Y015546D01*
X013179Y015506D01*
X013105Y015432D01*
X013064Y015334D01*
X013064Y015229D01*
X013105Y015131D01*
X013179Y015057D01*
X013277Y015016D01*
X013382Y015016D01*
X013479Y015057D01*
X013534Y015111D01*
X015885Y015111D01*
X015855Y015082D01*
X015814Y014984D01*
X015814Y014879D01*
X015855Y014781D01*
X015877Y014759D01*
X015864Y014754D01*
X015757Y014647D01*
X015699Y014507D01*
X015699Y014356D01*
X015757Y014216D01*
X015864Y014109D01*
X016004Y014051D01*
X016155Y014051D01*
X016295Y014109D01*
X016402Y014216D01*
X016459Y014356D01*
X016459Y014507D01*
X016402Y014647D01*
X016295Y014754D01*
X016282Y014759D01*
X016304Y014781D01*
X016344Y014879D01*
X016344Y014984D01*
X016304Y015082D01*
X016274Y015111D01*
X018614Y015111D01*
X018614Y015079D01*
X018655Y014981D01*
X018729Y014907D01*
X018827Y014866D01*
X018932Y014866D01*
X019029Y014907D01*
X019104Y014981D01*
X019107Y014988D01*
X019147Y014890D01*
X018721Y014464D01*
X018759Y014556D01*
X018759Y014707D01*
X018702Y014847D01*
X018595Y014954D01*
X018455Y015011D01*
X018304Y015011D01*
X018164Y014954D01*
X018080Y014869D01*
X018054Y014932D01*
X017979Y015006D01*
X017882Y015046D01*
X017777Y015046D01*
X017679Y015006D01*
X017619Y014946D01*
X017604Y014982D01*
X017529Y015056D01*
X017432Y015096D01*
X017327Y015096D01*
X017229Y015056D01*
X017155Y014982D01*
X017114Y014884D01*
X017114Y014779D01*
X017155Y014681D01*
X017177Y014659D01*
X017164Y014654D01*
X017057Y014547D01*
X016999Y014407D01*
X016999Y014256D01*
X017057Y014116D01*
X017164Y014009D01*
X017209Y013991D01*
X017209Y013802D01*
X015759Y012351D01*
X012559Y012351D01*
X012459Y012252D01*
X012359Y012152D01*
X012359Y012026D01*
X012329Y012056D01*
X012232Y012096D01*
X012127Y012096D01*
X012029Y012056D01*
X011975Y012001D01*
X009750Y012001D01*
X008849Y012902D01*
X008849Y015702D01*
X008750Y015801D01*
X008632Y015919D01*
X008679Y016032D01*
X008679Y016231D01*
X008603Y016415D01*
X008463Y016555D01*
X008279Y016631D01*
X008080Y016631D01*
X007896Y016555D01*
X007789Y016449D01*
X007789Y018237D01*
X007949Y018076D01*
X008409Y018076D01*
X008665Y018332D01*
X008941Y018056D01*
X009129Y018056D01*
X009129Y018581D01*
X009229Y018581D01*
X009229Y018056D01*
X009418Y018056D01*
X009679Y018318D01*
X009941Y018056D01*
X010129Y018056D01*
X010129Y018581D01*
X010229Y018581D01*
X010229Y018056D01*
X010418Y018056D01*
X010754Y018393D01*
X010754Y018581D01*
X010229Y018581D01*
X010229Y018681D01*
X010754Y018681D01*
X010754Y018870D01*
X010438Y019186D01*
X010468Y019199D01*
X010612Y019343D01*
X010689Y019530D01*
X010689Y019733D01*
X010612Y019920D01*
X010468Y020064D01*
X010305Y020131D01*
X010468Y020199D01*
X010612Y020343D01*
X010689Y020530D01*
X010689Y020733D01*
X010612Y020920D01*
X010468Y021064D01*
X010305Y021131D01*
X010468Y021199D01*
X010612Y021343D01*
X010689Y021530D01*
X010689Y021733D01*
X010612Y021920D01*
X010468Y022064D01*
X010305Y022131D01*
X010468Y022199D01*
X010612Y022343D01*
X010689Y022530D01*
X010689Y022733D01*
X010612Y022920D01*
X010571Y022961D01*
X011309Y022961D01*
X011559Y022711D01*
X011679Y022711D01*
X011679Y022424D01*
X011972Y022131D01*
X011679Y021839D01*
X011679Y021424D01*
X011972Y021131D01*
X011679Y020839D01*
X011679Y020622D01*
X011649Y020652D01*
X011649Y021502D01*
X011044Y022107D01*
X011044Y022184D01*
X011004Y022282D01*
X010929Y022356D01*
X010832Y022396D01*
X010727Y022396D01*
X010629Y022356D01*
X010555Y022282D01*
X010514Y022184D01*
X010514Y022079D01*
X010555Y021981D01*
X010629Y021907D01*
X010727Y021866D01*
X010804Y021866D01*
X011309Y021361D01*
X011309Y020511D01*
X011409Y020411D01*
X011831Y019990D01*
X011755Y019915D01*
X011679Y019731D01*
X011679Y019532D01*
X011755Y019348D01*
X011896Y019208D01*
X012080Y019131D01*
X012279Y019131D01*
X012463Y019208D01*
X012603Y019348D01*
X012679Y019532D01*
X012679Y019731D01*
X012603Y019915D01*
X012463Y020055D01*
X012279Y020131D01*
X012170Y020131D01*
X012170Y020131D01*
X012386Y020131D01*
X012679Y020424D01*
X012679Y020839D01*
X012653Y020865D01*
X012750Y020961D01*
X012802Y020961D01*
X012679Y020839D01*
X012679Y020424D01*
X012972Y020131D01*
X013386Y020131D01*
X013679Y020424D01*
X013679Y020839D01*
X013528Y020990D01*
X013800Y021261D01*
X013899Y021361D01*
X013899Y024411D01*
X014155Y024666D01*
X014232Y024666D01*
X014329Y024707D01*
X014404Y024781D01*
X014444Y024879D01*
X014444Y024984D01*
X014404Y025082D01*
X014329Y025156D01*
X014317Y025161D01*
X015509Y025161D01*
X015909Y024761D01*
X015909Y024311D01*
X016159Y024061D01*
X016259Y023961D01*
X016302Y023961D01*
X016179Y023839D01*
X016179Y023424D01*
X016472Y023131D01*
X016179Y022839D01*
X016179Y022424D01*
X016472Y022131D01*
X016179Y021839D01*
X016179Y021424D01*
X016472Y021131D01*
X016886Y021131D01*
X017179Y021424D01*
X017179Y021839D01*
X017153Y021865D01*
X017250Y021961D01*
X017302Y021961D01*
X017179Y021839D01*
X017179Y021424D01*
X017472Y021131D01*
X017886Y021131D01*
X018179Y021424D01*
X018179Y021839D01*
X018028Y021990D01*
X019679Y023641D01*
X019679Y023424D01*
X019972Y023131D01*
X019679Y022839D01*
X019679Y022424D01*
X019972Y022131D01*
X019679Y021839D01*
X019679Y021424D01*
X019972Y021131D01*
X020386Y021131D01*
X020679Y021424D01*
X020679Y021839D01*
X020653Y021865D01*
X020750Y021961D01*
X020802Y021961D01*
X020679Y021839D01*
X020679Y021424D01*
X020972Y021131D01*
X021386Y021131D01*
X021679Y021424D01*
X021679Y021839D01*
X021528Y021990D01*
X021850Y022311D01*
X021949Y022411D01*
X021949Y025452D01*
X021444Y025957D01*
X021444Y026034D01*
X021404Y026132D01*
X021329Y026206D01*
X021269Y026231D01*
X021321Y026283D01*
X021396Y026208D01*
X021580Y026131D01*
X021779Y026131D01*
X021963Y026208D01*
X022103Y026348D01*
X022179Y026532D01*
X022179Y026731D01*
X022103Y026915D01*
X021963Y027055D01*
X021779Y027131D01*
X021963Y027208D01*
X022103Y027348D01*
X022179Y027532D01*
X022179Y027731D01*
X022103Y027915D01*
X021963Y028055D01*
X021779Y028131D01*
X021580Y028131D01*
X021396Y028055D01*
X021255Y027915D01*
X021179Y027731D01*
X021103Y027915D01*
X020963Y028055D01*
X020779Y028131D01*
X020580Y028131D01*
X020396Y028055D01*
X020255Y027915D01*
X020179Y027731D01*
X020103Y027915D01*
X019963Y028055D01*
X019779Y028131D01*
X019580Y028131D01*
X019396Y028055D01*
X019255Y027915D01*
X019179Y027731D01*
X019103Y027915D01*
X018963Y028055D01*
X018779Y028131D01*
X018580Y028131D01*
X018396Y028055D01*
X018255Y027915D01*
X018179Y027731D01*
X018103Y027915D01*
X017963Y028055D01*
X017779Y028131D01*
X017580Y028131D01*
X017396Y028055D01*
X017346Y028005D01*
X017250Y028101D01*
X017149Y028202D01*
X017050Y028301D01*
X010609Y028301D01*
X010392Y028085D01*
X010279Y028131D01*
X010080Y028131D01*
X009896Y028055D01*
X009755Y027915D01*
X009679Y027731D01*
X009603Y027915D01*
X009463Y028055D01*
X009279Y028131D01*
X009080Y028131D01*
X008896Y028055D01*
X008755Y027915D01*
X008679Y027731D01*
X008603Y027915D01*
X008463Y028055D01*
X008279Y028131D01*
X008080Y028131D01*
X007896Y028055D01*
X007755Y027915D01*
X007687Y027750D01*
X007687Y027753D01*
X007661Y027831D01*
X007624Y027904D01*
X007576Y027970D01*
X007518Y028028D01*
X007452Y028076D01*
X007379Y028113D01*
X007301Y028139D01*
X007229Y028150D01*
X007229Y027682D01*
X007129Y027682D01*
X007129Y028150D01*
X007058Y028139D01*
X006980Y028113D01*
X006907Y028076D01*
X006841Y028028D01*
X006783Y027970D01*
X006735Y027904D01*
X006697Y027831D01*
X006672Y027753D01*
X006672Y027750D01*
X006603Y027915D01*
X006463Y028055D01*
X006279Y028131D01*
X006080Y028131D01*
X005896Y028055D01*
X005755Y027915D01*
X005679Y027731D01*
X005603Y027915D01*
X005463Y028055D01*
X005279Y028131D01*
X005080Y028131D01*
X004896Y028055D01*
X004755Y027915D01*
X004679Y027731D01*
X004603Y027915D01*
X004463Y028055D01*
X004279Y028131D01*
X004080Y028131D01*
X003896Y028055D01*
X003755Y027915D01*
X003679Y027731D01*
X003679Y027532D01*
X003755Y027348D01*
X003896Y027208D01*
X004080Y027131D01*
X004279Y027131D01*
X004392Y027178D01*
X005509Y026061D01*
X005509Y026023D01*
X005468Y026064D01*
X005281Y026141D01*
X005078Y026141D01*
X004890Y026064D01*
X004747Y025920D01*
X004679Y025757D01*
X004612Y025920D01*
X004468Y026064D01*
X004281Y026141D01*
X004078Y026141D01*
X003890Y026064D01*
X003747Y025920D01*
X003679Y025757D01*
X003612Y025920D01*
X003468Y026064D01*
X003281Y026141D01*
X003078Y026141D01*
X002890Y026064D01*
X002747Y025920D01*
X002679Y025757D01*
X002612Y025920D01*
X002468Y026064D01*
X002281Y026141D01*
X002078Y026141D01*
X001890Y026064D01*
X001747Y025920D01*
X001679Y025757D01*
X001612Y025920D01*
X001468Y026064D01*
X001305Y026131D01*
X001468Y026199D01*
X001612Y026343D01*
X001689Y026530D01*
X001689Y026733D01*
X001612Y026920D01*
X001468Y027064D01*
X001281Y027141D01*
X001078Y027141D01*
X000890Y027064D01*
X000747Y026920D01*
X000669Y026733D01*
X000669Y026530D01*
X000747Y026343D01*
X000890Y026199D01*
X001054Y026131D01*
X000890Y026064D01*
X000747Y025920D01*
X000669Y025733D01*
X000669Y025530D01*
X000747Y025343D01*
X000890Y025199D01*
X001054Y025131D01*
X000890Y025064D01*
X000747Y024920D01*
X000669Y024733D01*
X000669Y024530D01*
X000747Y024343D01*
X000890Y024199D01*
X001054Y024131D01*
X000890Y024064D01*
X000747Y023920D01*
X000669Y023733D01*
X000669Y023530D01*
X000747Y023343D01*
X000890Y023199D01*
X001054Y023131D01*
X000890Y023064D01*
X000747Y022920D01*
X000669Y022733D01*
X000669Y022530D01*
X000747Y022343D01*
X000890Y022199D01*
X001078Y022121D01*
X001281Y022121D01*
X001468Y022199D01*
X001612Y022343D01*
X001679Y022506D01*
X001747Y022343D01*
X001890Y022199D01*
X002078Y022121D01*
X002281Y022121D01*
X002468Y022199D01*
X002612Y022343D01*
X002679Y022506D01*
X002747Y022343D01*
X002890Y022199D01*
X003078Y022121D01*
X003281Y022121D01*
X003468Y022199D01*
X003612Y022343D01*
X003679Y022506D01*
X003747Y022343D01*
X003890Y022199D01*
X004054Y022131D01*
X003890Y022064D01*
X003747Y021920D01*
X003669Y021733D01*
X003669Y021530D01*
X003747Y021343D01*
X003890Y021199D01*
X004054Y021131D01*
X003890Y021064D01*
X003747Y020920D01*
X003669Y020733D01*
X003669Y020530D01*
X003747Y020343D01*
X003890Y020199D01*
X003921Y020186D01*
X003604Y019870D01*
X003604Y019681D01*
X004129Y019681D01*
X004129Y019581D01*
X004229Y019581D01*
X004229Y019056D01*
X004418Y019056D01*
X004679Y019318D01*
X004941Y019056D01*
X005129Y019056D01*
X005129Y019581D01*
X005229Y019581D01*
X005229Y019056D01*
X005418Y019056D01*
X005694Y019332D01*
X005949Y019076D01*
X005969Y019076D01*
X005969Y018695D01*
X006470Y018194D01*
X006379Y018156D01*
X006375Y018151D01*
X006009Y018151D01*
X005909Y018052D01*
X005843Y017986D01*
X005708Y017986D01*
X005632Y017910D01*
X005632Y017552D01*
X005653Y017531D01*
X005632Y017510D01*
X005632Y017152D01*
X005708Y017076D01*
X006232Y017076D01*
X006305Y016898D01*
X006446Y016758D01*
X006630Y016681D01*
X006829Y016681D01*
X007013Y016758D01*
X007069Y016814D01*
X007069Y015345D01*
X007192Y015221D01*
X007219Y015195D01*
X007219Y015068D01*
X007069Y014918D01*
X007069Y014576D01*
X007053Y014615D01*
X006987Y014681D01*
X007059Y014753D01*
X007059Y015110D01*
X007038Y015131D01*
X007059Y015153D01*
X007059Y015510D01*
X006983Y015586D01*
X006927Y015586D01*
X006944Y015629D01*
X006944Y015734D01*
X006904Y015832D01*
X006829Y015906D01*
X006732Y015946D01*
X006627Y015946D01*
X006529Y015906D01*
X006455Y015832D01*
X006414Y015734D01*
X006414Y015629D01*
X006432Y015586D01*
X006376Y015586D01*
X006299Y015510D01*
X006299Y015153D01*
X006321Y015131D01*
X006299Y015110D01*
X006299Y014753D01*
X006321Y014731D01*
X006205Y014615D01*
X006129Y014431D01*
X006129Y014232D01*
X006205Y014048D01*
X006346Y013908D01*
X006530Y013831D01*
X006729Y013831D01*
X006770Y013849D01*
X006764Y013834D01*
X006764Y013757D01*
X006710Y013703D01*
X006710Y013686D01*
X006576Y013686D01*
X006500Y013610D01*
X006500Y013252D01*
X006521Y013231D01*
X006500Y013210D01*
X006500Y012857D01*
X006496Y012855D01*
X006355Y012715D01*
X006279Y012531D01*
X006279Y012332D01*
X006355Y012148D01*
X006496Y012008D01*
X006680Y011931D01*
X006814Y011931D01*
X006814Y011857D01*
X006699Y011742D01*
X006551Y011742D01*
X006475Y011666D01*
X006475Y011308D01*
X006496Y011287D01*
X006475Y011266D01*
X006475Y010908D01*
X006512Y010871D01*
X006405Y010765D01*
X006329Y010581D01*
X006329Y010382D01*
X006405Y010198D01*
X006546Y010058D01*
X006730Y009981D01*
X006929Y009981D01*
X007113Y010058D01*
X007219Y010164D01*
X007219Y009295D01*
X007342Y009171D01*
X007342Y009171D01*
X007642Y008871D01*
X008266Y008871D01*
X008389Y008995D01*
X008839Y009445D01*
X008839Y010395D01*
X009182Y010737D01*
X009179Y010731D01*
X009179Y010532D01*
X009255Y010348D01*
X009396Y010208D01*
X009469Y010177D01*
X009469Y009545D01*
X009592Y009421D01*
X009956Y009058D01*
X009779Y009131D01*
X009580Y009131D01*
X009396Y009055D01*
X009255Y008915D01*
X009179Y008731D01*
X009179Y008532D01*
X009255Y008348D01*
X009396Y008208D01*
X009580Y008131D01*
X009779Y008131D01*
X009963Y008208D01*
X010103Y008348D01*
X010179Y008532D01*
X010179Y008731D01*
X010106Y008908D01*
X010210Y008804D01*
X010179Y008731D01*
X010179Y008532D01*
X010255Y008348D01*
X010396Y008208D01*
X010580Y008131D01*
X010779Y008131D01*
X010963Y008208D01*
X011103Y008348D01*
X011179Y008532D01*
X011179Y008731D01*
X011103Y008915D01*
X010963Y009055D01*
X010779Y009131D01*
X010580Y009131D01*
X010507Y009101D01*
X009889Y009718D01*
X009889Y010177D01*
X009963Y010208D01*
X010103Y010348D01*
X010179Y010532D01*
X010179Y010731D01*
X010103Y010915D01*
X010046Y010971D01*
X010312Y010971D01*
X010255Y010915D01*
X010179Y010731D01*
X010179Y010532D01*
X010255Y010348D01*
X010396Y010208D01*
X010580Y010131D01*
X010779Y010131D01*
X010963Y010208D01*
X011103Y010348D01*
X011179Y010532D01*
X011179Y010731D01*
X011103Y010915D01*
X011046Y010971D01*
X011292Y010971D01*
X011302Y010962D01*
X011255Y010915D01*
X011179Y010731D01*
X011179Y010532D01*
X011255Y010348D01*
X011396Y010208D01*
X011469Y010177D01*
X011469Y009086D01*
X011396Y009055D01*
X011255Y008915D01*
X011179Y008731D01*
X011179Y008532D01*
X011255Y008348D01*
X011396Y008208D01*
X011580Y008131D01*
X011779Y008131D01*
X011963Y008208D01*
X012103Y008348D01*
X012172Y008513D01*
X012172Y008510D01*
X012197Y008432D01*
X012235Y008359D01*
X012283Y008293D01*
X012341Y008235D01*
X012407Y008187D01*
X012480Y008150D01*
X012558Y008124D01*
X012629Y008113D01*
X012629Y008581D01*
X012729Y008581D01*
X012729Y008113D01*
X012801Y008124D01*
X012879Y008150D01*
X012952Y008187D01*
X013018Y008235D01*
X013076Y008293D01*
X013124Y008359D01*
X013161Y008432D01*
X013179Y008488D01*
X013197Y008432D01*
X013235Y008359D01*
X013283Y008293D01*
X013341Y008235D01*
X013407Y008187D01*
X013480Y008150D01*
X013558Y008124D01*
X013629Y008113D01*
X013629Y008581D01*
X013729Y008581D01*
X013729Y008113D01*
X013801Y008124D01*
X013879Y008150D01*
X013952Y008187D01*
X014018Y008235D01*
X014076Y008293D01*
X014124Y008359D01*
X014161Y008432D01*
X014187Y008510D01*
X014187Y008513D01*
X014255Y008348D01*
X014396Y008208D01*
X014580Y008131D01*
X014779Y008131D01*
X014963Y008208D01*
X015103Y008348D01*
X015179Y008532D01*
X015179Y008731D01*
X015103Y008915D01*
X014963Y009055D01*
X014779Y009131D01*
X014580Y009131D01*
X014396Y009055D01*
X014255Y008915D01*
X014187Y008750D01*
X014187Y008753D01*
X014161Y008831D01*
X014124Y008904D01*
X014076Y008970D01*
X014018Y009028D01*
X013952Y009076D01*
X013879Y009113D01*
X013801Y009139D01*
X013729Y009150D01*
X013729Y008682D01*
X013629Y008682D01*
X013629Y009150D01*
X013558Y009139D01*
X013480Y009113D01*
X013407Y009076D01*
X013341Y009028D01*
X013283Y008970D01*
X013235Y008904D01*
X013197Y008831D01*
X013179Y008775D01*
X013161Y008831D01*
X013124Y008904D01*
X013076Y008970D01*
X013018Y009028D01*
X012952Y009076D01*
X012879Y009113D01*
X012801Y009139D01*
X012729Y009150D01*
X012729Y008682D01*
X012629Y008682D01*
X012629Y009150D01*
X012558Y009139D01*
X012480Y009113D01*
X012407Y009076D01*
X012341Y009028D01*
X012283Y008970D01*
X012235Y008904D01*
X012197Y008831D01*
X012172Y008753D01*
X012172Y008750D01*
X012103Y008915D01*
X011963Y009055D01*
X011889Y009086D01*
X011889Y010177D01*
X011963Y010208D01*
X012103Y010348D01*
X012179Y010532D01*
X012179Y010731D01*
X012103Y010915D01*
X011963Y011055D01*
X011779Y011131D01*
X011726Y011131D01*
X011646Y011211D01*
X012309Y011211D01*
X012309Y010311D01*
X012409Y010211D01*
X012514Y010106D01*
X012514Y010029D01*
X012555Y009931D01*
X012629Y009857D01*
X012727Y009816D01*
X012832Y009816D01*
X012929Y009857D01*
X013004Y009931D01*
X013044Y010029D01*
X013044Y010134D01*
X013004Y010232D01*
X012929Y010306D01*
X012929Y010306D01*
X012929Y010307D01*
X013004Y010381D01*
X013044Y010479D01*
X013044Y010556D01*
X013179Y010691D01*
X013179Y010532D01*
X013255Y010348D01*
X013396Y010208D01*
X013580Y010131D01*
X013779Y010131D01*
X013963Y010208D01*
X014103Y010348D01*
X014179Y010532D01*
X014179Y010731D01*
X014103Y010915D01*
X014006Y011011D01*
X014352Y011011D01*
X014255Y010915D01*
X014179Y010731D01*
X014179Y010532D01*
X014255Y010348D01*
X014396Y010208D01*
X014580Y010131D01*
X014779Y010131D01*
X014892Y010178D01*
X015509Y009561D01*
X015509Y008561D01*
X015609Y008461D01*
X016109Y007961D01*
X021250Y007961D01*
X021349Y008061D01*
X021412Y008124D02*
X022179Y008124D01*
X022179Y008222D02*
X021977Y008222D01*
X022076Y008321D02*
X022179Y008321D01*
X022179Y008419D02*
X022133Y008419D01*
X022174Y008518D02*
X022179Y008518D01*
X022179Y008616D02*
X022179Y008616D01*
X022179Y008715D02*
X022179Y008715D01*
X022179Y008813D02*
X022145Y008813D01*
X022179Y008912D02*
X022104Y008912D01*
X022179Y009010D02*
X022007Y009010D01*
X022179Y009109D02*
X021833Y009109D01*
X021779Y009131D02*
X021580Y009131D01*
X021396Y009055D01*
X021255Y008915D01*
X021179Y008731D01*
X021103Y008915D01*
X020963Y009055D01*
X020779Y009131D01*
X020963Y009208D01*
X021103Y009348D01*
X021179Y009532D01*
X021179Y009731D01*
X021179Y009532D01*
X021255Y009348D01*
X021396Y009208D01*
X021580Y009131D01*
X021779Y009131D01*
X021962Y009208D02*
X022179Y009208D01*
X022179Y009306D02*
X022061Y009306D01*
X022127Y009405D02*
X022179Y009405D01*
X022167Y009503D02*
X022179Y009503D01*
X022179Y009602D02*
X022179Y009602D01*
X022179Y009700D02*
X022179Y009700D01*
X022179Y009799D02*
X022151Y009799D01*
X022179Y009897D02*
X022111Y009897D01*
X022113Y009996D02*
X022022Y009996D01*
X022015Y010094D02*
X021869Y010094D01*
X021941Y010193D02*
X015359Y010193D01*
X015260Y010291D02*
X021900Y010291D01*
X021860Y010390D02*
X017478Y010390D01*
X017576Y010488D02*
X021829Y010488D01*
X021829Y010587D02*
X017972Y010587D01*
X018059Y010685D02*
X018188Y010685D01*
X018670Y010685D02*
X021829Y010685D01*
X021829Y010784D02*
X018759Y010784D01*
X018799Y010882D02*
X019589Y010882D01*
X019456Y010981D02*
X018809Y010981D01*
X018800Y011079D02*
X018957Y011079D01*
X018886Y011178D02*
X018759Y011178D01*
X018672Y011276D02*
X018864Y011276D01*
X018562Y011375D02*
X018449Y011375D01*
X017559Y011327D02*
X017559Y011222D01*
X017514Y011204D01*
X017407Y011097D01*
X017349Y010957D01*
X017349Y010806D01*
X017368Y010761D01*
X017259Y010651D01*
X016737Y010651D01*
X016802Y010716D01*
X016859Y010856D01*
X016859Y011007D01*
X016802Y011147D01*
X016747Y011201D01*
X016855Y011201D01*
X016995Y011259D01*
X017102Y011366D01*
X017159Y011506D01*
X017159Y011657D01*
X017102Y011797D01*
X016995Y011904D01*
X016949Y011922D01*
X016949Y012211D01*
X017290Y012552D01*
X017377Y012516D01*
X017482Y012516D01*
X017559Y012549D01*
X017559Y011736D01*
X017505Y011682D01*
X017464Y011584D01*
X017464Y011479D01*
X017505Y011381D01*
X017559Y011327D01*
X017559Y011276D02*
X017011Y011276D01*
X017105Y011375D02*
X017512Y011375D01*
X017467Y011473D02*
X017146Y011473D01*
X017159Y011572D02*
X017464Y011572D01*
X017500Y011670D02*
X017154Y011670D01*
X017113Y011769D02*
X017559Y011769D01*
X017559Y011867D02*
X017031Y011867D01*
X016949Y011966D02*
X017559Y011966D01*
X017559Y012064D02*
X016949Y012064D01*
X016949Y012163D02*
X017559Y012163D01*
X017559Y012261D02*
X016999Y012261D01*
X017098Y012360D02*
X017559Y012360D01*
X017559Y012458D02*
X017196Y012458D01*
X016456Y013049D02*
X012193Y013049D01*
X012198Y013081D02*
X011729Y013081D01*
X011729Y012613D01*
X011801Y012624D01*
X011879Y012650D01*
X011952Y012687D01*
X012018Y012735D01*
X012076Y012793D01*
X012124Y012859D01*
X012161Y012932D01*
X012187Y013010D01*
X012198Y013081D01*
X012198Y013181D02*
X012187Y013253D01*
X012161Y013331D01*
X012124Y013404D01*
X012076Y013470D01*
X012018Y013528D01*
X011952Y013576D01*
X011879Y013613D01*
X011823Y013631D01*
X011879Y013650D01*
X011952Y013687D01*
X012018Y013735D01*
X012076Y013793D01*
X012124Y013859D01*
X012161Y013932D01*
X012187Y014010D01*
X012198Y014081D01*
X011729Y014081D01*
X011729Y013613D01*
X011729Y013182D01*
X011629Y013182D01*
X011629Y014081D01*
X011729Y014081D01*
X011729Y014181D01*
X012198Y014181D01*
X012187Y014253D01*
X012161Y014331D01*
X012124Y014404D01*
X012076Y014470D01*
X012018Y014528D01*
X011952Y014576D01*
X011879Y014613D01*
X011823Y014631D01*
X011879Y014650D01*
X011952Y014687D01*
X012018Y014735D01*
X012076Y014793D01*
X012124Y014859D01*
X012161Y014932D01*
X012187Y015010D01*
X012198Y015081D01*
X011729Y015081D01*
X011729Y014613D01*
X011729Y014182D01*
X011629Y014182D01*
X011629Y015081D01*
X011729Y015081D01*
X011729Y015181D01*
X012198Y015181D01*
X012187Y015253D01*
X012161Y015331D01*
X012124Y015404D01*
X012076Y015470D01*
X012018Y015528D01*
X011952Y015576D01*
X011879Y015613D01*
X011801Y015639D01*
X011729Y015650D01*
X011729Y015182D01*
X011629Y015182D01*
X011629Y015650D01*
X011558Y015639D01*
X011480Y015613D01*
X011407Y015576D01*
X011341Y015528D01*
X011283Y015470D01*
X011235Y015404D01*
X011197Y015331D01*
X011172Y015253D01*
X011172Y015250D01*
X011103Y015415D01*
X010963Y015555D01*
X010779Y015631D01*
X010580Y015631D01*
X010396Y015555D01*
X010349Y015509D01*
X010349Y016561D01*
X012400Y018611D01*
X012975Y018611D01*
X013029Y018557D01*
X013127Y018516D01*
X013232Y018516D01*
X013329Y018557D01*
X013384Y018611D01*
X013700Y018611D01*
X014530Y019441D01*
X014607Y019441D01*
X014704Y019482D01*
X014779Y019556D01*
X014819Y019654D01*
X014819Y019731D01*
X015550Y020461D01*
X016775Y020461D01*
X016829Y020407D01*
X016927Y020366D01*
X017032Y020366D01*
X017129Y020407D01*
X017184Y020461D01*
X018975Y020461D01*
X019029Y020407D01*
X019127Y020366D01*
X019232Y020366D01*
X019329Y020407D01*
X019404Y020481D01*
X019444Y020579D01*
X019444Y020684D01*
X019404Y020782D01*
X019329Y020856D01*
X019232Y020896D01*
X019127Y020896D01*
X019029Y020856D01*
X018975Y020801D01*
X017184Y020801D01*
X017129Y020856D01*
X017032Y020896D01*
X016927Y020896D01*
X016829Y020856D01*
X016775Y020801D01*
X015409Y020801D01*
X014579Y019971D01*
X014502Y019971D01*
X014404Y019931D01*
X014330Y019857D01*
X014289Y019759D01*
X014289Y019682D01*
X013559Y018951D01*
X013384Y018951D01*
X013329Y019006D01*
X013232Y019046D01*
X013127Y019046D01*
X013029Y019006D01*
X012975Y018951D01*
X012259Y018951D01*
X012159Y018852D01*
X010009Y016702D01*
X010009Y015509D01*
X009963Y015555D01*
X009779Y015631D01*
X009580Y015631D01*
X009396Y015555D01*
X009255Y015415D01*
X009179Y015231D01*
X009179Y015032D01*
X009255Y014848D01*
X009396Y014708D01*
X009469Y014677D01*
X009469Y014586D01*
X009396Y014555D01*
X009255Y014415D01*
X009179Y014231D01*
X009179Y014032D01*
X009255Y013848D01*
X009396Y013708D01*
X009469Y013677D01*
X009469Y013586D01*
X009396Y013555D01*
X009255Y013415D01*
X009179Y013231D01*
X009179Y013032D01*
X009255Y012848D01*
X009396Y012708D01*
X009580Y012631D01*
X009779Y012631D01*
X009914Y012688D01*
X009914Y012679D01*
X009955Y012581D01*
X010029Y012507D01*
X010127Y012466D01*
X010232Y012466D01*
X010329Y012507D01*
X010404Y012581D01*
X010444Y012679D01*
X010444Y012688D01*
X010580Y012631D01*
X010779Y012631D01*
X010963Y012708D01*
X011103Y012848D01*
X011172Y013013D01*
X011172Y013010D01*
X011197Y012932D01*
X011235Y012859D01*
X011283Y012793D01*
X011341Y012735D01*
X011407Y012687D01*
X011480Y012650D01*
X011558Y012624D01*
X011629Y012613D01*
X011629Y013081D01*
X011729Y013081D01*
X011729Y013181D01*
X012198Y013181D01*
X012188Y013246D02*
X014377Y013246D01*
X014357Y013266D02*
X014464Y013159D01*
X014604Y013101D01*
X014755Y013101D01*
X014895Y013159D01*
X015002Y013266D01*
X015059Y013406D01*
X015059Y013411D01*
X015125Y013411D01*
X015179Y013357D01*
X015277Y013316D01*
X015382Y013316D01*
X015479Y013357D01*
X015554Y013431D01*
X015594Y013529D01*
X015594Y013634D01*
X015554Y013732D01*
X015479Y013806D01*
X015479Y013806D01*
X015479Y013807D01*
X015554Y013881D01*
X015594Y013979D01*
X015594Y014084D01*
X015554Y014182D01*
X015479Y014256D01*
X015479Y014256D01*
X015479Y014257D01*
X015554Y014331D01*
X015594Y014429D01*
X015594Y014534D01*
X015554Y014632D01*
X015479Y014706D01*
X015382Y014746D01*
X015305Y014746D01*
X015250Y014801D01*
X015020Y014801D01*
X015002Y014847D01*
X014895Y014954D01*
X014755Y015011D01*
X014604Y015011D01*
X014464Y014954D01*
X014357Y014847D01*
X014299Y014707D01*
X014299Y014556D01*
X014357Y014416D01*
X014362Y014411D01*
X014254Y014411D01*
X014114Y014354D01*
X014007Y014247D01*
X013949Y014107D01*
X013949Y013956D01*
X014007Y013816D01*
X014114Y013709D01*
X014254Y013651D01*
X014338Y013651D01*
X014299Y013557D01*
X014299Y013406D01*
X014357Y013266D01*
X014325Y013345D02*
X012154Y013345D01*
X012096Y013443D02*
X014299Y013443D01*
X014299Y013542D02*
X012000Y013542D01*
X011849Y013640D02*
X014334Y013640D01*
X014085Y013739D02*
X012022Y013739D01*
X012108Y013837D02*
X013999Y013837D01*
X013958Y013936D02*
X012162Y013936D01*
X012190Y014034D02*
X013949Y014034D01*
X013960Y014133D02*
X011729Y014133D01*
X011729Y014231D02*
X011629Y014231D01*
X011629Y014330D02*
X011729Y014330D01*
X011729Y014428D02*
X011629Y014428D01*
X011629Y014527D02*
X011729Y014527D01*
X011729Y014625D02*
X011629Y014625D01*
X011629Y014724D02*
X011729Y014724D01*
X011729Y014822D02*
X011629Y014822D01*
X011629Y014921D02*
X011729Y014921D01*
X011729Y015019D02*
X011629Y015019D01*
X011729Y015118D02*
X013119Y015118D01*
X013070Y015216D02*
X012192Y015216D01*
X012167Y015315D02*
X013064Y015315D01*
X013097Y015413D02*
X012118Y015413D01*
X012035Y015512D02*
X013192Y015512D01*
X013467Y015512D02*
X014064Y015512D01*
X014075Y015610D02*
X011886Y015610D01*
X011729Y015610D02*
X011629Y015610D01*
X011629Y015512D02*
X011729Y015512D01*
X011729Y015413D02*
X011629Y015413D01*
X011629Y015315D02*
X011729Y015315D01*
X011729Y015216D02*
X011629Y015216D01*
X011473Y015610D02*
X010831Y015610D01*
X011006Y015512D02*
X011324Y015512D01*
X011241Y015413D02*
X011104Y015413D01*
X011145Y015315D02*
X011192Y015315D01*
X010829Y015857D02*
X010844Y015871D01*
X011766Y015871D01*
X012936Y017041D01*
X012957Y017041D01*
X013054Y017082D01*
X013129Y017156D01*
X013156Y017221D01*
X014165Y017221D01*
X014179Y017207D01*
X014277Y017166D01*
X014382Y017166D01*
X014479Y017207D01*
X014494Y017221D01*
X015316Y017221D01*
X016961Y018866D01*
X016982Y018866D01*
X017079Y018907D01*
X017094Y018921D01*
X019065Y018921D01*
X019079Y018907D01*
X019177Y018866D01*
X019282Y018866D01*
X019379Y018907D01*
X019394Y018921D01*
X021115Y018921D01*
X021129Y018907D01*
X021227Y018866D01*
X021332Y018866D01*
X021429Y018907D01*
X021504Y018981D01*
X021544Y019079D01*
X021544Y019184D01*
X021504Y019282D01*
X021429Y019356D01*
X021332Y019396D01*
X021227Y019396D01*
X021129Y019356D01*
X021115Y019341D01*
X019394Y019341D01*
X019379Y019356D01*
X019282Y019396D01*
X019177Y019396D01*
X019079Y019356D01*
X019065Y019341D01*
X017094Y019341D01*
X017079Y019356D01*
X016982Y019396D01*
X016877Y019396D01*
X016779Y019356D01*
X016705Y019282D01*
X016664Y019184D01*
X016664Y019163D01*
X015142Y017641D01*
X014494Y017641D01*
X014479Y017656D01*
X014382Y017696D01*
X014277Y017696D01*
X014179Y017656D01*
X014165Y017641D01*
X012942Y017641D01*
X012872Y017571D01*
X012852Y017571D01*
X012754Y017531D01*
X012680Y017457D01*
X012639Y017359D01*
X012639Y017338D01*
X011592Y016291D01*
X010844Y016291D01*
X010829Y016306D01*
X010732Y016346D01*
X010627Y016346D01*
X010529Y016306D01*
X010455Y016232D01*
X010414Y016134D01*
X010414Y016029D01*
X010455Y015931D01*
X010529Y015857D01*
X010627Y015816D01*
X010732Y015816D01*
X010829Y015857D01*
X010481Y015906D02*
X010349Y015906D01*
X010349Y016004D02*
X010425Y016004D01*
X010414Y016103D02*
X010349Y016103D01*
X010349Y016201D02*
X010442Y016201D01*
X010523Y016300D02*
X010349Y016300D01*
X010349Y016398D02*
X011699Y016398D01*
X011797Y016497D02*
X010349Y016497D01*
X010383Y016595D02*
X011896Y016595D01*
X011994Y016694D02*
X010482Y016694D01*
X010580Y016792D02*
X012093Y016792D01*
X012191Y016891D02*
X010679Y016891D01*
X010777Y016989D02*
X012290Y016989D01*
X012388Y017088D02*
X010876Y017088D01*
X010974Y017186D02*
X012487Y017186D01*
X012585Y017285D02*
X011073Y017285D01*
X011171Y017383D02*
X012649Y017383D01*
X012705Y017482D02*
X011270Y017482D01*
X011368Y017580D02*
X012881Y017580D01*
X013141Y017186D02*
X014230Y017186D01*
X014429Y017186D02*
X016114Y017186D01*
X016114Y017179D02*
X016142Y017111D01*
X016104Y017111D01*
X015964Y017054D01*
X015857Y016947D01*
X015799Y016807D01*
X015799Y016656D01*
X015857Y016516D01*
X015964Y016409D01*
X016104Y016351D01*
X016255Y016351D01*
X016395Y016409D01*
X016502Y016516D01*
X016559Y016656D01*
X016559Y016807D01*
X016541Y016852D01*
X016549Y016861D01*
X016549Y017027D01*
X016604Y017081D01*
X016644Y017179D01*
X016644Y017284D01*
X016604Y017382D01*
X016529Y017456D01*
X016432Y017496D01*
X016327Y017496D01*
X016229Y017456D01*
X016155Y017382D01*
X016114Y017284D01*
X016114Y017179D01*
X016115Y017285D02*
X015379Y017285D01*
X015478Y017383D02*
X016156Y017383D01*
X016291Y017482D02*
X015576Y017482D01*
X015675Y017580D02*
X019790Y017580D01*
X019692Y017679D02*
X019351Y017679D01*
X019008Y017679D02*
X015773Y017679D01*
X015872Y017777D02*
X018936Y017777D01*
X018914Y017876D02*
X015970Y017876D01*
X016069Y017974D02*
X018931Y017974D01*
X018996Y018073D02*
X016167Y018073D01*
X016266Y018171D02*
X022179Y018171D01*
X022179Y018073D02*
X019363Y018073D01*
X019877Y017974D02*
X020097Y017974D01*
X020031Y017876D02*
X019976Y017876D01*
X020462Y017974D02*
X022179Y017974D01*
X022179Y017876D02*
X020527Y017876D01*
X020544Y017777D02*
X022179Y017777D01*
X022179Y017679D02*
X020549Y017679D01*
X020549Y017580D02*
X020887Y017580D01*
X020755Y017482D02*
X020549Y017482D01*
X020549Y017383D02*
X020714Y017383D01*
X020714Y017285D02*
X020549Y017285D01*
X020549Y017186D02*
X020753Y017186D01*
X020876Y017088D02*
X020549Y017088D01*
X020549Y016989D02*
X021009Y016989D01*
X021009Y016891D02*
X020549Y016891D01*
X020549Y016792D02*
X021009Y016792D01*
X021009Y016694D02*
X020549Y016694D01*
X020549Y016595D02*
X021009Y016595D01*
X021009Y016497D02*
X020549Y016497D01*
X020549Y016398D02*
X021009Y016398D01*
X021009Y016300D02*
X020936Y016300D01*
X020987Y016201D02*
X021009Y016201D01*
X021349Y016201D02*
X022179Y016201D01*
X022179Y016103D02*
X021396Y016103D01*
X021494Y016004D02*
X022179Y016004D01*
X022179Y015906D02*
X021539Y015906D01*
X021559Y015807D02*
X022179Y015807D01*
X022179Y015709D02*
X021559Y015709D01*
X021520Y015610D02*
X022179Y015610D01*
X022179Y015512D02*
X021447Y015512D01*
X021283Y015413D02*
X022179Y015413D01*
X022179Y015315D02*
X020849Y015315D01*
X020849Y015413D02*
X021076Y015413D01*
X020912Y015512D02*
X020849Y015512D01*
X020849Y015216D02*
X022179Y015216D01*
X022179Y015118D02*
X020849Y015118D01*
X020849Y015019D02*
X022179Y015019D01*
X022179Y014921D02*
X020849Y014921D01*
X020849Y014822D02*
X022179Y014822D01*
X022179Y014724D02*
X020849Y014724D01*
X020849Y014625D02*
X022179Y014625D01*
X022179Y014527D02*
X020849Y014527D01*
X020849Y014428D02*
X022179Y014428D01*
X022179Y014330D02*
X020849Y014330D01*
X020849Y014231D02*
X022179Y014231D01*
X022179Y014133D02*
X020849Y014133D01*
X020849Y014034D02*
X022179Y014034D01*
X022179Y013936D02*
X020849Y013936D01*
X020849Y013837D02*
X022179Y013837D01*
X022179Y013739D02*
X020849Y013739D01*
X020849Y013640D02*
X022179Y013640D01*
X022179Y013542D02*
X020830Y013542D01*
X021005Y013443D02*
X022179Y013443D01*
X022179Y013345D02*
X021541Y013345D01*
X021619Y013246D02*
X022179Y013246D01*
X022179Y013148D02*
X021644Y013148D01*
X021632Y013049D02*
X022179Y013049D01*
X022179Y012951D02*
X021573Y012951D01*
X021349Y012852D02*
X022179Y012852D01*
X022179Y012754D02*
X021349Y012754D01*
X021349Y012655D02*
X022179Y012655D01*
X022179Y012557D02*
X021349Y012557D01*
X021349Y012458D02*
X022179Y012458D01*
X022179Y012360D02*
X021439Y012360D01*
X021516Y012261D02*
X022179Y012261D01*
X022179Y012163D02*
X021557Y012163D01*
X021559Y012064D02*
X022179Y012064D01*
X022179Y011966D02*
X021543Y011966D01*
X021502Y011867D02*
X022179Y011867D01*
X022179Y011769D02*
X021404Y011769D01*
X020955Y011769D02*
X020509Y011769D01*
X020544Y011670D02*
X022179Y011670D01*
X022179Y011572D02*
X020541Y011572D01*
X020496Y011473D02*
X022179Y011473D01*
X022179Y011375D02*
X020351Y011375D01*
X020207Y011375D02*
X019849Y011375D01*
X019849Y011473D02*
X020063Y011473D01*
X020017Y011572D02*
X019849Y011572D01*
X019849Y011670D02*
X020014Y011670D01*
X020049Y011769D02*
X019849Y011769D01*
X019849Y011867D02*
X020109Y011867D01*
X020109Y011966D02*
X019904Y011966D01*
X020002Y012064D02*
X020109Y012064D01*
X020101Y012163D02*
X020109Y012163D01*
X020449Y012163D02*
X020802Y012163D01*
X020799Y012064D02*
X020449Y012064D01*
X020449Y011966D02*
X020816Y011966D01*
X020857Y011867D02*
X020449Y011867D01*
X020449Y012261D02*
X020800Y012611D01*
X020899Y012711D01*
X020899Y012770D01*
X020995Y012809D01*
X021009Y012824D01*
X021009Y012422D01*
X020964Y012404D01*
X020857Y012297D01*
X020920Y012360D02*
X020548Y012360D01*
X020646Y012458D02*
X021009Y012458D01*
X021009Y012557D02*
X020745Y012557D01*
X020843Y012655D02*
X021009Y012655D01*
X021009Y012754D02*
X020899Y012754D01*
X021102Y013345D02*
X021218Y013345D01*
X020038Y014231D02*
X018969Y014231D01*
X018871Y014133D02*
X019940Y014133D01*
X020059Y014330D02*
X019068Y014330D01*
X019166Y014428D02*
X020059Y014428D01*
X020059Y014527D02*
X019265Y014527D01*
X019363Y014625D02*
X020059Y014625D01*
X020059Y014724D02*
X019608Y014724D01*
X019757Y014822D02*
X020059Y014822D01*
X020059Y014921D02*
X019824Y014921D01*
X019859Y015019D02*
X020059Y015019D01*
X020059Y015118D02*
X019859Y015118D01*
X019835Y015216D02*
X020059Y015216D01*
X020059Y015315D02*
X019784Y015315D01*
X019672Y015413D02*
X020059Y015413D01*
X020059Y015512D02*
X019649Y015512D01*
X019649Y015610D02*
X020059Y015610D01*
X020059Y015709D02*
X019649Y015709D01*
X019649Y015807D02*
X020059Y015807D01*
X020059Y015906D02*
X019649Y015906D01*
X019713Y016004D02*
X020059Y016004D01*
X020059Y016103D02*
X019744Y016103D01*
X019737Y016201D02*
X020059Y016201D01*
X020059Y016300D02*
X019686Y016300D01*
X020059Y016398D02*
X018349Y016398D01*
X018349Y016300D02*
X018523Y016300D01*
X018471Y016201D02*
X018349Y016201D01*
X018349Y016497D02*
X020059Y016497D01*
X020059Y016595D02*
X018349Y016595D01*
X018349Y016694D02*
X020059Y016694D01*
X020059Y016792D02*
X018349Y016792D01*
X018349Y016891D02*
X020059Y016891D01*
X020059Y016989D02*
X018349Y016989D01*
X018360Y017088D02*
X020059Y017088D01*
X020059Y017186D02*
X018427Y017186D01*
X018444Y017285D02*
X020059Y017285D01*
X019987Y017383D02*
X018424Y017383D01*
X018354Y017482D02*
X019889Y017482D01*
X021072Y017580D02*
X022179Y017580D01*
X022179Y017482D02*
X021204Y017482D01*
X021244Y017383D02*
X022179Y017383D01*
X022179Y017285D02*
X021267Y017285D01*
X021349Y017186D02*
X022179Y017186D01*
X022179Y017088D02*
X021349Y017088D01*
X021349Y016989D02*
X022179Y016989D01*
X022179Y016891D02*
X021349Y016891D01*
X021349Y016792D02*
X022179Y016792D01*
X022179Y016694D02*
X021349Y016694D01*
X021349Y016595D02*
X022179Y016595D01*
X022179Y016497D02*
X021349Y016497D01*
X021349Y016398D02*
X022179Y016398D01*
X022179Y016300D02*
X021349Y016300D01*
X019273Y016300D02*
X018936Y016300D01*
X018987Y016201D02*
X019221Y016201D01*
X018009Y016201D02*
X012096Y016201D01*
X012194Y016300D02*
X016988Y016300D01*
X016875Y016398D02*
X016367Y016398D01*
X016482Y016497D02*
X016824Y016497D01*
X016799Y016595D02*
X016534Y016595D01*
X016559Y016694D02*
X016799Y016694D01*
X016835Y016792D02*
X016559Y016792D01*
X016549Y016891D02*
X016901Y016891D01*
X017050Y016989D02*
X016549Y016989D01*
X016607Y017088D02*
X017395Y017088D01*
X017475Y017186D02*
X016644Y017186D01*
X016644Y017285D02*
X017453Y017285D01*
X017468Y017383D02*
X016603Y017383D01*
X016468Y017482D02*
X017531Y017482D01*
X017904Y017482D02*
X018005Y017482D01*
X017999Y017088D02*
X017887Y017088D01*
X017777Y016989D02*
X018009Y016989D01*
X018009Y016891D02*
X017679Y016891D01*
X017580Y016792D02*
X018009Y016792D01*
X018009Y016694D02*
X017559Y016694D01*
X017559Y016595D02*
X018009Y016595D01*
X018009Y016497D02*
X017535Y016497D01*
X017483Y016398D02*
X018009Y016398D01*
X018009Y016300D02*
X017371Y016300D01*
X018009Y016103D02*
X011997Y016103D01*
X011899Y016004D02*
X018009Y016004D01*
X017969Y015906D02*
X011800Y015906D01*
X011600Y016300D02*
X010836Y016300D01*
X010349Y015807D02*
X017949Y015807D01*
X017949Y015709D02*
X014527Y015709D01*
X014132Y015709D02*
X010349Y015709D01*
X010349Y015610D02*
X010528Y015610D01*
X010352Y015512D02*
X010349Y015512D01*
X010009Y015512D02*
X010006Y015512D01*
X010009Y015610D02*
X009831Y015610D01*
X010009Y015709D02*
X008843Y015709D01*
X008849Y015610D02*
X009528Y015610D01*
X009352Y015512D02*
X008849Y015512D01*
X008849Y015413D02*
X009255Y015413D01*
X009214Y015315D02*
X008849Y015315D01*
X008849Y015216D02*
X009179Y015216D01*
X009179Y015118D02*
X008849Y015118D01*
X008849Y015019D02*
X009185Y015019D01*
X009226Y014921D02*
X008849Y014921D01*
X008849Y014822D02*
X009282Y014822D01*
X009380Y014724D02*
X008849Y014724D01*
X008849Y014625D02*
X009469Y014625D01*
X009367Y014527D02*
X008849Y014527D01*
X008849Y014428D02*
X009269Y014428D01*
X009220Y014330D02*
X008849Y014330D01*
X008849Y014231D02*
X009179Y014231D01*
X009179Y014133D02*
X008849Y014133D01*
X008849Y014034D02*
X009179Y014034D01*
X009219Y013936D02*
X008849Y013936D01*
X008849Y013837D02*
X009267Y013837D01*
X009365Y013739D02*
X008849Y013739D01*
X008849Y013640D02*
X009469Y013640D01*
X009382Y013542D02*
X008849Y013542D01*
X008849Y013443D02*
X009284Y013443D01*
X009226Y013345D02*
X008849Y013345D01*
X008849Y013246D02*
X009186Y013246D01*
X009179Y013148D02*
X008849Y013148D01*
X008849Y013049D02*
X009179Y013049D01*
X009213Y012951D02*
X008849Y012951D01*
X008899Y012852D02*
X009254Y012852D01*
X009350Y012754D02*
X008998Y012754D01*
X009096Y012655D02*
X009523Y012655D01*
X009293Y012458D02*
X015865Y012458D01*
X015767Y012360D02*
X009392Y012360D01*
X009490Y012261D02*
X012468Y012261D01*
X012370Y012163D02*
X009589Y012163D01*
X009687Y012064D02*
X012048Y012064D01*
X012311Y012064D02*
X012359Y012064D01*
X011890Y012655D02*
X016062Y012655D01*
X015964Y012557D02*
X010379Y012557D01*
X010435Y012655D02*
X010523Y012655D01*
X010836Y012655D02*
X011469Y012655D01*
X011629Y012655D02*
X011729Y012655D01*
X011729Y012754D02*
X011629Y012754D01*
X011629Y012852D02*
X011729Y012852D01*
X011729Y012951D02*
X011629Y012951D01*
X011629Y013049D02*
X011729Y013049D01*
X011729Y013148D02*
X014493Y013148D01*
X014866Y013148D02*
X016555Y013148D01*
X016653Y013246D02*
X014981Y013246D01*
X015034Y013345D02*
X015209Y013345D01*
X015450Y013345D02*
X016752Y013345D01*
X016850Y013443D02*
X015559Y013443D01*
X015594Y013542D02*
X016949Y013542D01*
X017047Y013640D02*
X015592Y013640D01*
X015547Y013739D02*
X017146Y013739D01*
X017209Y013837D02*
X015510Y013837D01*
X015576Y013936D02*
X017209Y013936D01*
X017139Y014034D02*
X015594Y014034D01*
X015574Y014133D02*
X015841Y014133D01*
X015751Y014231D02*
X015505Y014231D01*
X015552Y014330D02*
X015710Y014330D01*
X015699Y014428D02*
X015594Y014428D01*
X015594Y014527D02*
X015707Y014527D01*
X015748Y014625D02*
X015557Y014625D01*
X015438Y014724D02*
X015834Y014724D01*
X015838Y014822D02*
X015012Y014822D01*
X014928Y014921D02*
X015814Y014921D01*
X015829Y015019D02*
X013388Y015019D01*
X013271Y015019D02*
X012188Y015019D01*
X012155Y014921D02*
X014431Y014921D01*
X014347Y014822D02*
X012097Y014822D01*
X012003Y014724D02*
X014306Y014724D01*
X014299Y014625D02*
X011843Y014625D01*
X012020Y014527D02*
X014312Y014527D01*
X014352Y014428D02*
X012107Y014428D01*
X012162Y014330D02*
X014090Y014330D01*
X014001Y014231D02*
X012190Y014231D01*
X011729Y014034D02*
X011629Y014034D01*
X011629Y013936D02*
X011729Y013936D01*
X011729Y013837D02*
X011629Y013837D01*
X011629Y013739D02*
X011729Y013739D01*
X011729Y013640D02*
X011629Y013640D01*
X011629Y013542D02*
X011729Y013542D01*
X011729Y013443D02*
X011629Y013443D01*
X011629Y013345D02*
X011729Y013345D01*
X011729Y013246D02*
X011629Y013246D01*
X011191Y012951D02*
X011146Y012951D01*
X011105Y012852D02*
X011240Y012852D01*
X011322Y012754D02*
X011008Y012754D01*
X012037Y012754D02*
X016161Y012754D01*
X016259Y012852D02*
X012119Y012852D01*
X012167Y012951D02*
X016358Y012951D01*
X016318Y014133D02*
X017050Y014133D01*
X017010Y014231D02*
X016408Y014231D01*
X016448Y014330D02*
X016999Y014330D01*
X017008Y014428D02*
X016459Y014428D01*
X016451Y014527D02*
X017049Y014527D01*
X017135Y014625D02*
X016411Y014625D01*
X016325Y014724D02*
X017137Y014724D01*
X017114Y014822D02*
X016321Y014822D01*
X016344Y014921D02*
X017129Y014921D01*
X017192Y015019D02*
X016330Y015019D01*
X017567Y015019D02*
X017710Y015019D01*
X017948Y015019D02*
X018639Y015019D01*
X018628Y014921D02*
X018716Y014921D01*
X018712Y014822D02*
X019079Y014822D01*
X019043Y014921D02*
X019135Y014921D01*
X018981Y014724D02*
X018753Y014724D01*
X018759Y014625D02*
X018882Y014625D01*
X018784Y014527D02*
X018747Y014527D01*
X018131Y014921D02*
X018059Y014921D01*
X015991Y016398D02*
X012293Y016398D01*
X012391Y016497D02*
X015877Y016497D01*
X015825Y016595D02*
X012490Y016595D01*
X012588Y016694D02*
X015799Y016694D01*
X015799Y016792D02*
X012687Y016792D01*
X012785Y016891D02*
X015834Y016891D01*
X015899Y016989D02*
X012884Y016989D01*
X013060Y017088D02*
X016046Y017088D01*
X015278Y017777D02*
X011565Y017777D01*
X011467Y017679D02*
X014233Y017679D01*
X014425Y017679D02*
X015179Y017679D01*
X015376Y017876D02*
X011664Y017876D01*
X011762Y017974D02*
X015475Y017974D01*
X015573Y018073D02*
X011861Y018073D01*
X011959Y018171D02*
X015672Y018171D01*
X015770Y018270D02*
X012058Y018270D01*
X012156Y018368D02*
X015869Y018368D01*
X015967Y018467D02*
X012255Y018467D01*
X012353Y018565D02*
X013021Y018565D01*
X013338Y018565D02*
X016066Y018565D01*
X016164Y018664D02*
X013752Y018664D01*
X013850Y018762D02*
X016263Y018762D01*
X016361Y018861D02*
X013949Y018861D01*
X014047Y018959D02*
X016460Y018959D01*
X016558Y019058D02*
X014146Y019058D01*
X014244Y019156D02*
X016657Y019156D01*
X016693Y019255D02*
X014343Y019255D01*
X014441Y019353D02*
X016776Y019353D01*
X017083Y019353D02*
X019076Y019353D01*
X019383Y019353D02*
X021126Y019353D01*
X021433Y019353D02*
X022179Y019353D01*
X022179Y019255D02*
X021515Y019255D01*
X021544Y019156D02*
X022179Y019156D01*
X022179Y019058D02*
X021536Y019058D01*
X021482Y018959D02*
X022179Y018959D01*
X022179Y018861D02*
X016955Y018861D01*
X016857Y018762D02*
X022179Y018762D01*
X022179Y018664D02*
X016758Y018664D01*
X016660Y018565D02*
X022179Y018565D01*
X022179Y018467D02*
X016561Y018467D01*
X016463Y018368D02*
X022179Y018368D01*
X022179Y018270D02*
X016364Y018270D01*
X014773Y019550D02*
X022179Y019550D01*
X022179Y019452D02*
X014631Y019452D01*
X014817Y019649D02*
X022179Y019649D01*
X022179Y019747D02*
X014835Y019747D01*
X014934Y019846D02*
X022179Y019846D01*
X022179Y019944D02*
X015032Y019944D01*
X015131Y020043D02*
X022179Y020043D01*
X022179Y020141D02*
X015229Y020141D01*
X015328Y020240D02*
X022179Y020240D01*
X022179Y020338D02*
X015426Y020338D01*
X015525Y020437D02*
X016800Y020437D01*
X017159Y020437D02*
X019000Y020437D01*
X019359Y020437D02*
X022179Y020437D01*
X022179Y020535D02*
X019426Y020535D01*
X019444Y020634D02*
X022179Y020634D01*
X022179Y020732D02*
X019425Y020732D01*
X019355Y020831D02*
X022179Y020831D01*
X022179Y020929D02*
X013589Y020929D01*
X013566Y021028D02*
X022179Y021028D01*
X022179Y021126D02*
X013664Y021126D01*
X013763Y021225D02*
X016379Y021225D01*
X016281Y021323D02*
X013861Y021323D01*
X013899Y021422D02*
X016182Y021422D01*
X016179Y021520D02*
X013899Y021520D01*
X013899Y021619D02*
X016179Y021619D01*
X016179Y021717D02*
X013899Y021717D01*
X013899Y021816D02*
X016179Y021816D01*
X016255Y021914D02*
X013899Y021914D01*
X013899Y022013D02*
X016353Y022013D01*
X016452Y022111D02*
X013899Y022111D01*
X013899Y022210D02*
X016394Y022210D01*
X016472Y022131D02*
X016886Y022131D01*
X016472Y022131D01*
X016296Y022308D02*
X013899Y022308D01*
X013899Y022407D02*
X016197Y022407D01*
X016179Y022505D02*
X013899Y022505D01*
X013899Y022604D02*
X016179Y022604D01*
X016179Y022702D02*
X013899Y022702D01*
X013899Y022801D02*
X016179Y022801D01*
X016240Y022899D02*
X013899Y022899D01*
X013899Y022998D02*
X016338Y022998D01*
X016437Y023096D02*
X013899Y023096D01*
X013899Y023195D02*
X016409Y023195D01*
X016472Y023131D02*
X016886Y023131D01*
X016472Y023131D01*
X016311Y023293D02*
X013899Y023293D01*
X013899Y023392D02*
X016212Y023392D01*
X016179Y023490D02*
X013899Y023490D01*
X013899Y023589D02*
X016179Y023589D01*
X016179Y023687D02*
X013899Y023687D01*
X013899Y023786D02*
X016179Y023786D01*
X016225Y023884D02*
X013899Y023884D01*
X013899Y023983D02*
X016238Y023983D01*
X016139Y024081D02*
X013899Y024081D01*
X013899Y024180D02*
X016041Y024180D01*
X015942Y024278D02*
X013899Y024278D01*
X013899Y024377D02*
X015909Y024377D01*
X015909Y024475D02*
X013963Y024475D01*
X014062Y024574D02*
X015909Y024574D01*
X015909Y024672D02*
X014245Y024672D01*
X014393Y024771D02*
X015900Y024771D01*
X015801Y024869D02*
X014440Y024869D01*
X014444Y024968D02*
X015703Y024968D01*
X015604Y025066D02*
X014410Y025066D01*
X016040Y025811D02*
X017950Y025811D01*
X018049Y025911D01*
X018250Y026111D01*
X018349Y026211D01*
X018349Y026254D01*
X018396Y026208D01*
X018580Y026131D01*
X018779Y026131D01*
X018963Y026208D01*
X019103Y026348D01*
X019179Y026532D01*
X019179Y026731D01*
X019103Y026915D01*
X018963Y027055D01*
X018779Y027131D01*
X018963Y027208D01*
X019103Y027348D01*
X019179Y027532D01*
X019179Y027731D01*
X019179Y027532D01*
X019255Y027348D01*
X019396Y027208D01*
X019580Y027131D01*
X019396Y027055D01*
X019255Y026915D01*
X019179Y026731D01*
X019179Y026532D01*
X019255Y026348D01*
X019396Y026208D01*
X019580Y026131D01*
X019779Y026131D01*
X019963Y026208D01*
X020103Y026348D01*
X020179Y026532D01*
X020179Y026731D01*
X020103Y026915D01*
X019963Y027055D01*
X019779Y027131D01*
X019963Y027208D01*
X020103Y027348D01*
X020179Y027532D01*
X020179Y027731D01*
X020179Y027532D01*
X020255Y027348D01*
X020396Y027208D01*
X020580Y027131D01*
X020396Y027055D01*
X020255Y026915D01*
X020179Y026731D01*
X020179Y026532D01*
X020255Y026348D01*
X020396Y026208D01*
X020580Y026131D01*
X020689Y026131D01*
X020509Y025952D01*
X020509Y025009D01*
X020386Y025131D01*
X019972Y025131D01*
X019679Y024839D01*
X019679Y024424D01*
X019706Y024398D01*
X019609Y024301D01*
X018056Y024301D01*
X018179Y024424D01*
X018179Y024839D01*
X017956Y025061D01*
X019222Y025061D01*
X019255Y024981D01*
X019329Y024907D01*
X019427Y024866D01*
X019532Y024866D01*
X019629Y024907D01*
X019704Y024981D01*
X019744Y025079D01*
X019744Y025184D01*
X019704Y025282D01*
X019629Y025356D01*
X019532Y025396D01*
X019455Y025396D01*
X019450Y025401D01*
X016450Y025401D01*
X016099Y025752D01*
X016040Y025811D01*
X016096Y025756D02*
X020509Y025756D01*
X020509Y025854D02*
X017992Y025854D01*
X018049Y025911D02*
X018049Y025911D01*
X018091Y025953D02*
X020510Y025953D01*
X020609Y026051D02*
X018189Y026051D01*
X018250Y026111D02*
X018250Y026111D01*
X018288Y026150D02*
X018536Y026150D01*
X018356Y026248D02*
X018349Y026248D01*
X018822Y026150D02*
X019536Y026150D01*
X019356Y026248D02*
X019003Y026248D01*
X019102Y026347D02*
X019257Y026347D01*
X019215Y026445D02*
X019143Y026445D01*
X019179Y026544D02*
X019179Y026544D01*
X019179Y026642D02*
X019179Y026642D01*
X019175Y026741D02*
X019183Y026741D01*
X019224Y026839D02*
X019135Y026839D01*
X019080Y026938D02*
X019278Y026938D01*
X019377Y027036D02*
X018982Y027036D01*
X018988Y027233D02*
X019371Y027233D01*
X019272Y027332D02*
X019087Y027332D01*
X019137Y027430D02*
X019222Y027430D01*
X019181Y027529D02*
X019178Y027529D01*
X019179Y027627D02*
X019179Y027627D01*
X019179Y027726D02*
X019179Y027726D01*
X019141Y027824D02*
X019218Y027824D01*
X019263Y027923D02*
X019095Y027923D01*
X018997Y028021D02*
X019362Y028021D01*
X019551Y028120D02*
X018808Y028120D01*
X018551Y028120D02*
X017808Y028120D01*
X017997Y028021D02*
X018362Y028021D01*
X018263Y027923D02*
X018095Y027923D01*
X018141Y027824D02*
X018218Y027824D01*
X018179Y027731D02*
X018179Y027532D01*
X018103Y027348D01*
X017963Y027208D01*
X017779Y027131D01*
X017580Y027131D01*
X017396Y027055D01*
X017349Y027009D01*
X017349Y027254D01*
X017396Y027208D01*
X017580Y027131D01*
X017779Y027131D01*
X017963Y027055D01*
X018009Y027009D01*
X018009Y027202D01*
X018226Y027419D01*
X018179Y027532D01*
X018179Y027731D01*
X018179Y027726D02*
X018179Y027726D01*
X018179Y027627D02*
X018179Y027627D01*
X018178Y027529D02*
X018181Y027529D01*
X018222Y027430D02*
X018137Y027430D01*
X018139Y027332D02*
X018087Y027332D01*
X018041Y027233D02*
X017988Y027233D01*
X018009Y027135D02*
X017786Y027135D01*
X017573Y027135D02*
X017349Y027135D01*
X017349Y027233D02*
X017371Y027233D01*
X017377Y027036D02*
X017349Y027036D01*
X017982Y027036D02*
X018009Y027036D01*
X018349Y027036D02*
X018377Y027036D01*
X018396Y027055D02*
X018349Y027009D01*
X018349Y027061D01*
X018467Y027178D01*
X018580Y027131D01*
X018396Y027055D01*
X018423Y027135D02*
X018573Y027135D01*
X018580Y027131D02*
X018779Y027131D01*
X018580Y027131D01*
X018786Y027135D02*
X019573Y027135D01*
X019580Y027131D02*
X019779Y027131D01*
X019580Y027131D01*
X019786Y027135D02*
X020573Y027135D01*
X020580Y027131D02*
X020779Y027131D01*
X020963Y027208D01*
X021103Y027348D01*
X021179Y027532D01*
X021179Y027731D01*
X021179Y027532D01*
X021226Y027419D01*
X021009Y027202D01*
X021009Y027009D01*
X020963Y027055D01*
X020779Y027131D01*
X020580Y027131D01*
X020786Y027135D02*
X021009Y027135D01*
X021009Y027036D02*
X020982Y027036D01*
X020988Y027233D02*
X021041Y027233D01*
X021087Y027332D02*
X021139Y027332D01*
X021137Y027430D02*
X021222Y027430D01*
X021181Y027529D02*
X021178Y027529D01*
X021179Y027627D02*
X021179Y027627D01*
X021179Y027726D02*
X021179Y027726D01*
X021141Y027824D02*
X021218Y027824D01*
X021263Y027923D02*
X021095Y027923D01*
X020997Y028021D02*
X021362Y028021D01*
X021551Y028120D02*
X020808Y028120D01*
X020551Y028120D02*
X019808Y028120D01*
X019997Y028021D02*
X020362Y028021D01*
X020263Y027923D02*
X020095Y027923D01*
X020141Y027824D02*
X020218Y027824D01*
X020179Y027726D02*
X020179Y027726D01*
X020179Y027627D02*
X020179Y027627D01*
X020178Y027529D02*
X020181Y027529D01*
X020222Y027430D02*
X020137Y027430D01*
X020087Y027332D02*
X020272Y027332D01*
X020371Y027233D02*
X019988Y027233D01*
X019982Y027036D02*
X020377Y027036D01*
X020278Y026938D02*
X020080Y026938D01*
X020135Y026839D02*
X020224Y026839D01*
X020183Y026741D02*
X020175Y026741D01*
X020179Y026642D02*
X020179Y026642D01*
X020179Y026544D02*
X020179Y026544D01*
X020143Y026445D02*
X020215Y026445D01*
X020257Y026347D02*
X020102Y026347D01*
X020003Y026248D02*
X020356Y026248D01*
X020536Y026150D02*
X019822Y026150D01*
X020509Y025657D02*
X016194Y025657D01*
X016293Y025559D02*
X020509Y025559D01*
X020509Y025460D02*
X016391Y025460D01*
X018050Y024968D02*
X019269Y024968D01*
X019421Y024869D02*
X018149Y024869D01*
X018179Y024771D02*
X019679Y024771D01*
X019679Y024672D02*
X018179Y024672D01*
X018179Y024574D02*
X019679Y024574D01*
X019679Y024475D02*
X018179Y024475D01*
X018132Y024377D02*
X019684Y024377D01*
X019710Y024869D02*
X019538Y024869D01*
X019690Y024968D02*
X019808Y024968D01*
X019739Y025066D02*
X019907Y025066D01*
X019744Y025165D02*
X020509Y025165D01*
X020509Y025263D02*
X019712Y025263D01*
X019616Y025362D02*
X020509Y025362D01*
X020509Y025066D02*
X020452Y025066D01*
X020849Y024254D02*
X020972Y024131D01*
X020679Y023839D01*
X020556Y023961D01*
X020650Y023961D01*
X020750Y024061D01*
X020849Y024161D01*
X020849Y024254D01*
X020849Y024180D02*
X020924Y024180D01*
X020972Y024131D02*
X021386Y024131D01*
X021609Y023909D01*
X021609Y024354D01*
X021386Y024131D01*
X020972Y024131D01*
X020922Y024081D02*
X020769Y024081D01*
X020823Y023983D02*
X020671Y023983D01*
X020634Y023884D02*
X020725Y023884D01*
X020679Y023839D02*
X020679Y023424D01*
X020679Y023839D01*
X020679Y023786D02*
X020679Y023786D01*
X020679Y023687D02*
X020679Y023687D01*
X020679Y023589D02*
X020679Y023589D01*
X020679Y023490D02*
X020679Y023490D01*
X020679Y023424D02*
X020972Y023131D01*
X020679Y022839D01*
X020386Y023131D01*
X019972Y023131D01*
X020386Y023131D01*
X020679Y023424D01*
X020647Y023392D02*
X020712Y023392D01*
X020811Y023293D02*
X020548Y023293D01*
X020450Y023195D02*
X020909Y023195D01*
X020972Y023131D02*
X021386Y023131D01*
X020972Y023131D01*
X020937Y023096D02*
X020422Y023096D01*
X020520Y022998D02*
X020838Y022998D01*
X020740Y022899D02*
X020619Y022899D01*
X020679Y022839D02*
X020679Y022424D01*
X020386Y022131D01*
X019972Y022131D01*
X020386Y022131D01*
X020413Y022105D01*
X020509Y022202D01*
X020609Y022301D01*
X020802Y022301D01*
X020679Y022424D01*
X020679Y022839D01*
X020679Y022801D02*
X020679Y022801D01*
X020679Y022702D02*
X020679Y022702D01*
X020679Y022604D02*
X020679Y022604D01*
X020679Y022505D02*
X020679Y022505D01*
X020662Y022407D02*
X020697Y022407D01*
X020796Y022308D02*
X020563Y022308D01*
X020517Y022210D02*
X020465Y022210D01*
X020418Y022111D02*
X020407Y022111D01*
X020702Y021914D02*
X020755Y021914D01*
X020679Y021816D02*
X020679Y021816D01*
X020679Y021717D02*
X020679Y021717D01*
X020679Y021619D02*
X020679Y021619D01*
X020679Y021520D02*
X020679Y021520D01*
X020677Y021422D02*
X020682Y021422D01*
X020781Y021323D02*
X020578Y021323D01*
X020480Y021225D02*
X020879Y021225D01*
X021480Y021225D02*
X022179Y021225D01*
X022179Y021323D02*
X021578Y021323D01*
X021677Y021422D02*
X022179Y021422D01*
X022179Y021520D02*
X021679Y021520D01*
X021679Y021619D02*
X022179Y021619D01*
X022179Y021717D02*
X021679Y021717D01*
X021679Y021816D02*
X022179Y021816D01*
X022179Y021914D02*
X021604Y021914D01*
X021551Y022013D02*
X022179Y022013D01*
X022179Y022111D02*
X021649Y022111D01*
X021748Y022210D02*
X022179Y022210D01*
X022179Y022308D02*
X021846Y022308D01*
X021945Y022407D02*
X022179Y022407D01*
X022179Y022505D02*
X021949Y022505D01*
X021949Y022604D02*
X022179Y022604D01*
X022179Y022702D02*
X021949Y022702D01*
X021949Y022801D02*
X022179Y022801D01*
X022179Y022899D02*
X021949Y022899D01*
X021949Y022998D02*
X022179Y022998D01*
X022179Y023096D02*
X021949Y023096D01*
X021949Y023195D02*
X022179Y023195D01*
X022179Y023293D02*
X021949Y023293D01*
X021949Y023392D02*
X022179Y023392D01*
X022179Y023490D02*
X021949Y023490D01*
X021949Y023589D02*
X022179Y023589D01*
X022179Y023687D02*
X021949Y023687D01*
X021949Y023786D02*
X022179Y023786D01*
X022179Y023884D02*
X021949Y023884D01*
X021949Y023983D02*
X022179Y023983D01*
X022179Y024081D02*
X021949Y024081D01*
X021949Y024180D02*
X022179Y024180D01*
X022179Y024278D02*
X021949Y024278D01*
X021949Y024377D02*
X022179Y024377D01*
X022179Y024475D02*
X021949Y024475D01*
X021949Y024574D02*
X022179Y024574D01*
X022179Y024672D02*
X021949Y024672D01*
X021949Y024771D02*
X022179Y024771D01*
X022179Y024869D02*
X021949Y024869D01*
X021949Y024968D02*
X022179Y024968D01*
X022179Y025066D02*
X021949Y025066D01*
X021949Y025165D02*
X022179Y025165D01*
X022179Y025263D02*
X021949Y025263D01*
X021949Y025362D02*
X022179Y025362D01*
X022179Y025460D02*
X021941Y025460D01*
X021843Y025559D02*
X022179Y025559D01*
X022179Y025657D02*
X021744Y025657D01*
X021646Y025756D02*
X022179Y025756D01*
X022179Y025854D02*
X021547Y025854D01*
X021449Y025953D02*
X022179Y025953D01*
X022179Y026051D02*
X021437Y026051D01*
X021386Y026150D02*
X021536Y026150D01*
X021356Y026248D02*
X021286Y026248D01*
X021822Y026150D02*
X022179Y026150D01*
X022179Y026248D02*
X022003Y026248D01*
X022102Y026347D02*
X022179Y026347D01*
X022179Y026445D02*
X022143Y026445D01*
X022179Y026544D02*
X022179Y026544D01*
X022179Y026642D02*
X022179Y026642D01*
X022175Y026741D02*
X022179Y026741D01*
X022179Y026839D02*
X022135Y026839D01*
X022179Y026938D02*
X022080Y026938D01*
X021982Y027036D02*
X022179Y027036D01*
X022179Y027135D02*
X021786Y027135D01*
X021779Y027131D02*
X021580Y027131D01*
X021396Y027055D01*
X021349Y027009D01*
X021349Y027061D01*
X021467Y027178D01*
X021580Y027131D01*
X021779Y027131D01*
X021573Y027135D02*
X021423Y027135D01*
X021377Y027036D02*
X021349Y027036D01*
X021988Y027233D02*
X022179Y027233D01*
X022179Y027332D02*
X022087Y027332D01*
X022137Y027430D02*
X022179Y027430D01*
X022178Y027529D02*
X022179Y027529D01*
X022179Y027627D02*
X022179Y027627D01*
X022179Y027726D02*
X022179Y027726D01*
X022179Y027824D02*
X022141Y027824D01*
X022179Y027923D02*
X022095Y027923D01*
X022179Y028021D02*
X021997Y028021D01*
X022179Y028120D02*
X021808Y028120D01*
X022179Y028218D02*
X017133Y028218D01*
X017232Y028120D02*
X017551Y028120D01*
X017362Y028021D02*
X017330Y028021D01*
X022113Y028415D02*
X003009Y028415D01*
X003196Y028317D02*
X022179Y028317D01*
X021609Y024278D02*
X021533Y024278D01*
X021609Y024180D02*
X021435Y024180D01*
X021437Y024081D02*
X021609Y024081D01*
X021609Y023983D02*
X021535Y023983D01*
X021609Y023354D02*
X021609Y022909D01*
X021386Y023131D01*
X021609Y023354D01*
X021609Y023293D02*
X021548Y023293D01*
X021609Y023195D02*
X021450Y023195D01*
X021422Y023096D02*
X021609Y023096D01*
X021609Y022998D02*
X021520Y022998D01*
X019937Y023096D02*
X019134Y023096D01*
X019036Y022998D02*
X019838Y022998D01*
X019740Y022899D02*
X018937Y022899D01*
X018839Y022801D02*
X019679Y022801D01*
X019679Y022702D02*
X018740Y022702D01*
X018642Y022604D02*
X019679Y022604D01*
X019679Y022505D02*
X018543Y022505D01*
X018445Y022407D02*
X019697Y022407D01*
X019796Y022308D02*
X018346Y022308D01*
X018248Y022210D02*
X019894Y022210D01*
X019952Y022111D02*
X018149Y022111D01*
X018051Y022013D02*
X019853Y022013D01*
X019755Y021914D02*
X018104Y021914D01*
X018179Y021816D02*
X019679Y021816D01*
X019679Y021717D02*
X018179Y021717D01*
X018179Y021619D02*
X019679Y021619D01*
X019679Y021520D02*
X018179Y021520D01*
X018177Y021422D02*
X019682Y021422D01*
X019781Y021323D02*
X018078Y021323D01*
X017980Y021225D02*
X019879Y021225D01*
X019004Y020831D02*
X017155Y020831D01*
X016804Y020831D02*
X013679Y020831D01*
X013679Y020732D02*
X015339Y020732D01*
X015241Y020634D02*
X013679Y020634D01*
X013679Y020535D02*
X015142Y020535D01*
X015044Y020437D02*
X013679Y020437D01*
X013593Y020338D02*
X014945Y020338D01*
X014847Y020240D02*
X013495Y020240D01*
X013396Y020141D02*
X014748Y020141D01*
X014650Y020043D02*
X013475Y020043D01*
X013463Y020055D02*
X013279Y020131D01*
X013080Y020131D01*
X012896Y020055D01*
X012755Y019915D01*
X012679Y019731D01*
X012679Y019532D01*
X012755Y019348D01*
X012896Y019208D01*
X013080Y019131D01*
X013279Y019131D01*
X013463Y019208D01*
X013603Y019348D01*
X013679Y019532D01*
X013679Y019731D01*
X013603Y019915D01*
X013463Y020055D01*
X013574Y019944D02*
X014435Y019944D01*
X014325Y019846D02*
X013632Y019846D01*
X013673Y019747D02*
X014289Y019747D01*
X014256Y019649D02*
X013679Y019649D01*
X013679Y019550D02*
X014157Y019550D01*
X014059Y019452D02*
X013646Y019452D01*
X013605Y019353D02*
X013960Y019353D01*
X013862Y019255D02*
X013510Y019255D01*
X013338Y019156D02*
X013763Y019156D01*
X013665Y019058D02*
X010567Y019058D01*
X010665Y018959D02*
X012982Y018959D01*
X013021Y019156D02*
X012338Y019156D01*
X012510Y019255D02*
X012849Y019255D01*
X012754Y019353D02*
X012605Y019353D01*
X012646Y019452D02*
X012713Y019452D01*
X012679Y019550D02*
X012679Y019550D01*
X012679Y019649D02*
X012679Y019649D01*
X012673Y019747D02*
X012686Y019747D01*
X012727Y019846D02*
X012632Y019846D01*
X012574Y019944D02*
X012785Y019944D01*
X012883Y020043D02*
X012475Y020043D01*
X012396Y020141D02*
X012963Y020141D01*
X012864Y020240D02*
X012495Y020240D01*
X012593Y020338D02*
X012766Y020338D01*
X012679Y020437D02*
X012679Y020437D01*
X012679Y020535D02*
X012679Y020535D01*
X012679Y020634D02*
X012679Y020634D01*
X012679Y020732D02*
X012679Y020732D01*
X012679Y020831D02*
X012679Y020831D01*
X012717Y020929D02*
X012770Y020929D01*
X012802Y021301D02*
X012609Y021301D01*
X012509Y021202D01*
X012413Y021105D01*
X012386Y021131D01*
X011972Y021131D01*
X012386Y021131D01*
X012679Y021424D01*
X012679Y021839D01*
X012653Y021865D01*
X012750Y021961D01*
X012849Y022061D01*
X012849Y022254D01*
X012972Y022131D01*
X012679Y021839D01*
X012679Y021424D01*
X012802Y021301D01*
X012781Y021323D02*
X012578Y021323D01*
X012532Y021225D02*
X012480Y021225D01*
X012433Y021126D02*
X012392Y021126D01*
X012677Y021422D02*
X012682Y021422D01*
X012679Y021520D02*
X012679Y021520D01*
X012679Y021619D02*
X012679Y021619D01*
X012679Y021717D02*
X012679Y021717D01*
X012679Y021816D02*
X012679Y021816D01*
X012702Y021914D02*
X012755Y021914D01*
X012801Y022013D02*
X012853Y022013D01*
X012849Y022111D02*
X012952Y022111D01*
X012972Y022131D02*
X013386Y022131D01*
X013559Y021959D01*
X013559Y022304D01*
X013386Y022131D01*
X012972Y022131D01*
X012894Y022210D02*
X012849Y022210D01*
X012509Y022210D02*
X012465Y022210D01*
X012509Y022202D02*
X012413Y022105D01*
X012386Y022131D01*
X011972Y022131D01*
X012386Y022131D01*
X012509Y022254D01*
X012509Y022202D01*
X012418Y022111D02*
X012407Y022111D01*
X011952Y022111D02*
X011044Y022111D01*
X011034Y022210D02*
X011894Y022210D01*
X011796Y022308D02*
X010978Y022308D01*
X011139Y022013D02*
X011853Y022013D01*
X011755Y021914D02*
X011237Y021914D01*
X011336Y021816D02*
X011679Y021816D01*
X011679Y021717D02*
X011434Y021717D01*
X011533Y021619D02*
X011679Y021619D01*
X011679Y021520D02*
X011631Y021520D01*
X011649Y021422D02*
X011682Y021422D01*
X011649Y021323D02*
X011781Y021323D01*
X011879Y021225D02*
X011649Y021225D01*
X011649Y021126D02*
X011967Y021126D01*
X011868Y021028D02*
X011649Y021028D01*
X011649Y020929D02*
X011770Y020929D01*
X011679Y020831D02*
X011649Y020831D01*
X011649Y020732D02*
X011679Y020732D01*
X011668Y020634D02*
X011679Y020634D01*
X011384Y020437D02*
X010651Y020437D01*
X010689Y020535D02*
X011309Y020535D01*
X011309Y020634D02*
X010689Y020634D01*
X010689Y020732D02*
X011309Y020732D01*
X011309Y020831D02*
X010649Y020831D01*
X010603Y020929D02*
X011309Y020929D01*
X011309Y021028D02*
X010505Y021028D01*
X010494Y021225D02*
X011309Y021225D01*
X011309Y021323D02*
X010592Y021323D01*
X010644Y021422D02*
X011249Y021422D01*
X011150Y021520D02*
X010685Y021520D01*
X010689Y021619D02*
X011052Y021619D01*
X010953Y021717D02*
X010689Y021717D01*
X010655Y021816D02*
X010855Y021816D01*
X010622Y021914D02*
X010614Y021914D01*
X010542Y022013D02*
X010520Y022013D01*
X010514Y022111D02*
X010354Y022111D01*
X010479Y022210D02*
X010525Y022210D01*
X010577Y022308D02*
X010581Y022308D01*
X010638Y022407D02*
X011697Y022407D01*
X011679Y022505D02*
X010679Y022505D01*
X010689Y022604D02*
X011679Y022604D01*
X011679Y022702D02*
X010689Y022702D01*
X010661Y022801D02*
X011470Y022801D01*
X011371Y022899D02*
X010621Y022899D01*
X010318Y021126D02*
X011309Y021126D01*
X011482Y020338D02*
X010607Y020338D01*
X010509Y020240D02*
X011581Y020240D01*
X011679Y020141D02*
X010328Y020141D01*
X010490Y020043D02*
X011778Y020043D01*
X011785Y019944D02*
X010588Y019944D01*
X010643Y019846D02*
X011727Y019846D01*
X011686Y019747D02*
X010684Y019747D01*
X010689Y019649D02*
X011679Y019649D01*
X011679Y019550D02*
X010689Y019550D01*
X010657Y019452D02*
X011713Y019452D01*
X011754Y019353D02*
X010616Y019353D01*
X010524Y019255D02*
X011849Y019255D01*
X012021Y019156D02*
X010468Y019156D01*
X010754Y018861D02*
X012168Y018861D01*
X012069Y018762D02*
X010754Y018762D01*
X010754Y018565D02*
X011872Y018565D01*
X011774Y018467D02*
X010754Y018467D01*
X010729Y018368D02*
X011675Y018368D01*
X011577Y018270D02*
X010631Y018270D01*
X010532Y018171D02*
X011478Y018171D01*
X011380Y018073D02*
X010434Y018073D01*
X010229Y018073D02*
X010129Y018073D01*
X010129Y018171D02*
X010229Y018171D01*
X010229Y018270D02*
X010129Y018270D01*
X010129Y018368D02*
X010229Y018368D01*
X010229Y018467D02*
X010129Y018467D01*
X010129Y018565D02*
X010229Y018565D01*
X010229Y018664D02*
X011971Y018664D01*
X011281Y017974D02*
X007789Y017974D01*
X007789Y017876D02*
X011183Y017876D01*
X011084Y017777D02*
X007789Y017777D01*
X007789Y017679D02*
X010986Y017679D01*
X010887Y017580D02*
X007789Y017580D01*
X007789Y017482D02*
X010789Y017482D01*
X010690Y017383D02*
X007789Y017383D01*
X007789Y017285D02*
X010592Y017285D01*
X010493Y017186D02*
X007789Y017186D01*
X007789Y017088D02*
X010395Y017088D01*
X010296Y016989D02*
X007789Y016989D01*
X007789Y016891D02*
X010198Y016891D01*
X010099Y016792D02*
X007789Y016792D01*
X007789Y016694D02*
X010009Y016694D01*
X010009Y016595D02*
X008367Y016595D01*
X008521Y016497D02*
X010009Y016497D01*
X010009Y016398D02*
X008610Y016398D01*
X008651Y016300D02*
X010009Y016300D01*
X010009Y016201D02*
X008679Y016201D01*
X008679Y016103D02*
X010009Y016103D01*
X010009Y016004D02*
X008668Y016004D01*
X008646Y015906D02*
X010009Y015906D01*
X010009Y015807D02*
X008744Y015807D01*
X007992Y016595D02*
X007789Y016595D01*
X007789Y016497D02*
X007837Y016497D01*
X007069Y016497D02*
X004988Y016497D01*
X005049Y016398D02*
X007069Y016398D01*
X007069Y016300D02*
X005049Y016300D01*
X005049Y016201D02*
X007069Y016201D01*
X007069Y016103D02*
X005024Y016103D01*
X004925Y016004D02*
X007069Y016004D01*
X007069Y015906D02*
X006830Y015906D01*
X006914Y015807D02*
X007069Y015807D01*
X007069Y015709D02*
X006944Y015709D01*
X006937Y015610D02*
X007069Y015610D01*
X007058Y015512D02*
X007069Y015512D01*
X007059Y015413D02*
X007069Y015413D01*
X007059Y015315D02*
X007099Y015315D01*
X007059Y015216D02*
X007198Y015216D01*
X007219Y015118D02*
X007052Y015118D01*
X007059Y015019D02*
X007170Y015019D01*
X007071Y014921D02*
X007059Y014921D01*
X007059Y014822D02*
X007069Y014822D01*
X007069Y014724D02*
X007030Y014724D01*
X007043Y014625D02*
X007069Y014625D01*
X006679Y014981D02*
X006679Y015281D01*
X006299Y015315D02*
X002087Y015315D01*
X002087Y015413D02*
X006299Y015413D01*
X006301Y015512D02*
X002087Y015512D01*
X002087Y015610D02*
X006422Y015610D01*
X006414Y015709D02*
X002087Y015709D01*
X002087Y015763D02*
X002011Y015839D01*
X001103Y015839D01*
X001027Y015763D01*
X001027Y014855D01*
X001103Y014779D01*
X002011Y014779D01*
X002087Y014855D01*
X002087Y015763D01*
X002043Y015807D02*
X006445Y015807D01*
X006529Y015906D02*
X000889Y015906D01*
X000889Y016004D02*
X003434Y016004D01*
X003335Y016103D02*
X000889Y016103D01*
X000889Y016201D02*
X001345Y016201D01*
X001195Y016300D02*
X000889Y016300D01*
X000889Y016398D02*
X001103Y016398D01*
X000469Y016398D02*
X000379Y016398D01*
X000379Y016300D02*
X000469Y016300D01*
X000469Y016201D02*
X000379Y016201D01*
X000379Y016103D02*
X000469Y016103D01*
X000469Y016004D02*
X000379Y016004D01*
X000379Y015906D02*
X000469Y015906D01*
X000469Y015807D02*
X000379Y015807D01*
X000379Y015709D02*
X000469Y015709D01*
X000469Y015610D02*
X000379Y015610D01*
X000379Y015512D02*
X000469Y015512D01*
X000469Y015413D02*
X000379Y015413D01*
X000379Y015315D02*
X000469Y015315D01*
X000469Y015216D02*
X000379Y015216D01*
X000379Y015118D02*
X000469Y015118D01*
X000469Y015019D02*
X000379Y015019D01*
X000379Y014921D02*
X000469Y014921D01*
X000469Y014822D02*
X000379Y014822D01*
X000379Y014724D02*
X000469Y014724D01*
X000469Y014625D02*
X000379Y014625D01*
X000379Y014527D02*
X000469Y014527D01*
X000469Y014428D02*
X000379Y014428D01*
X000379Y014330D02*
X000469Y014330D01*
X000469Y014231D02*
X000379Y014231D01*
X000379Y014133D02*
X000469Y014133D01*
X000469Y014034D02*
X000379Y014034D01*
X000379Y013936D02*
X000469Y013936D01*
X000469Y013837D02*
X000379Y013837D01*
X000379Y013739D02*
X000469Y013739D01*
X000469Y013640D02*
X000379Y013640D01*
X000379Y013542D02*
X000469Y013542D01*
X000469Y013443D02*
X000379Y013443D01*
X000379Y013345D02*
X000469Y013345D01*
X000469Y013246D02*
X000379Y013246D01*
X000379Y013148D02*
X000469Y013148D01*
X000469Y013049D02*
X000379Y013049D01*
X000379Y012951D02*
X000469Y012951D01*
X000469Y012852D02*
X000379Y012852D01*
X000379Y012754D02*
X000469Y012754D01*
X000469Y012655D02*
X000379Y012655D01*
X000379Y012557D02*
X000469Y012557D01*
X000469Y012458D02*
X000379Y012458D01*
X000379Y012360D02*
X000469Y012360D01*
X000469Y012261D02*
X000379Y012261D01*
X000379Y012163D02*
X000469Y012163D01*
X000469Y012064D02*
X000379Y012064D01*
X000379Y011966D02*
X000469Y011966D01*
X000469Y011867D02*
X000379Y011867D01*
X000379Y011769D02*
X000469Y011769D01*
X000469Y011670D02*
X000379Y011670D01*
X000379Y011572D02*
X000469Y011572D01*
X000469Y011473D02*
X000379Y011473D01*
X000379Y011375D02*
X000469Y011375D01*
X000469Y011276D02*
X000379Y011276D01*
X000379Y011178D02*
X000469Y011178D01*
X000469Y011079D02*
X000379Y011079D01*
X000379Y010981D02*
X000469Y010981D01*
X000469Y010882D02*
X000379Y010882D01*
X000379Y010784D02*
X000469Y010784D01*
X000469Y010685D02*
X000379Y010685D01*
X000379Y010587D02*
X000469Y010587D01*
X000469Y010488D02*
X000379Y010488D01*
X000379Y010390D02*
X000469Y010390D01*
X000469Y010291D02*
X000379Y010291D01*
X000379Y010193D02*
X000469Y010193D01*
X000469Y010094D02*
X000379Y010094D01*
X000379Y009996D02*
X000469Y009996D01*
X000469Y009897D02*
X000379Y009897D01*
X000379Y009799D02*
X000469Y009799D01*
X000469Y009700D02*
X000379Y009700D01*
X000379Y009602D02*
X000469Y009602D01*
X000469Y009503D02*
X000379Y009503D01*
X000379Y009405D02*
X000469Y009405D01*
X000469Y009306D02*
X000379Y009306D01*
X000379Y009208D02*
X000469Y009208D01*
X000469Y009109D02*
X000379Y009109D01*
X000379Y009010D02*
X000503Y009010D01*
X000602Y008912D02*
X000379Y008912D01*
X000379Y008813D02*
X000700Y008813D01*
X000999Y009109D02*
X003210Y009109D01*
X003308Y009208D02*
X000900Y009208D01*
X000889Y009306D02*
X001064Y009306D01*
X001027Y009343D02*
X001103Y009267D01*
X002011Y009267D01*
X002087Y009343D01*
X002087Y010251D01*
X002011Y010327D01*
X001103Y010327D01*
X001027Y010251D01*
X001027Y009343D01*
X001027Y009405D02*
X000889Y009405D01*
X000889Y009503D02*
X001027Y009503D01*
X001027Y009602D02*
X000889Y009602D01*
X000889Y009700D02*
X001027Y009700D01*
X001027Y009799D02*
X000889Y009799D01*
X000889Y009897D02*
X001027Y009897D01*
X001027Y009996D02*
X000889Y009996D01*
X000889Y010094D02*
X001027Y010094D01*
X001027Y010193D02*
X000889Y010193D01*
X000889Y010291D02*
X001068Y010291D01*
X000889Y010390D02*
X003309Y010390D01*
X003309Y010435D02*
X003309Y010128D01*
X003526Y009911D01*
X003833Y009911D01*
X004049Y010128D01*
X004049Y010435D01*
X003833Y010651D01*
X003526Y010651D01*
X003309Y010435D01*
X003363Y010488D02*
X000889Y010488D01*
X000889Y010587D02*
X003461Y010587D01*
X003309Y010291D02*
X002047Y010291D01*
X002087Y010193D02*
X003309Y010193D01*
X003344Y010094D02*
X002087Y010094D01*
X002087Y009996D02*
X003442Y009996D01*
X003801Y009700D02*
X002087Y009700D01*
X002087Y009602D02*
X003702Y009602D01*
X003604Y009503D02*
X002087Y009503D01*
X002087Y009405D02*
X003505Y009405D01*
X003407Y009306D02*
X002050Y009306D01*
X001752Y008912D02*
X003013Y008912D01*
X003111Y009010D02*
X001097Y009010D01*
X001196Y008912D02*
X001363Y008912D01*
X001912Y008813D02*
X002914Y008813D01*
X002816Y008715D02*
X002008Y008715D01*
X002009Y008124D02*
X012560Y008124D01*
X012629Y008124D02*
X012729Y008124D01*
X012799Y008124D02*
X013560Y008124D01*
X013629Y008124D02*
X013729Y008124D01*
X013799Y008124D02*
X015946Y008124D01*
X015848Y008222D02*
X014977Y008222D01*
X015076Y008321D02*
X015749Y008321D01*
X015651Y008419D02*
X015133Y008419D01*
X015174Y008518D02*
X015552Y008518D01*
X015509Y008616D02*
X015179Y008616D01*
X015179Y008715D02*
X015509Y008715D01*
X015509Y008813D02*
X015145Y008813D01*
X015104Y008912D02*
X015509Y008912D01*
X015509Y009010D02*
X015007Y009010D01*
X014833Y009109D02*
X015509Y009109D01*
X015509Y009208D02*
X011889Y009208D01*
X011889Y009306D02*
X015509Y009306D01*
X015509Y009405D02*
X011889Y009405D01*
X011889Y009503D02*
X015509Y009503D01*
X015469Y009602D02*
X011889Y009602D01*
X011889Y009700D02*
X015370Y009700D01*
X015272Y009799D02*
X011889Y009799D01*
X011889Y009897D02*
X012589Y009897D01*
X012528Y009996D02*
X011889Y009996D01*
X011889Y010094D02*
X012514Y010094D01*
X012428Y010193D02*
X011926Y010193D01*
X012046Y010291D02*
X012329Y010291D01*
X012309Y010390D02*
X012120Y010390D01*
X012161Y010488D02*
X012309Y010488D01*
X012309Y010587D02*
X012179Y010587D01*
X012179Y010685D02*
X012309Y010685D01*
X012309Y010784D02*
X012158Y010784D01*
X012117Y010882D02*
X012309Y010882D01*
X012309Y010981D02*
X012037Y010981D01*
X011906Y011079D02*
X012309Y011079D01*
X012309Y011178D02*
X011680Y011178D01*
X011242Y010882D02*
X011117Y010882D01*
X011158Y010784D02*
X011201Y010784D01*
X011179Y010685D02*
X011179Y010685D01*
X011179Y010587D02*
X011179Y010587D01*
X011161Y010488D02*
X011198Y010488D01*
X011238Y010390D02*
X011120Y010390D01*
X011046Y010291D02*
X011313Y010291D01*
X011433Y010193D02*
X010926Y010193D01*
X010433Y010193D02*
X009926Y010193D01*
X009889Y010094D02*
X011469Y010094D01*
X011469Y009996D02*
X009889Y009996D01*
X009889Y009897D02*
X011469Y009897D01*
X011469Y009799D02*
X009889Y009799D01*
X009908Y009700D02*
X011469Y009700D01*
X011469Y009602D02*
X010006Y009602D01*
X010105Y009503D02*
X011469Y009503D01*
X011469Y009405D02*
X010203Y009405D01*
X010302Y009306D02*
X011469Y009306D01*
X011469Y009208D02*
X010400Y009208D01*
X010499Y009109D02*
X010526Y009109D01*
X010833Y009109D02*
X011469Y009109D01*
X011351Y009010D02*
X011007Y009010D01*
X011104Y008912D02*
X011254Y008912D01*
X011214Y008813D02*
X011145Y008813D01*
X011179Y008715D02*
X011179Y008715D01*
X011179Y008616D02*
X011179Y008616D01*
X011174Y008518D02*
X011185Y008518D01*
X011226Y008419D02*
X011133Y008419D01*
X011076Y008321D02*
X011283Y008321D01*
X011381Y008222D02*
X010977Y008222D01*
X010381Y008222D02*
X009977Y008222D01*
X010076Y008321D02*
X010283Y008321D01*
X010226Y008419D02*
X010133Y008419D01*
X010174Y008518D02*
X010185Y008518D01*
X010179Y008616D02*
X010179Y008616D01*
X010179Y008715D02*
X010179Y008715D01*
X010200Y008813D02*
X010145Y008813D01*
X009905Y009109D02*
X009833Y009109D01*
X009806Y009208D02*
X008602Y009208D01*
X008701Y009306D02*
X009708Y009306D01*
X009609Y009405D02*
X008799Y009405D01*
X008839Y009503D02*
X009511Y009503D01*
X009469Y009602D02*
X008839Y009602D01*
X008839Y009700D02*
X009469Y009700D01*
X009469Y009799D02*
X008839Y009799D01*
X008839Y009897D02*
X009469Y009897D01*
X009469Y009996D02*
X008839Y009996D01*
X008839Y010094D02*
X009469Y010094D01*
X009433Y010193D02*
X008839Y010193D01*
X008839Y010291D02*
X009313Y010291D01*
X009238Y010390D02*
X008839Y010390D01*
X008933Y010488D02*
X009198Y010488D01*
X009179Y010587D02*
X009031Y010587D01*
X009130Y010685D02*
X009179Y010685D01*
X008831Y010981D02*
X008658Y010981D01*
X008679Y011032D02*
X008679Y011231D01*
X008603Y011415D01*
X008463Y011555D01*
X008279Y011631D01*
X008392Y011678D01*
X008759Y011311D01*
X008759Y011311D01*
X008859Y011211D01*
X009062Y011211D01*
X008542Y010691D01*
X008419Y010568D01*
X008419Y009618D01*
X008092Y009291D01*
X007816Y009291D01*
X007716Y009391D01*
X007777Y009366D01*
X007882Y009366D01*
X007979Y009407D01*
X008054Y009481D01*
X008094Y009579D01*
X008094Y009684D01*
X008054Y009782D01*
X007979Y009856D01*
X007882Y009896D01*
X007799Y009896D01*
X007799Y010804D01*
X007896Y010708D01*
X008080Y010631D01*
X008279Y010631D01*
X008463Y010708D01*
X008603Y010848D01*
X008679Y011032D01*
X008679Y011079D02*
X008930Y011079D01*
X009028Y011178D02*
X008679Y011178D01*
X008661Y011276D02*
X008794Y011276D01*
X008696Y011375D02*
X008620Y011375D01*
X008597Y011473D02*
X008545Y011473D01*
X008499Y011572D02*
X008424Y011572D01*
X008400Y011670D02*
X008372Y011670D01*
X008279Y011631D02*
X008080Y011631D01*
X007896Y011555D01*
X007799Y011459D01*
X007799Y011804D01*
X007896Y011708D01*
X008080Y011631D01*
X008279Y011631D01*
X007987Y011670D02*
X007799Y011670D01*
X007799Y011572D02*
X007935Y011572D01*
X007814Y011473D02*
X007799Y011473D01*
X007799Y011769D02*
X007835Y011769D01*
X006855Y011437D02*
X006855Y011137D01*
X006475Y011178D02*
X003872Y011178D01*
X003971Y011276D02*
X006485Y011276D01*
X006475Y011375D02*
X004069Y011375D01*
X004168Y011473D02*
X006475Y011473D01*
X006475Y011572D02*
X004266Y011572D01*
X004365Y011670D02*
X006479Y011670D01*
X006726Y011769D02*
X004463Y011769D01*
X004562Y011867D02*
X006814Y011867D01*
X006598Y011966D02*
X004887Y011966D01*
X004985Y012064D02*
X006440Y012064D01*
X006350Y012163D02*
X005049Y012163D01*
X005049Y012261D02*
X006309Y012261D01*
X006279Y012360D02*
X005049Y012360D01*
X005026Y012458D02*
X006279Y012458D01*
X006290Y012557D02*
X004928Y012557D01*
X004431Y012557D02*
X003928Y012557D01*
X003833Y012651D02*
X003526Y012651D01*
X003309Y012435D01*
X003309Y012128D01*
X003526Y011911D01*
X003833Y011911D01*
X004049Y012128D01*
X004049Y012435D01*
X003833Y012651D01*
X004026Y012458D02*
X004333Y012458D01*
X004309Y012360D02*
X004049Y012360D01*
X004049Y012261D02*
X004309Y012261D01*
X004263Y012163D02*
X004049Y012163D01*
X003985Y012064D02*
X004165Y012064D01*
X004066Y011966D02*
X003887Y011966D01*
X003968Y011867D02*
X000889Y011867D01*
X000889Y011769D02*
X003869Y011769D01*
X003771Y011670D02*
X001747Y011670D01*
X001910Y011572D02*
X003672Y011572D01*
X003574Y011473D02*
X002007Y011473D01*
X002011Y012023D02*
X002087Y012099D01*
X002087Y013007D01*
X002011Y013083D01*
X001103Y013083D01*
X001027Y013007D01*
X001027Y012099D01*
X001103Y012023D01*
X002011Y012023D01*
X002052Y012064D02*
X003374Y012064D01*
X003309Y012163D02*
X002087Y012163D01*
X002087Y012261D02*
X003309Y012261D01*
X003309Y012360D02*
X002087Y012360D01*
X002087Y012458D02*
X003333Y012458D01*
X003431Y012557D02*
X002087Y012557D01*
X002087Y012655D02*
X006331Y012655D01*
X006394Y012754D02*
X002087Y012754D01*
X002087Y012852D02*
X006493Y012852D01*
X006500Y012951D02*
X002087Y012951D01*
X002045Y013049D02*
X006500Y013049D01*
X006500Y013148D02*
X000889Y013148D01*
X000889Y013246D02*
X006506Y013246D01*
X006500Y013345D02*
X000889Y013345D01*
X000889Y013443D02*
X001350Y013443D01*
X001197Y013542D02*
X000889Y013542D01*
X000889Y013640D02*
X001104Y013640D01*
X001108Y014231D02*
X000889Y014231D01*
X000889Y014330D02*
X001207Y014330D01*
X001373Y014428D02*
X000889Y014428D01*
X000889Y014527D02*
X003401Y014527D01*
X003309Y014435D02*
X003309Y014128D01*
X003526Y013911D01*
X003833Y013911D01*
X004049Y014128D01*
X004049Y014435D01*
X003833Y014651D01*
X003526Y014651D01*
X003309Y014435D01*
X003309Y014428D02*
X001742Y014428D01*
X001908Y014330D02*
X003309Y014330D01*
X003309Y014231D02*
X002007Y014231D01*
X002011Y013640D02*
X003024Y013640D01*
X003122Y013542D02*
X001918Y013542D01*
X001765Y013443D02*
X006500Y013443D01*
X006500Y013542D02*
X004236Y013542D01*
X004335Y013640D02*
X006531Y013640D01*
X006517Y013837D02*
X004532Y013837D01*
X004433Y013739D02*
X006746Y013739D01*
X006742Y013837D02*
X006766Y013837D01*
X006318Y013936D02*
X004857Y013936D01*
X004955Y014034D02*
X006220Y014034D01*
X006171Y014133D02*
X005049Y014133D01*
X005049Y014231D02*
X006130Y014231D01*
X006129Y014330D02*
X005049Y014330D01*
X005049Y014428D02*
X006129Y014428D01*
X006169Y014527D02*
X004958Y014527D01*
X004859Y014625D02*
X006216Y014625D01*
X006314Y014724D02*
X000889Y014724D01*
X000889Y014822D02*
X001060Y014822D01*
X001027Y014921D02*
X000889Y014921D01*
X000889Y015019D02*
X001027Y015019D01*
X001027Y015118D02*
X000889Y015118D01*
X000889Y015216D02*
X001027Y015216D01*
X001027Y015315D02*
X000889Y015315D01*
X000889Y015413D02*
X001027Y015413D01*
X001027Y015512D02*
X000889Y015512D01*
X000889Y015610D02*
X001027Y015610D01*
X001027Y015709D02*
X000889Y015709D01*
X000889Y015807D02*
X001072Y015807D01*
X001770Y016201D02*
X003309Y016201D01*
X003309Y016300D02*
X001920Y016300D01*
X002011Y016398D02*
X003309Y016398D01*
X003925Y016004D02*
X004434Y016004D01*
X004335Y016103D02*
X004024Y016103D01*
X004049Y016201D02*
X004309Y016201D01*
X004309Y016300D02*
X004049Y016300D01*
X004049Y016398D02*
X004266Y016398D01*
X004564Y016694D02*
X006601Y016694D01*
X006412Y016792D02*
X004466Y016792D01*
X004367Y016891D02*
X006313Y016891D01*
X006268Y016989D02*
X002004Y016989D01*
X001906Y017088D02*
X005696Y017088D01*
X005632Y017186D02*
X001737Y017186D01*
X001378Y017186D02*
X000889Y017186D01*
X000889Y017088D02*
X001209Y017088D01*
X001110Y016989D02*
X000889Y016989D01*
X000889Y017285D02*
X005632Y017285D01*
X005632Y017383D02*
X000889Y017383D01*
X000889Y017482D02*
X005632Y017482D01*
X005632Y017580D02*
X002057Y017580D01*
X002087Y017611D02*
X002087Y018518D01*
X002011Y018595D01*
X001103Y018595D01*
X001027Y018518D01*
X001027Y017611D01*
X001103Y017535D01*
X002011Y017535D01*
X002087Y017611D01*
X002087Y017679D02*
X002775Y017679D01*
X002795Y017658D02*
X002940Y017658D01*
X003005Y017722D01*
X003069Y017658D01*
X003214Y017658D01*
X003282Y017726D01*
X003282Y017726D01*
X003301Y017745D01*
X003385Y017829D01*
X003385Y017902D01*
X003385Y017974D01*
X005696Y017974D01*
X005632Y017876D02*
X003385Y017876D01*
X003385Y017829D02*
X003385Y017829D01*
X003385Y017829D01*
X003333Y017777D02*
X005632Y017777D01*
X005632Y017679D02*
X003234Y017679D01*
X003048Y017679D02*
X002961Y017679D01*
X002795Y017658D02*
X002624Y017829D01*
X002624Y018039D01*
X002624Y018111D01*
X002624Y018111D01*
X002626Y018112D01*
X002676Y018163D01*
X002614Y018257D01*
X002642Y018399D01*
X002912Y018579D01*
X002795Y018579D01*
X002693Y018681D01*
X002624Y018750D01*
X002624Y018960D01*
X002624Y019031D01*
X002624Y019031D01*
X002626Y019033D01*
X002693Y019100D01*
X002693Y019100D01*
X002709Y019116D01*
X002714Y019121D01*
X002624Y019210D01*
X002624Y019420D01*
X002624Y019492D01*
X002624Y019492D01*
X002624Y019492D01*
X002626Y019493D01*
X002676Y019544D01*
X002614Y019638D01*
X002642Y019780D01*
X003006Y020023D01*
X002970Y020058D01*
X002872Y019960D01*
X002727Y019960D01*
X002624Y020062D01*
X002624Y020481D01*
X002679Y020536D01*
X002624Y020591D01*
X002624Y020801D01*
X002624Y020873D01*
X002624Y020873D01*
X002626Y020874D01*
X002679Y020928D01*
X002624Y020983D01*
X002624Y021402D01*
X002679Y021457D01*
X002624Y021512D01*
X002624Y021721D01*
X002624Y021794D01*
X002693Y021862D01*
X002693Y021862D01*
X002711Y021880D01*
X002795Y021965D01*
X002795Y021965D01*
X002795Y021965D01*
X002869Y021965D01*
X002940Y021965D01*
X002940Y021965D01*
X003009Y021965D01*
X003071Y021903D01*
X003086Y021933D01*
X003223Y021979D01*
X003353Y021914D01*
X003399Y021776D01*
X003316Y021612D01*
X003316Y021580D01*
X003285Y021549D01*
X003265Y021510D01*
X003236Y021500D01*
X003103Y021367D01*
X003282Y021367D01*
X003383Y021266D01*
X003385Y021265D01*
X003385Y021120D01*
X003261Y020996D01*
X003316Y020941D01*
X003385Y020873D01*
X003385Y020736D01*
X003385Y020736D01*
X003385Y020664D01*
X003385Y020591D01*
X003385Y020591D01*
X003301Y020507D01*
X003295Y020502D01*
X003385Y020413D01*
X003385Y020276D01*
X003385Y020276D01*
X003385Y020203D01*
X003385Y020131D01*
X003385Y020131D01*
X003385Y020131D01*
X003333Y020079D01*
X003396Y019985D01*
X003367Y019843D01*
X003085Y019655D01*
X003107Y019633D01*
X003137Y019663D01*
X003282Y019663D01*
X003385Y019560D01*
X003385Y019142D01*
X003330Y019087D01*
X003385Y019031D01*
X003385Y018895D01*
X003385Y018895D01*
X003385Y018823D01*
X003385Y018750D01*
X003385Y018750D01*
X003385Y018750D01*
X003333Y018698D01*
X003396Y018604D01*
X003367Y018462D01*
X003097Y018282D01*
X003214Y018282D01*
X003316Y018179D01*
X003385Y018111D01*
X003385Y017974D01*
X003385Y017974D01*
X003385Y018073D02*
X005930Y018073D01*
X006012Y017681D02*
X006012Y017381D01*
X006415Y018171D02*
X003324Y018171D01*
X003226Y018270D02*
X006394Y018270D01*
X006296Y018368D02*
X003227Y018368D01*
X003368Y018467D02*
X006197Y018467D01*
X006099Y018565D02*
X003388Y018565D01*
X003356Y018664D02*
X006000Y018664D01*
X005969Y018762D02*
X003385Y018762D01*
X003385Y018861D02*
X005969Y018861D01*
X005969Y018959D02*
X003385Y018959D01*
X003359Y019058D02*
X003940Y019058D01*
X003941Y019056D02*
X004129Y019056D01*
X004129Y019581D01*
X003604Y019581D01*
X003604Y019393D01*
X003941Y019056D01*
X003842Y019156D02*
X003385Y019156D01*
X003385Y019255D02*
X003743Y019255D01*
X003645Y019353D02*
X003385Y019353D01*
X003385Y019452D02*
X003604Y019452D01*
X003604Y019550D02*
X003385Y019550D01*
X003296Y019649D02*
X004129Y019649D01*
X004129Y019550D02*
X004229Y019550D01*
X004229Y019581D02*
X004229Y019681D01*
X004754Y019681D01*
X005129Y019681D01*
X005129Y019581D01*
X004229Y019581D01*
X004229Y019649D02*
X005129Y019649D01*
X005129Y019550D02*
X005229Y019550D01*
X005229Y019452D02*
X005129Y019452D01*
X005129Y019353D02*
X005229Y019353D01*
X005229Y019255D02*
X005129Y019255D01*
X005129Y019156D02*
X005229Y019156D01*
X005229Y019058D02*
X005129Y019058D01*
X004940Y019058D02*
X004419Y019058D01*
X004517Y019156D02*
X004842Y019156D01*
X004743Y019255D02*
X004616Y019255D01*
X004229Y019255D02*
X004129Y019255D01*
X004129Y019353D02*
X004229Y019353D01*
X004229Y019452D02*
X004129Y019452D01*
X004129Y019156D02*
X004229Y019156D01*
X004229Y019058D02*
X004129Y019058D01*
X003604Y019747D02*
X003224Y019747D01*
X003123Y019649D02*
X003091Y019649D01*
X003368Y019846D02*
X003604Y019846D01*
X003679Y019944D02*
X003387Y019944D01*
X003357Y020043D02*
X003777Y020043D01*
X003876Y020141D02*
X003385Y020141D01*
X003385Y020240D02*
X003850Y020240D01*
X003752Y020338D02*
X003385Y020338D01*
X003361Y020437D02*
X003708Y020437D01*
X003669Y020535D02*
X003329Y020535D01*
X003385Y020591D02*
X003385Y020591D01*
X003385Y020634D02*
X003669Y020634D01*
X003669Y020732D02*
X003385Y020732D01*
X003385Y020831D02*
X003710Y020831D01*
X003756Y020929D02*
X003329Y020929D01*
X003292Y021028D02*
X003854Y021028D01*
X003865Y021225D02*
X003385Y021225D01*
X003385Y021126D02*
X004041Y021126D01*
X003767Y021323D02*
X003327Y021323D01*
X003157Y021422D02*
X003714Y021422D01*
X003674Y021520D02*
X003271Y021520D01*
X003320Y021619D02*
X003669Y021619D01*
X003669Y021717D02*
X003369Y021717D01*
X003386Y021816D02*
X003704Y021816D01*
X003744Y021914D02*
X003352Y021914D01*
X003076Y021914D02*
X003059Y021914D01*
X002745Y021914D02*
X000379Y021914D01*
X000379Y021816D02*
X002646Y021816D01*
X002624Y021717D02*
X000379Y021717D01*
X000379Y021619D02*
X002624Y021619D01*
X002624Y021520D02*
X000379Y021520D01*
X000379Y021422D02*
X002644Y021422D01*
X002624Y021323D02*
X002067Y021323D01*
X002077Y021313D02*
X002049Y021341D01*
X002015Y021360D01*
X001977Y021370D01*
X001607Y021370D01*
X001607Y020870D01*
X002107Y020870D01*
X002107Y021240D01*
X002097Y021278D01*
X002077Y021313D01*
X002107Y021225D02*
X002624Y021225D01*
X002624Y021126D02*
X002107Y021126D01*
X002107Y021028D02*
X002624Y021028D01*
X002679Y020929D02*
X002107Y020929D01*
X002107Y020770D02*
X002107Y020401D01*
X002097Y020363D01*
X002077Y020328D01*
X002049Y020300D01*
X002015Y020281D01*
X001977Y020270D01*
X001607Y020270D01*
X001607Y020770D01*
X001507Y020770D01*
X001507Y020270D01*
X001138Y020270D01*
X001099Y020281D01*
X001065Y020300D01*
X001037Y020328D01*
X001018Y020363D01*
X001007Y020401D01*
X001007Y020770D01*
X001507Y020770D01*
X001507Y020870D01*
X001007Y020870D01*
X001007Y021240D01*
X001018Y021278D01*
X001037Y021313D01*
X001065Y021341D01*
X001099Y021360D01*
X001138Y021370D01*
X001507Y021370D01*
X001507Y020870D01*
X001607Y020870D01*
X001607Y020770D01*
X002107Y020770D01*
X002107Y020732D02*
X002624Y020732D01*
X002624Y020634D02*
X002107Y020634D01*
X002107Y020535D02*
X002678Y020535D01*
X002624Y020437D02*
X002107Y020437D01*
X002083Y020338D02*
X002624Y020338D01*
X002624Y020240D02*
X000379Y020240D01*
X000379Y020338D02*
X001032Y020338D01*
X001007Y020437D02*
X000379Y020437D01*
X000379Y020535D02*
X001007Y020535D01*
X001007Y020634D02*
X000379Y020634D01*
X000379Y020732D02*
X001007Y020732D01*
X001007Y020929D02*
X000379Y020929D01*
X000379Y020831D02*
X001507Y020831D01*
X001507Y020929D02*
X001607Y020929D01*
X001607Y020831D02*
X002624Y020831D01*
X002624Y020141D02*
X000379Y020141D01*
X000379Y020043D02*
X002644Y020043D01*
X002740Y019846D02*
X001904Y019846D01*
X002002Y019747D02*
X002635Y019747D01*
X002616Y019649D02*
X002046Y019649D01*
X002086Y019550D02*
X002672Y019550D01*
X002624Y019452D02*
X002087Y019452D01*
X002087Y019353D02*
X002624Y019353D01*
X002624Y019255D02*
X002053Y019255D01*
X002012Y019156D02*
X002678Y019156D01*
X002650Y019058D02*
X001922Y019058D01*
X001775Y018959D02*
X002624Y018959D01*
X002624Y018861D02*
X001272Y018861D01*
X001174Y018762D02*
X002624Y018762D01*
X002710Y018664D02*
X001075Y018664D01*
X001074Y018565D02*
X000977Y018565D01*
X001027Y018467D02*
X000889Y018467D01*
X000889Y018368D02*
X001027Y018368D01*
X001027Y018270D02*
X000889Y018270D01*
X000889Y018171D02*
X001027Y018171D01*
X001027Y018073D02*
X000889Y018073D01*
X000889Y017974D02*
X001027Y017974D01*
X001027Y017876D02*
X000889Y017876D01*
X000889Y017777D02*
X001027Y017777D01*
X001027Y017679D02*
X000889Y017679D01*
X000889Y017580D02*
X001058Y017580D01*
X000469Y017580D02*
X000379Y017580D01*
X000379Y017482D02*
X000469Y017482D01*
X000469Y017383D02*
X000379Y017383D01*
X000379Y017285D02*
X000469Y017285D01*
X000469Y017186D02*
X000379Y017186D01*
X000379Y017088D02*
X000469Y017088D01*
X000469Y016989D02*
X000379Y016989D01*
X000379Y016891D02*
X000469Y016891D01*
X000469Y016792D02*
X000379Y016792D01*
X000379Y016694D02*
X000469Y016694D01*
X000469Y016595D02*
X000379Y016595D01*
X000379Y016497D02*
X000469Y016497D01*
X000469Y017679D02*
X000379Y017679D01*
X000379Y017777D02*
X000469Y017777D01*
X000469Y017876D02*
X000379Y017876D01*
X000379Y017974D02*
X000469Y017974D01*
X000469Y018073D02*
X000379Y018073D01*
X000379Y018171D02*
X000469Y018171D01*
X000469Y018270D02*
X000379Y018270D01*
X000379Y018368D02*
X000469Y018368D01*
X000469Y018467D02*
X000379Y018467D01*
X000379Y018565D02*
X000469Y018565D01*
X000481Y018664D02*
X000379Y018664D01*
X000379Y018762D02*
X000580Y018762D01*
X000678Y018861D02*
X000379Y018861D01*
X000379Y018959D02*
X000777Y018959D01*
X000875Y019058D02*
X000379Y019058D01*
X000379Y019156D02*
X000974Y019156D01*
X001062Y019255D02*
X000379Y019255D01*
X000379Y019353D02*
X001027Y019353D01*
X001027Y019452D02*
X000379Y019452D01*
X000379Y019550D02*
X001028Y019550D01*
X001069Y019649D02*
X000379Y019649D01*
X000379Y019747D02*
X001112Y019747D01*
X001211Y019846D02*
X000379Y019846D01*
X000379Y019944D02*
X001383Y019944D01*
X001732Y019944D02*
X002888Y019944D01*
X002954Y020043D02*
X002986Y020043D01*
X001607Y020338D02*
X001507Y020338D01*
X001507Y020437D02*
X001607Y020437D01*
X001607Y020535D02*
X001507Y020535D01*
X001507Y020634D02*
X001607Y020634D01*
X001607Y020732D02*
X001507Y020732D01*
X001507Y021028D02*
X001607Y021028D01*
X001607Y021126D02*
X001507Y021126D01*
X001507Y021225D02*
X001607Y021225D01*
X001607Y021323D02*
X001507Y021323D01*
X001048Y021323D02*
X000379Y021323D01*
X000379Y021225D02*
X001007Y021225D01*
X001007Y021126D02*
X000379Y021126D01*
X000379Y021028D02*
X001007Y021028D01*
X000379Y022013D02*
X003839Y022013D01*
X004004Y022111D02*
X000379Y022111D01*
X000379Y022210D02*
X000880Y022210D01*
X000782Y022308D02*
X000379Y022308D01*
X000379Y022407D02*
X000721Y022407D01*
X000680Y022505D02*
X000379Y022505D01*
X000379Y022604D02*
X000669Y022604D01*
X000669Y022702D02*
X000379Y022702D01*
X000379Y022801D02*
X000697Y022801D01*
X000738Y022899D02*
X000379Y022899D01*
X000379Y022998D02*
X000824Y022998D01*
X000968Y023096D02*
X000379Y023096D01*
X000379Y023195D02*
X000902Y023195D01*
X000797Y023293D02*
X000379Y023293D01*
X000379Y023392D02*
X000727Y023392D01*
X000686Y023490D02*
X000379Y023490D01*
X000379Y023589D02*
X000669Y023589D01*
X000669Y023687D02*
X000379Y023687D01*
X000379Y023786D02*
X000691Y023786D01*
X000732Y023884D02*
X000379Y023884D01*
X000379Y023983D02*
X000809Y023983D01*
X000932Y024081D02*
X000379Y024081D01*
X000379Y024180D02*
X000938Y024180D01*
X000812Y024278D02*
X000379Y024278D01*
X000379Y024377D02*
X000733Y024377D01*
X000692Y024475D02*
X000379Y024475D01*
X000379Y024574D02*
X000669Y024574D01*
X000669Y024672D02*
X000379Y024672D01*
X000379Y024771D02*
X000685Y024771D01*
X000726Y024869D02*
X000379Y024869D01*
X000379Y024968D02*
X000794Y024968D01*
X000896Y025066D02*
X000379Y025066D01*
X000379Y025165D02*
X000974Y025165D01*
X000827Y025263D02*
X000379Y025263D01*
X000379Y025362D02*
X000739Y025362D01*
X000698Y025460D02*
X000379Y025460D01*
X000379Y025559D02*
X000669Y025559D01*
X000669Y025657D02*
X000379Y025657D01*
X000379Y025756D02*
X000679Y025756D01*
X000720Y025854D02*
X000379Y025854D01*
X000379Y025953D02*
X000779Y025953D01*
X000878Y026051D02*
X000379Y026051D01*
X000379Y026150D02*
X001010Y026150D01*
X000842Y026248D02*
X000379Y026248D01*
X000379Y026347D02*
X000745Y026347D01*
X000705Y026445D02*
X000379Y026445D01*
X000379Y026544D02*
X000669Y026544D01*
X000669Y026642D02*
X000379Y026642D01*
X000379Y026741D02*
X000673Y026741D01*
X000713Y026839D02*
X000379Y026839D01*
X000379Y026938D02*
X000764Y026938D01*
X000863Y027036D02*
X000379Y027036D01*
X000379Y027135D02*
X001061Y027135D01*
X001298Y027135D02*
X001974Y027135D01*
X001924Y027233D02*
X000379Y027233D01*
X000379Y027332D02*
X001884Y027332D01*
X001843Y027430D02*
X000379Y027430D01*
X000379Y027529D02*
X001829Y027529D01*
X001829Y027627D02*
X000458Y027627D01*
X000556Y027726D02*
X001829Y027726D01*
X001839Y027824D02*
X000655Y027824D01*
X000753Y027923D02*
X001880Y027923D01*
X001921Y028021D02*
X000852Y028021D01*
X000950Y028120D02*
X001965Y028120D01*
X002064Y028218D02*
X001049Y028218D01*
X001147Y028317D02*
X002162Y028317D01*
X002350Y028415D02*
X001246Y028415D01*
X001496Y027036D02*
X002073Y027036D01*
X002171Y026938D02*
X001595Y026938D01*
X001645Y026839D02*
X002371Y026839D01*
X002987Y026839D02*
X004731Y026839D01*
X004633Y026938D02*
X003188Y026938D01*
X003286Y027036D02*
X004534Y027036D01*
X004436Y027135D02*
X004286Y027135D01*
X004073Y027135D02*
X003385Y027135D01*
X003434Y027233D02*
X003871Y027233D01*
X003772Y027332D02*
X003475Y027332D01*
X003516Y027430D02*
X003722Y027430D01*
X003681Y027529D02*
X003529Y027529D01*
X003529Y027627D02*
X003679Y027627D01*
X003679Y027726D02*
X003529Y027726D01*
X003520Y027824D02*
X003718Y027824D01*
X003763Y027923D02*
X003479Y027923D01*
X003438Y028021D02*
X003862Y028021D01*
X004051Y028120D02*
X003393Y028120D01*
X003295Y028218D02*
X010526Y028218D01*
X010427Y028120D02*
X010308Y028120D01*
X010051Y028120D02*
X009308Y028120D01*
X009497Y028021D02*
X009862Y028021D01*
X009763Y027923D02*
X009595Y027923D01*
X009641Y027824D02*
X009718Y027824D01*
X009679Y027731D02*
X009679Y027532D01*
X009632Y027419D01*
X009750Y027301D01*
X009802Y027301D01*
X009755Y027348D01*
X009679Y027532D01*
X009679Y027731D01*
X009679Y027726D02*
X009679Y027726D01*
X009679Y027627D02*
X009679Y027627D01*
X009678Y027529D02*
X009681Y027529D01*
X009722Y027430D02*
X009637Y027430D01*
X009720Y027332D02*
X009772Y027332D01*
X009802Y026961D02*
X009755Y026915D01*
X009679Y026731D01*
X009603Y026915D01*
X009463Y027055D01*
X009279Y027131D01*
X009080Y027131D01*
X008896Y027055D01*
X008755Y026915D01*
X008679Y026731D01*
X008603Y026915D01*
X008463Y027055D01*
X008279Y027131D01*
X008463Y027208D01*
X008603Y027348D01*
X008679Y027532D01*
X008679Y027731D01*
X008679Y027532D01*
X008755Y027348D01*
X008896Y027208D01*
X009080Y027131D01*
X009279Y027131D01*
X009392Y027178D01*
X009509Y027061D01*
X009609Y026961D01*
X009802Y026961D01*
X009778Y026938D02*
X009580Y026938D01*
X009534Y027036D02*
X009482Y027036D01*
X009436Y027135D02*
X009286Y027135D01*
X009073Y027135D02*
X008286Y027135D01*
X008279Y027131D02*
X008080Y027131D01*
X007896Y027055D01*
X007755Y026915D01*
X007679Y026731D01*
X007603Y026915D01*
X007463Y027055D01*
X007298Y027124D01*
X007301Y027124D01*
X007379Y027150D01*
X007452Y027187D01*
X007518Y027235D01*
X007576Y027293D01*
X007624Y027359D01*
X007661Y027432D01*
X007687Y027510D01*
X007687Y027513D01*
X007755Y027348D01*
X007896Y027208D01*
X008080Y027131D01*
X008279Y027131D01*
X008073Y027135D02*
X007333Y027135D01*
X007482Y027036D02*
X007877Y027036D01*
X007778Y026938D02*
X007580Y026938D01*
X007635Y026839D02*
X007724Y026839D01*
X007683Y026741D02*
X007675Y026741D01*
X007679Y026731D02*
X007679Y026532D01*
X007632Y026419D01*
X007750Y026301D01*
X007849Y026202D01*
X007849Y026023D01*
X007890Y026064D01*
X008067Y026137D01*
X007896Y026208D01*
X007755Y026348D01*
X007679Y026532D01*
X007679Y026731D01*
X007679Y026642D02*
X007679Y026642D01*
X007679Y026544D02*
X007679Y026544D01*
X007643Y026445D02*
X007715Y026445D01*
X007705Y026347D02*
X007757Y026347D01*
X007803Y026248D02*
X007856Y026248D01*
X007849Y026150D02*
X008036Y026150D01*
X007878Y026051D02*
X007849Y026051D01*
X008632Y026419D02*
X008679Y026532D01*
X008679Y026731D01*
X008679Y026532D01*
X008755Y026348D01*
X008802Y026301D01*
X008750Y026301D01*
X008632Y026419D01*
X008643Y026445D02*
X008715Y026445D01*
X008705Y026347D02*
X008757Y026347D01*
X008679Y026544D02*
X008679Y026544D01*
X008679Y026642D02*
X008679Y026642D01*
X008675Y026741D02*
X008683Y026741D01*
X008724Y026839D02*
X008635Y026839D01*
X008580Y026938D02*
X008778Y026938D01*
X008877Y027036D02*
X008482Y027036D01*
X008488Y027233D02*
X008871Y027233D01*
X008772Y027332D02*
X008587Y027332D01*
X008637Y027430D02*
X008722Y027430D01*
X008681Y027529D02*
X008678Y027529D01*
X008679Y027627D02*
X008679Y027627D01*
X008679Y027726D02*
X008679Y027726D01*
X008641Y027824D02*
X008718Y027824D01*
X008763Y027923D02*
X008595Y027923D01*
X008497Y028021D02*
X008862Y028021D01*
X009051Y028120D02*
X008308Y028120D01*
X008051Y028120D02*
X007360Y028120D01*
X007229Y028120D02*
X007129Y028120D01*
X007129Y028021D02*
X007229Y028021D01*
X007229Y027923D02*
X007129Y027923D01*
X007129Y027824D02*
X007229Y027824D01*
X007229Y027726D02*
X007129Y027726D01*
X006999Y028120D02*
X006308Y028120D01*
X006497Y028021D02*
X006834Y028021D01*
X006748Y027923D02*
X006595Y027923D01*
X006641Y027824D02*
X006695Y027824D01*
X006051Y028120D02*
X005308Y028120D01*
X005497Y028021D02*
X005862Y028021D01*
X005763Y027923D02*
X005595Y027923D01*
X005641Y027824D02*
X005718Y027824D01*
X005679Y027731D02*
X005679Y027532D01*
X005632Y027419D01*
X005750Y027301D01*
X005802Y027301D01*
X005755Y027348D01*
X005679Y027532D01*
X005679Y027731D01*
X005679Y027726D02*
X005679Y027726D01*
X005679Y027627D02*
X005679Y027627D01*
X005678Y027529D02*
X005681Y027529D01*
X005722Y027430D02*
X005637Y027430D01*
X005720Y027332D02*
X005772Y027332D01*
X005802Y026961D02*
X005609Y026961D01*
X005509Y027061D01*
X005392Y027178D01*
X005279Y027131D01*
X005080Y027131D01*
X004896Y027208D01*
X004755Y027348D01*
X004679Y027532D01*
X004679Y027731D01*
X004679Y027532D01*
X004632Y027419D01*
X005750Y026301D01*
X005750Y026301D01*
X005849Y026202D01*
X005849Y026023D01*
X005890Y026064D01*
X006067Y026137D01*
X005896Y026208D01*
X005755Y026348D01*
X005679Y026532D01*
X005679Y026731D01*
X005755Y026915D01*
X005802Y026961D01*
X005778Y026938D02*
X005114Y026938D01*
X005015Y027036D02*
X005534Y027036D01*
X005436Y027135D02*
X005286Y027135D01*
X005073Y027135D02*
X004917Y027135D01*
X004871Y027233D02*
X004818Y027233D01*
X004772Y027332D02*
X004720Y027332D01*
X004722Y027430D02*
X004637Y027430D01*
X004678Y027529D02*
X004681Y027529D01*
X004679Y027627D02*
X004679Y027627D01*
X004679Y027726D02*
X004679Y027726D01*
X004641Y027824D02*
X004718Y027824D01*
X004763Y027923D02*
X004595Y027923D01*
X004497Y028021D02*
X004862Y028021D01*
X005051Y028120D02*
X004308Y028120D01*
X004830Y026741D02*
X001686Y026741D01*
X001689Y026642D02*
X004928Y026642D01*
X005027Y026544D02*
X001689Y026544D01*
X001654Y026445D02*
X005125Y026445D01*
X005224Y026347D02*
X001613Y026347D01*
X001517Y026248D02*
X005322Y026248D01*
X005421Y026150D02*
X001349Y026150D01*
X001481Y026051D02*
X001878Y026051D01*
X001779Y025953D02*
X001580Y025953D01*
X001639Y025854D02*
X001720Y025854D01*
X002481Y026051D02*
X002878Y026051D01*
X002779Y025953D02*
X002580Y025953D01*
X002639Y025854D02*
X002720Y025854D01*
X003481Y026051D02*
X003878Y026051D01*
X003779Y025953D02*
X003580Y025953D01*
X003639Y025854D02*
X003720Y025854D01*
X004481Y026051D02*
X004878Y026051D01*
X004779Y025953D02*
X004580Y025953D01*
X004639Y025854D02*
X004720Y025854D01*
X005481Y026051D02*
X005509Y026051D01*
X005849Y026051D02*
X005878Y026051D01*
X005849Y026150D02*
X006036Y026150D01*
X005856Y026248D02*
X005803Y026248D01*
X005757Y026347D02*
X005705Y026347D01*
X005715Y026445D02*
X005606Y026445D01*
X005679Y026544D02*
X005508Y026544D01*
X005409Y026642D02*
X005679Y026642D01*
X005683Y026741D02*
X005311Y026741D01*
X005212Y026839D02*
X005724Y026839D01*
X007516Y027233D02*
X007871Y027233D01*
X007772Y027332D02*
X007604Y027332D01*
X007660Y027430D02*
X007722Y027430D01*
X007718Y027824D02*
X007664Y027824D01*
X007611Y027923D02*
X007763Y027923D01*
X007862Y028021D02*
X007525Y028021D01*
X009635Y026839D02*
X009724Y026839D01*
X009683Y026741D02*
X009675Y026741D01*
X009679Y026731D02*
X009679Y026532D01*
X009603Y026348D01*
X009556Y026301D01*
X009802Y026301D01*
X009755Y026348D01*
X009679Y026532D01*
X009679Y026731D01*
X009679Y026642D02*
X009679Y026642D01*
X009679Y026544D02*
X009679Y026544D01*
X009643Y026445D02*
X009715Y026445D01*
X009757Y026347D02*
X009602Y026347D01*
X013465Y022210D02*
X013559Y022210D01*
X013559Y022111D02*
X013407Y022111D01*
X013505Y022013D02*
X013559Y022013D01*
X016886Y022131D02*
X016913Y022105D01*
X017009Y022202D01*
X017109Y022301D01*
X017302Y022301D01*
X017179Y022424D01*
X017179Y022839D01*
X017153Y022865D01*
X017250Y022961D01*
X017302Y022961D01*
X017179Y022839D01*
X017179Y022424D01*
X016886Y022131D01*
X016907Y022111D02*
X016918Y022111D01*
X016965Y022210D02*
X017017Y022210D01*
X017063Y022308D02*
X017296Y022308D01*
X017197Y022407D02*
X017162Y022407D01*
X017179Y022505D02*
X017179Y022505D01*
X017179Y022604D02*
X017179Y022604D01*
X017179Y022702D02*
X017179Y022702D01*
X017179Y022801D02*
X017179Y022801D01*
X017187Y022899D02*
X017240Y022899D01*
X017002Y023195D02*
X016950Y023195D01*
X017009Y023202D02*
X016913Y023105D01*
X016886Y023131D01*
X017179Y023424D01*
X017179Y023839D01*
X017056Y023961D01*
X017302Y023961D01*
X017179Y023839D01*
X017179Y023424D01*
X017302Y023301D01*
X017109Y023301D01*
X017009Y023202D01*
X017009Y023202D01*
X017048Y023293D02*
X017100Y023293D01*
X017147Y023392D02*
X017212Y023392D01*
X017179Y023490D02*
X017179Y023490D01*
X017179Y023589D02*
X017179Y023589D01*
X017179Y023687D02*
X017179Y023687D01*
X017179Y023786D02*
X017179Y023786D01*
X017134Y023884D02*
X017225Y023884D01*
X019233Y023195D02*
X019909Y023195D01*
X019811Y023293D02*
X019331Y023293D01*
X019430Y023392D02*
X019712Y023392D01*
X019679Y023490D02*
X019528Y023490D01*
X019627Y023589D02*
X019679Y023589D01*
X017255Y021914D02*
X017202Y021914D01*
X017179Y021816D02*
X017179Y021816D01*
X017179Y021717D02*
X017179Y021717D01*
X017179Y021619D02*
X017179Y021619D01*
X017179Y021520D02*
X017179Y021520D01*
X017177Y021422D02*
X017182Y021422D01*
X017281Y021323D02*
X017078Y021323D01*
X016980Y021225D02*
X017379Y021225D01*
X013566Y018959D02*
X013377Y018959D01*
X010129Y018681D02*
X010129Y018581D01*
X009229Y018581D01*
X009229Y018681D01*
X009604Y018681D01*
X010129Y018681D01*
X010129Y018664D02*
X009229Y018664D01*
X009229Y018565D02*
X009129Y018565D01*
X009129Y018467D02*
X009229Y018467D01*
X009229Y018368D02*
X009129Y018368D01*
X009129Y018270D02*
X009229Y018270D01*
X009229Y018171D02*
X009129Y018171D01*
X009129Y018073D02*
X009229Y018073D01*
X009434Y018073D02*
X009925Y018073D01*
X009827Y018171D02*
X009532Y018171D01*
X009631Y018270D02*
X009728Y018270D01*
X008925Y018073D02*
X007789Y018073D01*
X007789Y018171D02*
X007855Y018171D01*
X008504Y018171D02*
X008827Y018171D01*
X008728Y018270D02*
X008602Y018270D01*
X007069Y016792D02*
X007047Y016792D01*
X007069Y016694D02*
X006858Y016694D01*
X007069Y016595D02*
X004889Y016595D01*
X006299Y015216D02*
X002087Y015216D01*
X002087Y015118D02*
X006307Y015118D01*
X006299Y015019D02*
X002087Y015019D01*
X002087Y014921D02*
X006299Y014921D01*
X006299Y014822D02*
X002055Y014822D01*
X002942Y014141D02*
X002942Y014141D01*
X003125Y014133D02*
X003309Y014133D01*
X003224Y014034D02*
X003404Y014034D01*
X003322Y013936D02*
X003502Y013936D01*
X003857Y013936D02*
X004036Y013936D01*
X003955Y014034D02*
X004135Y014034D01*
X004049Y014133D02*
X004233Y014133D01*
X004309Y014231D02*
X004049Y014231D01*
X004049Y014330D02*
X004309Y014330D01*
X004309Y014428D02*
X004049Y014428D01*
X003958Y014527D02*
X004401Y014527D01*
X004500Y014625D02*
X003859Y014625D01*
X003500Y014625D02*
X000889Y014625D01*
X000889Y013049D02*
X001070Y013049D01*
X001027Y012951D02*
X000889Y012951D01*
X000889Y012852D02*
X001027Y012852D01*
X001027Y012754D02*
X000889Y012754D01*
X000889Y012655D02*
X001027Y012655D01*
X001027Y012557D02*
X000889Y012557D01*
X000889Y012458D02*
X001027Y012458D01*
X001027Y012360D02*
X000889Y012360D01*
X000889Y012261D02*
X001027Y012261D01*
X001027Y012163D02*
X000889Y012163D01*
X000889Y012064D02*
X001062Y012064D01*
X000889Y011966D02*
X003472Y011966D01*
X003774Y011079D02*
X006475Y011079D01*
X006475Y010981D02*
X003675Y010981D01*
X003898Y010587D02*
X004461Y010587D01*
X004363Y010488D02*
X003996Y010488D01*
X004049Y010390D02*
X004309Y010390D01*
X004309Y010291D02*
X004049Y010291D01*
X004049Y010193D02*
X004293Y010193D01*
X004195Y010094D02*
X004015Y010094D01*
X004096Y009996D02*
X003917Y009996D01*
X003998Y009897D02*
X002087Y009897D01*
X002087Y009799D02*
X003899Y009799D01*
X004198Y009503D02*
X007219Y009503D01*
X007219Y009405D02*
X004099Y009405D01*
X004001Y009306D02*
X007219Y009306D01*
X007306Y009208D02*
X003902Y009208D01*
X003804Y009109D02*
X007405Y009109D01*
X007503Y009010D02*
X003705Y009010D01*
X003607Y008912D02*
X007602Y008912D01*
X007802Y009306D02*
X008107Y009306D01*
X008205Y009405D02*
X007974Y009405D01*
X008063Y009503D02*
X008304Y009503D01*
X008402Y009602D02*
X008094Y009602D01*
X008088Y009700D02*
X008419Y009700D01*
X008419Y009799D02*
X008037Y009799D01*
X007799Y009897D02*
X008419Y009897D01*
X008419Y009996D02*
X007799Y009996D01*
X007799Y010094D02*
X008419Y010094D01*
X008419Y010193D02*
X007799Y010193D01*
X007799Y010291D02*
X008419Y010291D01*
X008419Y010390D02*
X007799Y010390D01*
X007799Y010488D02*
X008419Y010488D01*
X008437Y010587D02*
X007799Y010587D01*
X007799Y010685D02*
X007951Y010685D01*
X007820Y010784D02*
X007799Y010784D01*
X008408Y010685D02*
X008536Y010685D01*
X008538Y010784D02*
X008634Y010784D01*
X008617Y010882D02*
X008733Y010882D01*
X010117Y010882D02*
X010242Y010882D01*
X010201Y010784D02*
X010158Y010784D01*
X010179Y010685D02*
X010179Y010685D01*
X010179Y010587D02*
X010179Y010587D01*
X010161Y010488D02*
X010198Y010488D01*
X010238Y010390D02*
X010120Y010390D01*
X010046Y010291D02*
X010313Y010291D01*
X009526Y009109D02*
X008504Y009109D01*
X008405Y009010D02*
X009351Y009010D01*
X009254Y008912D02*
X008307Y008912D01*
X007219Y009602D02*
X004296Y009602D01*
X004395Y009700D02*
X007219Y009700D01*
X007219Y009799D02*
X004493Y009799D01*
X004592Y009897D02*
X007219Y009897D01*
X007219Y009996D02*
X006963Y009996D01*
X007149Y010094D02*
X007219Y010094D01*
X006696Y009996D02*
X004917Y009996D01*
X005015Y010094D02*
X006510Y010094D01*
X006411Y010193D02*
X005049Y010193D01*
X005049Y010291D02*
X006367Y010291D01*
X006329Y010390D02*
X005049Y010390D01*
X004996Y010488D02*
X006329Y010488D01*
X006332Y010587D02*
X004898Y010587D01*
X006372Y010685D02*
X001760Y010685D01*
X001916Y010784D02*
X006424Y010784D01*
X006501Y010882D02*
X002010Y010882D01*
X001355Y010685D02*
X000889Y010685D01*
X000889Y010784D02*
X001199Y010784D01*
X001105Y010882D02*
X000889Y010882D01*
X000889Y011473D02*
X001107Y011473D01*
X001204Y011572D02*
X000889Y011572D01*
X000889Y011670D02*
X001368Y011670D01*
X003508Y008813D02*
X009214Y008813D01*
X009179Y008715D02*
X003410Y008715D01*
X003311Y008616D02*
X009179Y008616D01*
X009185Y008518D02*
X003213Y008518D01*
X003114Y008419D02*
X009226Y008419D01*
X009283Y008321D02*
X003016Y008321D01*
X003027Y008332D02*
X003027Y008332D01*
X002917Y008222D02*
X009381Y008222D01*
X011977Y008222D02*
X012358Y008222D01*
X012262Y008321D02*
X012076Y008321D01*
X012133Y008419D02*
X012204Y008419D01*
X012629Y008419D02*
X012729Y008419D01*
X012729Y008321D02*
X012629Y008321D01*
X012629Y008222D02*
X012729Y008222D01*
X013001Y008222D02*
X013358Y008222D01*
X013262Y008321D02*
X013097Y008321D01*
X013155Y008419D02*
X013204Y008419D01*
X013161Y008581D02*
X012729Y008581D01*
X012729Y008681D01*
X013629Y008681D01*
X013629Y008581D01*
X013161Y008581D01*
X013167Y008813D02*
X013192Y008813D01*
X013240Y008912D02*
X013118Y008912D01*
X013036Y009010D02*
X013323Y009010D01*
X013471Y009109D02*
X012888Y009109D01*
X012729Y009109D02*
X012629Y009109D01*
X012629Y009010D02*
X012729Y009010D01*
X012729Y008912D02*
X012629Y008912D01*
X012629Y008813D02*
X012729Y008813D01*
X012729Y008715D02*
X012629Y008715D01*
X012729Y008616D02*
X013629Y008616D01*
X013629Y008518D02*
X013729Y008518D01*
X013729Y008419D02*
X013629Y008419D01*
X013629Y008321D02*
X013729Y008321D01*
X013729Y008222D02*
X013629Y008222D01*
X014001Y008222D02*
X014381Y008222D01*
X014283Y008321D02*
X014097Y008321D01*
X014155Y008419D02*
X014226Y008419D01*
X013729Y008715D02*
X013629Y008715D01*
X013629Y008813D02*
X013729Y008813D01*
X013729Y008912D02*
X013629Y008912D01*
X013629Y009010D02*
X013729Y009010D01*
X013729Y009109D02*
X013629Y009109D01*
X013888Y009109D02*
X014526Y009109D01*
X014351Y009010D02*
X014036Y009010D01*
X014118Y008912D02*
X014254Y008912D01*
X014214Y008813D02*
X014167Y008813D01*
X015173Y009897D02*
X012970Y009897D01*
X013031Y009996D02*
X015075Y009996D01*
X014976Y010094D02*
X013044Y010094D01*
X013020Y010193D02*
X013433Y010193D01*
X013313Y010291D02*
X012945Y010291D01*
X013007Y010390D02*
X013238Y010390D01*
X013198Y010488D02*
X013044Y010488D01*
X013075Y010587D02*
X013179Y010587D01*
X013173Y010685D02*
X013179Y010685D01*
X013926Y010193D02*
X014433Y010193D01*
X014313Y010291D02*
X014046Y010291D01*
X014120Y010390D02*
X014238Y010390D01*
X014198Y010488D02*
X014161Y010488D01*
X014179Y010587D02*
X014179Y010587D01*
X014179Y010685D02*
X014179Y010685D01*
X014158Y010784D02*
X014201Y010784D01*
X014242Y010882D02*
X014117Y010882D01*
X014037Y010981D02*
X014321Y010981D01*
X015158Y010784D02*
X015187Y010784D01*
X015179Y010685D02*
X015285Y010685D01*
X015384Y010587D02*
X015179Y010587D01*
X015161Y010488D02*
X015482Y010488D01*
X015581Y010390D02*
X015162Y010390D01*
X015457Y010094D02*
X016489Y010094D01*
X016336Y009996D02*
X015556Y009996D01*
X015654Y009897D02*
X016248Y009897D01*
X016207Y009799D02*
X015753Y009799D01*
X015750Y009801D02*
X015750Y009801D01*
X015849Y009700D02*
X016179Y009700D01*
X016179Y009602D02*
X015849Y009602D01*
X015849Y009503D02*
X016191Y009503D01*
X016232Y009405D02*
X015849Y009405D01*
X015849Y009306D02*
X016298Y009306D01*
X016396Y009208D02*
X015849Y009208D01*
X015849Y009109D02*
X016526Y009109D01*
X016580Y009131D02*
X016779Y009131D01*
X016963Y009208D01*
X017103Y009348D01*
X017179Y009532D01*
X017179Y009731D01*
X017179Y009532D01*
X017255Y009348D01*
X017396Y009208D01*
X017580Y009131D01*
X017396Y009055D01*
X017255Y008915D01*
X017179Y008731D01*
X017103Y008915D01*
X016963Y009055D01*
X016779Y009131D01*
X016580Y009131D01*
X016833Y009109D02*
X017526Y009109D01*
X017580Y009131D02*
X017779Y009131D01*
X017963Y009208D01*
X018103Y009348D01*
X018179Y009532D01*
X018179Y009731D01*
X018179Y009532D01*
X018255Y009348D01*
X018396Y009208D01*
X018580Y009131D01*
X018396Y009055D01*
X018255Y008915D01*
X018179Y008731D01*
X018103Y008915D01*
X017963Y009055D01*
X017779Y009131D01*
X017580Y009131D01*
X017396Y009208D02*
X016962Y009208D01*
X017061Y009306D02*
X017298Y009306D01*
X017232Y009405D02*
X017127Y009405D01*
X017167Y009503D02*
X017191Y009503D01*
X017179Y009602D02*
X017179Y009602D01*
X017179Y009700D02*
X017179Y009700D01*
X017151Y009799D02*
X017207Y009799D01*
X017248Y009897D02*
X017111Y009897D01*
X017022Y009996D02*
X017336Y009996D01*
X017489Y010094D02*
X016869Y010094D01*
X016770Y010685D02*
X017292Y010685D01*
X017359Y010784D02*
X016829Y010784D01*
X016859Y010882D02*
X017349Y010882D01*
X017359Y010981D02*
X016859Y010981D01*
X016830Y011079D02*
X017400Y011079D01*
X017488Y011178D02*
X016771Y011178D01*
X017869Y010094D02*
X018489Y010094D01*
X018336Y009996D02*
X018022Y009996D01*
X018111Y009897D02*
X018248Y009897D01*
X018207Y009799D02*
X018151Y009799D01*
X018179Y009700D02*
X018179Y009700D01*
X018179Y009602D02*
X018179Y009602D01*
X018167Y009503D02*
X018191Y009503D01*
X018232Y009405D02*
X018127Y009405D01*
X018061Y009306D02*
X018298Y009306D01*
X018396Y009208D02*
X017962Y009208D01*
X017833Y009109D02*
X018526Y009109D01*
X018580Y009131D02*
X018779Y009131D01*
X018963Y009208D01*
X019103Y009348D01*
X019179Y009532D01*
X019179Y009731D01*
X019179Y009532D01*
X019255Y009348D01*
X019396Y009208D01*
X019580Y009131D01*
X019396Y009055D01*
X019255Y008915D01*
X019179Y008731D01*
X019103Y008915D01*
X018963Y009055D01*
X018779Y009131D01*
X018580Y009131D01*
X018833Y009109D02*
X019526Y009109D01*
X019580Y009131D02*
X019779Y009131D01*
X019963Y009208D01*
X020103Y009348D01*
X020179Y009532D01*
X020179Y009731D01*
X020179Y009532D01*
X020255Y009348D01*
X020396Y009208D01*
X020580Y009131D01*
X020396Y009055D01*
X020255Y008915D01*
X020179Y008731D01*
X020103Y008915D01*
X019963Y009055D01*
X019779Y009131D01*
X019580Y009131D01*
X019396Y009208D02*
X018962Y009208D01*
X019061Y009306D02*
X019298Y009306D01*
X019232Y009405D02*
X019127Y009405D01*
X019167Y009503D02*
X019191Y009503D01*
X019179Y009602D02*
X019179Y009602D01*
X019179Y009700D02*
X019179Y009700D01*
X019151Y009799D02*
X019207Y009799D01*
X019248Y009897D02*
X019111Y009897D01*
X019022Y009996D02*
X019336Y009996D01*
X019489Y010094D02*
X018869Y010094D01*
X019869Y010094D02*
X020489Y010094D01*
X020336Y009996D02*
X020022Y009996D01*
X020111Y009897D02*
X020248Y009897D01*
X020207Y009799D02*
X020151Y009799D01*
X020179Y009700D02*
X020179Y009700D01*
X020179Y009602D02*
X020179Y009602D01*
X020167Y009503D02*
X020191Y009503D01*
X020232Y009405D02*
X020127Y009405D01*
X020061Y009306D02*
X020298Y009306D01*
X020396Y009208D02*
X019962Y009208D01*
X019833Y009109D02*
X020526Y009109D01*
X020580Y009131D02*
X020779Y009131D01*
X020580Y009131D01*
X020833Y009109D02*
X021526Y009109D01*
X021396Y009208D02*
X020962Y009208D01*
X021061Y009306D02*
X021298Y009306D01*
X021232Y009405D02*
X021127Y009405D01*
X021167Y009503D02*
X021191Y009503D01*
X021179Y009602D02*
X021179Y009602D01*
X021179Y009700D02*
X021179Y009700D01*
X021151Y009799D02*
X021207Y009799D01*
X021248Y009897D02*
X021111Y009897D01*
X021022Y009996D02*
X021336Y009996D01*
X021489Y010094D02*
X020869Y010094D01*
X021863Y010882D02*
X019770Y010882D01*
X019944Y011178D02*
X022023Y011178D01*
X022122Y011276D02*
X019906Y011276D01*
X019452Y011276D02*
X019394Y011276D01*
X019373Y011178D02*
X019414Y011178D01*
X019351Y009010D02*
X019007Y009010D01*
X019104Y008912D02*
X019254Y008912D01*
X019214Y008813D02*
X019145Y008813D01*
X019179Y008731D02*
X019179Y008532D01*
X019103Y008348D01*
X019056Y008301D01*
X019302Y008301D01*
X019255Y008348D01*
X019179Y008532D01*
X019179Y008731D01*
X019179Y008715D02*
X019179Y008715D01*
X019179Y008616D02*
X019179Y008616D01*
X019174Y008518D02*
X019185Y008518D01*
X019226Y008419D02*
X019133Y008419D01*
X019076Y008321D02*
X019283Y008321D01*
X020056Y008301D02*
X020103Y008348D01*
X020179Y008532D01*
X020179Y008731D01*
X020179Y008532D01*
X020255Y008348D01*
X020302Y008301D01*
X020056Y008301D01*
X020076Y008321D02*
X020283Y008321D01*
X020226Y008419D02*
X020133Y008419D01*
X020174Y008518D02*
X020185Y008518D01*
X020179Y008616D02*
X020179Y008616D01*
X020179Y008715D02*
X020179Y008715D01*
X020145Y008813D02*
X020214Y008813D01*
X020254Y008912D02*
X020104Y008912D01*
X020007Y009010D02*
X020351Y009010D01*
X021007Y009010D02*
X021351Y009010D01*
X021254Y008912D02*
X021104Y008912D01*
X021145Y008813D02*
X021214Y008813D01*
X021179Y008731D02*
X021179Y008532D01*
X021179Y008731D01*
X021179Y008715D02*
X021179Y008715D01*
X021179Y008616D02*
X021179Y008616D01*
X021179Y008532D02*
X021103Y008348D01*
X021056Y008301D01*
X021109Y008301D01*
X021226Y008419D01*
X021179Y008532D01*
X021174Y008518D02*
X021185Y008518D01*
X021226Y008419D02*
X021133Y008419D01*
X021128Y008321D02*
X021076Y008321D01*
X018302Y008301D02*
X018056Y008301D01*
X018103Y008348D01*
X018179Y008532D01*
X018179Y008731D01*
X018179Y008532D01*
X018255Y008348D01*
X018302Y008301D01*
X018283Y008321D02*
X018076Y008321D01*
X018133Y008419D02*
X018226Y008419D01*
X018185Y008518D02*
X018174Y008518D01*
X018179Y008616D02*
X018179Y008616D01*
X018179Y008715D02*
X018179Y008715D01*
X018145Y008813D02*
X018214Y008813D01*
X018254Y008912D02*
X018104Y008912D01*
X018007Y009010D02*
X018351Y009010D01*
X017351Y009010D02*
X017007Y009010D01*
X017104Y008912D02*
X017254Y008912D01*
X017214Y008813D02*
X017145Y008813D01*
X017179Y008731D02*
X017179Y008532D01*
X017103Y008348D01*
X017056Y008301D01*
X017302Y008301D01*
X017255Y008348D01*
X017179Y008532D01*
X017179Y008731D01*
X017179Y008715D02*
X017179Y008715D01*
X017179Y008616D02*
X017179Y008616D01*
X017174Y008518D02*
X017185Y008518D01*
X017226Y008419D02*
X017133Y008419D01*
X017076Y008321D02*
X017283Y008321D01*
X016351Y009010D02*
X015849Y009010D01*
X015849Y008912D02*
X016254Y008912D01*
X016214Y008813D02*
X015849Y008813D01*
X015849Y008715D02*
X016179Y008715D01*
X016179Y008616D02*
X015935Y008616D01*
X016033Y008518D02*
X016185Y008518D01*
X016226Y008419D02*
X016132Y008419D01*
X016230Y008321D02*
X016283Y008321D01*
X016045Y008025D02*
X001913Y008025D01*
X006880Y013081D02*
X006880Y013381D01*
X009195Y012557D02*
X009980Y012557D01*
X009924Y012655D02*
X009836Y012655D01*
X011889Y009109D02*
X012471Y009109D01*
X012323Y009010D02*
X012007Y009010D01*
X012104Y008912D02*
X012240Y008912D01*
X012192Y008813D02*
X012145Y008813D01*
X012629Y008518D02*
X012729Y008518D01*
X002676Y017777D02*
X002087Y017777D01*
X002087Y017876D02*
X002624Y017876D01*
X002624Y017974D02*
X002087Y017974D01*
X002087Y018073D02*
X002624Y018073D01*
X002671Y018171D02*
X002087Y018171D01*
X002087Y018270D02*
X002616Y018270D01*
X002636Y018368D02*
X002087Y018368D01*
X002087Y018467D02*
X002744Y018467D01*
X002891Y018565D02*
X002041Y018565D01*
X005419Y019058D02*
X005969Y019058D01*
X005870Y019156D02*
X005517Y019156D01*
X005616Y019255D02*
X005771Y019255D01*
X003880Y022210D02*
X003479Y022210D01*
X003577Y022308D02*
X003782Y022308D01*
X003721Y022407D02*
X003638Y022407D01*
X003679Y022505D02*
X003680Y022505D01*
X002880Y022210D02*
X002479Y022210D01*
X002577Y022308D02*
X002782Y022308D01*
X002721Y022407D02*
X002638Y022407D01*
X002679Y022505D02*
X002680Y022505D01*
X001880Y022210D02*
X001479Y022210D01*
X001577Y022308D02*
X001782Y022308D01*
X001721Y022407D02*
X001638Y022407D01*
X001679Y022505D02*
X001680Y022505D01*
D18*
X006012Y017731D03*
X006012Y017331D03*
X006679Y015331D03*
X006679Y014931D03*
X006880Y013431D03*
X006880Y013031D03*
X006855Y011487D03*
X006855Y011087D03*
D19*
X014329Y014031D03*
X014679Y013481D03*
X014679Y014631D03*
X016079Y014431D03*
X017379Y014331D03*
X018379Y014631D03*
X019479Y015081D03*
X019029Y015781D03*
X018329Y015781D03*
X017179Y016631D03*
X016179Y016731D03*
X018629Y013131D03*
X019279Y013131D03*
X020029Y013131D03*
X020779Y013131D03*
X021179Y012081D03*
X018429Y010981D03*
X017729Y010881D03*
X016779Y011581D03*
X016479Y010931D03*
X021179Y015781D03*
D20*
X020729Y016131D03*
X019479Y016131D03*
X018729Y016131D03*
X017629Y015931D03*
X018879Y015131D03*
X019479Y014481D03*
X017829Y014781D03*
X017379Y014831D03*
X016079Y014931D03*
X015329Y014481D03*
X015329Y014031D03*
X015329Y013581D03*
X015329Y012981D03*
X017429Y012781D03*
X017729Y011531D03*
X018279Y011581D03*
X018729Y011581D03*
X019129Y011281D03*
X019379Y011581D03*
X019679Y011131D03*
X020279Y011631D03*
X020129Y010281D03*
X017079Y010931D03*
X016029Y010931D03*
X012929Y011081D03*
X012779Y010531D03*
X012779Y010081D03*
X012179Y011831D03*
X012829Y011931D03*
X011629Y012281D03*
X010179Y012731D03*
X012679Y014131D03*
X012679Y015181D03*
X013329Y015281D03*
X014329Y015531D03*
X014329Y017431D03*
X012904Y017306D03*
X013179Y018781D03*
X014554Y019706D03*
X016879Y019831D03*
X016929Y019131D03*
X016629Y017981D03*
X016379Y017231D03*
X017718Y017293D03*
X018179Y017281D03*
X019179Y017881D03*
X020279Y017781D03*
X020979Y017331D03*
X021279Y019131D03*
X021679Y019131D03*
X019229Y019131D03*
X019179Y020631D03*
X016979Y020631D03*
X014879Y022081D03*
X018279Y023881D03*
X019479Y025131D03*
X021179Y025981D03*
X017179Y026231D03*
X014179Y025981D03*
X014179Y024931D03*
X013729Y024931D03*
X012679Y025981D03*
X011929Y026031D03*
X010779Y022131D03*
X006529Y017931D03*
X004679Y018131D03*
X003929Y017831D03*
X002429Y017381D03*
X002529Y016081D03*
X002829Y014431D03*
X002879Y013331D03*
X002929Y011831D03*
X005379Y012181D03*
X007079Y011881D03*
X008079Y010431D03*
X007829Y009631D03*
X007379Y007981D03*
X005229Y008931D03*
X005679Y010381D03*
X007029Y013781D03*
X007629Y014631D03*
X006679Y015681D03*
X005379Y016181D03*
X005329Y014231D03*
X009479Y016381D03*
X010679Y016081D03*
X011179Y016431D03*
X021379Y014831D03*
X021379Y013131D03*
D21*
X010179Y019631D03*
X009179Y019631D03*
X008179Y019631D03*
X007179Y019631D03*
X007179Y020631D03*
X006179Y020631D03*
X005179Y020631D03*
X004179Y020631D03*
X004179Y021631D03*
X005179Y021631D03*
X006179Y021631D03*
X007179Y021631D03*
X008179Y021631D03*
X009179Y021631D03*
X010179Y021631D03*
X010179Y022631D03*
X009179Y022631D03*
X008179Y022631D03*
X007179Y022631D03*
X006179Y022631D03*
X005179Y022631D03*
X004179Y022631D03*
X003179Y022631D03*
X002179Y022631D03*
X001179Y022631D03*
X001179Y023631D03*
X002179Y023631D03*
X003179Y023631D03*
X004179Y023631D03*
X005179Y023631D03*
X006179Y023631D03*
X007179Y023631D03*
X008179Y023631D03*
X009179Y023631D03*
X010179Y023631D03*
X010179Y024631D03*
X009179Y024631D03*
X008179Y024631D03*
X007179Y024631D03*
X006179Y024631D03*
X005179Y024631D03*
X004179Y024631D03*
X003179Y024631D03*
X002179Y024631D03*
X001179Y024631D03*
X001179Y025631D03*
X002179Y025631D03*
X003179Y025631D03*
X004179Y025631D03*
X005179Y025631D03*
X006179Y025631D03*
X007179Y025631D03*
X008179Y025631D03*
X009179Y025631D03*
X010179Y025631D03*
X010179Y020631D03*
X009179Y020631D03*
X008179Y020631D03*
X001179Y026631D03*
D22*
X006179Y019631D02*
X006179Y018781D01*
X007279Y017681D01*
X007279Y015431D01*
X007429Y015281D01*
X007429Y014981D01*
X007279Y014831D01*
X007279Y014481D01*
X007429Y014331D01*
X007429Y009381D01*
X007729Y009081D01*
X008179Y009081D01*
X008629Y009531D01*
X008629Y010481D01*
X009329Y011181D01*
X011379Y011181D01*
X011679Y010881D01*
X011679Y010631D01*
X011679Y008631D01*
X010679Y008631D02*
X009679Y009631D01*
X009679Y010631D01*
X009679Y013131D02*
X009679Y014131D01*
X009679Y015131D01*
X010679Y016081D02*
X011679Y016081D01*
X012904Y017306D01*
X013029Y017431D01*
X014329Y017431D01*
X015229Y017431D01*
X016929Y019131D01*
X019229Y019131D01*
X021279Y019131D01*
X008179Y018631D02*
X007579Y018631D01*
X007179Y018631D01*
X007579Y018631D02*
X007579Y015531D01*
X007979Y015131D01*
X008179Y015131D01*
X004679Y014281D02*
X004079Y013681D01*
X003279Y013681D01*
X003029Y013931D01*
X003029Y013931D01*
X001557Y013931D01*
X000729Y013931D01*
X000679Y013881D01*
X000679Y016631D01*
X000734Y016687D01*
X001557Y016687D01*
X004274Y016687D01*
X004679Y016281D01*
X000679Y016631D02*
X000679Y018565D01*
X001557Y019443D01*
X000679Y013881D02*
X000679Y011181D01*
X000686Y011175D01*
X001557Y011175D01*
X003573Y011175D01*
X004679Y012281D01*
X004679Y010281D02*
X002817Y008419D01*
X001557Y008419D01*
X001392Y008419D01*
X000679Y009131D01*
X000679Y011181D01*
D23*
X006779Y012431D02*
X006880Y012532D01*
X006880Y013031D01*
X006880Y013431D02*
X006880Y013632D01*
X007029Y013781D01*
X006629Y014331D02*
X006679Y014381D01*
X006679Y014931D01*
X006679Y015331D02*
X006679Y015681D01*
X007629Y014631D02*
X007629Y009781D01*
X007779Y009631D01*
X007829Y009631D01*
X006855Y010507D02*
X006829Y010481D01*
X006855Y010507D02*
X006855Y011087D01*
X006855Y011487D02*
X006855Y011657D01*
X007079Y011881D01*
X008179Y012131D02*
X008929Y011381D01*
X012429Y011381D01*
X012829Y011781D01*
X015779Y011781D01*
X017829Y013831D01*
X017829Y014631D01*
X018379Y014631D01*
X018879Y015131D02*
X018729Y015281D01*
X013329Y015281D01*
X014329Y015531D02*
X018079Y015531D01*
X018329Y015781D01*
X018179Y015931D01*
X018179Y017281D01*
X017718Y017293D02*
X017718Y017170D01*
X017179Y016631D01*
X016379Y016931D02*
X016179Y016731D01*
X016379Y016931D02*
X016379Y017231D01*
X018729Y016131D02*
X018729Y016081D01*
X019029Y015781D01*
X019479Y016131D02*
X019479Y015081D01*
X019479Y014981D01*
X018679Y014181D01*
X018429Y014181D01*
X015829Y011581D01*
X012879Y011581D01*
X012479Y011181D01*
X012479Y010381D01*
X012779Y010081D01*
X012779Y010531D02*
X013429Y011181D01*
X015029Y011181D01*
X015729Y010481D01*
X017329Y010481D01*
X017729Y010881D01*
X017729Y011531D01*
X017729Y012981D01*
X018479Y013731D01*
X020029Y013731D01*
X020379Y014081D01*
X020379Y017681D01*
X020279Y017781D01*
X020229Y017381D02*
X019729Y017881D01*
X019179Y017881D01*
X020229Y017381D02*
X020229Y014181D01*
X019929Y013881D01*
X018379Y013881D01*
X017279Y012781D01*
X017429Y012781D01*
X017279Y012781D02*
X016779Y012281D01*
X016779Y011581D01*
X016779Y011381D01*
X013229Y011381D01*
X012929Y011081D01*
X012279Y011531D02*
X012529Y011781D01*
X012529Y012081D01*
X012629Y012181D01*
X015829Y012181D01*
X017379Y013731D01*
X017379Y014331D01*
X017379Y014831D01*
X017829Y014781D02*
X017829Y014631D01*
X016079Y014431D02*
X016079Y014931D01*
X015329Y014481D02*
X015179Y014631D01*
X014679Y014631D01*
X014329Y014031D02*
X015329Y014031D01*
X015329Y013581D02*
X014779Y013581D01*
X014679Y013481D01*
X012829Y011931D02*
X012829Y011781D01*
X012279Y011531D02*
X009629Y011531D01*
X008179Y012981D01*
X008179Y013131D01*
X008679Y012831D02*
X009679Y011831D01*
X012179Y011831D01*
X010179Y012731D02*
X010179Y016631D01*
X012329Y018781D01*
X013179Y018781D01*
X013629Y018781D01*
X014554Y019706D01*
X015479Y020631D01*
X016979Y020631D01*
X019179Y020631D01*
X020179Y021631D02*
X020679Y022131D01*
X021429Y022131D01*
X021779Y022481D01*
X021779Y025381D01*
X021179Y025981D01*
X021179Y026381D02*
X020679Y025881D01*
X020679Y024231D01*
X020579Y024131D01*
X019929Y024131D01*
X017929Y022131D01*
X017179Y022131D01*
X016679Y021631D01*
X016679Y022631D02*
X017179Y023131D01*
X017879Y023131D01*
X018179Y023431D01*
X018179Y023781D01*
X018279Y023881D01*
X019679Y024131D02*
X020179Y024631D01*
X019679Y024131D02*
X016329Y024131D01*
X016079Y024381D01*
X016079Y024831D01*
X015579Y025331D01*
X011429Y025331D01*
X011229Y025131D01*
X007829Y025131D01*
X007679Y025281D01*
X007679Y026131D01*
X007179Y026631D01*
X006679Y026931D02*
X006679Y025381D01*
X006929Y025131D01*
X007479Y025131D01*
X007679Y024931D01*
X007679Y024331D01*
X007879Y024131D01*
X010979Y024131D01*
X011479Y023631D01*
X012179Y023631D01*
X011629Y023181D02*
X011629Y022881D01*
X011379Y023131D01*
X007929Y023131D01*
X007679Y023381D01*
X007679Y023931D01*
X007479Y024131D01*
X006929Y024131D01*
X006679Y024381D01*
X006679Y024931D01*
X006479Y025131D01*
X005929Y025131D01*
X005679Y025381D01*
X005679Y026131D01*
X004179Y027631D01*
X005179Y027631D02*
X005679Y027131D01*
X006479Y027131D01*
X006679Y026931D01*
X008179Y026631D02*
X008679Y026131D01*
X010879Y026131D01*
X011529Y025481D01*
X015829Y025481D01*
X016679Y024631D01*
X016379Y025231D02*
X015929Y025681D01*
X011879Y025681D01*
X011679Y025881D01*
X011679Y026931D01*
X011479Y027131D01*
X009679Y027131D01*
X009179Y027631D01*
X010179Y027631D02*
X010679Y028131D01*
X016979Y028131D01*
X017179Y027931D01*
X017179Y026231D01*
X017879Y025981D02*
X018179Y026281D01*
X018179Y027131D01*
X018679Y027631D01*
X017879Y025981D02*
X014179Y025981D01*
X013679Y026381D02*
X013679Y026981D01*
X013829Y027131D01*
X016179Y027131D01*
X016679Y027631D01*
X013679Y026381D02*
X013279Y025981D01*
X012679Y025981D01*
X012329Y026031D02*
X012679Y026381D01*
X012679Y027131D01*
X012179Y027631D01*
X012329Y026031D02*
X011929Y026031D01*
X012979Y025181D02*
X013479Y025181D01*
X013729Y024931D01*
X013729Y024481D02*
X014179Y024931D01*
X013729Y024481D02*
X013729Y021431D01*
X013429Y021131D01*
X012679Y021131D01*
X012179Y020631D01*
X011479Y020581D02*
X012179Y019881D01*
X012179Y019631D01*
X011479Y020581D02*
X011479Y021431D01*
X010779Y022131D01*
X011629Y023181D02*
X012179Y022631D01*
X012679Y022131D02*
X012679Y024881D01*
X012979Y025181D01*
X016379Y025231D02*
X019379Y025231D01*
X019479Y025131D01*
X021179Y026381D02*
X021179Y027131D01*
X021679Y027631D01*
X012679Y022131D02*
X012179Y021631D01*
X006529Y017931D02*
X006479Y017981D01*
X006079Y017981D01*
X006012Y017914D01*
X006012Y017731D01*
X006012Y017331D02*
X006580Y017331D01*
X006729Y017181D01*
X008179Y016131D02*
X008679Y015631D01*
X008679Y012831D01*
X014679Y010631D02*
X015679Y009631D01*
X015679Y008631D01*
X016179Y008131D01*
X021179Y008131D01*
X021679Y008631D01*
X019679Y011131D02*
X019679Y011981D01*
X020429Y012731D01*
X020429Y013381D01*
X020679Y013631D01*
X020679Y016081D01*
X020729Y016131D01*
X021179Y015781D02*
X021179Y017131D01*
X020979Y017331D01*
X020779Y013131D02*
X020729Y013081D01*
X020729Y012781D01*
X020279Y012331D01*
X020279Y011631D01*
X019379Y011581D02*
X019379Y012481D01*
X020029Y013131D01*
X019279Y013131D02*
X019129Y012981D01*
X019129Y011281D01*
X018729Y011581D02*
X018729Y013031D01*
X018629Y013131D01*
X018279Y011581D02*
X018279Y011131D01*
X018429Y010981D01*
X016479Y010931D02*
X016029Y010931D01*
X021179Y012081D02*
X021179Y012931D01*
X021379Y013131D01*
M02*
