G75*
%MOIN*%
%OFA0B0*%
%FSLAX24Y24*%
%IPPOS*%
%LPD*%
%AMOC8*
5,1,8,0,0,1.08239X$1,22.5*
%
%ADD10C,0.0000*%
%ADD11C,0.0050*%
%ADD12C,0.0080*%
%ADD13R,0.0098X0.0098*%
%ADD14C,0.0060*%
%ADD15C,0.0004*%
%ADD16C,0.0020*%
D10*
X001179Y007631D02*
X000179Y008631D01*
X000179Y027631D01*
X001179Y028631D01*
X022179Y028631D01*
X022679Y028131D01*
X022679Y023631D01*
X023679Y022631D01*
X023679Y009631D01*
X022679Y008631D01*
X022679Y007631D01*
X001179Y007631D01*
X022029Y010631D02*
X022031Y010681D01*
X022037Y010731D01*
X022047Y010781D01*
X022060Y010829D01*
X022077Y010877D01*
X022098Y010923D01*
X022122Y010967D01*
X022150Y011009D01*
X022181Y011049D01*
X022215Y011086D01*
X022252Y011121D01*
X022291Y011152D01*
X022332Y011181D01*
X022376Y011206D01*
X022422Y011228D01*
X022469Y011246D01*
X022517Y011260D01*
X022566Y011271D01*
X022616Y011278D01*
X022666Y011281D01*
X022717Y011280D01*
X022767Y011275D01*
X022817Y011266D01*
X022865Y011254D01*
X022913Y011237D01*
X022959Y011217D01*
X023004Y011194D01*
X023047Y011167D01*
X023087Y011137D01*
X023125Y011104D01*
X023160Y011068D01*
X023193Y011029D01*
X023222Y010988D01*
X023248Y010945D01*
X023271Y010900D01*
X023290Y010853D01*
X023305Y010805D01*
X023317Y010756D01*
X023325Y010706D01*
X023329Y010656D01*
X023329Y010606D01*
X023325Y010556D01*
X023317Y010506D01*
X023305Y010457D01*
X023290Y010409D01*
X023271Y010362D01*
X023248Y010317D01*
X023222Y010274D01*
X023193Y010233D01*
X023160Y010194D01*
X023125Y010158D01*
X023087Y010125D01*
X023047Y010095D01*
X023004Y010068D01*
X022959Y010045D01*
X022913Y010025D01*
X022865Y010008D01*
X022817Y009996D01*
X022767Y009987D01*
X022717Y009982D01*
X022666Y009981D01*
X022616Y009984D01*
X022566Y009991D01*
X022517Y010002D01*
X022469Y010016D01*
X022422Y010034D01*
X022376Y010056D01*
X022332Y010081D01*
X022291Y010110D01*
X022252Y010141D01*
X022215Y010176D01*
X022181Y010213D01*
X022150Y010253D01*
X022122Y010295D01*
X022098Y010339D01*
X022077Y010385D01*
X022060Y010433D01*
X022047Y010481D01*
X022037Y010531D01*
X022031Y010581D01*
X022029Y010631D01*
X002029Y027631D02*
X002031Y027681D01*
X002037Y027731D01*
X002047Y027781D01*
X002060Y027829D01*
X002077Y027877D01*
X002098Y027923D01*
X002122Y027967D01*
X002150Y028009D01*
X002181Y028049D01*
X002215Y028086D01*
X002252Y028121D01*
X002291Y028152D01*
X002332Y028181D01*
X002376Y028206D01*
X002422Y028228D01*
X002469Y028246D01*
X002517Y028260D01*
X002566Y028271D01*
X002616Y028278D01*
X002666Y028281D01*
X002717Y028280D01*
X002767Y028275D01*
X002817Y028266D01*
X002865Y028254D01*
X002913Y028237D01*
X002959Y028217D01*
X003004Y028194D01*
X003047Y028167D01*
X003087Y028137D01*
X003125Y028104D01*
X003160Y028068D01*
X003193Y028029D01*
X003222Y027988D01*
X003248Y027945D01*
X003271Y027900D01*
X003290Y027853D01*
X003305Y027805D01*
X003317Y027756D01*
X003325Y027706D01*
X003329Y027656D01*
X003329Y027606D01*
X003325Y027556D01*
X003317Y027506D01*
X003305Y027457D01*
X003290Y027409D01*
X003271Y027362D01*
X003248Y027317D01*
X003222Y027274D01*
X003193Y027233D01*
X003160Y027194D01*
X003125Y027158D01*
X003087Y027125D01*
X003047Y027095D01*
X003004Y027068D01*
X002959Y027045D01*
X002913Y027025D01*
X002865Y027008D01*
X002817Y026996D01*
X002767Y026987D01*
X002717Y026982D01*
X002666Y026981D01*
X002616Y026984D01*
X002566Y026991D01*
X002517Y027002D01*
X002469Y027016D01*
X002422Y027034D01*
X002376Y027056D01*
X002332Y027081D01*
X002291Y027110D01*
X002252Y027141D01*
X002215Y027176D01*
X002181Y027213D01*
X002150Y027253D01*
X002122Y027295D01*
X002098Y027339D01*
X002077Y027385D01*
X002060Y027433D01*
X002047Y027481D01*
X002037Y027531D01*
X002031Y027581D01*
X002029Y027631D01*
D11*
X003804Y028302D02*
X003849Y028256D01*
X003939Y028256D01*
X003985Y028302D01*
X003985Y028347D01*
X003939Y028392D01*
X003849Y028392D01*
X003804Y028437D01*
X003804Y028482D01*
X003849Y028527D01*
X003939Y028527D01*
X003985Y028482D01*
X004099Y028482D02*
X004099Y028302D01*
X004144Y028256D01*
X004234Y028256D01*
X004279Y028302D01*
X004394Y028256D02*
X004574Y028256D01*
X004394Y028256D02*
X004394Y028527D01*
X004279Y028482D02*
X004234Y028527D01*
X004144Y028527D01*
X004099Y028482D01*
X004804Y028482D02*
X004804Y028437D01*
X004849Y028392D01*
X004939Y028392D01*
X004985Y028347D01*
X004985Y028302D01*
X004939Y028256D01*
X004849Y028256D01*
X004804Y028302D01*
X004804Y028482D02*
X004849Y028527D01*
X004939Y028527D01*
X004985Y028482D01*
X005099Y028527D02*
X005234Y028527D01*
X005279Y028482D01*
X005279Y028302D01*
X005234Y028256D01*
X005099Y028256D01*
X005099Y028527D01*
X005394Y028437D02*
X005394Y028256D01*
X005394Y028392D02*
X005574Y028392D01*
X005574Y028437D02*
X005574Y028256D01*
X005574Y028437D02*
X005484Y028527D01*
X005394Y028437D01*
X006804Y028482D02*
X006804Y028302D01*
X006849Y028256D01*
X006939Y028256D01*
X006985Y028302D01*
X006985Y028392D01*
X006894Y028392D01*
X006804Y028482D02*
X006849Y028527D01*
X006939Y028527D01*
X006985Y028482D01*
X007099Y028527D02*
X007279Y028256D01*
X007279Y028527D01*
X007394Y028527D02*
X007529Y028527D01*
X007574Y028482D01*
X007574Y028302D01*
X007529Y028256D01*
X007394Y028256D01*
X007394Y028527D01*
X007099Y028527D02*
X007099Y028256D01*
X007954Y028256D02*
X008135Y028256D01*
X008044Y028256D02*
X008044Y028527D01*
X007954Y028437D01*
X008249Y028482D02*
X008294Y028527D01*
X008384Y028527D01*
X008429Y028482D01*
X008429Y028437D01*
X008384Y028392D01*
X008429Y028347D01*
X008429Y028302D01*
X008384Y028256D01*
X008294Y028256D01*
X008249Y028302D01*
X008339Y028392D02*
X008384Y028392D01*
X011404Y025602D02*
X011494Y025602D01*
X011449Y025602D02*
X011449Y025331D01*
X011404Y025331D02*
X011494Y025331D01*
X011601Y025331D02*
X011781Y025602D01*
X011895Y025557D02*
X011895Y025377D01*
X011940Y025331D01*
X012031Y025331D01*
X012076Y025377D01*
X012076Y025557D01*
X012031Y025602D01*
X011940Y025602D01*
X011895Y025557D01*
X012485Y025602D02*
X012485Y025331D01*
X012665Y025331D01*
X012779Y025331D02*
X012779Y025602D01*
X012960Y025331D01*
X012960Y025602D01*
X013074Y025512D02*
X013164Y025602D01*
X013254Y025512D01*
X013254Y025331D01*
X013369Y025331D02*
X013369Y025602D01*
X013504Y025602D01*
X013549Y025557D01*
X013549Y025512D01*
X013504Y025467D01*
X013369Y025467D01*
X013254Y025467D02*
X013074Y025467D01*
X013074Y025512D02*
X013074Y025331D01*
X013369Y025331D02*
X013504Y025331D01*
X013549Y025377D01*
X013549Y025422D01*
X013504Y025467D01*
X013663Y025602D02*
X013663Y025331D01*
X013844Y025331D01*
X013958Y025331D02*
X014138Y025331D01*
X014048Y025467D02*
X013958Y025467D01*
X013958Y025602D02*
X013958Y025331D01*
X013958Y025602D02*
X014138Y025602D01*
X014149Y024752D02*
X014149Y024481D01*
X014149Y024572D02*
X014329Y024752D01*
X014444Y024752D02*
X014444Y024527D01*
X014489Y024481D01*
X014579Y024481D01*
X014624Y024527D01*
X014624Y024752D01*
X014738Y024752D02*
X014873Y024752D01*
X014918Y024707D01*
X014918Y024617D01*
X014873Y024572D01*
X014738Y024572D01*
X014738Y024481D02*
X014738Y024752D01*
X014329Y024481D02*
X014194Y024617D01*
X014035Y024752D02*
X014035Y024481D01*
X013944Y024572D01*
X013854Y024481D01*
X013854Y024752D01*
X013854Y023802D02*
X013989Y023802D01*
X014035Y023757D01*
X014035Y023667D01*
X013989Y023622D01*
X013854Y023622D01*
X013854Y023531D02*
X013854Y023802D01*
X014149Y023712D02*
X014239Y023802D01*
X014239Y023531D01*
X014149Y023531D02*
X014329Y023531D01*
X014444Y023486D02*
X014624Y023486D01*
X014738Y023577D02*
X014783Y023531D01*
X014873Y023531D01*
X014918Y023577D01*
X014918Y023622D01*
X014873Y023667D01*
X014828Y023667D01*
X014873Y023667D02*
X014918Y023712D01*
X014918Y023757D01*
X014873Y023802D01*
X014783Y023802D01*
X014738Y023757D01*
X015554Y023712D02*
X015644Y023802D01*
X015644Y023531D01*
X015554Y023531D02*
X015735Y023531D01*
X015849Y023531D02*
X016029Y023531D01*
X015939Y023531D02*
X015939Y023802D01*
X015849Y023712D01*
X015894Y024481D02*
X015984Y024481D01*
X016029Y024527D01*
X016029Y024707D01*
X015984Y024752D01*
X015894Y024752D01*
X015849Y024707D01*
X015849Y024662D01*
X015894Y024617D01*
X016029Y024617D01*
X015894Y024481D02*
X015849Y024527D01*
X015735Y024527D02*
X015689Y024481D01*
X015599Y024481D01*
X015554Y024527D01*
X015644Y024617D02*
X015689Y024617D01*
X015735Y024572D01*
X015735Y024527D01*
X015689Y024617D02*
X015735Y024662D01*
X015735Y024707D01*
X015689Y024752D01*
X015599Y024752D01*
X015554Y024707D01*
X017431Y025319D02*
X017431Y025589D01*
X017566Y025589D01*
X017611Y025544D01*
X017611Y025454D01*
X017566Y025409D01*
X017431Y025409D01*
X017521Y025409D02*
X017611Y025319D01*
X017725Y025319D02*
X017906Y025589D01*
X017725Y025589D02*
X017906Y025319D01*
X019054Y024667D02*
X019235Y024667D01*
X019189Y024802D02*
X019054Y024667D01*
X019189Y024802D02*
X019189Y024531D01*
X019349Y024577D02*
X019529Y024757D01*
X019529Y024577D01*
X019484Y024531D01*
X019394Y024531D01*
X019349Y024577D01*
X019349Y024757D01*
X019394Y024802D01*
X019484Y024802D01*
X019529Y024757D01*
X019484Y023777D02*
X019394Y023777D01*
X019349Y023732D01*
X019484Y023777D02*
X019529Y023732D01*
X019529Y023687D01*
X019349Y023506D01*
X019529Y023506D01*
X019235Y023506D02*
X019054Y023506D01*
X019144Y023506D02*
X019144Y023777D01*
X019054Y023687D01*
X019349Y022802D02*
X019304Y022757D01*
X019349Y022802D02*
X019439Y022802D01*
X019485Y022757D01*
X019485Y022712D01*
X019304Y022531D01*
X019485Y022531D01*
X019444Y021802D02*
X019444Y021531D01*
X019354Y021531D02*
X019535Y021531D01*
X019354Y021712D02*
X019444Y021802D01*
X021204Y020832D02*
X021249Y020877D01*
X021339Y020877D01*
X021385Y020832D01*
X021385Y020787D01*
X021339Y020742D01*
X021385Y020697D01*
X021385Y020652D01*
X021339Y020606D01*
X021249Y020606D01*
X021204Y020652D01*
X021294Y020742D02*
X021339Y020742D01*
X021499Y020652D02*
X021544Y020652D01*
X021544Y020606D01*
X021499Y020606D01*
X021499Y020652D01*
X021646Y020652D02*
X021691Y020606D01*
X021781Y020606D01*
X021827Y020652D01*
X021827Y020697D01*
X021781Y020742D01*
X021736Y020742D01*
X021781Y020742D02*
X021827Y020787D01*
X021827Y020832D01*
X021781Y020877D01*
X021691Y020877D01*
X021646Y020832D01*
X021941Y020877D02*
X021941Y020697D01*
X022031Y020606D01*
X022121Y020697D01*
X022121Y020877D01*
X022429Y017377D02*
X022564Y017377D01*
X022610Y017332D01*
X022610Y017287D01*
X022564Y017242D01*
X022429Y017242D01*
X022429Y017377D02*
X022429Y017106D01*
X022564Y017106D01*
X022610Y017152D01*
X022610Y017197D01*
X022564Y017242D01*
X022724Y017377D02*
X022814Y017287D01*
X022904Y017377D01*
X022904Y017106D01*
X023019Y017106D02*
X023019Y017152D01*
X023199Y017332D01*
X023199Y017377D01*
X023019Y017377D01*
X022724Y017377D02*
X022724Y017106D01*
X023313Y017152D02*
X023313Y017197D01*
X023358Y017242D01*
X023448Y017242D01*
X023493Y017197D01*
X023493Y017152D01*
X023448Y017106D01*
X023358Y017106D01*
X023313Y017152D01*
X023358Y017242D02*
X023313Y017287D01*
X023313Y017332D01*
X023358Y017377D01*
X023448Y017377D01*
X023493Y017332D01*
X023493Y017287D01*
X023448Y017242D01*
X023662Y016832D02*
X023662Y012108D01*
X016576Y012108D01*
X016576Y016832D01*
X023662Y016832D01*
X025237Y016832D01*
X025237Y012108D01*
X023662Y012108D01*
X021640Y010692D02*
X021640Y010556D01*
X021640Y010692D02*
X021595Y010737D01*
X021460Y010737D01*
X021460Y010556D01*
X021345Y010602D02*
X021345Y010692D01*
X021300Y010737D01*
X021210Y010737D01*
X021165Y010692D01*
X021165Y010602D01*
X021210Y010556D01*
X021300Y010556D01*
X021345Y010602D01*
X021059Y010556D02*
X020969Y010556D01*
X021014Y010556D02*
X021014Y010737D01*
X020969Y010737D01*
X021014Y010827D02*
X021014Y010872D01*
X020862Y010737D02*
X020772Y010737D01*
X020817Y010782D02*
X020817Y010602D01*
X020862Y010556D01*
X020658Y010556D02*
X020523Y010556D01*
X020478Y010602D01*
X020478Y010692D01*
X020523Y010737D01*
X020658Y010737D01*
X020363Y010692D02*
X020363Y010647D01*
X020183Y010647D01*
X020183Y010692D02*
X020228Y010737D01*
X020318Y010737D01*
X020363Y010692D01*
X020318Y010556D02*
X020228Y010556D01*
X020183Y010602D01*
X020183Y010692D01*
X020068Y010692D02*
X020068Y010556D01*
X020068Y010692D02*
X020023Y010737D01*
X019888Y010737D01*
X019888Y010556D01*
X019774Y010556D02*
X019774Y010692D01*
X019729Y010737D01*
X019594Y010737D01*
X019594Y010556D01*
X019479Y010602D02*
X019479Y010692D01*
X019434Y010737D01*
X019344Y010737D01*
X019299Y010692D01*
X019299Y010602D01*
X019344Y010556D01*
X019434Y010556D01*
X019479Y010602D01*
X019185Y010602D02*
X019139Y010556D01*
X019049Y010556D01*
X019004Y010602D01*
X019004Y010782D01*
X019049Y010827D01*
X019139Y010827D01*
X019185Y010782D01*
X016834Y008127D02*
X016879Y008082D01*
X016699Y007902D01*
X016744Y007856D01*
X016834Y007856D01*
X016879Y007902D01*
X016879Y008082D01*
X016834Y008127D02*
X016744Y008127D01*
X016699Y008082D01*
X016699Y007902D01*
X016585Y007856D02*
X016585Y008037D01*
X016494Y008127D01*
X016404Y008037D01*
X016404Y007856D01*
X016404Y007992D02*
X016585Y007992D01*
X014908Y009731D02*
X014908Y010002D01*
X014728Y010002D02*
X014728Y009731D01*
X014613Y009731D02*
X014433Y009731D01*
X014433Y010002D01*
X014613Y010002D01*
X014728Y010002D02*
X014908Y009731D01*
X014523Y009867D02*
X014433Y009867D01*
X014024Y010002D02*
X013844Y010002D01*
X013934Y010002D02*
X013934Y009731D01*
X013729Y009777D02*
X013684Y009731D01*
X013594Y009731D01*
X013549Y009777D01*
X013594Y009867D02*
X013684Y009867D01*
X013729Y009822D01*
X013729Y009777D01*
X013594Y009867D02*
X013549Y009912D01*
X013549Y009957D01*
X013594Y010002D01*
X013684Y010002D01*
X013729Y009957D01*
X013435Y009957D02*
X013435Y009867D01*
X013389Y009822D01*
X013254Y009822D01*
X013344Y009822D02*
X013435Y009731D01*
X013254Y009731D02*
X013254Y010002D01*
X013389Y010002D01*
X013435Y009957D01*
X011479Y011522D02*
X011479Y011702D01*
X011299Y011702D02*
X011299Y011522D01*
X011389Y011431D01*
X011479Y011522D01*
X011185Y011567D02*
X011185Y011477D01*
X011139Y011431D01*
X011049Y011431D01*
X011004Y011477D01*
X011004Y011567D02*
X011094Y011612D01*
X011139Y011612D01*
X011185Y011567D01*
X011185Y011702D02*
X011004Y011702D01*
X011004Y011567D01*
X010944Y011856D02*
X010899Y011902D01*
X010899Y012082D01*
X010854Y012037D02*
X010944Y012037D01*
X010740Y012037D02*
X010605Y012037D01*
X010560Y011992D01*
X010560Y011902D01*
X010605Y011856D01*
X010740Y011856D01*
X010445Y011947D02*
X010445Y011992D01*
X010400Y012037D01*
X010310Y012037D01*
X010265Y011992D01*
X010265Y011902D01*
X010310Y011856D01*
X010400Y011856D01*
X010445Y011947D02*
X010265Y011947D01*
X010159Y011856D02*
X010069Y011856D01*
X010114Y011856D02*
X010114Y012127D01*
X010069Y012127D01*
X009954Y011992D02*
X009954Y011947D01*
X009774Y011947D01*
X009774Y011902D02*
X009774Y011992D01*
X009819Y012037D01*
X009909Y012037D01*
X009954Y011992D01*
X009909Y011856D02*
X009819Y011856D01*
X009774Y011902D01*
X009660Y011902D02*
X009614Y011856D01*
X009524Y011856D01*
X009479Y011902D01*
X009524Y011992D02*
X009479Y012037D01*
X009479Y012082D01*
X009524Y012127D01*
X009614Y012127D01*
X009660Y012082D01*
X009614Y011992D02*
X009660Y011947D01*
X009660Y011902D01*
X009614Y011992D02*
X009524Y011992D01*
X009574Y011702D02*
X009664Y011702D01*
X009710Y011657D01*
X009710Y011612D01*
X009664Y011567D01*
X009710Y011522D01*
X009710Y011477D01*
X009664Y011431D01*
X009574Y011431D01*
X009529Y011477D01*
X009619Y011567D02*
X009664Y011567D01*
X009529Y011657D02*
X009574Y011702D01*
X009824Y011477D02*
X009869Y011477D01*
X009869Y011431D01*
X009824Y011431D01*
X009824Y011477D01*
X009971Y011477D02*
X010016Y011431D01*
X010106Y011431D01*
X010152Y011477D01*
X010152Y011522D01*
X010106Y011567D01*
X010061Y011567D01*
X010106Y011567D02*
X010152Y011612D01*
X010152Y011657D01*
X010106Y011702D01*
X010016Y011702D01*
X009971Y011657D01*
X010266Y011702D02*
X010266Y011522D01*
X010356Y011431D01*
X010446Y011522D01*
X010446Y011702D01*
X010846Y012246D02*
X010891Y012246D01*
X010936Y012291D01*
X010936Y012517D01*
X010801Y012517D01*
X010756Y012472D01*
X010756Y012382D01*
X010801Y012336D01*
X010936Y012336D01*
X011051Y012382D02*
X011051Y012472D01*
X011096Y012517D01*
X011186Y012517D01*
X011231Y012472D01*
X011231Y012427D01*
X011051Y012427D01*
X011051Y012382D02*
X011096Y012336D01*
X011186Y012336D01*
X010642Y012336D02*
X010507Y012336D01*
X010462Y012382D01*
X010507Y012427D01*
X010642Y012427D01*
X010642Y012472D02*
X010642Y012336D01*
X010642Y012472D02*
X010597Y012517D01*
X010507Y012517D01*
X010355Y012517D02*
X010265Y012517D01*
X010310Y012562D02*
X010310Y012382D01*
X010355Y012336D01*
X010159Y012336D02*
X010069Y012336D01*
X010114Y012336D02*
X010114Y012607D01*
X010069Y012607D01*
X009954Y012472D02*
X009909Y012517D01*
X009819Y012517D01*
X009774Y012472D01*
X009774Y012382D01*
X009819Y012336D01*
X009909Y012336D01*
X009954Y012382D01*
X009954Y012472D01*
X009660Y012427D02*
X009660Y012607D01*
X009660Y012427D02*
X009569Y012336D01*
X009479Y012427D01*
X009479Y012607D01*
X009104Y012740D02*
X008924Y012921D01*
X008879Y012921D01*
X008834Y012876D01*
X008834Y012785D01*
X008879Y012740D01*
X008879Y012626D02*
X008969Y012626D01*
X009014Y012581D01*
X009014Y012446D01*
X009104Y012446D02*
X008834Y012446D01*
X008834Y012581D01*
X008879Y012626D01*
X009104Y012740D02*
X009104Y012921D01*
X009104Y013035D02*
X008924Y013215D01*
X008879Y013215D01*
X008834Y013170D01*
X008834Y013080D01*
X008879Y013035D01*
X009104Y013035D02*
X009104Y013215D01*
X009059Y013330D02*
X008879Y013510D01*
X009059Y013510D01*
X009104Y013465D01*
X009104Y013375D01*
X009059Y013330D01*
X008879Y013330D01*
X008834Y013375D01*
X008834Y013465D01*
X008879Y013510D01*
X008879Y013624D02*
X008834Y013669D01*
X008834Y013760D01*
X008879Y013805D01*
X009059Y013624D01*
X009104Y013669D01*
X009104Y013760D01*
X009059Y013805D01*
X008879Y013805D01*
X008879Y013624D02*
X009059Y013624D01*
X009059Y014214D02*
X009104Y014259D01*
X009104Y014349D01*
X009059Y014394D01*
X008834Y014394D01*
X008924Y014508D02*
X008834Y014598D01*
X008924Y014689D01*
X009104Y014689D01*
X009104Y014803D02*
X008834Y014803D01*
X008834Y014938D01*
X008879Y014983D01*
X008969Y014983D01*
X009014Y014938D01*
X009014Y014803D01*
X009014Y014893D02*
X009104Y014983D01*
X009104Y015188D02*
X008834Y015188D01*
X008834Y015098D02*
X008834Y015278D01*
X008969Y014689D02*
X008969Y014508D01*
X008924Y014508D02*
X009104Y014508D01*
X009059Y014214D02*
X008834Y014214D01*
X009604Y015731D02*
X009785Y015731D01*
X009694Y015731D02*
X009694Y016002D01*
X009604Y015912D01*
X009099Y016062D02*
X009099Y016242D01*
X009099Y016152D02*
X008829Y016152D01*
X008919Y016062D01*
X008279Y017125D02*
X008324Y017170D01*
X008324Y017260D01*
X008279Y017305D01*
X008234Y017305D01*
X008189Y017260D01*
X008189Y017215D01*
X008189Y017260D02*
X008144Y017305D01*
X008099Y017305D01*
X008054Y017260D01*
X008054Y017170D01*
X008099Y017125D01*
X008279Y017420D02*
X008279Y017465D01*
X008324Y017465D01*
X008324Y017420D01*
X008279Y017420D01*
X008279Y017567D02*
X008324Y017612D01*
X008324Y017702D01*
X008279Y017747D01*
X008234Y017747D01*
X008189Y017702D01*
X008189Y017657D01*
X008189Y017702D02*
X008144Y017747D01*
X008099Y017747D01*
X008054Y017702D01*
X008054Y017612D01*
X008099Y017567D01*
X008054Y017862D02*
X008234Y017862D01*
X008324Y017952D01*
X008234Y018042D01*
X008054Y018042D01*
X007624Y017952D02*
X007534Y018042D01*
X007354Y018042D01*
X007354Y017862D02*
X007534Y017862D01*
X007624Y017952D01*
X007579Y017747D02*
X007624Y017702D01*
X007624Y017612D01*
X007579Y017567D01*
X007579Y017465D02*
X007624Y017465D01*
X007624Y017420D01*
X007579Y017420D01*
X007579Y017465D01*
X007579Y017305D02*
X007624Y017260D01*
X007624Y017170D01*
X007579Y017125D01*
X007489Y017215D02*
X007489Y017260D01*
X007534Y017305D01*
X007579Y017305D01*
X007489Y017260D02*
X007444Y017305D01*
X007399Y017305D01*
X007354Y017260D01*
X007354Y017170D01*
X007399Y017125D01*
X007399Y017567D02*
X007354Y017612D01*
X007354Y017702D01*
X007399Y017747D01*
X007444Y017747D01*
X007489Y017702D01*
X007534Y017747D01*
X007579Y017747D01*
X007489Y017702D02*
X007489Y017657D01*
X006324Y018512D02*
X006279Y018467D01*
X006324Y018512D02*
X006324Y018602D01*
X006279Y018647D01*
X006189Y018647D01*
X006144Y018602D01*
X006144Y018557D01*
X006189Y018467D01*
X006054Y018467D01*
X006054Y018647D01*
X006054Y018762D02*
X006234Y018762D01*
X006324Y018852D01*
X006234Y018942D01*
X006054Y018942D01*
X005349Y018897D02*
X005304Y018942D01*
X005124Y018942D01*
X005079Y018897D01*
X005079Y018762D01*
X005349Y018762D01*
X005349Y018897D01*
X005349Y018647D02*
X005079Y018647D01*
X005079Y018467D02*
X005349Y018647D01*
X005349Y018467D02*
X005079Y018467D01*
X005124Y018353D02*
X005079Y018308D01*
X005079Y018218D01*
X005124Y018173D01*
X005304Y018173D01*
X005349Y018218D01*
X005349Y018308D01*
X005304Y018353D01*
X005214Y018353D01*
X005214Y018263D01*
X004299Y018308D02*
X004254Y018353D01*
X004164Y018353D01*
X004164Y018263D01*
X004074Y018353D02*
X004029Y018308D01*
X004029Y018218D01*
X004074Y018173D01*
X004254Y018173D01*
X004299Y018218D01*
X004299Y018308D01*
X004299Y018467D02*
X004029Y018467D01*
X004299Y018647D01*
X004029Y018647D01*
X004029Y018762D02*
X004029Y018897D01*
X004074Y018942D01*
X004254Y018942D01*
X004299Y018897D01*
X004299Y018762D01*
X004029Y018762D01*
X003929Y017856D02*
X003929Y017556D01*
X003929Y017856D02*
X004279Y017856D01*
X004429Y017356D02*
X004429Y017206D01*
X004279Y016706D02*
X003929Y016706D01*
X003929Y017006D01*
X003929Y015856D02*
X003929Y015556D01*
X003929Y015856D02*
X004279Y015856D01*
X004429Y015356D02*
X004429Y015206D01*
X003929Y015006D02*
X003929Y014706D01*
X004279Y014706D01*
X004279Y013856D02*
X003929Y013856D01*
X003929Y013556D01*
X004429Y013356D02*
X004429Y013206D01*
X003929Y013006D02*
X003929Y012706D01*
X004279Y012706D01*
X004279Y011856D02*
X003929Y011856D01*
X003929Y011556D01*
X004429Y011356D02*
X004429Y011206D01*
X003929Y011006D02*
X003929Y010706D01*
X004279Y010706D01*
X004779Y009610D02*
X004869Y009610D01*
X004914Y009565D01*
X004914Y009430D01*
X005004Y009430D02*
X004734Y009430D01*
X004734Y009565D01*
X004779Y009610D01*
X004734Y009315D02*
X004959Y009315D01*
X005004Y009270D01*
X005004Y009180D01*
X004959Y009135D01*
X004734Y009135D01*
X004734Y009021D02*
X004734Y008840D01*
X005004Y008840D01*
X005004Y009021D01*
X004869Y008931D02*
X004869Y008840D01*
X004734Y008726D02*
X004914Y008546D01*
X004869Y008591D02*
X005004Y008726D01*
X005004Y008546D02*
X004734Y008546D01*
X004824Y008431D02*
X005004Y008431D01*
X004869Y008431D02*
X004869Y008251D01*
X004824Y008251D02*
X004734Y008341D01*
X004824Y008431D01*
X004824Y008251D02*
X005004Y008251D01*
X005004Y008137D02*
X004734Y008137D01*
X004734Y007956D02*
X005004Y007956D01*
X004914Y008047D01*
X005004Y008137D01*
X003662Y008831D02*
X003664Y008866D01*
X003670Y008902D01*
X003680Y008936D01*
X003693Y008969D01*
X003711Y009000D01*
X003731Y009029D01*
X003755Y009055D01*
X003781Y009079D01*
X003810Y009099D01*
X003841Y009117D01*
X003874Y009130D01*
X003908Y009140D01*
X003944Y009146D01*
X003979Y009148D01*
X004014Y009146D01*
X004050Y009140D01*
X004084Y009130D01*
X004117Y009117D01*
X004148Y009099D01*
X004177Y009079D01*
X004203Y009055D01*
X004227Y009029D01*
X004247Y009000D01*
X004265Y008969D01*
X004278Y008936D01*
X004288Y008902D01*
X004294Y008866D01*
X004296Y008831D01*
X004294Y008796D01*
X004288Y008760D01*
X004278Y008726D01*
X004265Y008693D01*
X004247Y008662D01*
X004227Y008633D01*
X004203Y008607D01*
X004177Y008583D01*
X004148Y008563D01*
X004117Y008545D01*
X004084Y008532D01*
X004050Y008522D01*
X004014Y008516D01*
X003979Y008514D01*
X003944Y008516D01*
X003908Y008522D01*
X003874Y008532D01*
X003841Y008545D01*
X003810Y008563D01*
X003781Y008583D01*
X003755Y008607D01*
X003731Y008633D01*
X003711Y008662D01*
X003693Y008693D01*
X003680Y008726D01*
X003670Y008760D01*
X003664Y008796D01*
X003662Y008831D01*
X005812Y008831D02*
X005814Y008866D01*
X005820Y008902D01*
X005830Y008936D01*
X005843Y008969D01*
X005861Y009000D01*
X005881Y009029D01*
X005905Y009055D01*
X005931Y009079D01*
X005960Y009099D01*
X005991Y009117D01*
X006024Y009130D01*
X006058Y009140D01*
X006094Y009146D01*
X006129Y009148D01*
X006164Y009146D01*
X006200Y009140D01*
X006234Y009130D01*
X006267Y009117D01*
X006298Y009099D01*
X006327Y009079D01*
X006353Y009055D01*
X006377Y009029D01*
X006397Y009000D01*
X006415Y008969D01*
X006428Y008936D01*
X006438Y008902D01*
X006444Y008866D01*
X006446Y008831D01*
X006444Y008796D01*
X006438Y008760D01*
X006428Y008726D01*
X006415Y008693D01*
X006397Y008662D01*
X006377Y008633D01*
X006353Y008607D01*
X006327Y008583D01*
X006298Y008563D01*
X006267Y008545D01*
X006234Y008532D01*
X006200Y008522D01*
X006164Y008516D01*
X006129Y008514D01*
X006094Y008516D01*
X006058Y008522D01*
X006024Y008532D01*
X005991Y008545D01*
X005960Y008563D01*
X005931Y008583D01*
X005905Y008607D01*
X005881Y008633D01*
X005861Y008662D01*
X005843Y008693D01*
X005830Y008726D01*
X005820Y008760D01*
X005814Y008796D01*
X005812Y008831D01*
X006884Y008840D02*
X007154Y008840D01*
X007154Y009021D01*
X007019Y008931D02*
X007019Y008840D01*
X007064Y008726D02*
X007109Y008726D01*
X007154Y008681D01*
X007154Y008591D01*
X007109Y008546D01*
X007019Y008591D02*
X007019Y008681D01*
X007064Y008726D01*
X006929Y008726D02*
X006884Y008681D01*
X006884Y008591D01*
X006929Y008546D01*
X006974Y008546D01*
X007019Y008591D01*
X006884Y008431D02*
X006884Y008251D01*
X007154Y008251D01*
X007154Y008431D01*
X007019Y008341D02*
X007019Y008251D01*
X007019Y008137D02*
X007064Y008092D01*
X007064Y007956D01*
X007154Y007956D02*
X006884Y007956D01*
X006884Y008092D01*
X006929Y008137D01*
X007019Y008137D01*
X007064Y008047D02*
X007154Y008137D01*
X007584Y008101D02*
X007854Y008101D01*
X007764Y008191D01*
X007854Y008281D01*
X007584Y008281D01*
X007629Y007987D02*
X007584Y007942D01*
X007584Y007852D01*
X007629Y007806D01*
X007674Y007806D01*
X007719Y007852D01*
X007719Y007942D01*
X007764Y007987D01*
X007809Y007987D01*
X007854Y007942D01*
X007854Y007852D01*
X007809Y007806D01*
X007899Y008396D02*
X007899Y008576D01*
X007854Y008690D02*
X007854Y008826D01*
X007809Y008871D01*
X007764Y008871D01*
X007719Y008826D01*
X007719Y008690D01*
X007854Y008690D02*
X007584Y008690D01*
X007584Y008826D01*
X007629Y008871D01*
X007674Y008871D01*
X007719Y008826D01*
X007584Y008985D02*
X007584Y009165D01*
X007584Y009075D02*
X007854Y009075D01*
X007854Y009280D02*
X007584Y009280D01*
X007854Y009460D01*
X007584Y009460D01*
X007154Y009225D02*
X006884Y009225D01*
X006884Y009135D02*
X006884Y009315D01*
X006884Y009021D02*
X006884Y008840D01*
X008262Y008831D02*
X008264Y008866D01*
X008270Y008902D01*
X008280Y008936D01*
X008293Y008969D01*
X008311Y009000D01*
X008331Y009029D01*
X008355Y009055D01*
X008381Y009079D01*
X008410Y009099D01*
X008441Y009117D01*
X008474Y009130D01*
X008508Y009140D01*
X008544Y009146D01*
X008579Y009148D01*
X008614Y009146D01*
X008650Y009140D01*
X008684Y009130D01*
X008717Y009117D01*
X008748Y009099D01*
X008777Y009079D01*
X008803Y009055D01*
X008827Y009029D01*
X008847Y009000D01*
X008865Y008969D01*
X008878Y008936D01*
X008888Y008902D01*
X008894Y008866D01*
X008896Y008831D01*
X008894Y008796D01*
X008888Y008760D01*
X008878Y008726D01*
X008865Y008693D01*
X008847Y008662D01*
X008827Y008633D01*
X008803Y008607D01*
X008777Y008583D01*
X008748Y008563D01*
X008717Y008545D01*
X008684Y008532D01*
X008650Y008522D01*
X008614Y008516D01*
X008579Y008514D01*
X008544Y008516D01*
X008508Y008522D01*
X008474Y008532D01*
X008441Y008545D01*
X008410Y008563D01*
X008381Y008583D01*
X008355Y008607D01*
X008331Y008633D01*
X008311Y008662D01*
X008293Y008693D01*
X008280Y008726D01*
X008270Y008760D01*
X008264Y008796D01*
X008262Y008831D01*
X010279Y008107D02*
X010324Y008152D01*
X010414Y008152D01*
X010460Y008107D01*
X010460Y008062D01*
X010414Y008017D01*
X010460Y007972D01*
X010460Y007927D01*
X010414Y007881D01*
X010324Y007881D01*
X010279Y007927D01*
X010369Y008017D02*
X010414Y008017D01*
X010574Y007927D02*
X010619Y007927D01*
X010619Y007881D01*
X010574Y007881D01*
X010574Y007927D01*
X010721Y007927D02*
X010766Y007881D01*
X010856Y007881D01*
X010902Y007927D01*
X010902Y007972D01*
X010856Y008017D01*
X010811Y008017D01*
X010856Y008017D02*
X010902Y008062D01*
X010902Y008107D01*
X010856Y008152D01*
X010766Y008152D01*
X010721Y008107D01*
X011016Y008152D02*
X011016Y007972D01*
X011106Y007881D01*
X011196Y007972D01*
X011196Y008152D01*
X011454Y008152D02*
X011454Y008017D01*
X011544Y008062D01*
X011589Y008062D01*
X011635Y008017D01*
X011635Y007927D01*
X011589Y007881D01*
X011499Y007881D01*
X011454Y007927D01*
X011454Y008152D02*
X011635Y008152D01*
X011749Y008152D02*
X011749Y007972D01*
X011839Y007881D01*
X011929Y007972D01*
X011929Y008152D01*
X012304Y008107D02*
X012304Y007927D01*
X012349Y007881D01*
X012439Y007881D01*
X012485Y007927D01*
X012485Y008017D01*
X012394Y008017D01*
X012304Y008107D02*
X012349Y008152D01*
X012439Y008152D01*
X012485Y008107D01*
X012599Y008152D02*
X012779Y007881D01*
X012779Y008152D01*
X012894Y008152D02*
X013029Y008152D01*
X013074Y008107D01*
X013074Y007927D01*
X013029Y007881D01*
X012894Y007881D01*
X012894Y008152D01*
X012599Y008152D02*
X012599Y007881D01*
X013304Y007927D02*
X013349Y007881D01*
X013439Y007881D01*
X013485Y007927D01*
X013485Y008017D01*
X013394Y008017D01*
X013304Y008107D02*
X013304Y007927D01*
X013304Y008107D02*
X013349Y008152D01*
X013439Y008152D01*
X013485Y008107D01*
X013599Y008152D02*
X013779Y007881D01*
X013779Y008152D01*
X013894Y008152D02*
X014029Y008152D01*
X014074Y008107D01*
X014074Y007927D01*
X014029Y007881D01*
X013894Y007881D01*
X013894Y008152D01*
X013599Y008152D02*
X013599Y007881D01*
X009104Y011856D02*
X008834Y011856D01*
X008924Y011947D01*
X008834Y012037D01*
X009104Y012037D01*
X009059Y012151D02*
X009104Y012196D01*
X009104Y012286D01*
X009059Y012331D01*
X008879Y012331D02*
X008834Y012286D01*
X008834Y012196D01*
X008879Y012151D01*
X009059Y012151D01*
X012354Y012531D02*
X012535Y012531D01*
X012649Y012531D02*
X012649Y012712D01*
X012739Y012802D01*
X012829Y012712D01*
X012829Y012531D01*
X012944Y012531D02*
X012944Y012802D01*
X013124Y012531D01*
X013124Y012802D01*
X012829Y012667D02*
X012649Y012667D01*
X012535Y012802D02*
X012354Y012802D01*
X012354Y012531D01*
X012354Y012667D02*
X012444Y012667D01*
X012354Y013531D02*
X012354Y013802D01*
X012489Y013802D01*
X012535Y013757D01*
X012535Y013667D01*
X012489Y013622D01*
X012354Y013622D01*
X012649Y013531D02*
X012829Y013712D01*
X012829Y013757D01*
X012784Y013802D01*
X012694Y013802D01*
X012649Y013757D01*
X012649Y013531D02*
X012829Y013531D01*
X012944Y013486D02*
X013124Y013486D01*
X013238Y013667D02*
X013418Y013667D01*
X013373Y013802D02*
X013373Y013531D01*
X013238Y013667D02*
X013373Y013802D01*
X013323Y014531D02*
X013233Y014531D01*
X013188Y014577D01*
X013368Y014757D01*
X013368Y014577D01*
X013323Y014531D01*
X013188Y014577D02*
X013188Y014757D01*
X013233Y014802D01*
X013323Y014802D01*
X013368Y014757D01*
X013074Y014486D02*
X012894Y014486D01*
X012779Y014531D02*
X012599Y014531D01*
X012779Y014712D01*
X012779Y014757D01*
X012734Y014802D01*
X012644Y014802D01*
X012599Y014757D01*
X012485Y014757D02*
X012485Y014667D01*
X012439Y014622D01*
X012304Y014622D01*
X012304Y014531D02*
X012304Y014802D01*
X012439Y014802D01*
X012485Y014757D01*
X011689Y015731D02*
X011599Y015731D01*
X011554Y015777D01*
X011735Y015957D01*
X011735Y015777D01*
X011689Y015731D01*
X011554Y015777D02*
X011554Y015957D01*
X011599Y016002D01*
X011689Y016002D01*
X011735Y015957D01*
X010349Y017318D02*
X010349Y017408D01*
X010304Y017453D01*
X010214Y017453D01*
X010214Y017363D01*
X010124Y017453D02*
X010079Y017408D01*
X010079Y017318D01*
X010124Y017273D01*
X010304Y017273D01*
X010349Y017318D01*
X010349Y017567D02*
X010079Y017567D01*
X010349Y017747D01*
X010079Y017747D01*
X010079Y017862D02*
X010079Y017997D01*
X010124Y018042D01*
X010304Y018042D01*
X010349Y017997D01*
X010349Y017862D01*
X010079Y017862D01*
X009299Y017862D02*
X009299Y017997D01*
X009254Y018042D01*
X009074Y018042D01*
X009029Y017997D01*
X009029Y017862D01*
X009299Y017862D01*
X009299Y017747D02*
X009029Y017747D01*
X009029Y017567D02*
X009299Y017747D01*
X009299Y017567D02*
X009029Y017567D01*
X009074Y017453D02*
X009029Y017408D01*
X009029Y017318D01*
X009074Y017273D01*
X009254Y017273D01*
X009299Y017318D01*
X009299Y017408D01*
X009254Y017453D01*
X009164Y017453D01*
X009164Y017363D01*
X011054Y019481D02*
X011235Y019481D01*
X011144Y019481D02*
X011144Y019752D01*
X011054Y019662D01*
X011349Y019707D02*
X011394Y019752D01*
X011484Y019752D01*
X011529Y019707D01*
X011529Y019662D01*
X011484Y019617D01*
X011529Y019572D01*
X011529Y019527D01*
X011484Y019481D01*
X011394Y019481D01*
X011349Y019527D01*
X011439Y019617D02*
X011484Y019617D01*
X011489Y020481D02*
X011489Y020752D01*
X011354Y020617D01*
X011535Y020617D01*
X011354Y021481D02*
X011354Y021527D01*
X011535Y021707D01*
X011535Y021752D01*
X011354Y021752D01*
X011344Y022481D02*
X011524Y022481D01*
X011344Y022481D02*
X011344Y022752D01*
X011229Y022707D02*
X011184Y022752D01*
X011094Y022752D01*
X011049Y022707D01*
X011049Y022527D01*
X011094Y022481D01*
X011184Y022481D01*
X011229Y022527D01*
X010935Y022527D02*
X010889Y022481D01*
X010799Y022481D01*
X010754Y022527D01*
X010799Y022617D02*
X010889Y022617D01*
X010935Y022572D01*
X010935Y022527D01*
X010799Y022617D02*
X010754Y022662D01*
X010754Y022707D01*
X010799Y022752D01*
X010889Y022752D01*
X010935Y022707D01*
X010889Y023481D02*
X010799Y023481D01*
X010754Y023527D01*
X010799Y023617D02*
X010889Y023617D01*
X010935Y023572D01*
X010935Y023527D01*
X010889Y023481D01*
X011049Y023481D02*
X011049Y023752D01*
X011184Y023752D01*
X011229Y023707D01*
X011229Y023527D01*
X011184Y023481D01*
X011049Y023481D01*
X010935Y023707D02*
X010889Y023752D01*
X010799Y023752D01*
X010754Y023707D01*
X010754Y023662D01*
X010799Y023617D01*
X011344Y023617D02*
X011524Y023617D01*
X011524Y023662D02*
X011524Y023481D01*
X011344Y023481D02*
X011344Y023662D01*
X011434Y023752D01*
X011524Y023662D01*
X011489Y024531D02*
X011399Y024531D01*
X011354Y024577D01*
X011354Y024622D01*
X011399Y024667D01*
X011489Y024667D01*
X011535Y024622D01*
X011535Y024577D01*
X011489Y024531D01*
X011489Y024667D02*
X011535Y024712D01*
X011535Y024757D01*
X011489Y024802D01*
X011399Y024802D01*
X011354Y024757D01*
X011354Y024712D01*
X011399Y024667D01*
X012485Y025467D02*
X012575Y025467D01*
X012665Y025602D02*
X012485Y025602D01*
X013149Y028256D02*
X013104Y028302D01*
X013104Y028347D01*
X013149Y028392D01*
X013239Y028392D01*
X013285Y028347D01*
X013285Y028302D01*
X013239Y028256D01*
X013149Y028256D01*
X013149Y028392D02*
X013104Y028437D01*
X013104Y028482D01*
X013149Y028527D01*
X013239Y028527D01*
X013285Y028482D01*
X013285Y028437D01*
X013239Y028392D01*
X014604Y028302D02*
X014604Y028256D01*
X014604Y028302D02*
X014785Y028482D01*
X014785Y028527D01*
X014604Y028527D01*
X020956Y025614D02*
X021136Y025614D01*
X021046Y025614D02*
X021046Y025344D01*
X021250Y025344D02*
X021431Y025614D01*
X021250Y025614D02*
X021431Y025344D01*
X021649Y028256D02*
X021604Y028302D01*
X021785Y028482D01*
X021785Y028302D01*
X021739Y028256D01*
X021649Y028256D01*
X021604Y028302D02*
X021604Y028482D01*
X021649Y028527D01*
X021739Y028527D01*
X021785Y028482D01*
X015989Y022802D02*
X015854Y022667D01*
X016035Y022667D01*
X015989Y022802D02*
X015989Y022531D01*
X015989Y021752D02*
X015899Y021752D01*
X015854Y021707D01*
X015854Y021527D01*
X016035Y021707D01*
X016035Y021527D01*
X015989Y021481D01*
X015899Y021481D01*
X015854Y021527D01*
X016035Y021707D02*
X015989Y021752D01*
X014918Y021617D02*
X014738Y021617D01*
X014873Y021752D01*
X014873Y021481D01*
X014624Y021436D02*
X014444Y021436D01*
X014329Y021527D02*
X014329Y021707D01*
X014149Y021527D01*
X014194Y021481D01*
X014284Y021481D01*
X014329Y021527D01*
X014329Y021707D02*
X014284Y021752D01*
X014194Y021752D01*
X014149Y021707D01*
X014149Y021527D01*
X014035Y021617D02*
X013989Y021572D01*
X013854Y021572D01*
X013854Y021481D02*
X013854Y021752D01*
X013989Y021752D01*
X014035Y021707D01*
X014035Y021617D01*
X013989Y020802D02*
X014035Y020757D01*
X014035Y020667D01*
X013989Y020622D01*
X013854Y020622D01*
X013854Y020531D02*
X013854Y020802D01*
X013989Y020802D01*
X014149Y020712D02*
X014239Y020802D01*
X014239Y020531D01*
X014149Y020531D02*
X014329Y020531D01*
X014444Y020486D02*
X014624Y020486D01*
X014738Y020577D02*
X014783Y020531D01*
X014873Y020531D01*
X014918Y020577D01*
X014918Y020667D01*
X014873Y020712D01*
X014828Y020712D01*
X014738Y020667D01*
X014738Y020802D01*
X014918Y020802D01*
X014873Y019752D02*
X014738Y019752D01*
X014738Y019481D01*
X014873Y019481D01*
X014918Y019527D01*
X014918Y019572D01*
X014873Y019617D01*
X014738Y019617D01*
X014873Y019617D02*
X014918Y019662D01*
X014918Y019707D01*
X014873Y019752D01*
X015033Y019752D02*
X015213Y019752D01*
X015123Y019752D02*
X015123Y019481D01*
X015328Y019481D02*
X015328Y019752D01*
X015508Y019481D01*
X015508Y019752D01*
X014624Y019436D02*
X014444Y019436D01*
X014329Y019481D02*
X014329Y019752D01*
X014149Y019752D02*
X014149Y019481D01*
X014239Y019572D01*
X014329Y019481D01*
X014035Y019527D02*
X014035Y019572D01*
X013989Y019617D01*
X013899Y019617D01*
X013854Y019662D01*
X013854Y019707D01*
X013899Y019752D01*
X013989Y019752D01*
X014035Y019707D01*
X014035Y019527D02*
X013989Y019481D01*
X013899Y019481D01*
X013854Y019527D01*
X013854Y022531D02*
X013854Y022802D01*
X013989Y022802D01*
X014035Y022757D01*
X014035Y022667D01*
X013989Y022622D01*
X013854Y022622D01*
X014149Y022712D02*
X014239Y022802D01*
X014239Y022531D01*
X014149Y022531D02*
X014329Y022531D01*
X014444Y022486D02*
X014624Y022486D01*
X014738Y022531D02*
X014918Y022712D01*
X014918Y022757D01*
X014873Y022802D01*
X014783Y022802D01*
X014738Y022757D01*
X014738Y022531D02*
X014918Y022531D01*
X021544Y008127D02*
X021635Y008037D01*
X021635Y007856D01*
X021749Y007902D02*
X021794Y007856D01*
X021884Y007856D01*
X021929Y007902D01*
X021929Y007992D01*
X021884Y008037D01*
X021839Y008037D01*
X021749Y007992D01*
X021749Y008127D01*
X021929Y008127D01*
X021635Y007992D02*
X021454Y007992D01*
X021454Y008037D02*
X021544Y008127D01*
X021454Y008037D02*
X021454Y007856D01*
D12*
X016034Y012076D02*
X015876Y012076D01*
X015876Y012587D01*
X015325Y012587D01*
X015876Y012587D02*
X016034Y012587D01*
X015876Y012076D02*
X015325Y012076D01*
X014929Y011131D02*
X014429Y011131D01*
X014179Y010881D01*
X013929Y011131D01*
X013429Y011131D01*
X013179Y010881D01*
X013179Y010381D01*
X013429Y010131D01*
X013929Y010131D01*
X014179Y010381D01*
X014429Y010131D01*
X014929Y010131D01*
X015179Y010381D01*
X015179Y010881D01*
X014929Y011131D01*
X012179Y010881D02*
X012179Y010381D01*
X011929Y010131D01*
X011429Y010131D01*
X011179Y010381D01*
X010929Y010131D01*
X010429Y010131D01*
X010179Y010381D01*
X009929Y010131D01*
X009429Y010131D01*
X009179Y010381D01*
X009179Y010881D01*
X009429Y011131D01*
X009929Y011131D01*
X010179Y010881D01*
X010429Y011131D01*
X010929Y011131D01*
X011179Y010881D01*
X011429Y011131D01*
X011929Y011131D01*
X012179Y010881D01*
X011679Y011281D02*
X010829Y011281D01*
X010529Y011281D02*
X009529Y011281D01*
X008679Y011381D02*
X008679Y010881D01*
X008429Y010631D01*
X007929Y010631D01*
X007679Y010881D01*
X007679Y011381D01*
X007929Y011631D01*
X007679Y011881D01*
X007679Y012381D01*
X007929Y012631D01*
X007679Y012881D01*
X007679Y013381D01*
X007929Y013631D01*
X007679Y013881D01*
X007679Y014381D01*
X007929Y014631D01*
X007679Y014881D01*
X007679Y015381D01*
X007929Y015631D01*
X007679Y015881D01*
X007679Y016381D01*
X007929Y016631D01*
X008429Y016631D01*
X008679Y016381D01*
X008679Y015881D01*
X008429Y015631D01*
X008679Y015381D01*
X008679Y014881D01*
X008429Y014631D01*
X008679Y014381D01*
X008679Y013881D01*
X008429Y013631D01*
X008679Y013381D01*
X008679Y012881D01*
X008429Y012631D01*
X008679Y012381D01*
X008679Y011881D01*
X008429Y011631D01*
X008679Y011381D01*
X007329Y010731D02*
X007079Y010981D01*
X006579Y010981D01*
X006329Y010731D01*
X006329Y010231D01*
X006579Y009981D01*
X007079Y009981D01*
X007329Y010231D01*
X007329Y010731D01*
X006181Y009658D02*
X006078Y009658D01*
X006681Y009358D02*
X006681Y008305D01*
X006181Y008005D02*
X006078Y008005D01*
X005578Y008305D02*
X005578Y009358D01*
X004531Y009358D02*
X004531Y008305D01*
X004031Y008005D02*
X003928Y008005D01*
X003428Y008305D02*
X003428Y009358D01*
X003305Y009856D02*
X003164Y009856D01*
X003094Y009927D01*
X003094Y010067D02*
X003234Y010137D01*
X003305Y010137D01*
X003375Y010067D01*
X003375Y009927D01*
X003305Y009856D01*
X003094Y010067D02*
X003094Y010277D01*
X003375Y010277D01*
X002896Y010486D02*
X000455Y010486D01*
X000455Y007730D01*
X000140Y007730D01*
X000140Y010486D01*
X000455Y010486D01*
X000455Y013242D01*
X000455Y015998D01*
X000455Y018754D01*
X000455Y021509D01*
X002896Y021509D01*
X002896Y018754D01*
X000455Y018754D01*
X000140Y018754D01*
X000140Y021509D01*
X000455Y021509D01*
X003094Y021306D02*
X003094Y021096D01*
X003514Y021096D01*
X003514Y021306D01*
X003444Y021376D01*
X003164Y021376D01*
X003094Y021306D01*
X003094Y020916D02*
X003514Y020916D01*
X003094Y020636D01*
X003514Y020636D01*
X003444Y020456D02*
X003304Y020456D01*
X003304Y020315D01*
X003164Y020175D02*
X003444Y020175D01*
X003514Y020245D01*
X003514Y020385D01*
X003444Y020456D01*
X003164Y020456D02*
X003094Y020385D01*
X003094Y020245D01*
X003164Y020175D01*
X003234Y019592D02*
X003234Y019312D01*
X003094Y019452D02*
X003375Y019452D01*
X003364Y018697D02*
X003434Y018627D01*
X003434Y018487D01*
X003364Y018417D01*
X003084Y018697D01*
X003364Y018697D01*
X003084Y018697D02*
X003014Y018627D01*
X003014Y018487D01*
X003084Y018417D01*
X003364Y018417D01*
X003434Y018237D02*
X003434Y017956D01*
X003434Y018097D02*
X003014Y018097D01*
X003154Y017956D01*
X002896Y018754D02*
X000455Y018754D01*
X000140Y018754D01*
X000140Y015998D01*
X000455Y015998D01*
X002896Y015998D01*
X002896Y018754D01*
X003189Y016767D02*
X003189Y016487D01*
X003049Y016627D02*
X003330Y016627D01*
X002896Y015998D02*
X000455Y015998D01*
X000140Y015998D01*
X000140Y013242D01*
X000455Y013242D01*
X002896Y013242D01*
X002896Y015998D01*
X003164Y015667D02*
X003094Y015597D01*
X003094Y015527D01*
X003164Y015457D01*
X003375Y015457D01*
X003375Y015317D02*
X003375Y015597D01*
X003305Y015667D01*
X003164Y015667D01*
X003094Y015317D02*
X003164Y015246D01*
X003305Y015246D01*
X003375Y015317D01*
X003229Y013957D02*
X003229Y013677D01*
X003089Y013817D02*
X003370Y013817D01*
X002896Y013242D02*
X000455Y013242D01*
X000140Y013242D01*
X000140Y010486D01*
X000455Y010486D01*
X002896Y010486D01*
X002896Y007730D01*
X000455Y007730D01*
X003049Y008417D02*
X003330Y008417D01*
X003189Y008557D02*
X003189Y008277D01*
X003928Y009658D02*
X004031Y009658D01*
X002896Y010486D02*
X002896Y013242D01*
X003234Y012677D02*
X003094Y012537D01*
X003305Y012537D01*
X003375Y012467D01*
X003375Y012397D01*
X003305Y012326D01*
X003164Y012326D01*
X003094Y012397D01*
X003094Y012537D01*
X003234Y012677D02*
X003375Y012747D01*
X003209Y011327D02*
X003209Y011047D01*
X003069Y011187D02*
X003350Y011187D01*
X006279Y012181D02*
X006279Y012681D01*
X006529Y012931D01*
X007029Y012931D01*
X007279Y012681D01*
X007279Y012181D01*
X007029Y011931D01*
X006529Y011931D01*
X006279Y012181D01*
X006379Y013831D02*
X006879Y013831D01*
X007129Y014081D01*
X007129Y014581D01*
X006879Y014831D01*
X006379Y014831D01*
X006129Y014581D01*
X006129Y014081D01*
X006379Y013831D01*
X006479Y016681D02*
X006979Y016681D01*
X007229Y016931D01*
X007229Y017431D01*
X006979Y017681D01*
X006479Y017681D01*
X006229Y017431D01*
X006229Y016931D01*
X006479Y016681D01*
X010929Y014881D02*
X011179Y014631D01*
X012179Y014631D01*
X012179Y013631D02*
X011179Y013631D01*
X010979Y013831D01*
X010929Y012881D02*
X011179Y012631D01*
X012179Y012631D01*
X008631Y009658D02*
X008528Y009658D01*
X008028Y009358D02*
X008028Y008305D01*
X008528Y008005D02*
X008631Y008005D01*
X009131Y008305D02*
X009131Y009358D01*
X012073Y015977D02*
X012073Y016528D01*
X012585Y016528D01*
X012585Y015977D01*
X012585Y016528D02*
X012585Y016686D01*
X012073Y016686D02*
X012073Y016528D01*
X011929Y019131D02*
X011679Y019381D01*
X011679Y019881D01*
X011929Y020131D01*
X012429Y020131D01*
X012679Y019881D01*
X012929Y020131D01*
X013429Y020131D01*
X013679Y019881D01*
X013679Y019381D01*
X013429Y019131D01*
X012929Y019131D01*
X012679Y019381D01*
X012429Y019131D01*
X011929Y019131D01*
X016173Y019078D02*
X016173Y018527D01*
X016685Y018527D02*
X016685Y019078D01*
X016173Y019078D01*
X016173Y019236D01*
X016685Y019236D02*
X016685Y019078D01*
X018519Y019596D02*
X018659Y019737D01*
X018519Y019877D01*
X018939Y019877D01*
X018939Y020057D02*
X018939Y020197D01*
X018939Y020127D02*
X018659Y020127D01*
X018659Y020057D01*
X018519Y020127D02*
X018449Y020127D01*
X018729Y020364D02*
X018869Y020364D01*
X018939Y020434D01*
X018939Y020644D01*
X018939Y020824D02*
X018659Y020824D01*
X018799Y020824D02*
X018659Y020964D01*
X018659Y021034D01*
X018729Y021208D02*
X018869Y021208D01*
X018939Y021278D01*
X018939Y021418D01*
X018869Y021488D01*
X018729Y021488D01*
X018659Y021418D01*
X018659Y021278D01*
X018729Y021208D01*
X018729Y021668D02*
X018869Y021668D01*
X018939Y021738D01*
X018939Y021949D01*
X018939Y022129D02*
X018519Y022129D01*
X018659Y022199D02*
X018659Y022339D01*
X018729Y022409D01*
X018939Y022409D01*
X018939Y022589D02*
X018939Y022729D01*
X018939Y022659D02*
X018659Y022659D01*
X018659Y022589D01*
X018519Y022659D02*
X018449Y022659D01*
X018659Y022896D02*
X018659Y023106D01*
X018729Y023176D01*
X018869Y023176D01*
X018939Y023106D01*
X018939Y022896D01*
X019079Y022896D02*
X018659Y022896D01*
X018659Y022199D02*
X018729Y022129D01*
X018659Y021949D02*
X018659Y021738D01*
X018729Y021668D01*
X018659Y020644D02*
X018659Y020434D01*
X018729Y020364D01*
X018939Y019596D02*
X018519Y019596D01*
X022619Y019913D02*
X022619Y020123D01*
X022689Y020193D01*
X022759Y020193D01*
X022829Y020123D01*
X022829Y019913D01*
X023039Y019913D02*
X022619Y019913D01*
X022829Y020123D02*
X022899Y020193D01*
X022969Y020193D01*
X023039Y020123D01*
X023039Y019913D01*
X023039Y020373D02*
X023039Y020514D01*
X023039Y020444D02*
X022619Y020444D01*
X022619Y020373D01*
X022969Y020680D02*
X022899Y020750D01*
X022899Y020961D01*
X022829Y020961D02*
X023039Y020961D01*
X023039Y020750D01*
X022969Y020680D01*
X022759Y020750D02*
X022759Y020891D01*
X022829Y020961D01*
X022829Y021141D02*
X022759Y021211D01*
X022759Y021421D01*
X022899Y021351D02*
X022899Y021211D01*
X022829Y021141D01*
X023039Y021141D02*
X023039Y021351D01*
X022969Y021421D01*
X022899Y021351D01*
X022759Y021601D02*
X022759Y021741D01*
X022689Y021671D02*
X022969Y021671D01*
X023039Y021741D01*
X022969Y021908D02*
X022829Y021908D01*
X022759Y021978D01*
X022759Y022118D01*
X022829Y022188D01*
X022899Y022188D01*
X022899Y021908D01*
X022969Y021908D02*
X023039Y021978D01*
X023039Y022118D01*
X023039Y022368D02*
X022759Y022368D01*
X022899Y022368D02*
X022759Y022509D01*
X022759Y022579D01*
X018939Y023817D02*
X018519Y023817D01*
X018519Y024027D01*
X018589Y024097D01*
X018729Y024097D01*
X018799Y024027D01*
X018799Y023817D01*
X018799Y023957D02*
X018939Y024097D01*
X018869Y024277D02*
X018729Y024277D01*
X018659Y024347D01*
X018659Y024487D01*
X018729Y024557D01*
X018799Y024557D01*
X018799Y024277D01*
X018869Y024277D02*
X018939Y024347D01*
X018939Y024487D01*
X018659Y024738D02*
X018939Y024878D01*
X018659Y025018D01*
X018729Y025198D02*
X018729Y025338D01*
X018519Y025198D02*
X018939Y025198D01*
X018939Y025478D01*
X018519Y025478D02*
X018519Y025198D01*
X013679Y024881D02*
X013679Y024381D01*
X013429Y024131D01*
X012929Y024131D01*
X012679Y024381D01*
X012429Y024131D01*
X011929Y024131D01*
X011679Y024381D01*
X011679Y024881D01*
X011929Y025131D01*
X012429Y025131D01*
X012679Y024881D01*
X012929Y025131D01*
X013429Y025131D01*
X013679Y024881D01*
X022619Y019273D02*
X022619Y018992D01*
X023039Y018992D01*
X023039Y019273D01*
X022829Y019132D02*
X022829Y018992D01*
X023039Y018812D02*
X023039Y018532D01*
X022619Y018532D01*
X022689Y018352D02*
X022759Y018352D01*
X022829Y018282D01*
X022829Y018071D01*
X023039Y018071D02*
X022619Y018071D01*
X022619Y018282D01*
X022689Y018352D01*
X022829Y018282D02*
X022899Y018352D01*
X022969Y018352D01*
X023039Y018282D01*
X023039Y018071D01*
D13*
X021630Y020231D03*
X020479Y011131D03*
D14*
X013429Y020131D02*
X011929Y020131D01*
X011679Y020381D01*
X011679Y020881D01*
X011929Y021131D01*
X011679Y021381D01*
X011679Y021881D01*
X011929Y022131D01*
X011679Y022381D01*
X011679Y022881D01*
X011929Y023131D01*
X011679Y023381D01*
X011679Y023881D01*
X011929Y024131D01*
X013429Y024131D01*
X013679Y023881D01*
X013679Y023381D01*
X013429Y023131D01*
X013679Y022881D01*
X013679Y022381D01*
X013429Y022131D01*
X013679Y021881D01*
X013679Y021381D01*
X013429Y021131D01*
X013679Y020881D01*
X013679Y020381D01*
X013429Y020131D01*
X016179Y021381D02*
X016179Y021881D01*
X016429Y022131D01*
X016179Y022381D01*
X016179Y022881D01*
X016429Y023131D01*
X016179Y023381D01*
X016179Y023881D01*
X016429Y024131D01*
X016179Y024381D01*
X016179Y024881D01*
X016429Y025131D01*
X017929Y025131D01*
X018179Y024881D01*
X018179Y024381D01*
X017929Y024131D01*
X018179Y023881D01*
X018179Y023381D01*
X017929Y023131D01*
X018179Y022881D01*
X018179Y022381D01*
X017929Y022131D01*
X018179Y021881D01*
X018179Y021381D01*
X017929Y021131D01*
X016429Y021131D01*
X016179Y021381D01*
X019679Y021381D02*
X019679Y021881D01*
X019929Y022131D01*
X019679Y022381D01*
X019679Y022881D01*
X019929Y023131D01*
X019679Y023381D01*
X019679Y023881D01*
X019929Y024131D01*
X019679Y024381D01*
X019679Y024881D01*
X019929Y025131D01*
X021429Y025131D01*
X021679Y024881D01*
X021679Y024381D01*
X021429Y024131D01*
X021679Y023881D01*
X021679Y023381D01*
X021429Y023131D01*
X021679Y022881D01*
X021679Y022381D01*
X021429Y022131D01*
X021679Y021881D01*
X021679Y021381D01*
X021429Y021131D01*
X019929Y021131D01*
X019679Y021381D01*
X004379Y016581D02*
X004379Y016281D01*
X004379Y015981D01*
X004379Y016281D02*
X003979Y016581D01*
X003979Y015981D01*
X004379Y016281D01*
X004379Y014581D02*
X004379Y014281D01*
X004379Y013981D01*
X004379Y014281D02*
X003979Y014581D01*
X003979Y013981D01*
X004379Y014281D01*
X004379Y012581D02*
X004379Y012281D01*
X004379Y011981D01*
X004379Y012281D02*
X003979Y012581D01*
X003979Y011981D01*
X004379Y012281D01*
X004379Y010581D02*
X004379Y010281D01*
X004379Y009981D01*
X004379Y010281D02*
X003979Y010581D01*
X003979Y009981D01*
X004379Y010281D01*
D15*
X014586Y025336D02*
X014629Y025309D01*
X014668Y025301D01*
X014747Y025301D01*
X014779Y025309D01*
X014629Y025309D01*
X014625Y025311D02*
X014785Y025311D01*
X014779Y025309D02*
X014798Y025317D01*
X014790Y025364D01*
X014783Y025364D01*
X014743Y025356D01*
X014684Y025352D01*
X014664Y025364D01*
X014633Y025380D01*
X014550Y025380D01*
X014549Y025382D02*
X014631Y025382D01*
X014633Y025380D02*
X014617Y025399D01*
X014605Y025419D01*
X014594Y025446D01*
X014594Y025445D02*
X014531Y025445D01*
X014531Y025443D02*
X014595Y025443D01*
X014596Y025441D02*
X014531Y025441D01*
X014531Y025438D02*
X014597Y025438D01*
X014598Y025436D02*
X014531Y025436D01*
X014531Y025435D02*
X014542Y025391D01*
X014566Y025356D01*
X014586Y025336D01*
X014795Y025336D01*
X014795Y025338D02*
X014584Y025338D01*
X014581Y025341D02*
X014794Y025341D01*
X014794Y025343D02*
X014579Y025343D01*
X014576Y025345D02*
X014793Y025345D01*
X014793Y025348D02*
X014574Y025348D01*
X014572Y025350D02*
X014793Y025350D01*
X014792Y025353D02*
X014696Y025353D01*
X014683Y025353D02*
X014569Y025353D01*
X014567Y025355D02*
X014679Y025355D01*
X014675Y025358D02*
X014565Y025358D01*
X014563Y025360D02*
X014671Y025360D01*
X014667Y025363D02*
X014562Y025363D01*
X014560Y025365D02*
X014662Y025365D01*
X014657Y025367D02*
X014558Y025367D01*
X014557Y025370D02*
X014652Y025370D01*
X014647Y025372D02*
X014555Y025372D01*
X014553Y025375D02*
X014643Y025375D01*
X014638Y025377D02*
X014552Y025377D01*
X014547Y025384D02*
X014629Y025384D01*
X014627Y025387D02*
X014545Y025387D01*
X014544Y025389D02*
X014625Y025389D01*
X014623Y025392D02*
X014542Y025392D01*
X014542Y025394D02*
X014621Y025394D01*
X014619Y025397D02*
X014541Y025397D01*
X014540Y025399D02*
X014617Y025399D01*
X014616Y025402D02*
X014540Y025402D01*
X014539Y025404D02*
X014614Y025404D01*
X014613Y025406D02*
X014538Y025406D01*
X014538Y025409D02*
X014611Y025409D01*
X014610Y025411D02*
X014537Y025411D01*
X014536Y025414D02*
X014608Y025414D01*
X014607Y025416D02*
X014536Y025416D01*
X014535Y025419D02*
X014606Y025419D01*
X014604Y025421D02*
X014534Y025421D01*
X014534Y025423D02*
X014603Y025423D01*
X014602Y025426D02*
X014533Y025426D01*
X014532Y025428D02*
X014601Y025428D01*
X014600Y025431D02*
X014532Y025431D01*
X014531Y025433D02*
X014599Y025433D01*
X014594Y025446D02*
X014594Y025506D01*
X014531Y025506D01*
X014531Y025504D02*
X014594Y025504D01*
X014594Y025506D02*
X014605Y025533D01*
X014617Y025553D01*
X014633Y025569D01*
X014657Y025584D01*
X014562Y025584D01*
X014542Y025553D01*
X014531Y025521D01*
X014600Y025521D01*
X014599Y025519D02*
X014531Y025519D01*
X014531Y025521D02*
X014531Y025435D01*
X014531Y025448D02*
X014594Y025448D01*
X014594Y025450D02*
X014531Y025450D01*
X014531Y025453D02*
X014594Y025453D01*
X014594Y025455D02*
X014531Y025455D01*
X014531Y025458D02*
X014594Y025458D01*
X014594Y025460D02*
X014531Y025460D01*
X014531Y025462D02*
X014594Y025462D01*
X014594Y025465D02*
X014531Y025465D01*
X014531Y025467D02*
X014594Y025467D01*
X014594Y025470D02*
X014531Y025470D01*
X014531Y025472D02*
X014594Y025472D01*
X014594Y025475D02*
X014531Y025475D01*
X014531Y025477D02*
X014594Y025477D01*
X014594Y025480D02*
X014531Y025480D01*
X014531Y025482D02*
X014594Y025482D01*
X014594Y025484D02*
X014531Y025484D01*
X014531Y025487D02*
X014594Y025487D01*
X014594Y025489D02*
X014531Y025489D01*
X014531Y025492D02*
X014594Y025492D01*
X014594Y025494D02*
X014531Y025494D01*
X014531Y025497D02*
X014594Y025497D01*
X014594Y025499D02*
X014531Y025499D01*
X014531Y025501D02*
X014594Y025501D01*
X014595Y025509D02*
X014531Y025509D01*
X014531Y025511D02*
X014596Y025511D01*
X014597Y025514D02*
X014531Y025514D01*
X014531Y025516D02*
X014598Y025516D01*
X014601Y025523D02*
X014531Y025523D01*
X014532Y025526D02*
X014602Y025526D01*
X014603Y025528D02*
X014533Y025528D01*
X014534Y025531D02*
X014604Y025531D01*
X014605Y025533D02*
X014535Y025533D01*
X014536Y025536D02*
X014607Y025536D01*
X014608Y025538D02*
X014537Y025538D01*
X014538Y025540D02*
X014610Y025540D01*
X014611Y025543D02*
X014539Y025543D01*
X014540Y025545D02*
X014613Y025545D01*
X014614Y025548D02*
X014540Y025548D01*
X014541Y025550D02*
X014616Y025550D01*
X014617Y025553D02*
X014542Y025553D01*
X014544Y025555D02*
X014619Y025555D01*
X014622Y025557D02*
X014545Y025557D01*
X014547Y025560D02*
X014624Y025560D01*
X014627Y025562D02*
X014548Y025562D01*
X014550Y025565D02*
X014629Y025565D01*
X014632Y025567D02*
X014551Y025567D01*
X014553Y025570D02*
X014635Y025570D01*
X014638Y025572D02*
X014554Y025572D01*
X014556Y025575D02*
X014642Y025575D01*
X014646Y025577D02*
X014558Y025577D01*
X014559Y025579D02*
X014649Y025579D01*
X014653Y025582D02*
X014561Y025582D01*
X014562Y025584D02*
X014578Y025608D01*
X014605Y025628D01*
X014625Y025635D01*
X014649Y025647D01*
X014676Y025655D01*
X014752Y025655D01*
X014751Y025655D02*
X014676Y025655D01*
X014667Y025653D02*
X014761Y025653D01*
X014751Y025655D02*
X014783Y025647D01*
X014798Y025639D01*
X014798Y025635D01*
X014786Y025588D01*
X014747Y025596D01*
X014684Y025596D01*
X014657Y025584D01*
X014662Y025587D02*
X014564Y025587D01*
X014565Y025589D02*
X014668Y025589D01*
X014674Y025592D02*
X014567Y025592D01*
X014569Y025594D02*
X014679Y025594D01*
X014659Y025650D02*
X014771Y025650D01*
X014781Y025648D02*
X014650Y025648D01*
X014645Y025645D02*
X014787Y025645D01*
X014791Y025643D02*
X014640Y025643D01*
X014635Y025640D02*
X014796Y025640D01*
X014798Y025638D02*
X014630Y025638D01*
X014625Y025635D02*
X014798Y025635D01*
X014798Y025633D02*
X014619Y025633D01*
X014613Y025631D02*
X014797Y025631D01*
X014796Y025628D02*
X014607Y025628D01*
X014603Y025626D02*
X014796Y025626D01*
X014795Y025623D02*
X014599Y025623D01*
X014596Y025621D02*
X014795Y025621D01*
X014794Y025618D02*
X014593Y025618D01*
X014589Y025616D02*
X014793Y025616D01*
X014793Y025614D02*
X014586Y025614D01*
X014582Y025611D02*
X014792Y025611D01*
X014792Y025609D02*
X014579Y025609D01*
X014577Y025606D02*
X014791Y025606D01*
X014790Y025604D02*
X014575Y025604D01*
X014573Y025601D02*
X014790Y025601D01*
X014789Y025599D02*
X014572Y025599D01*
X014570Y025596D02*
X014789Y025596D01*
X014788Y025594D02*
X014757Y025594D01*
X014769Y025592D02*
X014787Y025592D01*
X014787Y025589D02*
X014781Y025589D01*
X014861Y025589D02*
X014978Y025589D01*
X014971Y025587D02*
X014861Y025587D01*
X014861Y025584D02*
X014964Y025584D01*
X014987Y025592D01*
X015042Y025592D01*
X015066Y025580D01*
X015082Y025557D01*
X015090Y025541D01*
X015090Y025309D01*
X015153Y025309D01*
X015153Y025561D01*
X015145Y025584D01*
X015137Y025600D01*
X015129Y025612D01*
X015113Y025628D01*
X015101Y025635D01*
X014964Y025635D01*
X014969Y025638D02*
X015096Y025638D01*
X015092Y025640D02*
X014973Y025640D01*
X014978Y025643D02*
X015087Y025643D01*
X015086Y025643D02*
X015066Y025651D01*
X015054Y025655D01*
X015015Y025655D01*
X014987Y025647D01*
X014956Y025631D01*
X014940Y025616D01*
X015125Y025616D01*
X015127Y025614D02*
X014938Y025614D01*
X014940Y025616D02*
X014928Y025600D01*
X014924Y025600D01*
X014924Y025805D01*
X014861Y025805D01*
X014861Y025309D01*
X014924Y025309D01*
X014924Y025529D01*
X014940Y025561D01*
X014964Y025584D01*
X014961Y025582D02*
X014861Y025582D01*
X014861Y025579D02*
X014959Y025579D01*
X014956Y025577D02*
X014861Y025577D01*
X014861Y025575D02*
X014954Y025575D01*
X014951Y025572D02*
X014861Y025572D01*
X014861Y025570D02*
X014949Y025570D01*
X014947Y025567D02*
X014861Y025567D01*
X014861Y025565D02*
X014944Y025565D01*
X014942Y025562D02*
X014861Y025562D01*
X014861Y025560D02*
X014940Y025560D01*
X014938Y025557D02*
X014861Y025557D01*
X014861Y025555D02*
X014937Y025555D01*
X014936Y025553D02*
X014861Y025553D01*
X014861Y025550D02*
X014935Y025550D01*
X014934Y025548D02*
X014861Y025548D01*
X014861Y025545D02*
X014932Y025545D01*
X014931Y025543D02*
X014861Y025543D01*
X014861Y025540D02*
X014930Y025540D01*
X014929Y025538D02*
X014861Y025538D01*
X014861Y025536D02*
X014927Y025536D01*
X014926Y025533D02*
X014861Y025533D01*
X014861Y025531D02*
X014925Y025531D01*
X014924Y025528D02*
X014861Y025528D01*
X014861Y025526D02*
X014924Y025526D01*
X014924Y025523D02*
X014861Y025523D01*
X014861Y025521D02*
X014924Y025521D01*
X014924Y025519D02*
X014861Y025519D01*
X014861Y025516D02*
X014924Y025516D01*
X014924Y025514D02*
X014861Y025514D01*
X014861Y025511D02*
X014924Y025511D01*
X014924Y025509D02*
X014861Y025509D01*
X014861Y025506D02*
X014924Y025506D01*
X014924Y025504D02*
X014861Y025504D01*
X014861Y025501D02*
X014924Y025501D01*
X014924Y025499D02*
X014861Y025499D01*
X014861Y025497D02*
X014924Y025497D01*
X014924Y025494D02*
X014861Y025494D01*
X014861Y025492D02*
X014924Y025492D01*
X014924Y025489D02*
X014861Y025489D01*
X014861Y025487D02*
X014924Y025487D01*
X014924Y025484D02*
X014861Y025484D01*
X014861Y025482D02*
X014924Y025482D01*
X014924Y025480D02*
X014861Y025480D01*
X014861Y025477D02*
X014924Y025477D01*
X014924Y025475D02*
X014861Y025475D01*
X014861Y025472D02*
X014924Y025472D01*
X014924Y025470D02*
X014861Y025470D01*
X014861Y025467D02*
X014924Y025467D01*
X014924Y025465D02*
X014861Y025465D01*
X014861Y025462D02*
X014924Y025462D01*
X014924Y025460D02*
X014861Y025460D01*
X014861Y025458D02*
X014924Y025458D01*
X014924Y025455D02*
X014861Y025455D01*
X014861Y025453D02*
X014924Y025453D01*
X014924Y025450D02*
X014861Y025450D01*
X014861Y025448D02*
X014924Y025448D01*
X014924Y025445D02*
X014861Y025445D01*
X014861Y025443D02*
X014924Y025443D01*
X014924Y025441D02*
X014861Y025441D01*
X014861Y025438D02*
X014924Y025438D01*
X014924Y025436D02*
X014861Y025436D01*
X014861Y025433D02*
X014924Y025433D01*
X014924Y025431D02*
X014861Y025431D01*
X014861Y025428D02*
X014924Y025428D01*
X014924Y025426D02*
X014861Y025426D01*
X014861Y025423D02*
X014924Y025423D01*
X014924Y025421D02*
X014861Y025421D01*
X014861Y025419D02*
X014924Y025419D01*
X014924Y025416D02*
X014861Y025416D01*
X014861Y025414D02*
X014924Y025414D01*
X014924Y025411D02*
X014861Y025411D01*
X014861Y025409D02*
X014924Y025409D01*
X014924Y025406D02*
X014861Y025406D01*
X014861Y025404D02*
X014924Y025404D01*
X014924Y025402D02*
X014861Y025402D01*
X014861Y025399D02*
X014924Y025399D01*
X014924Y025397D02*
X014861Y025397D01*
X014861Y025394D02*
X014924Y025394D01*
X014924Y025392D02*
X014861Y025392D01*
X014861Y025389D02*
X014924Y025389D01*
X014924Y025387D02*
X014861Y025387D01*
X014861Y025384D02*
X014924Y025384D01*
X014924Y025382D02*
X014861Y025382D01*
X014861Y025380D02*
X014924Y025380D01*
X014924Y025377D02*
X014861Y025377D01*
X014861Y025375D02*
X014924Y025375D01*
X014924Y025372D02*
X014861Y025372D01*
X014861Y025370D02*
X014924Y025370D01*
X014924Y025367D02*
X014861Y025367D01*
X014861Y025365D02*
X014924Y025365D01*
X014924Y025363D02*
X014861Y025363D01*
X014861Y025360D02*
X014924Y025360D01*
X014924Y025358D02*
X014861Y025358D01*
X014861Y025355D02*
X014924Y025355D01*
X014924Y025353D02*
X014861Y025353D01*
X014861Y025350D02*
X014924Y025350D01*
X014924Y025348D02*
X014861Y025348D01*
X014861Y025345D02*
X014924Y025345D01*
X014924Y025343D02*
X014861Y025343D01*
X014861Y025341D02*
X014924Y025341D01*
X014924Y025338D02*
X014861Y025338D01*
X014861Y025336D02*
X014924Y025336D01*
X014924Y025333D02*
X014861Y025333D01*
X014861Y025331D02*
X014924Y025331D01*
X014924Y025328D02*
X014861Y025328D01*
X014861Y025326D02*
X014924Y025326D01*
X014924Y025324D02*
X014861Y025324D01*
X014861Y025321D02*
X014924Y025321D01*
X014924Y025319D02*
X014861Y025319D01*
X014861Y025316D02*
X014924Y025316D01*
X014924Y025314D02*
X014861Y025314D01*
X014861Y025311D02*
X014924Y025311D01*
X014924Y025309D02*
X014861Y025309D01*
X014798Y025319D02*
X014613Y025319D01*
X014609Y025321D02*
X014798Y025321D01*
X014797Y025324D02*
X014606Y025324D01*
X014602Y025326D02*
X014797Y025326D01*
X014796Y025328D02*
X014598Y025328D01*
X014594Y025331D02*
X014796Y025331D01*
X014795Y025333D02*
X014590Y025333D01*
X014617Y025316D02*
X014797Y025316D01*
X014791Y025314D02*
X014621Y025314D01*
X014640Y025306D02*
X014770Y025306D01*
X014760Y025304D02*
X014652Y025304D01*
X014664Y025302D02*
X014750Y025302D01*
X014752Y025358D02*
X014791Y025358D01*
X014791Y025360D02*
X014764Y025360D01*
X014776Y025363D02*
X014791Y025363D01*
X014792Y025355D02*
X014733Y025355D01*
X014861Y025592D02*
X014986Y025592D01*
X014959Y025633D02*
X015105Y025633D01*
X015101Y025635D02*
X015086Y025643D01*
X015081Y025645D02*
X014983Y025645D01*
X014989Y025648D02*
X015075Y025648D01*
X015069Y025650D02*
X014997Y025650D01*
X015006Y025653D02*
X015062Y025653D01*
X015055Y025655D02*
X015014Y025655D01*
X014955Y025631D02*
X015109Y025631D01*
X015112Y025628D02*
X014952Y025628D01*
X014950Y025626D02*
X015115Y025626D01*
X015117Y025623D02*
X014948Y025623D01*
X014945Y025621D02*
X015120Y025621D01*
X015122Y025618D02*
X014943Y025618D01*
X014937Y025611D02*
X015129Y025611D01*
X015131Y025609D02*
X014935Y025609D01*
X014933Y025606D02*
X015133Y025606D01*
X015134Y025604D02*
X014931Y025604D01*
X014929Y025601D02*
X015136Y025601D01*
X015137Y025599D02*
X014861Y025599D01*
X014861Y025601D02*
X014924Y025601D01*
X014924Y025604D02*
X014861Y025604D01*
X014861Y025606D02*
X014924Y025606D01*
X014924Y025609D02*
X014861Y025609D01*
X014861Y025611D02*
X014924Y025611D01*
X014924Y025614D02*
X014861Y025614D01*
X014861Y025616D02*
X014924Y025616D01*
X014924Y025618D02*
X014861Y025618D01*
X014861Y025621D02*
X014924Y025621D01*
X014924Y025623D02*
X014861Y025623D01*
X014861Y025626D02*
X014924Y025626D01*
X014924Y025628D02*
X014861Y025628D01*
X014861Y025631D02*
X014924Y025631D01*
X014924Y025633D02*
X014861Y025633D01*
X014861Y025635D02*
X014924Y025635D01*
X014924Y025638D02*
X014861Y025638D01*
X014861Y025640D02*
X014924Y025640D01*
X014924Y025643D02*
X014861Y025643D01*
X014861Y025645D02*
X014924Y025645D01*
X014924Y025648D02*
X014861Y025648D01*
X014861Y025650D02*
X014924Y025650D01*
X014924Y025653D02*
X014861Y025653D01*
X014861Y025655D02*
X014924Y025655D01*
X014924Y025657D02*
X014861Y025657D01*
X014861Y025660D02*
X014924Y025660D01*
X014924Y025662D02*
X014861Y025662D01*
X014861Y025665D02*
X014924Y025665D01*
X014924Y025667D02*
X014861Y025667D01*
X014861Y025670D02*
X014924Y025670D01*
X014924Y025672D02*
X014861Y025672D01*
X014861Y025674D02*
X014924Y025674D01*
X014924Y025677D02*
X014861Y025677D01*
X014861Y025679D02*
X014924Y025679D01*
X014924Y025682D02*
X014861Y025682D01*
X014861Y025684D02*
X014924Y025684D01*
X014924Y025687D02*
X014861Y025687D01*
X014861Y025689D02*
X014924Y025689D01*
X014924Y025692D02*
X014861Y025692D01*
X014861Y025694D02*
X014924Y025694D01*
X014924Y025696D02*
X014861Y025696D01*
X014861Y025699D02*
X014924Y025699D01*
X014924Y025701D02*
X014861Y025701D01*
X014861Y025704D02*
X014924Y025704D01*
X014924Y025706D02*
X014861Y025706D01*
X014861Y025709D02*
X014924Y025709D01*
X014924Y025711D02*
X014861Y025711D01*
X014861Y025713D02*
X014924Y025713D01*
X014924Y025716D02*
X014861Y025716D01*
X014861Y025718D02*
X014924Y025718D01*
X014924Y025721D02*
X014861Y025721D01*
X014861Y025723D02*
X014924Y025723D01*
X014924Y025726D02*
X014861Y025726D01*
X014861Y025728D02*
X014924Y025728D01*
X014924Y025731D02*
X014861Y025731D01*
X014861Y025733D02*
X014924Y025733D01*
X014924Y025735D02*
X014861Y025735D01*
X014861Y025738D02*
X014924Y025738D01*
X014924Y025740D02*
X014861Y025740D01*
X014861Y025743D02*
X014924Y025743D01*
X014924Y025745D02*
X014861Y025745D01*
X014861Y025748D02*
X014924Y025748D01*
X014924Y025750D02*
X014861Y025750D01*
X014861Y025752D02*
X014924Y025752D01*
X014924Y025755D02*
X014861Y025755D01*
X014861Y025757D02*
X014924Y025757D01*
X014924Y025760D02*
X014861Y025760D01*
X014861Y025762D02*
X014924Y025762D01*
X014924Y025765D02*
X014861Y025765D01*
X014861Y025767D02*
X014924Y025767D01*
X014924Y025770D02*
X014861Y025770D01*
X014861Y025772D02*
X014924Y025772D01*
X014924Y025774D02*
X014861Y025774D01*
X014861Y025777D02*
X014924Y025777D01*
X014924Y025779D02*
X014861Y025779D01*
X014861Y025782D02*
X014924Y025782D01*
X014924Y025784D02*
X014861Y025784D01*
X014861Y025787D02*
X014924Y025787D01*
X014924Y025789D02*
X014861Y025789D01*
X014861Y025791D02*
X014924Y025791D01*
X014924Y025794D02*
X014861Y025794D01*
X014861Y025796D02*
X014924Y025796D01*
X014924Y025799D02*
X014861Y025799D01*
X014861Y025801D02*
X014924Y025801D01*
X014924Y025804D02*
X014861Y025804D01*
X014861Y025596D02*
X015139Y025596D01*
X015140Y025594D02*
X014861Y025594D01*
X015043Y025592D02*
X015141Y025592D01*
X015142Y025589D02*
X015048Y025589D01*
X015053Y025587D02*
X015143Y025587D01*
X015145Y025584D02*
X015058Y025584D01*
X015063Y025582D02*
X015146Y025582D01*
X015146Y025579D02*
X015067Y025579D01*
X015068Y025577D02*
X015147Y025577D01*
X015148Y025575D02*
X015070Y025575D01*
X015071Y025572D02*
X015149Y025572D01*
X015150Y025570D02*
X015073Y025570D01*
X015075Y025567D02*
X015150Y025567D01*
X015151Y025565D02*
X015076Y025565D01*
X015078Y025562D02*
X015152Y025562D01*
X015153Y025560D02*
X015080Y025560D01*
X015081Y025557D02*
X015153Y025557D01*
X015153Y025555D02*
X015083Y025555D01*
X015084Y025553D02*
X015153Y025553D01*
X015153Y025550D02*
X015085Y025550D01*
X015086Y025548D02*
X015153Y025548D01*
X015153Y025545D02*
X015087Y025545D01*
X015089Y025543D02*
X015153Y025543D01*
X015153Y025540D02*
X015090Y025540D01*
X015090Y025538D02*
X015153Y025538D01*
X015153Y025536D02*
X015090Y025536D01*
X015090Y025533D02*
X015153Y025533D01*
X015153Y025531D02*
X015090Y025531D01*
X015090Y025528D02*
X015153Y025528D01*
X015153Y025526D02*
X015090Y025526D01*
X015090Y025523D02*
X015153Y025523D01*
X015153Y025521D02*
X015090Y025521D01*
X015090Y025519D02*
X015153Y025519D01*
X015153Y025516D02*
X015090Y025516D01*
X015090Y025514D02*
X015153Y025514D01*
X015153Y025511D02*
X015090Y025511D01*
X015090Y025509D02*
X015153Y025509D01*
X015153Y025506D02*
X015090Y025506D01*
X015090Y025504D02*
X015153Y025504D01*
X015153Y025501D02*
X015090Y025501D01*
X015090Y025499D02*
X015153Y025499D01*
X015153Y025497D02*
X015090Y025497D01*
X015090Y025494D02*
X015153Y025494D01*
X015153Y025492D02*
X015090Y025492D01*
X015090Y025489D02*
X015153Y025489D01*
X015153Y025487D02*
X015090Y025487D01*
X015090Y025484D02*
X015153Y025484D01*
X015153Y025482D02*
X015090Y025482D01*
X015090Y025480D02*
X015153Y025480D01*
X015153Y025477D02*
X015090Y025477D01*
X015090Y025475D02*
X015153Y025475D01*
X015153Y025472D02*
X015090Y025472D01*
X015090Y025470D02*
X015153Y025470D01*
X015153Y025467D02*
X015090Y025467D01*
X015090Y025465D02*
X015153Y025465D01*
X015153Y025462D02*
X015090Y025462D01*
X015090Y025460D02*
X015153Y025460D01*
X015153Y025458D02*
X015090Y025458D01*
X015090Y025455D02*
X015153Y025455D01*
X015153Y025453D02*
X015090Y025453D01*
X015090Y025450D02*
X015153Y025450D01*
X015153Y025448D02*
X015090Y025448D01*
X015090Y025445D02*
X015153Y025445D01*
X015153Y025443D02*
X015090Y025443D01*
X015090Y025441D02*
X015153Y025441D01*
X015153Y025438D02*
X015090Y025438D01*
X015090Y025436D02*
X015153Y025436D01*
X015153Y025433D02*
X015090Y025433D01*
X015090Y025431D02*
X015153Y025431D01*
X015153Y025428D02*
X015090Y025428D01*
X015090Y025426D02*
X015153Y025426D01*
X015153Y025423D02*
X015090Y025423D01*
X015090Y025421D02*
X015153Y025421D01*
X015153Y025419D02*
X015090Y025419D01*
X015090Y025416D02*
X015153Y025416D01*
X015153Y025414D02*
X015090Y025414D01*
X015090Y025411D02*
X015153Y025411D01*
X015153Y025409D02*
X015090Y025409D01*
X015090Y025406D02*
X015153Y025406D01*
X015153Y025404D02*
X015090Y025404D01*
X015090Y025402D02*
X015153Y025402D01*
X015153Y025399D02*
X015090Y025399D01*
X015090Y025397D02*
X015153Y025397D01*
X015153Y025394D02*
X015090Y025394D01*
X015090Y025392D02*
X015153Y025392D01*
X015153Y025389D02*
X015090Y025389D01*
X015090Y025387D02*
X015153Y025387D01*
X015153Y025384D02*
X015090Y025384D01*
X015090Y025382D02*
X015153Y025382D01*
X015153Y025380D02*
X015090Y025380D01*
X015090Y025377D02*
X015153Y025377D01*
X015153Y025375D02*
X015090Y025375D01*
X015090Y025372D02*
X015153Y025372D01*
X015153Y025370D02*
X015090Y025370D01*
X015090Y025367D02*
X015153Y025367D01*
X015153Y025365D02*
X015090Y025365D01*
X015090Y025363D02*
X015153Y025363D01*
X015153Y025360D02*
X015090Y025360D01*
X015090Y025358D02*
X015153Y025358D01*
X015153Y025355D02*
X015090Y025355D01*
X015090Y025353D02*
X015153Y025353D01*
X015153Y025350D02*
X015090Y025350D01*
X015090Y025348D02*
X015153Y025348D01*
X015153Y025345D02*
X015090Y025345D01*
X015090Y025343D02*
X015153Y025343D01*
X015153Y025341D02*
X015090Y025341D01*
X015090Y025338D02*
X015153Y025338D01*
X015153Y025336D02*
X015090Y025336D01*
X015090Y025333D02*
X015153Y025333D01*
X015153Y025331D02*
X015090Y025331D01*
X015090Y025328D02*
X015153Y025328D01*
X015153Y025326D02*
X015090Y025326D01*
X015090Y025324D02*
X015153Y025324D01*
X015153Y025321D02*
X015090Y025321D01*
X015090Y025319D02*
X015153Y025319D01*
X015153Y025316D02*
X015090Y025316D01*
X015090Y025314D02*
X015153Y025314D01*
X015153Y025311D02*
X015090Y025311D01*
X015090Y025309D02*
X015153Y025309D01*
X015247Y025309D02*
X015247Y025647D01*
X015310Y025647D01*
X015310Y025309D01*
X015247Y025309D01*
X015310Y025309D01*
X015310Y025311D02*
X015247Y025311D01*
X015247Y025314D02*
X015310Y025314D01*
X015310Y025316D02*
X015247Y025316D01*
X015247Y025319D02*
X015310Y025319D01*
X015310Y025321D02*
X015247Y025321D01*
X015247Y025324D02*
X015310Y025324D01*
X015310Y025326D02*
X015247Y025326D01*
X015247Y025328D02*
X015310Y025328D01*
X015310Y025331D02*
X015247Y025331D01*
X015247Y025333D02*
X015310Y025333D01*
X015310Y025336D02*
X015247Y025336D01*
X015247Y025338D02*
X015310Y025338D01*
X015310Y025341D02*
X015247Y025341D01*
X015247Y025343D02*
X015310Y025343D01*
X015310Y025345D02*
X015247Y025345D01*
X015247Y025348D02*
X015310Y025348D01*
X015310Y025350D02*
X015247Y025350D01*
X015247Y025353D02*
X015310Y025353D01*
X015310Y025355D02*
X015247Y025355D01*
X015247Y025358D02*
X015310Y025358D01*
X015310Y025360D02*
X015247Y025360D01*
X015247Y025363D02*
X015310Y025363D01*
X015310Y025365D02*
X015247Y025365D01*
X015247Y025367D02*
X015310Y025367D01*
X015310Y025370D02*
X015247Y025370D01*
X015247Y025372D02*
X015310Y025372D01*
X015310Y025375D02*
X015247Y025375D01*
X015247Y025377D02*
X015310Y025377D01*
X015310Y025380D02*
X015247Y025380D01*
X015247Y025382D02*
X015310Y025382D01*
X015310Y025384D02*
X015247Y025384D01*
X015247Y025387D02*
X015310Y025387D01*
X015310Y025389D02*
X015247Y025389D01*
X015247Y025392D02*
X015310Y025392D01*
X015310Y025394D02*
X015247Y025394D01*
X015247Y025397D02*
X015310Y025397D01*
X015310Y025399D02*
X015247Y025399D01*
X015247Y025402D02*
X015310Y025402D01*
X015310Y025404D02*
X015247Y025404D01*
X015247Y025406D02*
X015310Y025406D01*
X015310Y025409D02*
X015247Y025409D01*
X015247Y025411D02*
X015310Y025411D01*
X015310Y025414D02*
X015247Y025414D01*
X015247Y025416D02*
X015310Y025416D01*
X015310Y025419D02*
X015247Y025419D01*
X015247Y025421D02*
X015310Y025421D01*
X015310Y025423D02*
X015247Y025423D01*
X015247Y025426D02*
X015310Y025426D01*
X015310Y025428D02*
X015247Y025428D01*
X015247Y025431D02*
X015310Y025431D01*
X015310Y025433D02*
X015247Y025433D01*
X015247Y025436D02*
X015310Y025436D01*
X015310Y025438D02*
X015247Y025438D01*
X015247Y025441D02*
X015310Y025441D01*
X015310Y025443D02*
X015247Y025443D01*
X015247Y025445D02*
X015310Y025445D01*
X015310Y025448D02*
X015247Y025448D01*
X015247Y025450D02*
X015310Y025450D01*
X015310Y025453D02*
X015247Y025453D01*
X015247Y025455D02*
X015310Y025455D01*
X015310Y025458D02*
X015247Y025458D01*
X015247Y025460D02*
X015310Y025460D01*
X015310Y025462D02*
X015247Y025462D01*
X015247Y025465D02*
X015310Y025465D01*
X015310Y025467D02*
X015247Y025467D01*
X015247Y025470D02*
X015310Y025470D01*
X015310Y025472D02*
X015247Y025472D01*
X015247Y025475D02*
X015310Y025475D01*
X015310Y025477D02*
X015247Y025477D01*
X015247Y025480D02*
X015310Y025480D01*
X015310Y025482D02*
X015247Y025482D01*
X015247Y025484D02*
X015310Y025484D01*
X015310Y025487D02*
X015247Y025487D01*
X015247Y025489D02*
X015310Y025489D01*
X015310Y025492D02*
X015247Y025492D01*
X015247Y025494D02*
X015310Y025494D01*
X015310Y025497D02*
X015247Y025497D01*
X015247Y025499D02*
X015310Y025499D01*
X015310Y025501D02*
X015247Y025501D01*
X015247Y025504D02*
X015310Y025504D01*
X015310Y025506D02*
X015247Y025506D01*
X015247Y025509D02*
X015310Y025509D01*
X015310Y025511D02*
X015247Y025511D01*
X015247Y025514D02*
X015310Y025514D01*
X015310Y025516D02*
X015247Y025516D01*
X015247Y025519D02*
X015310Y025519D01*
X015310Y025521D02*
X015247Y025521D01*
X015247Y025523D02*
X015310Y025523D01*
X015310Y025526D02*
X015247Y025526D01*
X015247Y025528D02*
X015310Y025528D01*
X015310Y025531D02*
X015247Y025531D01*
X015247Y025533D02*
X015310Y025533D01*
X015310Y025536D02*
X015247Y025536D01*
X015247Y025538D02*
X015310Y025538D01*
X015310Y025540D02*
X015247Y025540D01*
X015247Y025543D02*
X015310Y025543D01*
X015310Y025545D02*
X015247Y025545D01*
X015247Y025548D02*
X015310Y025548D01*
X015310Y025550D02*
X015247Y025550D01*
X015247Y025553D02*
X015310Y025553D01*
X015310Y025555D02*
X015247Y025555D01*
X015247Y025557D02*
X015310Y025557D01*
X015310Y025560D02*
X015247Y025560D01*
X015247Y025562D02*
X015310Y025562D01*
X015310Y025565D02*
X015247Y025565D01*
X015247Y025567D02*
X015310Y025567D01*
X015310Y025570D02*
X015247Y025570D01*
X015247Y025572D02*
X015310Y025572D01*
X015310Y025575D02*
X015247Y025575D01*
X015247Y025577D02*
X015310Y025577D01*
X015310Y025579D02*
X015247Y025579D01*
X015247Y025582D02*
X015310Y025582D01*
X015310Y025584D02*
X015247Y025584D01*
X015247Y025587D02*
X015310Y025587D01*
X015310Y025589D02*
X015247Y025589D01*
X015247Y025592D02*
X015310Y025592D01*
X015310Y025594D02*
X015247Y025594D01*
X015247Y025596D02*
X015310Y025596D01*
X015310Y025599D02*
X015247Y025599D01*
X015247Y025601D02*
X015310Y025601D01*
X015310Y025604D02*
X015247Y025604D01*
X015247Y025606D02*
X015310Y025606D01*
X015310Y025609D02*
X015247Y025609D01*
X015247Y025611D02*
X015310Y025611D01*
X015310Y025614D02*
X015247Y025614D01*
X015247Y025616D02*
X015310Y025616D01*
X015310Y025618D02*
X015247Y025618D01*
X015247Y025621D02*
X015310Y025621D01*
X015310Y025623D02*
X015247Y025623D01*
X015247Y025626D02*
X015310Y025626D01*
X015310Y025628D02*
X015247Y025628D01*
X015247Y025631D02*
X015310Y025631D01*
X015310Y025633D02*
X015247Y025633D01*
X015247Y025635D02*
X015310Y025635D01*
X015310Y025638D02*
X015247Y025638D01*
X015247Y025640D02*
X015310Y025640D01*
X015310Y025643D02*
X015247Y025643D01*
X015247Y025645D02*
X015310Y025645D01*
X015294Y025702D02*
X015267Y025702D01*
X015251Y025710D01*
X015239Y025726D01*
X015237Y025750D01*
X015318Y025750D01*
X015318Y025730D01*
X015310Y025714D01*
X015294Y025702D01*
X015296Y025704D02*
X015264Y025704D01*
X015259Y025706D02*
X015299Y025706D01*
X015303Y025709D02*
X015254Y025709D01*
X015250Y025711D02*
X015306Y025711D01*
X015309Y025713D02*
X015249Y025713D01*
X015247Y025716D02*
X015311Y025716D01*
X015312Y025718D02*
X015245Y025718D01*
X015243Y025721D02*
X015313Y025721D01*
X015315Y025723D02*
X015241Y025723D01*
X015239Y025726D02*
X015316Y025726D01*
X015317Y025728D02*
X015239Y025728D01*
X015239Y025731D02*
X015318Y025731D01*
X015318Y025733D02*
X015239Y025733D01*
X015238Y025735D02*
X015318Y025735D01*
X015318Y025738D02*
X015238Y025738D01*
X015238Y025740D02*
X015318Y025740D01*
X015318Y025743D02*
X015238Y025743D01*
X015238Y025745D02*
X015318Y025745D01*
X015318Y025748D02*
X015237Y025748D01*
X015237Y025750D02*
X015243Y025765D01*
X015310Y025765D01*
X015309Y025767D02*
X015245Y025767D01*
X015243Y025765D02*
X015259Y025777D01*
X015267Y025781D01*
X015290Y025781D01*
X015308Y025769D01*
X015318Y025750D01*
X015317Y025752D02*
X015238Y025752D01*
X015239Y025755D02*
X015315Y025755D01*
X015314Y025757D02*
X015240Y025757D01*
X015241Y025760D02*
X015313Y025760D01*
X015312Y025762D02*
X015242Y025762D01*
X015249Y025770D02*
X015308Y025770D01*
X015304Y025772D02*
X015252Y025772D01*
X015255Y025774D02*
X015300Y025774D01*
X015297Y025777D02*
X015258Y025777D01*
X015263Y025779D02*
X015293Y025779D01*
X015405Y025647D02*
X015460Y025647D01*
X015460Y025584D01*
X015507Y025584D01*
X015499Y025576D01*
X015468Y025529D01*
X015468Y025431D01*
X015405Y025431D01*
X015405Y025433D02*
X015468Y025433D01*
X015468Y025431D02*
X015475Y025407D01*
X015487Y025383D01*
X015503Y025368D01*
X015531Y025352D01*
X015586Y025352D01*
X015613Y025364D01*
X015625Y025376D01*
X015641Y025395D01*
X015657Y025450D01*
X015656Y025450D02*
X015727Y025450D01*
X015727Y025448D02*
X015656Y025448D01*
X015657Y025450D02*
X015657Y025506D01*
X015641Y025553D01*
X015625Y025576D01*
X015594Y025600D01*
X015531Y025600D01*
X015507Y025584D01*
X015460Y025584D01*
X015460Y025592D01*
X015468Y025592D01*
X015477Y025616D01*
X015493Y025631D01*
X015523Y025647D01*
X015546Y025655D01*
X015610Y025655D01*
X015609Y025655D02*
X015546Y025655D01*
X015539Y025653D02*
X015617Y025653D01*
X015624Y025650D02*
X015531Y025650D01*
X015524Y025648D02*
X015632Y025648D01*
X015633Y025647D02*
X015609Y025655D01*
X015633Y025647D02*
X015664Y025631D01*
X015696Y025600D01*
X015712Y025569D01*
X015727Y025521D01*
X015651Y025521D01*
X015651Y025523D02*
X015727Y025523D01*
X015727Y025521D02*
X015727Y025435D01*
X015712Y025387D01*
X015696Y025356D01*
X015664Y025324D01*
X015649Y025317D01*
X015641Y025309D01*
X015506Y025309D01*
X015502Y025311D02*
X015643Y025311D01*
X015641Y025309D02*
X015617Y025301D01*
X015523Y025301D01*
X015491Y025317D01*
X015483Y025324D01*
X015475Y025340D01*
X015468Y025340D01*
X015468Y025163D01*
X015405Y025163D01*
X015405Y025647D01*
X015405Y025645D02*
X015460Y025645D01*
X015460Y025643D02*
X015405Y025643D01*
X015405Y025640D02*
X015460Y025640D01*
X015460Y025638D02*
X015405Y025638D01*
X015405Y025635D02*
X015460Y025635D01*
X015460Y025633D02*
X015405Y025633D01*
X015405Y025631D02*
X015460Y025631D01*
X015460Y025628D02*
X015405Y025628D01*
X015405Y025626D02*
X015460Y025626D01*
X015460Y025623D02*
X015405Y025623D01*
X015405Y025621D02*
X015460Y025621D01*
X015460Y025618D02*
X015405Y025618D01*
X015405Y025616D02*
X015460Y025616D01*
X015460Y025614D02*
X015405Y025614D01*
X015405Y025611D02*
X015460Y025611D01*
X015460Y025609D02*
X015405Y025609D01*
X015405Y025606D02*
X015460Y025606D01*
X015460Y025604D02*
X015405Y025604D01*
X015405Y025601D02*
X015460Y025601D01*
X015460Y025599D02*
X015405Y025599D01*
X015405Y025596D02*
X015460Y025596D01*
X015460Y025594D02*
X015405Y025594D01*
X015405Y025592D02*
X015460Y025592D01*
X015518Y025592D01*
X015522Y025594D02*
X015468Y025594D01*
X015469Y025596D02*
X015525Y025596D01*
X015529Y025599D02*
X015470Y025599D01*
X015471Y025601D02*
X015695Y025601D01*
X015696Y025599D02*
X015595Y025599D01*
X015598Y025596D02*
X015698Y025596D01*
X015699Y025594D02*
X015601Y025594D01*
X015605Y025592D02*
X015700Y025592D01*
X015701Y025589D02*
X015608Y025589D01*
X015611Y025587D02*
X015703Y025587D01*
X015704Y025584D02*
X015614Y025584D01*
X015618Y025582D02*
X015705Y025582D01*
X015706Y025579D02*
X015621Y025579D01*
X015624Y025577D02*
X015707Y025577D01*
X015709Y025575D02*
X015626Y025575D01*
X015628Y025572D02*
X015710Y025572D01*
X015711Y025570D02*
X015630Y025570D01*
X015631Y025567D02*
X015712Y025567D01*
X015713Y025565D02*
X015633Y025565D01*
X015634Y025562D02*
X015714Y025562D01*
X015715Y025560D02*
X015636Y025560D01*
X015638Y025557D02*
X015715Y025557D01*
X015716Y025555D02*
X015639Y025555D01*
X015641Y025553D02*
X015717Y025553D01*
X015718Y025550D02*
X015642Y025550D01*
X015642Y025548D02*
X015719Y025548D01*
X015719Y025545D02*
X015643Y025545D01*
X015644Y025543D02*
X015720Y025543D01*
X015721Y025540D02*
X015645Y025540D01*
X015646Y025538D02*
X015722Y025538D01*
X015723Y025536D02*
X015647Y025536D01*
X015647Y025533D02*
X015723Y025533D01*
X015724Y025531D02*
X015648Y025531D01*
X015649Y025528D02*
X015725Y025528D01*
X015726Y025526D02*
X015650Y025526D01*
X015652Y025519D02*
X015727Y025519D01*
X015727Y025516D02*
X015653Y025516D01*
X015654Y025514D02*
X015727Y025514D01*
X015727Y025511D02*
X015655Y025511D01*
X015655Y025509D02*
X015727Y025509D01*
X015727Y025506D02*
X015656Y025506D01*
X015657Y025504D02*
X015727Y025504D01*
X015727Y025501D02*
X015657Y025501D01*
X015657Y025499D02*
X015727Y025499D01*
X015727Y025497D02*
X015657Y025497D01*
X015657Y025494D02*
X015727Y025494D01*
X015727Y025492D02*
X015657Y025492D01*
X015657Y025489D02*
X015727Y025489D01*
X015727Y025487D02*
X015657Y025487D01*
X015657Y025484D02*
X015727Y025484D01*
X015727Y025482D02*
X015657Y025482D01*
X015657Y025480D02*
X015727Y025480D01*
X015727Y025477D02*
X015657Y025477D01*
X015657Y025475D02*
X015727Y025475D01*
X015727Y025472D02*
X015657Y025472D01*
X015657Y025470D02*
X015727Y025470D01*
X015727Y025467D02*
X015657Y025467D01*
X015657Y025465D02*
X015727Y025465D01*
X015727Y025462D02*
X015657Y025462D01*
X015657Y025460D02*
X015727Y025460D01*
X015727Y025458D02*
X015657Y025458D01*
X015657Y025455D02*
X015727Y025455D01*
X015727Y025453D02*
X015657Y025453D01*
X015655Y025445D02*
X015727Y025445D01*
X015727Y025443D02*
X015654Y025443D01*
X015654Y025441D02*
X015727Y025441D01*
X015727Y025438D02*
X015653Y025438D01*
X015652Y025436D02*
X015727Y025436D01*
X015727Y025433D02*
X015652Y025433D01*
X015651Y025431D02*
X015726Y025431D01*
X015725Y025428D02*
X015650Y025428D01*
X015650Y025426D02*
X015724Y025426D01*
X015724Y025423D02*
X015649Y025423D01*
X015648Y025421D02*
X015723Y025421D01*
X015722Y025419D02*
X015647Y025419D01*
X015647Y025416D02*
X015721Y025416D01*
X015720Y025414D02*
X015646Y025414D01*
X015645Y025411D02*
X015720Y025411D01*
X015719Y025409D02*
X015645Y025409D01*
X015644Y025406D02*
X015718Y025406D01*
X015717Y025404D02*
X015643Y025404D01*
X015643Y025402D02*
X015716Y025402D01*
X015716Y025399D02*
X015642Y025399D01*
X015641Y025397D02*
X015715Y025397D01*
X015714Y025394D02*
X015640Y025394D01*
X015638Y025392D02*
X015713Y025392D01*
X015712Y025389D02*
X015636Y025389D01*
X015634Y025387D02*
X015711Y025387D01*
X015710Y025384D02*
X015632Y025384D01*
X015630Y025382D02*
X015709Y025382D01*
X015708Y025380D02*
X015628Y025380D01*
X015626Y025377D02*
X015707Y025377D01*
X015705Y025375D02*
X015624Y025375D01*
X015622Y025372D02*
X015704Y025372D01*
X015703Y025370D02*
X015619Y025370D01*
X015617Y025367D02*
X015702Y025367D01*
X015700Y025365D02*
X015614Y025365D01*
X015610Y025363D02*
X015699Y025363D01*
X015698Y025360D02*
X015605Y025360D01*
X015599Y025358D02*
X015697Y025358D01*
X015695Y025355D02*
X015593Y025355D01*
X015588Y025353D02*
X015693Y025353D01*
X015690Y025350D02*
X015405Y025350D01*
X015405Y025348D02*
X015688Y025348D01*
X015685Y025345D02*
X015405Y025345D01*
X015405Y025343D02*
X015683Y025343D01*
X015681Y025341D02*
X015405Y025341D01*
X015405Y025338D02*
X015468Y025338D01*
X015468Y025336D02*
X015405Y025336D01*
X015405Y025333D02*
X015468Y025333D01*
X015468Y025331D02*
X015405Y025331D01*
X015405Y025328D02*
X015468Y025328D01*
X015468Y025326D02*
X015405Y025326D01*
X015405Y025324D02*
X015468Y025324D01*
X015468Y025321D02*
X015405Y025321D01*
X015405Y025319D02*
X015468Y025319D01*
X015468Y025316D02*
X015405Y025316D01*
X015405Y025314D02*
X015468Y025314D01*
X015468Y025311D02*
X015405Y025311D01*
X015405Y025309D02*
X015468Y025309D01*
X015468Y025306D02*
X015405Y025306D01*
X015405Y025304D02*
X015468Y025304D01*
X015468Y025302D02*
X015405Y025302D01*
X015405Y025299D02*
X015468Y025299D01*
X015468Y025297D02*
X015405Y025297D01*
X015405Y025294D02*
X015468Y025294D01*
X015468Y025292D02*
X015405Y025292D01*
X015405Y025289D02*
X015468Y025289D01*
X015468Y025287D02*
X015405Y025287D01*
X015405Y025285D02*
X015468Y025285D01*
X015468Y025282D02*
X015405Y025282D01*
X015405Y025280D02*
X015468Y025280D01*
X015468Y025277D02*
X015405Y025277D01*
X015405Y025275D02*
X015468Y025275D01*
X015468Y025272D02*
X015405Y025272D01*
X015405Y025270D02*
X015468Y025270D01*
X015468Y025267D02*
X015405Y025267D01*
X015405Y025265D02*
X015468Y025265D01*
X015468Y025263D02*
X015405Y025263D01*
X015405Y025260D02*
X015468Y025260D01*
X015468Y025258D02*
X015405Y025258D01*
X015405Y025255D02*
X015468Y025255D01*
X015468Y025253D02*
X015405Y025253D01*
X015405Y025250D02*
X015468Y025250D01*
X015468Y025248D02*
X015405Y025248D01*
X015405Y025246D02*
X015468Y025246D01*
X015468Y025243D02*
X015405Y025243D01*
X015405Y025241D02*
X015468Y025241D01*
X015468Y025238D02*
X015405Y025238D01*
X015405Y025236D02*
X015468Y025236D01*
X015468Y025233D02*
X015405Y025233D01*
X015405Y025231D02*
X015468Y025231D01*
X015468Y025228D02*
X015405Y025228D01*
X015405Y025226D02*
X015468Y025226D01*
X015468Y025224D02*
X015405Y025224D01*
X015405Y025221D02*
X015468Y025221D01*
X015468Y025219D02*
X015405Y025219D01*
X015405Y025216D02*
X015468Y025216D01*
X015468Y025214D02*
X015405Y025214D01*
X015405Y025211D02*
X015468Y025211D01*
X015468Y025209D02*
X015405Y025209D01*
X015405Y025207D02*
X015468Y025207D01*
X015468Y025204D02*
X015405Y025204D01*
X015405Y025202D02*
X015468Y025202D01*
X015468Y025199D02*
X015405Y025199D01*
X015405Y025197D02*
X015468Y025197D01*
X015468Y025194D02*
X015405Y025194D01*
X015405Y025192D02*
X015468Y025192D01*
X015468Y025189D02*
X015405Y025189D01*
X015405Y025187D02*
X015468Y025187D01*
X015468Y025185D02*
X015405Y025185D01*
X015405Y025182D02*
X015468Y025182D01*
X015468Y025180D02*
X015405Y025180D01*
X015405Y025177D02*
X015468Y025177D01*
X015468Y025175D02*
X015405Y025175D01*
X015405Y025172D02*
X015468Y025172D01*
X015468Y025170D02*
X015405Y025170D01*
X015405Y025168D02*
X015468Y025168D01*
X015468Y025165D02*
X015405Y025165D01*
X015492Y025316D02*
X015648Y025316D01*
X015646Y025314D02*
X015497Y025314D01*
X015489Y025319D02*
X015653Y025319D01*
X015658Y025321D02*
X015487Y025321D01*
X015484Y025324D02*
X015663Y025324D01*
X015666Y025326D02*
X015483Y025326D01*
X015481Y025328D02*
X015668Y025328D01*
X015671Y025331D02*
X015480Y025331D01*
X015479Y025333D02*
X015673Y025333D01*
X015676Y025336D02*
X015478Y025336D01*
X015476Y025338D02*
X015678Y025338D01*
X015634Y025306D02*
X015511Y025306D01*
X015516Y025304D02*
X015627Y025304D01*
X015620Y025302D02*
X015521Y025302D01*
X015529Y025353D02*
X015405Y025353D01*
X015405Y025355D02*
X015525Y025355D01*
X015521Y025358D02*
X015405Y025358D01*
X015405Y025360D02*
X015516Y025360D01*
X015512Y025363D02*
X015405Y025363D01*
X015405Y025365D02*
X015508Y025365D01*
X015504Y025367D02*
X015405Y025367D01*
X015405Y025370D02*
X015501Y025370D01*
X015498Y025372D02*
X015405Y025372D01*
X015405Y025375D02*
X015496Y025375D01*
X015494Y025377D02*
X015405Y025377D01*
X015405Y025380D02*
X015491Y025380D01*
X015489Y025382D02*
X015405Y025382D01*
X015405Y025384D02*
X015487Y025384D01*
X015486Y025387D02*
X015405Y025387D01*
X015405Y025389D02*
X015484Y025389D01*
X015483Y025392D02*
X015405Y025392D01*
X015405Y025394D02*
X015482Y025394D01*
X015481Y025397D02*
X015405Y025397D01*
X015405Y025399D02*
X015479Y025399D01*
X015478Y025402D02*
X015405Y025402D01*
X015405Y025404D02*
X015477Y025404D01*
X015476Y025406D02*
X015405Y025406D01*
X015405Y025409D02*
X015475Y025409D01*
X015474Y025411D02*
X015405Y025411D01*
X015405Y025414D02*
X015473Y025414D01*
X015472Y025416D02*
X015405Y025416D01*
X015405Y025419D02*
X015472Y025419D01*
X015471Y025421D02*
X015405Y025421D01*
X015405Y025423D02*
X015470Y025423D01*
X015469Y025426D02*
X015405Y025426D01*
X015405Y025428D02*
X015468Y025428D01*
X015468Y025436D02*
X015405Y025436D01*
X015405Y025438D02*
X015468Y025438D01*
X015468Y025441D02*
X015405Y025441D01*
X015405Y025443D02*
X015468Y025443D01*
X015468Y025445D02*
X015405Y025445D01*
X015405Y025448D02*
X015468Y025448D01*
X015468Y025450D02*
X015405Y025450D01*
X015405Y025453D02*
X015468Y025453D01*
X015468Y025455D02*
X015405Y025455D01*
X015405Y025458D02*
X015468Y025458D01*
X015468Y025460D02*
X015405Y025460D01*
X015405Y025462D02*
X015468Y025462D01*
X015468Y025465D02*
X015405Y025465D01*
X015405Y025467D02*
X015468Y025467D01*
X015468Y025470D02*
X015405Y025470D01*
X015405Y025472D02*
X015468Y025472D01*
X015468Y025475D02*
X015405Y025475D01*
X015405Y025477D02*
X015468Y025477D01*
X015468Y025480D02*
X015405Y025480D01*
X015405Y025482D02*
X015468Y025482D01*
X015468Y025484D02*
X015405Y025484D01*
X015405Y025487D02*
X015468Y025487D01*
X015468Y025489D02*
X015405Y025489D01*
X015405Y025492D02*
X015468Y025492D01*
X015468Y025494D02*
X015405Y025494D01*
X015405Y025497D02*
X015468Y025497D01*
X015468Y025499D02*
X015405Y025499D01*
X015405Y025501D02*
X015468Y025501D01*
X015468Y025504D02*
X015405Y025504D01*
X015405Y025506D02*
X015468Y025506D01*
X015468Y025509D02*
X015405Y025509D01*
X015405Y025511D02*
X015468Y025511D01*
X015468Y025514D02*
X015405Y025514D01*
X015405Y025516D02*
X015468Y025516D01*
X015468Y025519D02*
X015405Y025519D01*
X015405Y025521D02*
X015468Y025521D01*
X015468Y025523D02*
X015405Y025523D01*
X015405Y025526D02*
X015468Y025526D01*
X015468Y025528D02*
X015405Y025528D01*
X015405Y025531D02*
X015469Y025531D01*
X015470Y025533D02*
X015405Y025533D01*
X015405Y025536D02*
X015472Y025536D01*
X015473Y025538D02*
X015405Y025538D01*
X015405Y025540D02*
X015475Y025540D01*
X015477Y025543D02*
X015405Y025543D01*
X015405Y025545D02*
X015478Y025545D01*
X015480Y025548D02*
X015405Y025548D01*
X015405Y025550D02*
X015482Y025550D01*
X015483Y025553D02*
X015405Y025553D01*
X015405Y025555D02*
X015485Y025555D01*
X015486Y025557D02*
X015405Y025557D01*
X015405Y025560D02*
X015488Y025560D01*
X015490Y025562D02*
X015405Y025562D01*
X015405Y025565D02*
X015491Y025565D01*
X015493Y025567D02*
X015405Y025567D01*
X015405Y025570D02*
X015495Y025570D01*
X015496Y025572D02*
X015405Y025572D01*
X015405Y025575D02*
X015498Y025575D01*
X015500Y025577D02*
X015405Y025577D01*
X015405Y025579D02*
X015502Y025579D01*
X015505Y025582D02*
X015405Y025582D01*
X015405Y025584D02*
X015460Y025584D01*
X015507Y025584D01*
X015511Y025587D02*
X015460Y025587D01*
X015405Y025587D01*
X015405Y025589D02*
X015460Y025589D01*
X015514Y025589D01*
X015473Y025606D02*
X015690Y025606D01*
X015692Y025604D02*
X015472Y025604D01*
X015474Y025609D02*
X015687Y025609D01*
X015685Y025611D02*
X015475Y025611D01*
X015476Y025614D02*
X015682Y025614D01*
X015680Y025616D02*
X015478Y025616D01*
X015480Y025618D02*
X015677Y025618D01*
X015675Y025621D02*
X015483Y025621D01*
X015485Y025623D02*
X015673Y025623D01*
X015670Y025626D02*
X015487Y025626D01*
X015490Y025628D02*
X015668Y025628D01*
X015665Y025631D02*
X015492Y025631D01*
X015496Y025633D02*
X015661Y025633D01*
X015656Y025635D02*
X015501Y025635D01*
X015505Y025638D02*
X015652Y025638D01*
X015647Y025640D02*
X015510Y025640D01*
X015514Y025643D02*
X015642Y025643D01*
X015637Y025645D02*
X015519Y025645D01*
X015790Y025645D02*
X015932Y025645D01*
X015932Y025643D02*
X015790Y025643D01*
X015790Y025640D02*
X015932Y025640D01*
X015932Y025638D02*
X015790Y025638D01*
X015790Y025635D02*
X015932Y025635D01*
X015932Y025633D02*
X015790Y025633D01*
X015790Y025631D02*
X015932Y025631D01*
X015932Y025628D02*
X015790Y025628D01*
X015790Y025626D02*
X015932Y025626D01*
X015932Y025623D02*
X015790Y025623D01*
X015790Y025621D02*
X015932Y025621D01*
X015932Y025618D02*
X015790Y025618D01*
X015790Y025616D02*
X015932Y025616D01*
X015932Y025614D02*
X015790Y025614D01*
X015790Y025611D02*
X015932Y025611D01*
X015932Y025609D02*
X015790Y025609D01*
X015790Y025606D02*
X015932Y025606D01*
X015932Y025604D02*
X015790Y025604D01*
X015790Y025601D02*
X015932Y025601D01*
X015932Y025599D02*
X015790Y025599D01*
X015790Y025596D02*
X015932Y025596D01*
X015932Y025594D02*
X015790Y025594D01*
X015790Y025592D02*
X015932Y025592D01*
X015932Y025589D02*
X015790Y025589D01*
X015790Y025587D02*
X015932Y025587D01*
X015932Y025584D02*
X015790Y025584D01*
X015790Y025582D02*
X015932Y025582D01*
X015933Y025582D02*
X016085Y025582D01*
X016087Y025584D02*
X015935Y025584D01*
X015936Y025587D02*
X016088Y025587D01*
X016090Y025589D02*
X015938Y025589D01*
X015939Y025592D02*
X016091Y025592D01*
X016093Y025594D02*
X015941Y025594D01*
X015942Y025596D02*
X016094Y025596D01*
X016096Y025599D02*
X015944Y025599D01*
X015945Y025601D02*
X016097Y025601D01*
X016099Y025604D02*
X015947Y025604D01*
X015948Y025606D02*
X016100Y025606D01*
X016102Y025609D02*
X015949Y025609D01*
X015951Y025611D02*
X016103Y025611D01*
X016105Y025614D02*
X015952Y025614D01*
X015954Y025616D02*
X016106Y025616D01*
X016108Y025618D02*
X015955Y025618D01*
X015957Y025621D02*
X016109Y025621D01*
X016111Y025623D02*
X015958Y025623D01*
X015960Y025626D02*
X016112Y025626D01*
X016114Y025628D02*
X015961Y025628D01*
X015963Y025631D02*
X016115Y025631D01*
X016117Y025633D02*
X015964Y025633D01*
X015966Y025635D02*
X016118Y025635D01*
X016120Y025638D02*
X015967Y025638D01*
X015969Y025640D02*
X016121Y025640D01*
X016123Y025643D02*
X015970Y025643D01*
X015972Y025645D02*
X016124Y025645D01*
X016126Y025648D02*
X015973Y025648D01*
X015975Y025650D02*
X016127Y025650D01*
X016129Y025653D02*
X015976Y025653D01*
X015978Y025655D02*
X016130Y025655D01*
X016132Y025657D02*
X015979Y025657D01*
X015981Y025660D02*
X016133Y025660D01*
X016135Y025662D02*
X015982Y025662D01*
X015984Y025665D02*
X016137Y025665D01*
X016138Y025667D02*
X015985Y025667D01*
X015987Y025670D02*
X016140Y025670D01*
X016141Y025672D02*
X015988Y025672D01*
X015990Y025674D02*
X016143Y025674D01*
X016144Y025677D02*
X015991Y025677D01*
X015993Y025679D02*
X016146Y025679D01*
X016147Y025682D02*
X015994Y025682D01*
X015996Y025684D02*
X016149Y025684D01*
X016150Y025687D02*
X015997Y025687D01*
X015999Y025689D02*
X016152Y025689D01*
X016153Y025692D02*
X016000Y025692D01*
X016002Y025694D02*
X016155Y025694D01*
X016156Y025696D02*
X016003Y025696D01*
X016005Y025699D02*
X016158Y025699D01*
X016159Y025701D02*
X016006Y025701D01*
X016008Y025704D02*
X016161Y025704D01*
X016162Y025706D02*
X016009Y025706D01*
X016011Y025709D02*
X016164Y025709D01*
X016165Y025711D02*
X016012Y025711D01*
X016014Y025713D02*
X016167Y025713D01*
X016168Y025716D02*
X016015Y025716D01*
X016017Y025718D02*
X016170Y025718D01*
X016171Y025721D02*
X016018Y025721D01*
X016020Y025723D02*
X016173Y025723D01*
X016174Y025726D02*
X016021Y025726D01*
X016023Y025728D02*
X016176Y025728D01*
X016177Y025731D02*
X016024Y025731D01*
X016026Y025733D02*
X016179Y025733D01*
X016180Y025735D02*
X016027Y025735D01*
X016029Y025738D02*
X016182Y025738D01*
X016183Y025740D02*
X016030Y025740D01*
X016032Y025743D02*
X016185Y025743D01*
X016186Y025745D02*
X016033Y025745D01*
X016035Y025748D02*
X016188Y025748D01*
X016189Y025750D02*
X016036Y025750D01*
X016038Y025752D02*
X016191Y025752D01*
X016192Y025755D02*
X016039Y025755D01*
X016041Y025757D02*
X016194Y025757D01*
X016195Y025760D02*
X016042Y025760D01*
X016044Y025762D02*
X016197Y025762D01*
X016198Y025765D02*
X016045Y025765D01*
X016046Y025767D02*
X016200Y025767D01*
X016201Y025770D02*
X016048Y025770D01*
X016049Y025772D02*
X016203Y025772D01*
X016204Y025773D02*
X016050Y025773D01*
X015932Y025580D01*
X015932Y025541D01*
X016042Y025301D01*
X016204Y025301D01*
X016082Y025545D01*
X016082Y025576D01*
X016204Y025773D01*
X016247Y025773D02*
X016389Y025773D01*
X016389Y025301D01*
X016247Y025301D01*
X016247Y025773D01*
X016247Y025772D02*
X016389Y025772D01*
X016389Y025770D02*
X016247Y025770D01*
X016247Y025767D02*
X016389Y025767D01*
X016389Y025765D02*
X016247Y025765D01*
X016247Y025762D02*
X016389Y025762D01*
X016389Y025760D02*
X016247Y025760D01*
X016247Y025757D02*
X016389Y025757D01*
X016389Y025755D02*
X016247Y025755D01*
X016247Y025752D02*
X016389Y025752D01*
X016389Y025750D02*
X016247Y025750D01*
X016247Y025748D02*
X016389Y025748D01*
X016389Y025745D02*
X016247Y025745D01*
X016247Y025743D02*
X016389Y025743D01*
X016389Y025740D02*
X016247Y025740D01*
X016247Y025738D02*
X016389Y025738D01*
X016389Y025735D02*
X016247Y025735D01*
X016247Y025733D02*
X016389Y025733D01*
X016389Y025731D02*
X016247Y025731D01*
X016247Y025728D02*
X016389Y025728D01*
X016389Y025726D02*
X016247Y025726D01*
X016247Y025723D02*
X016389Y025723D01*
X016389Y025721D02*
X016247Y025721D01*
X016247Y025718D02*
X016389Y025718D01*
X016389Y025716D02*
X016247Y025716D01*
X016247Y025713D02*
X016389Y025713D01*
X016389Y025711D02*
X016247Y025711D01*
X016247Y025709D02*
X016389Y025709D01*
X016389Y025706D02*
X016247Y025706D01*
X016247Y025704D02*
X016389Y025704D01*
X016389Y025701D02*
X016247Y025701D01*
X016247Y025699D02*
X016389Y025699D01*
X016389Y025696D02*
X016247Y025696D01*
X016247Y025694D02*
X016389Y025694D01*
X016389Y025692D02*
X016247Y025692D01*
X016247Y025689D02*
X016389Y025689D01*
X016389Y025687D02*
X016247Y025687D01*
X016247Y025684D02*
X016389Y025684D01*
X016389Y025682D02*
X016247Y025682D01*
X016247Y025679D02*
X016389Y025679D01*
X016389Y025677D02*
X016247Y025677D01*
X016247Y025674D02*
X016389Y025674D01*
X016389Y025672D02*
X016247Y025672D01*
X016247Y025670D02*
X016389Y025670D01*
X016389Y025667D02*
X016247Y025667D01*
X016247Y025665D02*
X016389Y025665D01*
X016389Y025662D02*
X016247Y025662D01*
X016247Y025660D02*
X016389Y025660D01*
X016389Y025657D02*
X016247Y025657D01*
X016247Y025655D02*
X016389Y025655D01*
X016389Y025653D02*
X016247Y025653D01*
X016247Y025650D02*
X016389Y025650D01*
X016389Y025648D02*
X016247Y025648D01*
X016247Y025645D02*
X016389Y025645D01*
X016389Y025643D02*
X016247Y025643D01*
X016247Y025640D02*
X016389Y025640D01*
X016389Y025638D02*
X016247Y025638D01*
X016247Y025635D02*
X016389Y025635D01*
X016389Y025633D02*
X016247Y025633D01*
X016247Y025631D02*
X016389Y025631D01*
X016389Y025628D02*
X016247Y025628D01*
X016247Y025626D02*
X016389Y025626D01*
X016389Y025623D02*
X016247Y025623D01*
X016247Y025621D02*
X016389Y025621D01*
X016389Y025618D02*
X016247Y025618D01*
X016247Y025616D02*
X016389Y025616D01*
X016389Y025614D02*
X016247Y025614D01*
X016247Y025611D02*
X016389Y025611D01*
X016389Y025609D02*
X016247Y025609D01*
X016247Y025606D02*
X016389Y025606D01*
X016389Y025604D02*
X016247Y025604D01*
X016247Y025601D02*
X016389Y025601D01*
X016389Y025599D02*
X016247Y025599D01*
X016247Y025596D02*
X016389Y025596D01*
X016389Y025594D02*
X016247Y025594D01*
X016247Y025592D02*
X016389Y025592D01*
X016389Y025589D02*
X016247Y025589D01*
X016247Y025587D02*
X016389Y025587D01*
X016389Y025584D02*
X016247Y025584D01*
X016247Y025582D02*
X016389Y025582D01*
X016389Y025579D02*
X016247Y025579D01*
X016247Y025577D02*
X016389Y025577D01*
X016389Y025575D02*
X016247Y025575D01*
X016247Y025572D02*
X016389Y025572D01*
X016389Y025570D02*
X016247Y025570D01*
X016247Y025567D02*
X016389Y025567D01*
X016389Y025565D02*
X016247Y025565D01*
X016247Y025562D02*
X016389Y025562D01*
X016389Y025560D02*
X016247Y025560D01*
X016247Y025557D02*
X016389Y025557D01*
X016389Y025555D02*
X016247Y025555D01*
X016247Y025553D02*
X016389Y025553D01*
X016389Y025550D02*
X016247Y025550D01*
X016247Y025548D02*
X016389Y025548D01*
X016389Y025545D02*
X016247Y025545D01*
X016247Y025543D02*
X016389Y025543D01*
X016389Y025540D02*
X016247Y025540D01*
X016247Y025538D02*
X016389Y025538D01*
X016389Y025536D02*
X016247Y025536D01*
X016247Y025533D02*
X016389Y025533D01*
X016389Y025531D02*
X016247Y025531D01*
X016247Y025528D02*
X016389Y025528D01*
X016389Y025526D02*
X016247Y025526D01*
X016247Y025523D02*
X016389Y025523D01*
X016389Y025521D02*
X016247Y025521D01*
X016247Y025519D02*
X016389Y025519D01*
X016389Y025516D02*
X016247Y025516D01*
X016247Y025514D02*
X016389Y025514D01*
X016389Y025511D02*
X016247Y025511D01*
X016247Y025509D02*
X016389Y025509D01*
X016389Y025506D02*
X016247Y025506D01*
X016247Y025504D02*
X016389Y025504D01*
X016389Y025501D02*
X016247Y025501D01*
X016247Y025499D02*
X016389Y025499D01*
X016389Y025497D02*
X016247Y025497D01*
X016247Y025494D02*
X016389Y025494D01*
X016389Y025492D02*
X016247Y025492D01*
X016247Y025489D02*
X016389Y025489D01*
X016389Y025487D02*
X016247Y025487D01*
X016247Y025484D02*
X016389Y025484D01*
X016389Y025482D02*
X016247Y025482D01*
X016247Y025480D02*
X016389Y025480D01*
X016389Y025477D02*
X016247Y025477D01*
X016247Y025475D02*
X016389Y025475D01*
X016389Y025472D02*
X016247Y025472D01*
X016247Y025470D02*
X016389Y025470D01*
X016389Y025467D02*
X016247Y025467D01*
X016247Y025465D02*
X016389Y025465D01*
X016389Y025462D02*
X016247Y025462D01*
X016247Y025460D02*
X016389Y025460D01*
X016389Y025458D02*
X016247Y025458D01*
X016247Y025455D02*
X016389Y025455D01*
X016389Y025453D02*
X016247Y025453D01*
X016247Y025450D02*
X016389Y025450D01*
X016389Y025448D02*
X016247Y025448D01*
X016247Y025445D02*
X016389Y025445D01*
X016389Y025443D02*
X016247Y025443D01*
X016247Y025441D02*
X016389Y025441D01*
X016389Y025438D02*
X016247Y025438D01*
X016247Y025436D02*
X016389Y025436D01*
X016389Y025433D02*
X016247Y025433D01*
X016247Y025431D02*
X016389Y025431D01*
X016389Y025428D02*
X016247Y025428D01*
X016247Y025426D02*
X016389Y025426D01*
X016389Y025423D02*
X016247Y025423D01*
X016247Y025421D02*
X016389Y025421D01*
X016389Y025419D02*
X016247Y025419D01*
X016247Y025416D02*
X016389Y025416D01*
X016389Y025414D02*
X016247Y025414D01*
X016247Y025411D02*
X016389Y025411D01*
X016389Y025409D02*
X016247Y025409D01*
X016247Y025406D02*
X016389Y025406D01*
X016389Y025404D02*
X016247Y025404D01*
X016247Y025402D02*
X016389Y025402D01*
X016389Y025399D02*
X016247Y025399D01*
X016247Y025397D02*
X016389Y025397D01*
X016389Y025394D02*
X016247Y025394D01*
X016247Y025392D02*
X016389Y025392D01*
X016389Y025389D02*
X016247Y025389D01*
X016247Y025387D02*
X016389Y025387D01*
X016389Y025384D02*
X016247Y025384D01*
X016247Y025382D02*
X016389Y025382D01*
X016389Y025380D02*
X016247Y025380D01*
X016247Y025377D02*
X016389Y025377D01*
X016389Y025375D02*
X016247Y025375D01*
X016247Y025372D02*
X016389Y025372D01*
X016389Y025370D02*
X016247Y025370D01*
X016247Y025367D02*
X016389Y025367D01*
X016389Y025365D02*
X016247Y025365D01*
X016247Y025363D02*
X016389Y025363D01*
X016389Y025360D02*
X016247Y025360D01*
X016247Y025358D02*
X016389Y025358D01*
X016389Y025355D02*
X016247Y025355D01*
X016247Y025353D02*
X016389Y025353D01*
X016389Y025350D02*
X016247Y025350D01*
X016247Y025348D02*
X016389Y025348D01*
X016389Y025345D02*
X016247Y025345D01*
X016247Y025343D02*
X016389Y025343D01*
X016389Y025341D02*
X016247Y025341D01*
X016247Y025338D02*
X016389Y025338D01*
X016389Y025336D02*
X016247Y025336D01*
X016247Y025333D02*
X016389Y025333D01*
X016389Y025331D02*
X016247Y025331D01*
X016247Y025328D02*
X016389Y025328D01*
X016389Y025326D02*
X016247Y025326D01*
X016247Y025324D02*
X016389Y025324D01*
X016389Y025321D02*
X016247Y025321D01*
X016247Y025319D02*
X016389Y025319D01*
X016389Y025316D02*
X016247Y025316D01*
X016247Y025314D02*
X016389Y025314D01*
X016389Y025311D02*
X016247Y025311D01*
X016247Y025309D02*
X016389Y025309D01*
X016389Y025306D02*
X016247Y025306D01*
X016247Y025304D02*
X016389Y025304D01*
X016389Y025302D02*
X016247Y025302D01*
X016203Y025302D02*
X016042Y025302D01*
X016041Y025304D02*
X016202Y025304D01*
X016201Y025306D02*
X016040Y025306D01*
X016039Y025309D02*
X016200Y025309D01*
X016199Y025311D02*
X016038Y025311D01*
X016036Y025314D02*
X016197Y025314D01*
X016196Y025316D02*
X016035Y025316D01*
X016034Y025319D02*
X016195Y025319D01*
X016194Y025321D02*
X016033Y025321D01*
X016032Y025324D02*
X016192Y025324D01*
X016191Y025326D02*
X016031Y025326D01*
X016030Y025328D02*
X016190Y025328D01*
X016189Y025331D02*
X016029Y025331D01*
X016027Y025333D02*
X016188Y025333D01*
X016186Y025336D02*
X016026Y025336D01*
X016025Y025338D02*
X016185Y025338D01*
X016184Y025341D02*
X016024Y025341D01*
X016023Y025343D02*
X016183Y025343D01*
X016181Y025345D02*
X016022Y025345D01*
X016021Y025348D02*
X016180Y025348D01*
X016179Y025350D02*
X016020Y025350D01*
X016019Y025353D02*
X016178Y025353D01*
X016177Y025355D02*
X016017Y025355D01*
X016016Y025358D02*
X016175Y025358D01*
X016174Y025360D02*
X016015Y025360D01*
X016014Y025363D02*
X016173Y025363D01*
X016172Y025365D02*
X016013Y025365D01*
X016012Y025367D02*
X016170Y025367D01*
X016169Y025370D02*
X016011Y025370D01*
X016010Y025372D02*
X016168Y025372D01*
X016167Y025375D02*
X016008Y025375D01*
X016007Y025377D02*
X016166Y025377D01*
X016164Y025380D02*
X016006Y025380D01*
X016005Y025382D02*
X016163Y025382D01*
X016162Y025384D02*
X016004Y025384D01*
X016003Y025387D02*
X016161Y025387D01*
X016160Y025389D02*
X016002Y025389D01*
X016001Y025392D02*
X016158Y025392D01*
X016157Y025394D02*
X015999Y025394D01*
X015998Y025397D02*
X016156Y025397D01*
X016155Y025399D02*
X015997Y025399D01*
X015996Y025402D02*
X016153Y025402D01*
X016152Y025404D02*
X015995Y025404D01*
X015994Y025406D02*
X016151Y025406D01*
X016150Y025409D02*
X015993Y025409D01*
X015992Y025411D02*
X016149Y025411D01*
X016147Y025414D02*
X015991Y025414D01*
X015989Y025416D02*
X016146Y025416D01*
X016145Y025419D02*
X015988Y025419D01*
X015987Y025421D02*
X016144Y025421D01*
X016142Y025423D02*
X015986Y025423D01*
X015985Y025426D02*
X016141Y025426D01*
X016140Y025428D02*
X015984Y025428D01*
X015983Y025431D02*
X016139Y025431D01*
X016138Y025433D02*
X015982Y025433D01*
X015980Y025436D02*
X016136Y025436D01*
X016135Y025438D02*
X015979Y025438D01*
X015978Y025441D02*
X016134Y025441D01*
X016133Y025443D02*
X015977Y025443D01*
X015976Y025445D02*
X016131Y025445D01*
X016130Y025448D02*
X015975Y025448D01*
X015974Y025450D02*
X016129Y025450D01*
X016128Y025453D02*
X015973Y025453D01*
X015972Y025455D02*
X016127Y025455D01*
X016125Y025458D02*
X015970Y025458D01*
X015969Y025460D02*
X016124Y025460D01*
X016123Y025462D02*
X015968Y025462D01*
X015967Y025465D02*
X016122Y025465D01*
X016121Y025467D02*
X015966Y025467D01*
X015965Y025470D02*
X016119Y025470D01*
X016118Y025472D02*
X015964Y025472D01*
X015963Y025475D02*
X016117Y025475D01*
X016116Y025477D02*
X015961Y025477D01*
X015960Y025480D02*
X016114Y025480D01*
X016113Y025482D02*
X015959Y025482D01*
X015958Y025484D02*
X016112Y025484D01*
X016111Y025487D02*
X015957Y025487D01*
X015956Y025489D02*
X016110Y025489D01*
X016108Y025492D02*
X015955Y025492D01*
X015954Y025494D02*
X016107Y025494D01*
X016106Y025497D02*
X015952Y025497D01*
X015951Y025499D02*
X016105Y025499D01*
X016103Y025501D02*
X015950Y025501D01*
X015949Y025504D02*
X016102Y025504D01*
X016101Y025506D02*
X015948Y025506D01*
X015947Y025509D02*
X016100Y025509D01*
X016099Y025511D02*
X015946Y025511D01*
X015945Y025514D02*
X016097Y025514D01*
X016096Y025516D02*
X015944Y025516D01*
X015942Y025519D02*
X016095Y025519D01*
X016094Y025521D02*
X015941Y025521D01*
X015940Y025523D02*
X016092Y025523D01*
X016091Y025526D02*
X015939Y025526D01*
X015938Y025528D02*
X016090Y025528D01*
X016089Y025531D02*
X015937Y025531D01*
X015936Y025533D02*
X016088Y025533D01*
X016086Y025536D02*
X015935Y025536D01*
X015933Y025538D02*
X016085Y025538D01*
X016084Y025540D02*
X015932Y025540D01*
X015790Y025540D01*
X015790Y025538D02*
X015932Y025538D01*
X015932Y025536D02*
X015790Y025536D01*
X015790Y025533D02*
X015932Y025533D01*
X015932Y025531D02*
X015790Y025531D01*
X015790Y025528D02*
X015932Y025528D01*
X015932Y025526D02*
X015790Y025526D01*
X015790Y025523D02*
X015932Y025523D01*
X015932Y025521D02*
X015790Y025521D01*
X015790Y025519D02*
X015932Y025519D01*
X015932Y025516D02*
X015790Y025516D01*
X015790Y025514D02*
X015932Y025514D01*
X015932Y025511D02*
X015790Y025511D01*
X015790Y025509D02*
X015932Y025509D01*
X015932Y025506D02*
X015790Y025506D01*
X015790Y025504D02*
X015932Y025504D01*
X015932Y025501D02*
X015790Y025501D01*
X015790Y025499D02*
X015932Y025499D01*
X015932Y025497D02*
X015790Y025497D01*
X015790Y025494D02*
X015932Y025494D01*
X015932Y025492D02*
X015790Y025492D01*
X015790Y025489D02*
X015932Y025489D01*
X015932Y025487D02*
X015790Y025487D01*
X015790Y025484D02*
X015932Y025484D01*
X015932Y025482D02*
X015790Y025482D01*
X015790Y025480D02*
X015932Y025480D01*
X015932Y025477D02*
X015790Y025477D01*
X015790Y025475D02*
X015932Y025475D01*
X015932Y025472D02*
X015790Y025472D01*
X015790Y025470D02*
X015932Y025470D01*
X015932Y025467D02*
X015790Y025467D01*
X015790Y025465D02*
X015932Y025465D01*
X015932Y025462D02*
X015790Y025462D01*
X015790Y025460D02*
X015932Y025460D01*
X015932Y025458D02*
X015790Y025458D01*
X015790Y025455D02*
X015932Y025455D01*
X015932Y025453D02*
X015790Y025453D01*
X015790Y025450D02*
X015932Y025450D01*
X015932Y025448D02*
X015790Y025448D01*
X015790Y025445D02*
X015932Y025445D01*
X015932Y025443D02*
X015790Y025443D01*
X015790Y025441D02*
X015932Y025441D01*
X015932Y025438D02*
X015790Y025438D01*
X015790Y025436D02*
X015932Y025436D01*
X015932Y025433D02*
X015790Y025433D01*
X015790Y025431D02*
X015932Y025431D01*
X015932Y025428D02*
X015790Y025428D01*
X015790Y025426D02*
X015932Y025426D01*
X015932Y025423D02*
X015790Y025423D01*
X015790Y025421D02*
X015932Y025421D01*
X015932Y025419D02*
X015790Y025419D01*
X015790Y025416D02*
X015932Y025416D01*
X015932Y025414D02*
X015790Y025414D01*
X015790Y025411D02*
X015932Y025411D01*
X015932Y025409D02*
X015790Y025409D01*
X015790Y025406D02*
X015932Y025406D01*
X015932Y025404D02*
X015790Y025404D01*
X015790Y025402D02*
X015932Y025402D01*
X015932Y025399D02*
X015790Y025399D01*
X015790Y025397D02*
X015932Y025397D01*
X015932Y025394D02*
X015790Y025394D01*
X015790Y025392D02*
X015932Y025392D01*
X015932Y025389D02*
X015790Y025389D01*
X015790Y025387D02*
X015932Y025387D01*
X015932Y025384D02*
X015790Y025384D01*
X015790Y025382D02*
X015932Y025382D01*
X015932Y025380D02*
X015790Y025380D01*
X015790Y025377D02*
X015932Y025377D01*
X015932Y025375D02*
X015790Y025375D01*
X015790Y025372D02*
X015932Y025372D01*
X015932Y025370D02*
X015790Y025370D01*
X015790Y025367D02*
X015932Y025367D01*
X015932Y025365D02*
X015790Y025365D01*
X015790Y025363D02*
X015932Y025363D01*
X015932Y025360D02*
X015790Y025360D01*
X015790Y025358D02*
X015932Y025358D01*
X015932Y025355D02*
X015790Y025355D01*
X015790Y025353D02*
X015932Y025353D01*
X015932Y025350D02*
X015790Y025350D01*
X015790Y025348D02*
X015932Y025348D01*
X015932Y025345D02*
X015790Y025345D01*
X015790Y025343D02*
X015932Y025343D01*
X015932Y025341D02*
X015790Y025341D01*
X015790Y025338D02*
X015932Y025338D01*
X015932Y025336D02*
X015790Y025336D01*
X015790Y025333D02*
X015932Y025333D01*
X015932Y025331D02*
X015790Y025331D01*
X015790Y025328D02*
X015932Y025328D01*
X015932Y025326D02*
X015790Y025326D01*
X015790Y025324D02*
X015932Y025324D01*
X015932Y025321D02*
X015790Y025321D01*
X015790Y025319D02*
X015932Y025319D01*
X015932Y025316D02*
X015790Y025316D01*
X015790Y025314D02*
X015932Y025314D01*
X015932Y025311D02*
X015790Y025311D01*
X015790Y025309D02*
X015932Y025309D01*
X015932Y025306D02*
X015790Y025306D01*
X015790Y025304D02*
X015932Y025304D01*
X015932Y025302D02*
X015790Y025302D01*
X015790Y025301D02*
X015932Y025301D01*
X015932Y025773D01*
X015790Y025773D01*
X015790Y025301D01*
X015790Y025543D02*
X015932Y025543D01*
X016083Y025543D01*
X016082Y025545D02*
X015932Y025545D01*
X015790Y025545D01*
X015790Y025548D02*
X015932Y025548D01*
X016082Y025548D01*
X016082Y025550D02*
X015932Y025550D01*
X015790Y025550D01*
X015790Y025553D02*
X015932Y025553D01*
X016082Y025553D01*
X016082Y025555D02*
X015932Y025555D01*
X015790Y025555D01*
X015790Y025557D02*
X015932Y025557D01*
X016082Y025557D01*
X016082Y025560D02*
X015932Y025560D01*
X015790Y025560D01*
X015790Y025562D02*
X015932Y025562D01*
X016082Y025562D01*
X016082Y025565D02*
X015932Y025565D01*
X015790Y025565D01*
X015790Y025567D02*
X015932Y025567D01*
X016082Y025567D01*
X016082Y025570D02*
X015932Y025570D01*
X015790Y025570D01*
X015790Y025572D02*
X015932Y025572D01*
X016082Y025572D01*
X016082Y025575D02*
X015932Y025575D01*
X015790Y025575D01*
X015790Y025577D02*
X015932Y025577D01*
X016082Y025577D01*
X016084Y025579D02*
X015932Y025579D01*
X015790Y025579D01*
X015790Y025648D02*
X015932Y025648D01*
X015932Y025650D02*
X015790Y025650D01*
X015790Y025653D02*
X015932Y025653D01*
X015932Y025655D02*
X015790Y025655D01*
X015790Y025657D02*
X015932Y025657D01*
X015932Y025660D02*
X015790Y025660D01*
X015790Y025662D02*
X015932Y025662D01*
X015932Y025665D02*
X015790Y025665D01*
X015790Y025667D02*
X015932Y025667D01*
X015932Y025670D02*
X015790Y025670D01*
X015790Y025672D02*
X015932Y025672D01*
X015932Y025674D02*
X015790Y025674D01*
X015790Y025677D02*
X015932Y025677D01*
X015932Y025679D02*
X015790Y025679D01*
X015790Y025682D02*
X015932Y025682D01*
X015932Y025684D02*
X015790Y025684D01*
X015790Y025687D02*
X015932Y025687D01*
X015932Y025689D02*
X015790Y025689D01*
X015790Y025692D02*
X015932Y025692D01*
X015932Y025694D02*
X015790Y025694D01*
X015790Y025696D02*
X015932Y025696D01*
X015932Y025699D02*
X015790Y025699D01*
X015790Y025701D02*
X015932Y025701D01*
X015932Y025704D02*
X015790Y025704D01*
X015790Y025706D02*
X015932Y025706D01*
X015932Y025709D02*
X015790Y025709D01*
X015790Y025711D02*
X015932Y025711D01*
X015932Y025713D02*
X015790Y025713D01*
X015790Y025716D02*
X015932Y025716D01*
X015932Y025718D02*
X015790Y025718D01*
X015790Y025721D02*
X015932Y025721D01*
X015932Y025723D02*
X015790Y025723D01*
X015790Y025726D02*
X015932Y025726D01*
X015932Y025728D02*
X015790Y025728D01*
X015790Y025731D02*
X015932Y025731D01*
X015932Y025733D02*
X015790Y025733D01*
X015790Y025735D02*
X015932Y025735D01*
X015932Y025738D02*
X015790Y025738D01*
X015790Y025740D02*
X015932Y025740D01*
X015932Y025743D02*
X015790Y025743D01*
X015790Y025745D02*
X015932Y025745D01*
X015932Y025748D02*
X015790Y025748D01*
X015790Y025750D02*
X015932Y025750D01*
X015932Y025752D02*
X015790Y025752D01*
X015790Y025755D02*
X015932Y025755D01*
X015932Y025757D02*
X015790Y025757D01*
X015790Y025760D02*
X015932Y025760D01*
X015932Y025762D02*
X015790Y025762D01*
X015790Y025765D02*
X015932Y025765D01*
X015932Y025767D02*
X015790Y025767D01*
X015790Y025770D02*
X015932Y025770D01*
X015932Y025772D02*
X015790Y025772D01*
X016436Y025773D02*
X016436Y025639D01*
X016538Y025639D01*
X016538Y025301D01*
X016688Y025301D01*
X016688Y025639D01*
X016790Y025639D01*
X016790Y025773D01*
X016436Y025773D01*
X016436Y025772D02*
X016790Y025772D01*
X016790Y025770D02*
X016436Y025770D01*
X016436Y025767D02*
X016790Y025767D01*
X016790Y025765D02*
X016436Y025765D01*
X016436Y025762D02*
X016790Y025762D01*
X016790Y025760D02*
X016436Y025760D01*
X016436Y025757D02*
X016790Y025757D01*
X016790Y025755D02*
X016436Y025755D01*
X016436Y025752D02*
X016790Y025752D01*
X016790Y025750D02*
X016436Y025750D01*
X016436Y025748D02*
X016790Y025748D01*
X016790Y025745D02*
X016436Y025745D01*
X016436Y025743D02*
X016790Y025743D01*
X016790Y025740D02*
X016436Y025740D01*
X016436Y025738D02*
X016790Y025738D01*
X016790Y025735D02*
X016436Y025735D01*
X016436Y025733D02*
X016790Y025733D01*
X016790Y025731D02*
X016436Y025731D01*
X016436Y025728D02*
X016790Y025728D01*
X016790Y025726D02*
X016436Y025726D01*
X016436Y025723D02*
X016790Y025723D01*
X016790Y025721D02*
X016436Y025721D01*
X016436Y025718D02*
X016790Y025718D01*
X016790Y025716D02*
X016436Y025716D01*
X016436Y025713D02*
X016790Y025713D01*
X016790Y025711D02*
X016436Y025711D01*
X016436Y025709D02*
X016790Y025709D01*
X016790Y025706D02*
X016436Y025706D01*
X016436Y025704D02*
X016790Y025704D01*
X016790Y025701D02*
X016436Y025701D01*
X016436Y025699D02*
X016790Y025699D01*
X016790Y025696D02*
X016436Y025696D01*
X016436Y025694D02*
X016790Y025694D01*
X016790Y025692D02*
X016436Y025692D01*
X016436Y025689D02*
X016790Y025689D01*
X016790Y025687D02*
X016436Y025687D01*
X016436Y025684D02*
X016790Y025684D01*
X016790Y025682D02*
X016436Y025682D01*
X016436Y025679D02*
X016790Y025679D01*
X016790Y025677D02*
X016436Y025677D01*
X016436Y025674D02*
X016790Y025674D01*
X016790Y025672D02*
X016436Y025672D01*
X016436Y025670D02*
X016790Y025670D01*
X016790Y025667D02*
X016436Y025667D01*
X016436Y025665D02*
X016790Y025665D01*
X016790Y025662D02*
X016436Y025662D01*
X016436Y025660D02*
X016790Y025660D01*
X016790Y025657D02*
X016436Y025657D01*
X016436Y025655D02*
X016790Y025655D01*
X016790Y025653D02*
X016436Y025653D01*
X016436Y025650D02*
X016790Y025650D01*
X016790Y025648D02*
X016436Y025648D01*
X016436Y025645D02*
X016790Y025645D01*
X016790Y025643D02*
X016436Y025643D01*
X016436Y025640D02*
X016790Y025640D01*
X016688Y025638D02*
X016538Y025638D01*
X016538Y025635D02*
X016688Y025635D01*
X016688Y025633D02*
X016538Y025633D01*
X016538Y025631D02*
X016688Y025631D01*
X016688Y025628D02*
X016538Y025628D01*
X016538Y025626D02*
X016688Y025626D01*
X016688Y025623D02*
X016538Y025623D01*
X016538Y025621D02*
X016688Y025621D01*
X016688Y025618D02*
X016538Y025618D01*
X016538Y025616D02*
X016688Y025616D01*
X016688Y025614D02*
X016538Y025614D01*
X016538Y025611D02*
X016688Y025611D01*
X016688Y025609D02*
X016538Y025609D01*
X016538Y025606D02*
X016688Y025606D01*
X016688Y025604D02*
X016538Y025604D01*
X016538Y025601D02*
X016688Y025601D01*
X016688Y025599D02*
X016538Y025599D01*
X016538Y025596D02*
X016688Y025596D01*
X016688Y025594D02*
X016538Y025594D01*
X016538Y025592D02*
X016688Y025592D01*
X016688Y025589D02*
X016538Y025589D01*
X016538Y025587D02*
X016688Y025587D01*
X016688Y025584D02*
X016538Y025584D01*
X016538Y025582D02*
X016688Y025582D01*
X016688Y025579D02*
X016538Y025579D01*
X016538Y025577D02*
X016688Y025577D01*
X016688Y025575D02*
X016538Y025575D01*
X016538Y025572D02*
X016688Y025572D01*
X016688Y025570D02*
X016538Y025570D01*
X016538Y025567D02*
X016688Y025567D01*
X016688Y025565D02*
X016538Y025565D01*
X016538Y025562D02*
X016688Y025562D01*
X016688Y025560D02*
X016538Y025560D01*
X016538Y025557D02*
X016688Y025557D01*
X016688Y025555D02*
X016538Y025555D01*
X016538Y025553D02*
X016688Y025553D01*
X016688Y025550D02*
X016538Y025550D01*
X016538Y025548D02*
X016688Y025548D01*
X016688Y025545D02*
X016538Y025545D01*
X016538Y025543D02*
X016688Y025543D01*
X016688Y025540D02*
X016538Y025540D01*
X016538Y025538D02*
X016688Y025538D01*
X016688Y025536D02*
X016538Y025536D01*
X016538Y025533D02*
X016688Y025533D01*
X016688Y025531D02*
X016538Y025531D01*
X016538Y025528D02*
X016688Y025528D01*
X016688Y025526D02*
X016538Y025526D01*
X016538Y025523D02*
X016688Y025523D01*
X016688Y025521D02*
X016538Y025521D01*
X016538Y025519D02*
X016688Y025519D01*
X016688Y025516D02*
X016538Y025516D01*
X016538Y025514D02*
X016688Y025514D01*
X016688Y025511D02*
X016538Y025511D01*
X016538Y025509D02*
X016688Y025509D01*
X016688Y025506D02*
X016538Y025506D01*
X016538Y025504D02*
X016688Y025504D01*
X016688Y025501D02*
X016538Y025501D01*
X016538Y025499D02*
X016688Y025499D01*
X016688Y025497D02*
X016538Y025497D01*
X016538Y025494D02*
X016688Y025494D01*
X016688Y025492D02*
X016538Y025492D01*
X016538Y025489D02*
X016688Y025489D01*
X016688Y025487D02*
X016538Y025487D01*
X016538Y025484D02*
X016688Y025484D01*
X016688Y025482D02*
X016538Y025482D01*
X016538Y025480D02*
X016688Y025480D01*
X016688Y025477D02*
X016538Y025477D01*
X016538Y025475D02*
X016688Y025475D01*
X016688Y025472D02*
X016538Y025472D01*
X016538Y025470D02*
X016688Y025470D01*
X016688Y025467D02*
X016538Y025467D01*
X016538Y025465D02*
X016688Y025465D01*
X016688Y025462D02*
X016538Y025462D01*
X016538Y025460D02*
X016688Y025460D01*
X016688Y025458D02*
X016538Y025458D01*
X016538Y025455D02*
X016688Y025455D01*
X016688Y025453D02*
X016538Y025453D01*
X016538Y025450D02*
X016688Y025450D01*
X016688Y025448D02*
X016538Y025448D01*
X016538Y025445D02*
X016688Y025445D01*
X016688Y025443D02*
X016538Y025443D01*
X016538Y025441D02*
X016688Y025441D01*
X016688Y025438D02*
X016538Y025438D01*
X016538Y025436D02*
X016688Y025436D01*
X016688Y025433D02*
X016538Y025433D01*
X016538Y025431D02*
X016688Y025431D01*
X016688Y025428D02*
X016538Y025428D01*
X016538Y025426D02*
X016688Y025426D01*
X016688Y025423D02*
X016538Y025423D01*
X016538Y025421D02*
X016688Y025421D01*
X016688Y025419D02*
X016538Y025419D01*
X016538Y025416D02*
X016688Y025416D01*
X016688Y025414D02*
X016538Y025414D01*
X016538Y025411D02*
X016688Y025411D01*
X016688Y025409D02*
X016538Y025409D01*
X016538Y025406D02*
X016688Y025406D01*
X016688Y025404D02*
X016538Y025404D01*
X016538Y025402D02*
X016688Y025402D01*
X016688Y025399D02*
X016538Y025399D01*
X016538Y025397D02*
X016688Y025397D01*
X016688Y025394D02*
X016538Y025394D01*
X016538Y025392D02*
X016688Y025392D01*
X016688Y025389D02*
X016538Y025389D01*
X016538Y025387D02*
X016688Y025387D01*
X016688Y025384D02*
X016538Y025384D01*
X016538Y025382D02*
X016688Y025382D01*
X016688Y025380D02*
X016538Y025380D01*
X016538Y025377D02*
X016688Y025377D01*
X016688Y025375D02*
X016538Y025375D01*
X016538Y025372D02*
X016688Y025372D01*
X016688Y025370D02*
X016538Y025370D01*
X016538Y025367D02*
X016688Y025367D01*
X016688Y025365D02*
X016538Y025365D01*
X016538Y025363D02*
X016688Y025363D01*
X016688Y025360D02*
X016538Y025360D01*
X016538Y025358D02*
X016688Y025358D01*
X016688Y025355D02*
X016538Y025355D01*
X016538Y025353D02*
X016688Y025353D01*
X016688Y025350D02*
X016538Y025350D01*
X016538Y025348D02*
X016688Y025348D01*
X016688Y025345D02*
X016538Y025345D01*
X016538Y025343D02*
X016688Y025343D01*
X016688Y025341D02*
X016538Y025341D01*
X016538Y025338D02*
X016688Y025338D01*
X016688Y025336D02*
X016538Y025336D01*
X016538Y025333D02*
X016688Y025333D01*
X016688Y025331D02*
X016538Y025331D01*
X016538Y025328D02*
X016688Y025328D01*
X016688Y025326D02*
X016538Y025326D01*
X016538Y025324D02*
X016688Y025324D01*
X016688Y025321D02*
X016538Y025321D01*
X016538Y025319D02*
X016688Y025319D01*
X016688Y025316D02*
X016538Y025316D01*
X016538Y025314D02*
X016688Y025314D01*
X016688Y025311D02*
X016538Y025311D01*
X016538Y025309D02*
X016688Y025309D01*
X016688Y025306D02*
X016538Y025306D01*
X016538Y025304D02*
X016688Y025304D01*
X016688Y025302D02*
X016538Y025302D01*
D16*
X016876Y025710D02*
X016876Y025809D01*
X016844Y025809D02*
X016909Y025809D01*
X016952Y025809D02*
X016985Y025776D01*
X017018Y025809D01*
X017018Y025710D01*
X016952Y025710D02*
X016952Y025809D01*
M02*
