G75*
%MOIN*%
%OFA0B0*%
%FSLAX24Y24*%
%IPPOS*%
%LPD*%
%AMOC8*
5,1,8,0,0,1.08239X$1,22.5*
%
%ADD10C,0.0000*%
D10*
X001179Y007631D02*
X000179Y008631D01*
X000179Y027631D01*
X001179Y028631D01*
X022179Y028631D01*
X022679Y028131D01*
X022679Y023631D01*
X023679Y022631D01*
X023679Y009631D01*
X022679Y008631D01*
X022679Y007631D01*
X001179Y007631D01*
X022029Y010631D02*
X022031Y010681D01*
X022037Y010731D01*
X022047Y010781D01*
X022060Y010829D01*
X022077Y010877D01*
X022098Y010923D01*
X022122Y010967D01*
X022150Y011009D01*
X022181Y011049D01*
X022215Y011086D01*
X022252Y011121D01*
X022291Y011152D01*
X022332Y011181D01*
X022376Y011206D01*
X022422Y011228D01*
X022469Y011246D01*
X022517Y011260D01*
X022566Y011271D01*
X022616Y011278D01*
X022666Y011281D01*
X022717Y011280D01*
X022767Y011275D01*
X022817Y011266D01*
X022865Y011254D01*
X022913Y011237D01*
X022959Y011217D01*
X023004Y011194D01*
X023047Y011167D01*
X023087Y011137D01*
X023125Y011104D01*
X023160Y011068D01*
X023193Y011029D01*
X023222Y010988D01*
X023248Y010945D01*
X023271Y010900D01*
X023290Y010853D01*
X023305Y010805D01*
X023317Y010756D01*
X023325Y010706D01*
X023329Y010656D01*
X023329Y010606D01*
X023325Y010556D01*
X023317Y010506D01*
X023305Y010457D01*
X023290Y010409D01*
X023271Y010362D01*
X023248Y010317D01*
X023222Y010274D01*
X023193Y010233D01*
X023160Y010194D01*
X023125Y010158D01*
X023087Y010125D01*
X023047Y010095D01*
X023004Y010068D01*
X022959Y010045D01*
X022913Y010025D01*
X022865Y010008D01*
X022817Y009996D01*
X022767Y009987D01*
X022717Y009982D01*
X022666Y009981D01*
X022616Y009984D01*
X022566Y009991D01*
X022517Y010002D01*
X022469Y010016D01*
X022422Y010034D01*
X022376Y010056D01*
X022332Y010081D01*
X022291Y010110D01*
X022252Y010141D01*
X022215Y010176D01*
X022181Y010213D01*
X022150Y010253D01*
X022122Y010295D01*
X022098Y010339D01*
X022077Y010385D01*
X022060Y010433D01*
X022047Y010481D01*
X022037Y010531D01*
X022031Y010581D01*
X022029Y010631D01*
X002029Y027631D02*
X002031Y027681D01*
X002037Y027731D01*
X002047Y027781D01*
X002060Y027829D01*
X002077Y027877D01*
X002098Y027923D01*
X002122Y027967D01*
X002150Y028009D01*
X002181Y028049D01*
X002215Y028086D01*
X002252Y028121D01*
X002291Y028152D01*
X002332Y028181D01*
X002376Y028206D01*
X002422Y028228D01*
X002469Y028246D01*
X002517Y028260D01*
X002566Y028271D01*
X002616Y028278D01*
X002666Y028281D01*
X002717Y028280D01*
X002767Y028275D01*
X002817Y028266D01*
X002865Y028254D01*
X002913Y028237D01*
X002959Y028217D01*
X003004Y028194D01*
X003047Y028167D01*
X003087Y028137D01*
X003125Y028104D01*
X003160Y028068D01*
X003193Y028029D01*
X003222Y027988D01*
X003248Y027945D01*
X003271Y027900D01*
X003290Y027853D01*
X003305Y027805D01*
X003317Y027756D01*
X003325Y027706D01*
X003329Y027656D01*
X003329Y027606D01*
X003325Y027556D01*
X003317Y027506D01*
X003305Y027457D01*
X003290Y027409D01*
X003271Y027362D01*
X003248Y027317D01*
X003222Y027274D01*
X003193Y027233D01*
X003160Y027194D01*
X003125Y027158D01*
X003087Y027125D01*
X003047Y027095D01*
X003004Y027068D01*
X002959Y027045D01*
X002913Y027025D01*
X002865Y027008D01*
X002817Y026996D01*
X002767Y026987D01*
X002717Y026982D01*
X002666Y026981D01*
X002616Y026984D01*
X002566Y026991D01*
X002517Y027002D01*
X002469Y027016D01*
X002422Y027034D01*
X002376Y027056D01*
X002332Y027081D01*
X002291Y027110D01*
X002252Y027141D01*
X002215Y027176D01*
X002181Y027213D01*
X002150Y027253D01*
X002122Y027295D01*
X002098Y027339D01*
X002077Y027385D01*
X002060Y027433D01*
X002047Y027481D01*
X002037Y027531D01*
X002031Y027581D01*
X002029Y027631D01*
M02*
